<svg width="338" height="432" viewBox="0 0 338 432" fill="none" xmlns="http://www.w3.org/2000/svg">
<path d="M77.7616 127.762C80.8951 131.683 84.5884 134.674 88.5557 137.701C88.8476 137.923 89.2347 137.424 88.9504 137.19C82.0133 131.457 76.0317 123.469 72.1278 115.387C68.5005 107.88 66.4661 99.6252 66.1069 91.3021C73.7244 93.9775 76.0964 103.014 78.9216 109.776C80.4255 113.377 82.3508 116.62 85.2801 119.241C86.9109 120.7 88.6992 121.997 90.2006 123.593C90.4874 123.898 90.745 124.207 90.99 124.521C91.2527 126.522 91.4723 128.532 91.7946 130.536C91.9482 131.491 93.164 131.59 93.7618 131.029C93.9192 130.966 94.0575 130.838 94.1362 130.615C95.682 126.211 97.0362 121.86 99.275 117.732C101.548 113.543 104.349 109.638 107.588 106.141C113.303 99.9705 120.769 94.4331 128.912 91.8593C127.888 100.946 120.144 106.957 115.443 114.325C111.566 120.401 110.538 129.367 105.036 134.226C102.78 135.19 100.472 136.041 98.1404 136.952C97.4335 137.229 97.4487 138.425 98.3333 138.381C98.7077 138.364 99.0796 138.333 99.4527 138.296C99.5111 138.327 99.5796 138.341 99.657 138.323C99.7979 138.291 99.9375 138.258 100.077 138.227C101.789 138.015 103.484 137.621 105.146 137.072C111.677 135.612 118.075 134.419 124.986 134.719C132.271 135.033 139.416 136.535 146.169 139.197C142.45 140.724 138.591 139.769 134.772 138.837C131.024 137.923 127.431 137.465 123.727 138.812C120.271 140.068 117.291 142.256 114.118 144.061C112.332 145.077 110.455 145.982 108.466 146.524C106.093 147.172 104.116 146.974 101.745 146.533C101.526 146.493 101.346 146.815 101.581 146.922C101.948 147.089 102.329 147.217 102.717 147.316C102.204 147.278 101.69 147.244 101.176 147.217C100.736 147.194 100.509 147.903 100.94 148.087C101.648 148.39 102.376 148.654 103.112 148.899C103.131 149.126 103.26 149.348 103.522 149.438C107.655 150.87 111.889 151.722 115.924 153.487C119.486 155.045 122.894 156.972 126.085 159.196C132.363 163.572 137.699 169.176 141.769 175.639C141.372 175.653 140.974 175.665 140.578 175.667C136.682 169.713 129.228 166.991 122.569 165.308C116.508 163.777 110.294 162.544 105.026 159.523C102.306 157.147 99.6964 154.589 96.7151 152.576C96.3445 152.326 95.8331 152.827 96.0907 153.2C98.7153 156.976 102.348 160.205 105.763 163.253C109.377 166.479 113.297 169.49 117.498 171.912C125.582 176.577 134.804 179.3 144.178 178.307C145.201 178.199 145.989 177.18 145.396 176.183C140.927 168.674 134.891 162.24 127.651 157.338C124.076 154.916 119.837 152.512 115.405 150.785C119.139 150.836 122.87 150.517 126.349 150.02C135.328 148.736 144.131 145.77 151.829 140.948C152.756 140.368 152.982 138.704 151.829 138.183C143.541 134.445 134.564 132.354 125.458 132.272C121.488 132.236 117.25 132.481 113.094 133.179C117.637 130.217 121.624 126.299 124.596 122.244C131.357 113.017 133.927 101.148 131.824 89.939C131.727 89.4238 131.023 88.9999 130.525 89.2017C121.363 92.9343 113.141 97.5591 106.337 104.886C101.579 110.009 97.1149 116.49 94.6299 123.372C94.1185 116.345 90.8161 109.111 87.1267 103.673C81.7861 95.7987 74.1039 89.5697 64.9748 86.7141C64.0852 86.4362 63.1003 87.1939 63.1282 88.1203C63.4214 97.8459 65.8379 107.309 70.2355 115.991C72.3474 120.167 74.8425 124.11 77.7616 127.762ZM107.252 161.394C111.251 163.135 115.683 164.144 119.687 165.081C127.251 166.847 135.493 169.189 140.165 175.664C132.357 175.583 124.832 172.996 118.067 169.023C114.245 166.779 110.694 164.174 107.252 161.394ZM113.995 148.207C111.101 148.162 108.238 147.833 105.37 147.555C107.608 147.433 109.911 146.628 111.781 145.779C115.681 144.009 119.047 141.246 123.015 139.607C125.137 138.73 127.354 138.258 129.659 138.406C132.043 138.558 134.342 139.248 136.658 139.781C139.885 140.525 143.612 141.025 146.644 139.39C146.936 139.508 147.226 139.626 147.517 139.748C140.963 143.369 133.975 146.015 126.547 147.277C122.409 147.978 118.189 148.273 113.995 148.207ZM122.781 120.198C119.867 124.355 116.104 127.869 111.871 130.655C110.346 131.659 108.773 132.504 107.169 133.265C111.385 128.6 112.515 120.782 115.612 115.547C120.337 107.56 128.73 101.323 129.716 91.6143C129.777 91.5966 129.838 91.5813 129.897 91.5648C130.933 101.625 128.634 111.852 122.781 120.198ZM84.4894 106.146C86.8589 109.834 88.6573 113.844 89.7982 118.077C90.2729 119.84 90.5813 121.62 90.8351 123.408C89.514 122.074 87.9669 120.917 86.6431 119.877C84.7026 118.354 82.993 116.713 81.6604 114.622C80.3887 112.628 79.4419 110.447 78.5751 108.253C76.0596 101.887 73.3208 93.3594 66.1006 91.1549C66.0892 90.8795 66.0803 90.6053 66.0727 90.3299C73.5848 93.7148 80.0181 99.1874 84.4894 106.146Z" fill="white"/>
<path d="M176.956 406.765C173.239 395.274 163.094 387.598 152.093 383.488C155.355 383.656 158.613 383.422 161.684 382.255C165.7 380.729 169.192 377.678 170.294 373.415C170.388 373.052 169.922 372.895 169.719 373.173C164.164 380.796 154.334 383.757 145.36 381.437L145.358 381.437C138.525 379.765 131.584 379.113 124.608 378.966C126.704 378.25 128.766 377.425 130.779 376.477C134.541 374.707 138.679 372.511 140.688 368.671C142.31 365.572 142.229 361.892 139.907 359.219C139.367 358.599 138.349 358.967 138.139 359.687C136.318 365.899 132.039 371.061 126.715 374.723C124.15 376.489 121.314 377.89 118.342 378.824C118.186 378.874 118.029 378.918 117.869 378.96C113.089 379.04 108.305 379.267 103.54 379.479C95.037 379.856 86.13 380.169 77.4833 379.157C75.6253 378.584 73.6796 378.286 71.7277 378.264C66.8567 377.307 62.1189 375.825 57.6426 373.572C45.13 367.277 37.2346 355.157 35.8106 341.279C35.1494 334.829 35.8563 328.253 38.0583 322.145C40.6474 314.964 45.4397 309.554 50.9719 304.444C56.6184 299.229 62.6786 293.868 65.2423 286.376C67.2818 280.416 66.4302 272.836 61.3689 268.59C57.4903 265.338 51.1268 264.962 47.1454 268.257C43.0232 271.667 43.437 278.042 47.5896 281.291C49.388 282.698 51.4745 283.116 53.6562 282.438C54.3314 282.229 54.1004 281.375 53.4912 281.334C53.4785 281.204 53.4277 281.07 53.3084 280.946C50.9541 278.48 49.5403 274.506 52.3769 271.726C53.58 270.547 55.3569 270.056 57.0118 270.219C58.5551 270.37 59.6936 271.237 61.0021 271.894C62.1989 273.369 63.053 275.185 63.4312 277.142C65.9378 290.146 52.7259 298.311 44.3431 306.709C44.4155 306.379 44.4751 306.044 44.5195 305.702C45.0056 301.97 43.6616 297.499 40.028 295.811C38.9784 295.324 38.1192 296.48 38.8261 297.368C40.7705 299.817 40.2729 305.146 39.8376 308.023C39.5965 309.615 39.2132 311.17 38.6637 312.686C38.5571 312.98 38.4314 313.27 38.3007 313.557C25.1624 326.644 15.3924 343.264 12.6016 361.8C10.8438 373.472 11.9187 385.817 16.1666 396.835C16.3138 398.567 16.2631 400.287 15.909 401.895C15.8925 401.928 15.8798 401.961 15.862 401.994C15.0637 403.474 13.7336 404.635 12.0964 405.079C9.00985 405.919 6.39793 403.763 6.37509 400.881C7.33456 399.678 6.40936 397.43 4.64524 398.077C1.13221 399.367 -0.661108 403.078 0.223489 406.72C1.25659 410.97 5.59837 412.892 9.66982 412.144C14.2502 411.303 17.1388 407.239 17.9219 402.856C18.0145 402.338 18.0691 401.833 18.1072 401.333C21.1798 407.682 25.4073 413.454 30.8685 418.222C45.1731 430.712 66.9049 435.761 84.1108 426.145C92.9188 421.221 99.3572 412.15 98.7848 401.756C98.3317 393.523 92.8832 385.91 84.9662 383.637C84.8913 383.529 84.8038 383.422 84.6946 383.321C84.5525 383.186 84.4002 383.066 84.2542 382.935C92.4746 383.349 100.76 382.96 108.41 382.581C110.488 382.478 112.645 382.384 114.857 382.318C119.859 383.468 124.473 385.645 127.89 389.867C130.977 393.678 132.518 399.019 130.931 403.783C129.512 408.044 125.248 411.435 120.683 411.378C118.07 411.345 115.003 409.954 114.156 407.282C113.261 404.462 116.021 401.567 118.853 402.713C119.136 402.828 119.268 402.402 119.048 402.249C117.399 401.093 115.293 402.041 114.173 403.507C112.837 405.254 113.105 407.496 114.42 409.176C117.571 413.207 123.587 412.567 127.308 409.789C131.582 406.598 133.015 401.201 131.741 396.133C130.323 390.494 125.997 386.252 120.852 383.818C119.537 383.196 118.183 382.687 116.802 382.27C137.163 381.836 161.551 384.167 171.938 403.441C175.472 410 176.154 418.484 170.709 424.234C166.153 429.047 159.2 429.352 154.918 424.082C151.021 419.287 150.801 411.592 156.888 408.423C157.248 408.235 157.62 408.088 157.996 407.965C159.552 408.565 160.815 409.766 161.145 411.509C161.458 413.162 160.681 415.01 159.387 416.16C159.307 416.163 159.228 416.166 159.148 416.166C159.061 416.165 159.035 416.31 159.127 416.324C159.147 416.328 159.169 416.328 159.19 416.33C159.151 416.362 159.109 416.39 159.068 416.42C158.397 416.084 157.677 417.083 158.261 417.627C161.829 420.955 167.95 418.597 168.935 413.952C170.269 407.661 163.457 403.108 157.811 404.481C144.662 407.681 146.968 425.759 157.605 430.469C163.305 432.993 169.719 430.637 173.638 426.075C178.257 420.702 179.098 413.387 176.956 406.765ZM46.5439 275.988C45.7329 272.699 47.7077 269.876 50.7828 268.798C50.9643 268.735 51.1458 268.678 51.3273 268.626C49.7713 269.594 48.5783 271.113 48.1747 272.963C47.7292 275.007 48.3067 277.411 49.7332 278.999C50.1102 279.866 50.6661 280.627 51.3933 281.224C49.0009 280.635 47.1378 278.398 46.5439 275.988ZM51.1128 270.462C49.4464 272.14 48.7826 274.934 49.2484 277.405C48.558 276.115 48.2572 274.666 48.6049 273.082C49.1164 270.749 50.9897 268.909 53.2488 268.29C54.0636 268.235 54.8555 268.296 55.6145 268.46C53.8148 268.733 52.0989 269.47 51.1128 270.462ZM65.0481 399.604C65.5989 403.838 68.7198 407.6 72.6021 409.538C66.9341 407.696 62.393 403.003 61.9463 396.506C61.6404 392.049 63.4363 387.689 67.1333 385.091C68.7566 383.95 70.6362 383.176 72.5932 382.85C74.4894 382.534 76.1456 382.835 77.9097 383.233C70.4128 384.614 64.0112 391.629 65.0481 399.604ZM69.4597 382.996C66.2792 384.304 63.6318 386.759 62.2826 389.942C59.2354 397.124 62.6976 405.632 69.5485 409.093C71.9955 410.33 74.596 410.906 77.2244 410.877C78.491 410.986 79.764 410.88 80.9963 410.525C79.0266 411.444 76.7459 412.076 74.8143 412.402C71.7873 412.915 68.6677 412.678 65.7817 411.603C59.8966 409.409 56.3138 403.755 56.1958 397.569C56.0803 391.488 59.1973 385.726 64.8666 383.217C67.6156 381.999 70.6057 381.616 73.4981 381.978C72.0551 382.131 70.6451 382.507 69.4597 382.996ZM40.9291 309.675C41.0256 309.16 41.1068 308.664 41.1741 308.208C41.4418 306.412 41.5282 304.591 41.4088 302.779C41.3251 301.512 40.9469 300.189 40.7083 298.888C43.7695 301.983 42.9648 305.97 40.9291 309.675ZM35.7218 372.157C33.5807 369.958 30.6451 369.831 28.1969 370.99C30.6984 368.781 34.6011 368.038 37.8679 368.911C42.9153 370.257 46.1009 374.859 46.2126 379.998C46.3256 385.183 43.3138 389.743 38.8071 392.168C33.9411 394.786 28.1132 394.482 23.2701 391.969C20.1391 390.344 17.4675 387.901 15.7427 384.93C15.3201 382.758 15.0104 380.563 14.8086 378.357C17.9511 385.604 27.4113 390.056 34.4818 384.426C38.1471 381.506 39.1739 375.702 35.7218 372.157ZM13.2349 406.941C11.1979 408.97 7.42214 409.912 4.9765 408.07C2.88999 406.499 2.8278 402.435 5.57298 401.452C5.65928 401.421 5.7329 401.379 5.81033 401.34C5.76844 403.9 8.65196 406.098 11.2118 405.89C12.7412 405.766 14.1614 405.007 15.2706 403.905C14.7997 405.016 14.1372 406.042 13.2349 406.941ZM93.3515 412.038C89.4096 419.948 81.254 424.833 72.8661 426.777C56.7072 430.521 39.3071 423.464 28.4482 411.369C22.27 404.488 18.2582 396.022 16.1945 387.052C17.7696 389.1 19.7774 390.839 21.9121 392.085C26.9252 395.013 33.1213 395.676 38.434 393.149C43.456 390.76 46.9551 385.839 46.8967 380.196C46.8408 374.848 43.6451 369.941 38.4111 368.411C34.3219 367.215 28.9952 368.465 26.6054 371.98C25.9455 372.505 25.3553 373.129 24.8806 373.843C24.3362 374.659 24.7195 375.407 25.3591 375.803C25.3591 375.817 25.3566 375.83 25.3566 375.844C25.3502 376.015 25.5406 376.042 25.637 375.948C26.4303 376.283 27.4342 376.111 27.6601 375.014C28.0738 373.006 30.4675 372.299 32.295 372.829C34.2039 373.381 35.1925 375.227 35.2877 377.103C35.506 381.359 31.6909 384.073 27.7933 384.481C21.294 385.158 15.6843 379.563 14.5408 373.429C14.4596 369.157 14.7718 364.893 15.4661 360.74C18.1503 344.677 26.3211 330.168 36.6292 317.646C29.4559 332.777 31.6694 352.105 42.1069 365.248C47.9704 372.632 55.5891 377.073 64.0112 379.681C63.8297 379.752 63.6457 379.814 63.4668 379.891C56.56 382.847 52.5038 389.768 52.5 397.195C52.4962 404.62 56.5245 411.564 63.4591 414.477C66.9658 415.949 70.838 416.375 74.5909 415.778C76.4362 415.485 78.2194 414.873 79.8693 413.992C81.7502 412.988 82.5472 411.832 83.8938 410.305C84.1895 409.97 84.0258 409.451 83.7009 409.269C83.8278 409.184 83.9573 409.105 84.0829 409.012C85.2619 408.15 84.2745 406.465 82.9432 407.063C75.8372 410.25 66.6879 404.54 67.971 396.431C69.4178 387.277 79.8998 383.498 87.4779 387.871C96.1259 392.86 97.5664 403.579 93.3515 412.038ZM169.078 374.982C167.52 378.455 164.202 380.898 160.59 382.076C157.754 383.001 154.781 383.184 151.804 383.066C158.323 382.968 164.828 379.893 169.078 374.982ZM139.215 362.33C141.376 368.002 134.745 372.27 129.182 374.864C133.467 371.518 136.805 367.191 139.215 362.33ZM165.829 411.67C167.068 415.444 162.658 418.527 159.422 416.639C159.567 416.559 159.704 416.47 159.839 416.376C161.991 416.372 164.012 414.836 164.475 412.667C164.775 411.267 164.292 409.614 163.314 408.466C164.442 409.142 165.351 410.213 165.829 411.67ZM161.586 407.779C163.235 408.812 164.505 410.417 164.063 412.553C163.665 414.462 162.041 415.73 160.218 416.072C160.496 415.822 160.756 415.527 161.003 415.15C161.665 414.135 161.981 412.914 161.836 411.705C161.636 410.021 160.553 408.522 159.096 407.704C159.94 407.572 160.787 407.595 161.586 407.779Z" fill="white"/>
<path d="M30.8115 213.105C30.8369 213.055 30.8204 212.99 30.776 212.966C30.4891 212.004 29.102 212.33 28.8951 213.221C27.3087 213.135 25.7374 212.275 24.9988 210.844C24.5558 209.986 24.4657 208.979 24.6523 208.038C25.014 207.776 25.3935 207.554 25.7844 207.388C31.6352 204.9 37.7462 209.328 42.4954 212.316C46.9691 215.13 51.3426 218.121 55.3278 221.604C56.4903 222.619 57.6097 223.686 58.6834 224.797C63.4884 231.994 69.1019 238.685 74.9261 245.1C95.3074 267.548 123.503 291.738 123.354 324.791C123.32 332.429 121.862 340.158 118.519 347.062C115.201 353.917 110.358 358.966 104.297 363.405C89.1101 370.969 69.1171 367.314 58.5438 353.294C46.0261 336.694 49.6838 311.305 67.8607 300.426C76.6432 295.169 87.4209 294.553 96.4649 299.542C101.47 302.303 105.452 306.505 107.655 311.509C107.409 311.653 107.241 311.914 107.262 312.308C107.444 315.949 107.603 319.568 106.005 322.951C104.411 326.325 101.486 329.201 97.833 330.21C93.7134 331.349 89.2091 329.897 86.0807 327.105C84.6516 325.829 83.4586 324.274 82.6349 322.543C81.9014 321.004 81.716 319.364 81.3099 317.764C83.3951 316.883 82.4674 313.438 80.2857 314.274C72.7025 317.18 69.1565 325.87 71.1745 333.546C73.4945 342.368 83.0778 346.928 91.6649 346.096C110.881 344.237 119.048 319.906 108.312 305.139C102.855 297.632 93.9329 292.949 84.6948 292.419C84.4067 292.402 84.1198 292.405 83.8317 292.396C84.8001 290.313 84.8458 287.244 84.6846 285.513C84.3368 281.777 82.6743 278.398 79.8821 275.893C79.2057 275.286 78.151 275.708 78.1117 276.627C77.8286 283.312 74.9895 289.891 70.5221 294.996C66.0598 296.885 61.9642 299.695 58.5629 303.1C44.5108 317.17 43.8711 340.765 56.0601 356.229C68.3151 371.779 91.8998 375.737 108.688 365.407C124.778 355.506 132.051 335.911 132.99 317.792C134.109 296.187 126.685 273.903 114.093 256.466C109.338 249.879 103.73 244.179 97.7874 238.824C105.301 243.262 113.172 247.073 120.831 251.247C124.791 253.406 128.724 255.625 132.534 258.041C136.488 260.55 140.842 263.24 143.274 267.38C144.35 269.212 144.921 271.573 144.756 273.753C144.085 275.09 142.919 276.096 141.222 276.129C138.928 276.175 137.159 274.062 137.058 271.889C137.702 271.423 137.129 270.324 136.328 270.514C130.789 271.832 131.604 280.231 136.313 282.111C139.323 283.311 142.913 282.177 145.165 279.97C147.908 277.28 148.35 273.082 147.371 269.526C145.052 261.11 135.584 256.309 128.588 252.298C120.477 247.648 111.973 243.726 103.704 239.371C98.4651 236.611 93.1245 233.739 88.0745 230.467C86.1149 228.829 84.149 227.196 82.1933 225.551C83.2746 226.143 84.3851 226.679 85.5362 227.126C90.1432 228.915 95.8608 229.033 99.6365 225.412C102.637 222.535 103.558 217.824 100.587 214.588C98.1402 211.923 92.7285 211.221 91.2258 215.326C90.6395 216.931 91.2982 219.017 92.9659 219.673C94.6462 220.333 96.5487 219.086 96.5665 217.294C96.569 217.038 96.1984 217.047 96.1755 217.294C95.9979 219.247 93.5332 219.998 92.2577 218.544C91.3642 217.526 91.3388 216.017 92.0394 214.9C93.4583 212.64 96.5081 212.471 98.6339 213.725C103.284 216.466 102.393 222.506 98.6275 225.567C94.2769 229.106 88.0707 227.97 83.4459 225.646C82.2872 225.065 81.1551 224.417 80.0408 223.731C74.1595 218.726 68.4293 213.557 63.3133 207.737C56.0588 199.484 49.8806 189.536 48.2967 178.48C47.671 174.114 47.7522 169.512 48.6165 165.081C48.8691 164.204 49.1394 163.328 49.4389 162.456C49.4897 162.307 49.4275 162.179 49.3234 162.097C50.5316 157.831 52.5217 153.821 55.3938 150.455C62.2485 142.42 76.1838 137.712 84.1782 146.895C85.9969 148.983 87.1138 151.555 87.3118 154.144C85.323 157.037 81.7161 158.726 78.2119 157.843C74.8728 157.001 72.7063 154.19 71.8268 151.011C71.9766 150.877 72.1263 150.744 72.2926 150.621C72.9843 150.11 72.3484 148.945 71.6022 149.439C71.4664 149.53 71.3382 149.625 71.21 149.72C70.7429 149.542 70.0766 149.82 70.0995 150.431C70.1033 150.52 70.1147 150.602 70.1198 150.69C66.24 154.794 67.0662 162.145 71.441 165.772C77.868 171.1 87.5161 165.89 89.9694 158.893C93.0813 150.017 85.7609 140.733 77.288 138.68C70.0081 136.915 62.4414 139.392 56.6705 143.977C57.7684 135.182 54.8227 126.058 49.4808 119.089C49.1749 118.689 48.4299 118.506 48.1647 119.089C44.4245 127.323 46.3028 139.996 54.777 144.791C54.7668 144.892 54.7617 144.992 54.7516 145.093C54.7326 145.27 54.7744 145.424 54.8531 145.55C53.9152 146.429 53.037 147.364 52.2336 148.348C47.8613 153.708 45.436 159.849 44.5577 166.232C44.427 165.85 44.29 165.469 44.1453 165.091C44.4131 165.002 44.5539 164.605 44.2354 164.457C44.0894 164.389 43.9498 164.311 43.8051 164.242C42.7758 161.755 41.4369 159.36 39.7299 157.011C35.6546 151.402 30.3051 147.027 23.9758 144.193C23.2194 143.854 22.5252 144.407 22.6483 145.213C24.3325 156.284 32.8193 165.546 43.7176 168.137C43.748 168.144 43.7759 168.144 43.8051 168.148C43.9587 168.535 44.1059 168.924 44.2481 169.316C44.0831 172.041 44.1884 174.793 44.5273 177.534C43.6135 187.083 45.4614 196.939 48.8373 205.954C50.4111 210.157 52.3389 214.169 54.5206 218.034C53.4063 217.11 52.2653 216.22 51.1028 215.357C47.7154 212.841 44.1668 210.528 40.5688 208.326C37.0481 206.171 33.1937 204.112 28.937 204.292C28.1374 204.327 27.3302 204.473 26.5408 204.709C26.4977 204.676 26.4418 204.66 26.3745 204.685C26.1804 204.752 26.0027 204.844 25.8326 204.947C21.1837 206.696 17.5298 211.645 20.9349 216.498C23.8591 220.672 31.752 218.545 30.8115 213.105ZM83.9917 329.192C87.6252 332.679 92.6727 334.697 97.7125 333.746C101.083 333.11 104.095 331.233 106.376 328.697C105.56 330.295 104.477 331.76 103.052 333.044C99.8256 335.952 95.475 337.198 91.1878 336.627C82.8532 335.517 77.3362 327.889 78.0571 319.848C78.316 319.6 78.5889 319.368 78.8731 319.148C78.8884 322.85 81.5803 326.879 83.9917 329.192ZM92.5356 342.211C83.4954 343.6 73.4386 337.791 74.4108 327.733C74.6811 324.936 75.817 322.175 77.7372 320.169C77.0697 326.149 79.9659 332.362 85.3027 335.391C91.4886 338.903 99.5071 337.884 104.439 332.717C106.165 330.91 107.592 328.596 108.305 326.125C108.457 325.876 108.604 325.625 108.744 325.37C108.894 325.096 109.038 324.814 109.177 324.528C107.635 333.037 101.392 340.851 92.5356 342.211ZM82.5867 286.268C82.659 287.808 82.4674 289.35 81.9838 290.816C81.7744 291.45 81.5143 291.933 81.3366 292.428C80.4469 292.478 79.5623 292.574 78.6828 292.702C80.5434 288.517 81.0129 283.79 80.1499 279.311C81.6132 281.324 82.4674 283.711 82.5867 286.268ZM79.9519 279.057C79.957 279.063 79.9621 279.068 79.9659 279.075C80.7007 283.814 79.9748 288.464 77.9873 292.811C76.5036 293.061 75.039 293.415 73.6023 293.868C76.9796 289.709 79.2031 284.635 79.9519 279.057ZM139.541 279.836C134.765 280.618 132.682 274.413 136.653 272.121C136.74 274.399 138.447 276.544 140.847 276.74C142.158 276.846 143.515 276.272 144.494 275.332C143.897 277.567 142.35 279.377 139.541 279.836ZM85.856 158.619C85.2278 159.447 84.4866 160.177 83.5094 160.769C81.5663 161.946 79.1689 162.418 76.9542 161.82C74.7865 161.234 73.0033 159.649 71.9144 157.713C71.224 156.486 70.9168 155.266 70.8356 154.006C73.1772 159.798 80.5408 161.607 85.856 158.619ZM71.2595 162.178C69.3494 159.523 68.8316 155.759 70.3267 152.922C69.8279 156.892 72.931 161.264 76.6039 162.403C79.707 163.366 83.9764 162.129 86.2546 159.509C85.8421 160.31 85.3179 161.079 84.6503 161.792C81.0789 165.603 74.6697 166.921 71.2595 162.178ZM48.5556 133.545C47.3981 129.415 47.5301 125.018 49.0163 121.012C53.6842 127.538 55.3633 135.073 54.9166 142.966C54.5663 142.167 54.1614 141.387 53.8327 140.587C53.3048 139.305 52.8174 138.006 52.3643 136.696C51.4607 134.076 50.7068 131.41 50.0976 128.707C50.0773 128.619 49.9466 128.656 49.9631 128.743C50.5088 131.549 51.1916 134.325 52.0546 137.05C52.6296 138.867 53.1854 140.93 54.0066 142.762C51.5736 140.069 49.5836 137.212 48.5556 133.545ZM24.7158 146.584C31.6479 150.24 37.42 156.051 41.3011 162.918C37.1687 160.531 33.5656 157.4 30.559 153.631C30.5031 153.56 30.38 153.654 30.4333 153.729C33.4222 157.995 37.3895 161.514 41.923 164.056C42.2999 164.773 42.6553 165.499 42.9916 166.237C33.8004 163.564 26.702 155.916 24.7158 146.584ZM46.8803 187.759C48.4198 192.328 50.552 196.707 53.1372 200.682C65.7374 220.06 86.2825 231.701 102.062 248.073C117.679 264.276 127.472 285.924 129.048 308.404C129.759 318.535 128.521 329.491 124.739 339.275C125.152 337.792 125.497 336.314 125.771 334.855C126.703 329.897 126.899 324.943 126.484 320.056C126.496 315.134 126.093 310.208 125.266 305.34C123.319 293.879 118.916 283.066 112.838 273.191C101.524 254.811 85.5324 240.02 71.2125 224.073C63.0125 214.942 55.2377 205.327 49.1711 194.62C49.1584 194.599 49.1254 194.618 49.1369 194.64C59.3155 213.475 74.8233 228.54 89.1761 244.151C104.028 260.307 118.164 277.894 123.412 299.68C124.499 304.193 125.206 308.787 125.544 313.407C124.211 306.632 121.778 300.039 118.576 293.797C103.235 263.888 73.3637 245.136 56.6375 216.235C51.5609 207.459 48.0492 197.716 46.8803 187.759ZM24.0063 208.569C23.9632 209.373 24.0774 210.165 24.3503 210.801C25.1435 212.65 26.9685 213.595 28.8354 213.557C28.409 216.385 24.6751 217.481 22.8844 215.191C21.1862 213.019 22.1889 210.26 24.0063 208.569Z" fill="white"/>
<path d="M94.0557 105.442C94.3007 105.637 94.6522 105.308 94.4086 105.089C94.0672 104.782 93.7359 104.466 93.4136 104.143C93.4516 104.107 93.463 104.042 93.4047 104.005C93.2854 103.929 93.1737 103.849 93.0595 103.77C91.6989 102.351 90.5224 100.806 89.5325 99.1645C87.9981 94.8608 89.2025 89.4174 90.6849 85.3015C92.4769 80.3264 94.9645 74.6355 93.9453 69.2759C99.8875 78.0216 101.749 90.7195 97.3974 100.368C97.3581 100.455 97.4837 100.533 97.5282 100.444C100.45 94.6057 102.04 88.8958 101.275 82.2796C100.56 76.0963 97.8086 70.2278 93.7588 65.5332C93.3882 65.1042 92.6381 65.1461 92.2612 65.5332C81.0558 77.0571 81.2665 95.2859 94.0557 105.442ZM92.911 67.8405C92.944 67.8836 92.9757 67.9281 93.01 67.9712C95.1701 75.1127 90.7661 82.1236 88.9931 88.9833C88.2709 91.778 88.0476 94.9293 88.7329 97.7469C83.7032 88.1152 84.8239 75.8361 92.911 67.8405Z" fill="white"/>
<path d="M129.794 121.577C135.264 109.865 148.605 104.734 160.288 109.184C155.139 109.149 150.173 111.267 146.619 115.066C142.216 119.772 139.008 126.984 131.69 127.398C131.596 127.403 131.572 127.507 131.619 127.561C131.502 127.575 131.385 127.585 131.269 127.6C131.13 127.618 131.128 127.802 131.269 127.817C134.575 128.175 138.029 127.336 141.257 126.706C144.534 126.067 147.652 125.343 150.677 123.884C156.723 120.966 161.848 115.971 165.512 110.405C165.872 109.857 165.634 109.011 165.065 108.703C151.67 101.455 135 107.033 128.744 120.962C128.428 121.668 129.461 122.29 129.794 121.577ZM149.496 121.866C146.844 123.462 144.03 125.12 141.096 126.124C138.931 126.865 136.716 127.088 134.485 127.285C139.124 126.02 142.263 121.24 145.122 117.624C147.128 115.086 149.402 112.852 152.362 111.456C155.378 110.035 158.731 109.541 162.03 109.936C162.226 110.028 162.423 110.115 162.618 110.214C159.099 115.057 154.65 118.764 149.496 121.866Z" fill="white"/>
<path d="M135.874 152.489C135.571 152.616 135.697 153.116 136.012 152.992C136.294 152.881 136.576 152.779 136.859 152.678C138.201 152.596 139.499 152.563 140.868 152.795C142.541 153.078 144.169 153.637 145.723 154.313C148.64 155.586 151.323 157.325 154.179 158.722C156.126 159.674 158.269 160.465 160.442 160.838C158.333 161.179 156.188 161.359 153.973 161.305C148.201 161.163 143.479 158.483 138.403 156.127C138.11 155.991 137.764 156.353 138.035 156.604C142.188 160.454 148.364 161.861 153.771 162.796C159.3 163.752 165.219 163.341 170.42 161.118C171.512 160.652 171.18 159.194 170.42 158.645C165.139 154.832 160.319 151.456 153.741 150.282C147.707 149.207 141.499 150.137 135.874 152.489ZM167.33 159.161C165.71 159.674 164.09 160.111 162.454 160.46C158.711 160.295 154.905 158.496 151.66 156.745C148.053 154.799 143.434 152.027 139.007 152.015C143.67 150.79 148.517 150.863 153.292 151.909C158.139 152.972 163.879 155.271 167.33 159.161Z" fill="white"/>
<path d="M95.5206 169.731C95.48 169.523 95.1766 169.547 95.1233 169.731C92.3248 179.246 96.4699 191.55 101.946 199.374C102.682 200.425 104.275 200.298 104.68 199.016C106.69 192.657 107.364 185.789 106.234 179.196C105.185 173.089 102.713 165.8 98.2543 161.316C97.9282 160.987 97.4713 161.208 97.3621 161.561C97.22 161.6 97.1108 161.748 97.2149 161.908C100.841 167.524 100.945 174.136 100.846 180.605C100.786 184.509 100.692 188.663 101.512 192.559C100.114 189.839 98.9257 187.029 98.0754 184.039C96.7377 179.336 96.4509 174.496 95.5206 169.731ZM101.299 178.748C101.327 174.751 101.187 170.501 99.9905 166.626C100.686 167.897 101.342 169.189 101.88 170.563C103.057 173.566 103.765 176.715 104.124 179.917C104.705 185.09 104.349 190.177 102.885 195.093C102.746 194.847 102.605 194.601 102.468 194.354C101.092 189.306 101.261 184.042 101.299 178.748Z" fill="white"/>
<path d="M138.407 8.82655C138.261 8.46992 138.567 7.94829 138.943 7.88356C142.429 7.28578 146.635 7.03828 150.132 8.28079C149.567 7.37715 149.05 6.45195 148.588 5.52167C148.384 5.11046 148.538 4.54315 149.034 4.42766C154.592 3.12804 160.346 2.96178 165.97 3.95172C171.118 4.85789 177.726 6.72229 181.457 10.6097C181.848 11.0171 181.461 11.8789 180.859 11.6364C178.495 10.6871 176.369 9.25043 174.03 8.23256C171.508 7.13475 168.875 6.29202 166.184 5.7209C161.06 4.63197 155.814 4.61166 150.688 5.60161C152.962 10.9143 160.95 9.66672 165.426 11.7291C169.431 13.5744 173.643 17.2804 176.011 20.9926C176.02 21.0066 176.026 21.0206 176.033 21.0358C176.113 21.0967 176.199 21.1526 176.278 21.216C176.543 21.4305 176.252 21.829 175.963 21.7567C175.891 21.7389 175.818 21.7161 175.746 21.6958C175.577 21.7554 175.379 21.7389 175.223 21.6006C175.198 21.5777 175.173 21.5524 175.147 21.5295C172.94 20.8721 170.83 19.8682 168.59 19.2729C165.919 18.5635 163.176 18.0444 160.421 17.8083C155.458 17.3832 150.534 17.7157 145.711 18.8922C147.233 20.782 148.869 22.5753 150.618 24.2556C154.82 26.7622 160.086 27.7179 164.854 28.3867C168.73 28.9287 172.647 29.4211 176.347 30.7588C178.596 31.5723 181.849 32.8542 183.337 34.9534C183.747 35.126 184.154 35.3074 184.558 35.5067C184.926 35.6882 184.658 36.3253 184.277 36.1718C184.05 36.0804 183.82 35.9991 183.592 35.9154C183.513 35.9611 183.412 35.9725 183.31 35.9243C183.12 35.8329 182.937 35.7313 182.754 35.626C172.829 32.3935 162.092 36.0334 156.566 44.75C164.766 40.0186 174.713 38.9677 183.697 42.1913C188.841 44.0367 193.221 47.372 198.132 49.6933C199.034 50.1185 199.959 50.5005 200.9 50.8305C195.965 47.9926 192.02 42.9059 189.071 38.4308C184.295 31.1865 181.494 22.6502 180.465 14.0618C180.425 13.7369 180.876 13.492 181.133 13.6772C189.657 19.8098 200.631 20.933 209.217 27.0021C213.523 30.0455 217.332 34.947 218.289 40.2039C218.535 36.8076 217.553 33.1994 215.651 30.2803C207.73 18.1206 185.561 18.0761 184.252 0.971723C184.202 0.32826 185.163 0.35745 185.238 0.971723C186.592 12.0781 199.732 15.6901 207.953 20.2603C212.35 22.7047 216.47 26.1835 218.911 30.5456C218.416 26.0147 219.018 21.3201 221.631 17.6256C225.349 12.3675 231.769 11.969 237.401 14.1862C242.56 16.2168 247.176 21.0612 245.862 27.0173C244.808 31.7894 238.971 34.7021 234.815 31.6459C234.182 31.1801 234.005 30.1407 234.815 29.713C237.323 28.3893 238.343 25.4969 237.834 22.7745C237.206 19.4062 233.81 17.6738 230.614 17.7728C227.048 17.8845 223.846 19.9367 222.076 23.0005C221.027 24.8179 220.586 26.7051 220.396 28.6507C220.476 31.2423 220.859 33.8568 220.982 36.4611C221.121 37.3533 221.194 38.2684 221.185 39.2114C221.184 39.4182 221.175 39.6238 221.164 39.8307C223.821 38.0691 226.365 36.3748 229.498 35.3544C232.405 34.4076 235.627 34.0713 238.62 34.7947C241.256 35.4318 243.795 36.8558 245.599 38.8979C247.369 40.9044 247.981 43.0696 248.297 45.6612C248.435 46.7996 246.838 47.2692 246.129 46.5585C242.549 42.963 237.716 40.8955 232.662 40.5694C230.232 40.412 227.801 40.6341 225.451 41.2801C223.74 41.7509 222.163 42.5289 220.558 43.2511C220.509 43.4161 220.453 43.5785 220.398 43.741C240.286 42.0048 260.728 53.2254 270.297 70.6318C270.3 70.5443 270.303 70.4567 270.308 70.3679C268.459 63.9409 267.832 57.043 269.856 50.7949C272.41 42.916 279.356 37.6414 287.726 38.5006C288.36 38.5654 288.861 39.2063 288.486 39.8256C286.407 43.265 283.717 46.2526 281.763 49.8075C279.869 53.2558 278.309 56.8704 277.137 60.6283C275.937 64.4828 275.119 68.4629 274.751 72.4823C274.459 75.6691 274.718 78.8179 274.736 81.9806C276.066 87.3276 276.441 92.8281 275.863 98.1979C277.884 94.7864 280.154 91.5399 282.574 88.5586C286.482 83.746 292.499 79.6263 298.795 82.6203C305.108 85.6218 303.98 93.1771 299.075 96.9896C295.752 99.5724 291.55 100.704 287.822 102.556C284.396 104.258 281.12 106.266 278.065 108.571C275.166 110.76 272.469 113.228 270.011 115.904C268.197 118.947 265.98 121.797 263.361 124.374C263.248 124.675 263.137 124.976 263.021 125.274C256.841 140.938 243.316 152.453 226.294 154.083C218.543 154.825 210.456 153.264 203.863 149.019C197.433 144.879 191.66 136.998 195.646 129.197C197.156 126.24 200.037 124.322 203.379 124.304C206.308 124.289 209.444 125.755 210.635 128.566C211.8 131.322 210.302 134.592 207.939 136.212C206.782 137.005 205.31 137.415 203.919 137.1C202.147 136.699 202.43 135.214 202.039 133.616C201.997 133.447 202.121 133.252 202.309 133.262C203.123 133.303 204.387 133.61 205.17 133.418C206.151 133.177 206.321 132.694 206.647 131.716C207.185 130.102 207.006 128.432 206.274 126.938C204.717 126.247 202.814 126.114 201.244 126.649C196.799 128.164 195.668 133.875 196.981 137.875C199.395 145.221 207.916 149.51 214.978 151.032C222.263 152.601 229.99 151.655 236.882 148.923C246.674 145.044 253.95 137.519 258.548 128.449C251.904 133.257 243.771 136.138 235.524 135.663C226.136 135.123 217.139 129.63 214.229 120.35C211.438 111.449 216.417 101.724 224.995 98.3096C233.475 94.9349 244.826 98.0608 248.514 106.947C251.659 114.526 246.533 124.094 237.654 122.531C234.26 121.935 231.232 119.492 230.721 115.956C230.234 112.59 232.043 109.135 235.347 108.1C236.009 107.892 236.271 108.902 235.631 109.129C235.204 109.28 234.816 109.472 234.463 109.695C233.895 113.505 238.058 116.665 241.729 114.965C244.039 113.895 245.35 111.712 245.476 109.195C245.54 107.895 245.02 106.73 244.707 105.554C241.657 101.646 236.024 99.2145 231.029 99.533C222.396 100.083 215.247 107.687 216.11 116.485C216.94 124.945 224.445 131.079 232.416 132.526C243.189 134.48 253.621 129.813 261.193 122.266C262.123 119.634 262.853 116.922 263.375 114.171C264.175 109.949 264.511 105.663 264.403 101.394C263.413 99.2373 262.694 96.9617 261.572 94.8498C260.112 92.1009 258.311 89.5422 256.211 87.2451C251.989 82.6266 246.679 79.1339 240.735 77.168C240.167 76.9802 239.827 76.3138 240.164 75.7656C241.78 73.146 244.78 71.8858 247.812 72.1586C251.231 72.467 254.107 74.6246 256.529 76.8964C258.04 78.3128 259.401 79.8573 260.617 81.5021C259.193 77.5919 257.384 73.8174 255.204 70.2536C247.913 58.3375 237.03 49.5905 223.678 45.8059C222.334 45.7069 220.985 45.6346 219.632 45.5901C219.457 45.9417 219.269 46.2869 219.068 46.6232C219.068 46.6258 219.07 46.6283 219.071 46.6308C219.699 50.5018 221.278 54.0338 224.672 56.2409C228.295 58.5977 232.862 58.6345 236.66 56.6876C237.194 56.4135 237.969 56.6216 238.11 57.2765C239.503 63.7619 232.639 68.2471 226.814 66.5591C220.02 64.5907 216.509 57.3324 215.286 50.7899C215.039 50.9675 214.786 51.1376 214.526 51.2975C213.793 52.0793 213.103 52.8852 212.468 53.7203C210.007 58.9163 208.89 64.7062 211.552 70.1572C214.348 75.8836 222.315 78.9207 227.166 73.7045C227.468 73.3796 228.128 73.3402 228.423 73.7045C231.25 77.1858 229.568 82.3347 225.824 84.4517C221.118 87.1105 215.347 84.1966 212.054 80.6366C205.16 73.1841 204.591 60.8225 211.167 53.1797C211.252 53.0033 211.338 52.8269 211.426 52.6517C208.494 53.5884 204.964 53.1645 202.181 52.3865C196.98 50.9333 192.59 47.6233 187.874 45.1269C178.028 39.9145 165.945 39.9576 156.179 45.3718C156.156 45.4099 156.136 45.4493 156.115 45.4873C163.223 44.0392 170.441 45.8046 177.25 48.084C185.311 50.7835 192.968 53.695 201.609 53.3231C202.696 53.2761 202.887 54.9299 201.862 55.1951C197.912 56.2155 194.693 58.9416 192.877 62.5295C198.31 60.8378 203.212 58.0482 207.958 54.9007C208.164 54.7649 208.373 55.0644 208.213 55.2306C203.755 59.8846 197.876 62.7364 191.724 64.4511C191.202 64.597 190.582 64.0728 190.788 63.5157C192.054 60.0953 194.3 57.3463 197.206 55.4121C182.725 54.8562 169.497 43.5734 154.617 47.7261C153.811 47.9508 153.258 47.0801 153.591 46.3922C155.971 41.4895 159.871 37.7607 164.453 35.5321C156.245 32.297 148.93 25.8091 143.615 18.9899C143.229 18.4949 143.314 17.7424 143.994 17.5507C144.665 17.3616 145.342 17.1877 146.022 17.0291C144.959 16.5367 143.961 15.8462 143.123 15.1901C140.947 13.4932 139.452 11.375 138.407 8.82655ZM246.865 110.473C246.793 110.9 246.702 111.296 246.593 111.633C245.784 114.133 243.701 116.108 241.136 116.725C236.96 117.728 232.76 113.939 233.966 110.057C230.841 112.555 231.232 117.922 234.885 120.046C238.914 122.391 243.561 120.639 245.659 116.672C246.808 114.499 247.137 112.406 246.865 110.473ZM207.448 127.627C207.758 128.644 207.845 129.708 207.663 130.802C207.496 131.795 206.957 133.645 205.981 134.168C205.369 134.496 203.54 133.489 203.026 133.904C202.663 134.199 203.072 135.243 203.295 135.55C203.715 136.124 203.651 136.125 204.52 136.185C206.645 136.332 208.63 134.114 209.1 132.23C209.604 130.215 208.806 128.641 207.448 127.627ZM263.859 94.6582C263.752 93.8599 263.627 93.0629 263.489 92.2696C261.434 87.1156 257.874 82.3157 253.498 79.007C253.441 78.9638 253.496 78.8661 253.555 78.9093C257.229 81.5301 260.226 84.5342 262.614 88.0941C262.434 87.3555 262.243 86.6206 262.036 85.8896C260.854 83.8793 259.474 81.9857 257.908 80.247C254.614 76.5893 246.774 70.576 242.498 75.7643C248.268 77.8508 253.476 81.2965 257.657 85.8046C259.888 88.2109 261.836 90.9015 263.397 93.7888C263.552 94.0757 263.706 94.3663 263.859 94.6582ZM275.055 103.156C274.821 104.207 274.551 105.251 274.241 106.282C274.291 106.21 274.341 106.138 274.391 106.067C276.014 103.717 277.819 101.491 279.786 99.4226C284.01 94.9806 288.743 91.7062 294.209 88.9864C294.384 88.8988 294.537 89.1526 294.364 89.2516C289.325 92.1174 284.58 96.0314 280.64 100.277C278.551 102.53 276.656 104.957 274.989 107.536C274.764 107.884 274.551 108.241 274.341 108.601C274.513 108.459 274.685 108.314 274.857 108.175C279.829 104.122 285.315 100.968 291.243 98.5431C294.831 97.0747 298.86 95.4755 300.58 91.71C302.154 88.2655 300.358 85.005 296.923 83.7853C289.861 81.2762 284.288 88.6437 280.798 93.6327C278.653 96.699 276.782 99.8871 275.055 103.156ZM270.865 65.2087C271.954 58.5952 274.475 52.2418 278.254 46.6143C278.445 46.3313 278.889 46.5839 278.715 46.8834C274.596 53.9996 272.353 61.9584 271.988 70.0683C272.171 70.7664 272.359 71.4657 272.549 72.1637C272.561 72.0495 272.572 71.934 272.584 71.8198C272.994 67.8257 273.786 63.8723 274.979 60.0369C276.201 56.1076 277.82 52.2722 279.83 48.6805C281.46 45.7704 283.401 42.4058 285.84 39.9297C278.396 39.134 272.344 46.5052 270.808 53.1619C269.854 57.2917 270.118 61.2744 270.865 65.2087ZM241.606 49.5448C237.796 48.0942 233.901 47.1372 229.948 46.5217C243.864 50.8114 255.058 62.8443 261.114 75.7897C263.843 81.6214 265.671 87.9063 266.546 94.3244C266.724 95.0681 266.885 95.8182 267.016 96.5746C267.046 96.7536 266.97 96.8945 266.855 96.982C267.497 103.748 267.075 110.613 265.532 117.214C267.364 114.705 268.909 112.019 270.097 109.245C276.604 94.0579 272.586 76.0867 262.032 63.7353C256.585 57.3578 249.43 52.5248 241.606 49.5448ZM208.538 61.8061C208.392 62.442 208.277 63.0918 208.197 63.7594C207.674 68.1621 208.749 72.6866 211.107 76.4306C213.478 80.1962 217.793 83.9161 222.552 83.331C225.993 82.9084 228.969 79.0476 227.59 75.7732C222.474 80.2165 214.483 78.1186 210.881 72.6231C208.677 69.2637 208.104 65.5248 208.538 61.8061ZM217.091 49.225C216.927 49.3963 216.759 49.5613 216.586 49.7238C216.621 49.7263 216.657 49.7301 216.693 49.7327C217.099 49.7644 217.097 50.3317 216.693 50.3634C216.543 50.3749 216.396 50.3939 216.251 50.3799C218.29 55.1393 219.754 60.3821 224.386 63.3304C226.726 64.8204 229.718 65.5895 232.345 64.3965C234.481 63.4256 236.199 61.3213 236.292 58.9696C228.446 61.8302 218.834 57.5684 217.091 49.225ZM228.234 37.6313C227.558 37.8559 226.867 38.0996 226.172 38.361C228.592 37.8927 231.087 37.814 233.23 37.9955C237.631 38.3674 241.826 39.9005 245.326 42.5061C243.973 39.2812 240.046 37.0221 236.815 36.5258C233.933 36.0842 230.967 36.7238 228.234 37.6313ZM221.446 21.4902C221.128 22.2923 220.905 23.0982 220.74 23.9092C222.787 19.4595 227.06 16.1483 232.326 16.8514C235.886 17.3261 238.554 19.8656 239.348 23.352C239.928 25.9005 239.301 28.6545 237.519 30.4682C238.843 30.8197 240.266 30.5659 241.51 29.7904C243.652 28.4553 244.297 25.7355 243.821 23.3761C242.833 18.481 237.857 15.7828 233.324 14.9172C227.975 13.8968 223.439 16.4427 221.446 21.4902ZM211.989 49.7555C214.105 48.7377 215.643 47.2654 216.675 45.5356C216.658 45.5356 216.642 45.5356 216.625 45.5343C215.915 45.528 215.72 44.3933 216.454 44.2639C216.691 44.222 216.93 44.1839 217.168 44.1458C218.326 36.319 212.333 29.251 205.535 25.4525C197.875 21.1729 189.114 19.292 181.491 14.9134C182.9 23.7315 186.494 31.9823 191.774 39.2012C196.029 45.019 203.92 53.6366 211.989 49.7555ZM153.322 26.6937C153.805 27.0998 154.293 27.4996 154.79 27.8892C158.292 30.6395 162.11 32.712 165.97 34.8632C170.447 33.0636 175.456 32.6524 180.289 33.919C179.685 33.4824 179.065 33.0649 178.388 32.7361C176.632 31.8833 174.766 31.2741 172.872 30.8083C168.9 29.8323 164.804 29.5303 160.782 28.8297C158.252 28.388 155.683 27.7204 153.322 26.6937ZM156.253 15.8348C155.272 15.3639 154.188 15.0784 153.123 14.8855C151.02 14.5035 148.864 14.4794 146.774 14.011C143.922 13.3714 141.452 11.9664 140.545 9.16666C140.453 9.17934 140.363 9.19205 140.273 9.20601C141.215 11.0044 142.552 12.5997 144.22 13.775C145.891 14.954 147.918 15.3132 149.619 16.3437C151.815 16.0074 154.033 15.8335 156.253 15.8348ZM161.543 11.2912C158.39 10.5919 154.423 10.3432 151.936 8.25034C154.017 11.2087 156.607 13.6252 159.447 15.9592C160.008 16.0023 160.571 16.0556 161.13 16.1229C163.922 16.4605 166.661 17.0418 169.328 17.9429C170.53 18.349 171.797 18.7805 173.011 19.3123C171.846 17.9835 170.728 16.5976 169.409 15.4173C167.147 13.393 164.51 11.9499 161.543 11.2912ZM140.758 9.13622C142.826 12.8916 147.761 13.0719 151.556 13.4869C152.469 13.5871 153.665 13.7179 154.843 13.9895C153.43 12.714 152.17 11.2506 151.068 9.68829C149.403 9.47 147.758 9.10449 146.079 8.96742C144.297 8.82147 142.521 8.8938 140.758 9.13622Z" fill="white"/>
<path d="M287.118 129.354C287.076 129.611 287.051 129.865 287.039 130.118C288.637 132.72 293.031 133.499 295.229 131.158C298.862 127.29 294.479 121.135 290.275 120.211C284.247 118.885 278.748 123.27 275.565 127.934C272.134 132.961 269.837 138.811 267.25 144.295C266.822 145.202 266.393 146.109 265.964 147.016C268.469 145.04 271.985 144.376 275.433 145.62C276.281 145.926 276.295 147.059 275.433 147.36C271.62 148.687 268.189 150.256 265.058 152.86C263.766 153.935 262.565 155.132 261.467 156.408C259.124 161.228 256.717 166.019 254.195 170.744C252.129 177.985 249.885 185.166 246.8 192.065C241.262 204.447 232.679 216.441 219.831 221.906C213.54 224.582 206.149 225.8 199.3 224.692C195.802 224.674 192.22 223.868 188.594 222.038C181.766 218.593 176.473 211.445 177.954 203.511C179.424 195.636 187.634 189.42 195.62 190.312C203.784 191.224 210.6 199.729 206.17 207.647C204.382 210.846 200.96 212.723 197.301 212.14C193.793 211.582 190.883 209.108 190.688 205.452C190.68 205.32 190.708 205.211 190.756 205.119C190.735 204.636 191.218 204.144 191.735 204.486C195.087 206.704 200.371 205.294 201.463 201.176C201.972 199.253 201.349 197.132 200.147 195.598C199.166 194.347 197.556 194.069 196.655 192.888C196.629 192.853 196.613 192.816 196.603 192.779C188.444 191.136 179.503 198.36 180.262 207.163C180.976 215.453 189.46 220.984 197.143 221.778C206.764 222.774 215.689 216.938 222.38 210.635C227.978 205.36 232.933 199.438 237.417 193.14C236.409 193.751 235.281 194.177 234.031 194.342C229.392 194.957 225.05 190.196 227.517 185.763C227.821 185.219 228.831 185.272 228.936 185.949C229.592 190.137 234.592 187.876 236.673 186.469C238.751 185.064 240.724 183.485 242.592 181.81C242.718 181.524 242.846 181.241 242.983 180.963C243.098 180.732 243.411 180.756 243.557 180.924C245.084 179.496 246.552 177.98 247.948 176.396C249.894 172.947 251.754 169.46 253.554 165.97C254.02 164.293 254.481 162.613 254.948 160.934C251.436 164.892 247.213 168.277 242.915 170.917C235.64 175.385 225.93 179.294 217.303 176.971C213.511 175.949 209.513 173.313 208.394 169.34C207.248 165.273 209.917 161.444 214.154 161.312C216.396 161.242 218.588 161.965 220.781 162.317C223 162.672 225.257 162.797 227.503 162.731C232.099 162.595 236.67 161.606 240.941 159.909C248.772 156.799 255.11 151.425 259.994 144.704C260.452 143.457 260.93 142.216 261.436 140.987C264.537 133.442 268.401 125.643 274.66 120.203C280.176 115.409 288.031 112.423 295.276 114.654C301.207 116.48 306.417 121.698 306.392 128.193C306.369 133.991 302.125 140.057 296.01 140.416C290.759 140.725 285.892 136.598 285.216 131.567C284.832 130.776 284.638 129.861 284.707 128.824C284.759 128.022 285.863 127.652 286.31 128.178C286.782 128.295 287.22 128.734 287.118 129.354ZM201.657 195.155C201.766 195.316 201.868 195.472 201.95 195.613C203.115 197.61 203.471 200.107 202.625 202.286C201.094 206.234 196.252 207.85 192.491 206.391C194.716 210.382 200.591 211.41 203.595 207.545C206.739 203.498 205.327 198.181 201.657 195.155ZM254.7 157.556C245.369 166.565 231.93 171.883 219.15 170.507C218.947 170.485 218.937 170.186 219.15 170.183C234.293 170.036 248.21 163.804 257.547 151.967C257.897 150.834 258.259 149.704 258.633 148.58C254.993 153.635 249.884 157.652 244.334 160.418C237.561 163.794 229.789 165.386 222.24 164.61C218.571 164.233 210.437 161.119 210.191 167.272C209.987 172.397 216.331 175.107 220.546 175.484C229.076 176.247 237.941 172.018 244.711 167.179C248.59 164.406 251.812 161.132 254.7 157.556ZM236.541 191.76C239.079 190.199 240.242 187.742 241.253 185.171C240.908 185.456 240.558 185.738 240.204 186.016C237.904 187.821 235.151 190.204 232.055 190.224C230.516 190.235 229.16 189.597 228.312 188.517C228.35 189.864 229.122 191.195 230.246 192.009C232.138 193.378 234.655 192.92 236.541 191.76ZM243.1 184.584C243.171 184.47 243.243 184.355 243.315 184.239C243.261 184.282 243.208 184.327 243.155 184.37C243.138 184.441 243.118 184.513 243.1 184.584ZM249.797 178.671C245.501 186.117 240.822 193.333 235.51 200.136C228.873 208.639 219.481 218.81 208.777 222.88C217.203 221.77 225.378 217.686 231.558 211.57C240.675 202.547 245.879 190.759 249.797 178.671ZM265.102 148.832C264.71 149.66 264.316 150.487 263.922 151.313C264.006 151.244 264.091 151.17 264.172 151.104C266.489 149.186 269.246 147.488 272.15 146.426C269.519 146.039 266.935 147.002 265.102 148.832ZM288.267 134.378C289.519 136.29 291.583 137.735 293.8 138.245C297.644 139.128 301.212 136.823 303.03 133.522C307.161 126.019 301.622 117.954 294.007 115.955C285.877 113.821 277.777 118.496 272.628 124.51C267.266 130.775 264.108 138.755 261.408 146.446C261.008 147.586 260.626 148.731 260.253 149.878C260.744 149.135 261.232 148.389 261.717 147.635C261.919 147.322 262.361 147.385 262.521 147.642C264.894 142.599 267.251 137.551 269.718 132.553C273.515 124.859 280.025 116.045 289.795 117.294C293.595 117.78 296.773 120.126 298.339 123.634C299.701 126.684 299.635 130.597 297.17 133.097C294.989 135.308 291.122 135.648 288.267 134.378Z" fill="white"/>
<path d="M337.049 224.37C334.054 226.57 332.107 229.813 330.918 233.287C330.405 234.783 330.128 236.377 329.845 237.966C330.576 246.145 327.284 253.931 320.758 259.03C313.85 264.427 304.681 266.916 296.006 267.244C286.788 273.643 273.36 274.77 262.833 271.653C251.692 268.355 243.072 259.561 241.323 247.907C240.407 241.803 241.236 235.552 242.991 229.672C244.553 224.434 246.916 219.678 249.331 214.868C235.46 238.709 213.524 258.387 186.011 264.34C172.292 267.309 156.375 267.035 143.999 259.707C132.676 253.002 125.346 238.264 131.96 225.776C132.458 224.837 133.994 225.049 134.237 226.074C136.136 234.103 140.984 240.93 147.492 245.921C159.705 255.29 175.341 257.577 190.246 255.167C205.349 252.725 218.924 245.309 230.543 235.578C240.136 225.638 247.541 213.814 253.399 201.341C253.72 200.657 254.032 199.97 254.345 199.281C255.722 195.191 257.358 191.186 259.186 187.348C259.788 185.695 260.365 184.033 260.921 182.364C261.169 180.75 261.704 179.14 262.439 177.594C263.604 173.739 264.659 169.853 265.757 165.98C259.131 178.318 255.733 192.369 249.003 204.658C236.255 227.936 215.144 250.404 186.454 249.15C180.103 248.872 173.795 247.385 168.13 244.463C167.503 244.139 166.877 243.793 166.254 243.43C166.118 243.506 165.948 243.529 165.753 243.465C163.271 242.662 161.27 240.919 159.898 238.74C157.605 236.587 155.667 234.091 154.427 231.27C152.126 226.036 152.819 218.893 158.089 215.667C162.335 213.069 168.396 214.794 170.238 219.467C170.45 220.006 170.003 220.792 169.431 220.888C164.68 221.688 160.63 225.358 159.947 230.236C159.662 232.278 160.001 234.19 160.763 235.924C162.935 238.108 165.51 239.933 167.894 241.314C178.082 247.217 190.732 247.806 201.923 244.743C213.728 241.512 223.804 233.966 231.87 224.94C240.447 215.343 247.143 204.019 252.339 192.282C255.012 186.243 257.342 180.056 260.162 174.082C262.039 170.106 264.198 166.421 266.65 162.884C266.96 161.828 267.275 160.774 267.601 159.723C267.69 159.435 268.152 159.455 268.183 159.739C269.912 156.844 272.714 154.664 276.395 154.014C282.738 152.893 289.147 157.816 288.597 164.5C288.552 165.034 288.129 165.646 287.514 165.582C281.293 164.948 275.072 166.544 270.209 170.584C267.96 172.452 266.08 174.753 264.681 177.32C264.626 177.421 264.579 177.524 264.526 177.625C263.805 180.192 263.026 182.738 262.215 185.261C260.171 191.627 257.794 197.907 254.989 203.983C254.04 207.247 253.229 210.554 252.711 213.958C251.268 223.438 251.867 233.565 256.279 242.228C257.218 244.073 258.297 245.815 259.492 247.453C261.687 246.603 263.47 244.828 264.502 242.734C266.145 239.398 264.287 234.948 266.696 232.002C268.503 229.791 271.716 230.088 273.72 231.875C276.304 234.18 276.078 237.891 274.855 240.848C272.77 245.893 268.407 250.212 263.198 251.82C271.176 259.942 282.487 264.481 294.081 264.414C294.506 264.412 294.935 264.403 295.365 264.387C297.028 262.88 298.485 261.182 298.721 258.887C298.928 256.875 298.169 255.282 296.412 254.289C295.157 253.578 293.735 253.206 292.805 252.027C289.748 248.151 294.121 243.203 298.397 243.954C303.763 244.896 305.349 250.74 304.441 255.418C303.797 258.729 302.078 261.628 299.797 264.029C311.558 262.529 323.758 256.572 326.509 245.118C326.707 242.314 327.038 239.712 326.54 236.885C326.058 234.135 325.266 231.495 323.858 229.068C320.895 223.965 315.795 220.563 309.91 219.928C304.255 219.317 298.273 221.069 294.124 225.028C289.166 229.758 287.75 237.766 294.343 241.794C294.775 242.058 294.636 242.878 294.065 242.818C293.682 242.779 293.318 242.711 292.968 242.625C292.918 242.675 292.856 242.718 292.778 242.748C285.023 245.741 276.911 239.059 276.538 231.222C276.092 221.847 283.899 214.681 292.501 212.771C305.503 209.884 320.073 216.099 326.544 227.454C328.755 224.276 332.73 222.654 336.577 222.609C337.586 222.595 337.76 223.848 337.049 224.37ZM157.848 232.335C157.805 231.585 157.827 230.836 157.918 230.099C158.565 224.932 162.483 220.556 167.386 219.027C165.822 217.002 162.738 216.35 160.366 217.247C157.131 218.471 155.62 222.178 155.642 225.418C155.66 227.912 156.511 230.233 157.848 232.335ZM298.903 253.875C299.571 254.548 300.011 255.393 300.268 256.294C300.221 253.878 299.572 251.42 298.478 249.301C298.37 249.092 298.65 248.944 298.785 249.121C300.859 251.809 301.635 254.911 301.294 258.301C301.286 258.389 301.273 258.485 301.263 258.577C302.043 257.116 302.583 255.534 302.772 253.85C303.114 250.804 302.112 247.25 298.964 246.09C296.541 245.198 293.791 246.566 293.823 249.349C293.852 252.077 297.319 252.277 298.903 253.875ZM264.125 246.405C264.349 246.283 264.571 246.155 264.79 246.011C267.7 244.099 269.091 240.98 269.606 237.645C269.685 237.135 270.477 237.281 270.479 237.763C270.5 241.337 268.696 244.733 265.903 246.938C264.813 247.797 262.957 248.921 261.085 249.499C261.163 249.593 261.245 249.682 261.324 249.774C264.327 249.151 267.003 247.453 269.113 245.212C271.387 242.794 274.364 238.58 273.107 235.081C272.604 233.683 270.879 232.276 269.284 232.628C267.403 233.042 267.343 235.352 267.317 236.877C267.267 239.677 267.029 242.26 265.487 244.69C265.103 245.295 264.643 245.869 264.125 246.405ZM257.774 249.98C257.896 249.991 258.016 250.004 258.139 250.013C258.114 249.98 258.091 249.947 258.066 249.914C257.968 249.937 257.872 249.958 257.774 249.98ZM250.226 217.054C248.602 223.56 245.985 229.852 246.605 236.738C246.964 240.72 248.735 244.702 251.627 247.256C251.698 247.256 251.771 247.263 251.847 247.279C253.426 247.619 254.973 247.985 256.529 247.986C256.559 247.966 256.585 247.942 256.623 247.925C256.63 247.923 256.637 247.92 256.644 247.918C255.369 246.002 254.242 243.964 253.295 241.803C249.884 234.013 249.25 225.422 250.226 217.054ZM267.511 164.572C267.334 165.623 267.14 166.671 266.931 167.717C267.765 166.571 268.671 165.537 269.356 164.755C271.877 161.876 274.863 159.727 278.512 158.653C278.863 158.549 279 159.013 278.744 159.202C275.938 161.281 273.127 163.589 270.91 166.306C270.134 167.255 269.44 168.27 268.813 169.326C268.92 169.235 269.026 169.144 269.133 169.056C273.929 165.1 280.225 163.04 286.434 163.341C286.105 158.083 280.827 154.722 275.678 156.088C271.482 157.202 268.747 160.621 267.511 164.572ZM211.36 250.984C210.984 251.165 210.611 251.349 210.233 251.526C195.878 258.172 178.723 260.824 163.35 256.318C150.04 252.418 137.822 243.274 132.916 230.116C131.174 236.163 132.576 242.84 135.907 248.176C140.107 254.904 147.337 259.072 154.815 261.193C174.035 266.643 194.435 261.36 211.36 250.984ZM291.559 267.204C279.561 266.531 268.027 261.278 260.136 252.429C259.175 252.518 258.198 252.513 257.21 252.4C249.847 251.564 245.203 244.79 244.377 237.863C244.051 235.123 244.203 232.365 244.667 229.623C244.557 230.028 244.44 230.432 244.337 230.837C242.8 236.878 242.288 243.298 243.699 249.418C248.419 269.888 274.359 275.689 291.559 267.204ZM311.396 217.468C306.036 215.008 299.935 214.041 294.145 214.978C286.464 216.222 279.11 221.725 278.648 230.029C278.264 236.9 284.543 243.308 291.428 242.049C287.07 239.803 286.289 233.379 288.152 228.963C291.884 220.113 302.243 215.981 311.396 217.468ZM333.818 224.705C331.25 225.23 329.048 226.668 327.164 228.612C327.883 230.034 328.48 231.529 328.932 233.091C329.179 232.341 329.447 231.598 329.757 230.868C330.744 228.549 332.089 226.465 333.818 224.705Z" fill="white"/>
</svg>
