<svg width="124" height="95" viewBox="0 0 124 95" fill="none" xmlns="http://www.w3.org/2000/svg">
<path d="M120.215 4.06963C120.377 4.00329 120.614 4.14231 120.644 4.31305C120.915 5.89763 121.028 7.80929 120.463 9.39849C120.874 9.14179 121.294 8.90702 121.717 8.69705C121.904 8.60417 122.162 8.67396 122.214 8.89951C122.805 11.4255 122.881 14.0409 122.431 16.5969C122.019 18.9371 121.172 21.9401 119.405 23.6361C119.22 23.8137 118.828 23.6378 118.938 23.3644C119.369 22.2897 120.022 21.3235 120.485 20.2604C120.984 19.1142 121.367 17.9173 121.627 16.6944C122.122 14.3657 122.131 11.981 121.681 9.65114C119.266 10.6848 119.833 14.3155 118.896 16.35C118.057 18.1699 116.373 20.0845 114.686 21.1608C114.679 21.1649 114.673 21.1678 114.666 21.1707C114.638 21.207 114.613 21.2462 114.584 21.282C114.487 21.4025 114.305 21.2704 114.338 21.1389C114.346 21.106 114.357 21.0732 114.366 21.0403C114.339 20.9636 114.346 20.8736 114.409 20.8026C114.42 20.7911 114.431 20.7801 114.442 20.768C114.74 19.7649 115.197 18.8062 115.467 17.788C115.79 16.5738 116.026 15.3273 116.133 14.0749C116.326 11.8195 116.175 9.58134 115.64 7.38935C114.781 8.08098 113.966 8.82453 113.202 9.61941C112.063 11.5293 111.629 13.9227 111.325 16.0898C111.079 17.8515 110.855 19.6316 110.247 21.3137C109.877 22.3359 109.294 23.8143 108.34 24.4904C108.262 24.6767 108.179 24.8619 108.089 25.0453C108.006 25.2126 107.717 25.0909 107.787 24.9178C107.828 24.8146 107.865 24.7101 107.903 24.6063C107.882 24.5705 107.877 24.5244 107.899 24.4783C107.941 24.3917 107.987 24.3087 108.035 24.2256C109.504 19.7147 107.849 14.8346 103.888 12.3231C106.038 16.05 106.516 20.5707 105.051 24.6542C104.212 26.9921 102.696 28.9828 101.641 31.2152C101.448 31.6247 101.274 32.0453 101.124 32.4733C102.414 30.2299 104.726 28.4371 106.76 27.0965C110.052 24.9259 113.932 23.6528 117.836 23.185C117.983 23.1671 118.095 23.3719 118.01 23.489C115.223 27.363 114.713 32.351 111.954 36.2533C110.571 38.2105 108.343 39.9416 105.954 40.3766C107.498 40.4885 109.137 40.042 110.464 39.1773C115.991 35.5773 116.011 25.5016 123.785 24.9063C124.078 24.8838 124.064 25.3204 123.785 25.3545C118.737 25.97 117.096 31.942 115.018 35.6788C113.907 37.677 112.326 39.55 110.344 40.6592C112.403 40.4343 114.537 40.7077 116.216 41.8954C118.606 43.5855 118.787 46.5032 117.779 49.0632C116.856 51.4081 114.654 53.506 111.947 52.9084C109.778 52.4297 108.455 49.7768 109.844 47.8876C110.055 47.5998 110.528 47.5196 110.722 47.8876C111.324 49.0275 112.638 49.4912 113.876 49.2599C115.407 48.9744 116.194 47.4308 116.149 45.9783C116.098 44.3574 115.165 42.902 113.773 42.0979C112.947 41.6208 112.089 41.4206 111.205 41.3341C110.027 41.3705 108.839 41.5447 107.655 41.6006C107.249 41.6635 106.834 41.697 106.405 41.6929C106.311 41.6923 106.218 41.6883 106.124 41.6831C106.924 42.891 107.694 44.047 108.158 45.4712C108.588 46.7922 108.741 48.2568 108.412 49.617C108.123 50.8151 107.476 51.9693 106.547 52.789C105.635 53.5937 104.651 53.8718 103.473 54.0154C102.956 54.0783 102.743 53.352 103.066 53.0301C104.7 51.4029 105.64 49.2063 105.788 46.9093C105.859 45.8046 105.758 44.7 105.465 43.6317C105.251 42.8541 104.897 42.1371 104.569 41.408C104.494 41.3855 104.42 41.3601 104.346 41.3353C105.135 50.3744 100.036 59.6656 92.1241 64.0144C92.164 64.0161 92.2038 64.0173 92.2441 64.0196C95.1653 63.1791 98.3004 62.8941 101.14 63.8142C104.721 64.9748 107.119 68.1319 106.728 71.9361C106.699 72.2245 106.407 72.4518 106.126 72.2817C104.563 71.3368 103.205 70.1139 101.589 69.2261C100.022 68.3649 98.3788 67.656 96.6708 67.1235C94.9189 66.5778 93.11 66.2064 91.2831 66.0391C89.8347 65.9064 88.4035 66.0241 86.966 66.0322C84.5358 66.6367 82.0358 66.8068 79.5952 66.5444C81.1457 67.4627 82.6213 68.4947 83.9763 69.5947C86.1637 71.3708 88.0361 74.1056 86.6753 76.9673C85.3111 79.8365 81.8771 79.3237 80.1443 77.0942C78.9704 75.5841 78.4559 73.6741 77.6143 71.98C76.8407 70.4225 75.9282 68.9337 74.8806 67.5452C73.8856 66.2277 72.7636 65.0019 71.5477 63.8846C70.1644 63.0603 68.8694 62.0525 67.6978 60.8619C67.5611 60.8106 67.4244 60.7604 67.2888 60.7073C60.1695 57.8987 54.9358 51.7513 54.1951 44.0147C53.8577 40.4919 54.5672 36.8163 56.4967 33.8196C58.3784 30.8973 61.96 28.2733 65.5058 30.0852C66.8499 30.7716 67.7215 32.081 67.7295 33.5998C67.7365 34.9312 67.0702 36.3566 65.7925 36.8976C64.5402 37.4272 63.0537 36.7465 62.3176 35.6724C61.9571 35.1464 61.7708 34.4772 61.9138 33.845C62.0961 33.0397 62.771 33.1684 63.4973 32.9907C63.574 32.9717 63.6628 33.0282 63.6582 33.1136C63.6397 33.4833 63.5001 34.0579 63.5872 34.4138C63.6968 34.8597 63.9166 34.937 64.3608 35.0852C65.0945 35.3298 65.8537 35.2485 66.5326 34.9156C66.8464 34.2078 66.907 33.3431 66.6641 32.6296C65.9754 30.6089 63.3796 30.095 61.5614 30.692C58.2226 31.7891 56.2735 35.6621 55.5819 38.8716C54.8683 42.1827 55.2986 45.6945 56.54 48.8273C58.3034 53.2776 61.7235 56.5846 65.8456 58.6745C63.6605 55.6548 62.3511 51.9584 62.5668 48.2101C62.8125 43.9432 65.3091 39.854 69.527 38.5313C73.5724 37.2628 77.9927 39.5257 79.5444 43.4246C81.0782 47.2785 79.6575 52.4377 75.6184 54.114C72.1741 55.5435 67.8253 53.2136 68.5354 49.178C68.8065 47.6355 69.9169 46.2592 71.524 46.0267C73.0538 45.8058 74.6239 46.6278 75.0946 48.1293C75.1893 48.4304 74.7301 48.5493 74.6268 48.2585C74.5582 48.0647 74.4711 47.8882 74.3696 47.7278C72.6379 47.4694 71.2016 49.3615 71.9745 51.0303C72.4608 52.0801 73.453 52.676 74.5968 52.7331C75.1875 52.7625 75.7171 52.526 76.2518 52.3835C78.0279 50.9974 79.1331 48.4374 78.9883 46.1669C78.7386 42.2432 75.2821 38.9939 71.2835 39.3861C67.4382 39.7634 64.6504 43.1742 63.9928 46.7974C63.1044 51.6936 65.2261 56.4353 68.6559 59.8767C69.8523 60.2995 71.085 60.6312 72.335 60.8683C74.2542 61.2323 76.2022 61.3845 78.1427 61.3355C79.1227 60.8856 80.157 60.5591 81.1169 60.0491C82.3663 59.3852 83.5292 58.5667 84.5733 57.6126C86.6724 55.6934 88.2599 53.2799 89.1534 50.5786C89.2388 50.3201 89.5416 50.1656 89.7908 50.319C90.9814 51.0533 91.5542 52.417 91.4302 53.7951C91.29 55.3491 90.3094 56.6562 89.2769 57.7568C88.6331 58.4438 87.9311 59.0622 87.1835 59.6148C88.9608 58.9676 90.6763 58.1456 92.2961 57.1546C97.712 53.8406 101.688 48.8942 103.408 42.8258C103.453 42.215 103.486 41.6018 103.506 40.9869C103.346 40.9073 103.189 40.8219 103.036 40.7308C103.035 40.7308 103.034 40.7313 103.033 40.7319C101.273 41.0174 99.6681 41.735 98.665 43.2775C97.5938 44.9244 97.577 46.9999 98.4619 48.7263C98.5865 48.9692 98.4919 49.3211 98.1942 49.3851C95.2466 50.0185 93.208 46.8989 93.9752 44.2512C94.8699 41.1634 98.1689 39.5673 101.142 39.0118C101.062 38.8993 100.984 38.7845 100.912 38.6662C100.556 38.3328 100.19 38.0196 99.8106 37.7306C97.449 36.6121 94.8174 36.1045 92.3399 37.3147C89.7372 38.5855 88.3568 42.2063 90.7276 44.411C90.8753 44.5483 90.8932 44.8482 90.7276 44.9826C89.1453 46.2673 86.8051 45.503 85.8429 43.8013C84.6344 41.6623 85.9589 39.0394 87.5769 37.5425C90.9641 34.4091 96.5826 34.1507 100.056 37.1393C100.136 37.178 100.217 37.2172 100.296 37.257C99.8705 35.9245 100.063 34.3203 100.417 33.0553C101.077 30.6914 102.582 28.6961 103.716 26.5526C106.085 22.0774 106.066 16.5859 103.605 12.1471C103.588 12.1367 103.57 12.1275 103.553 12.1177C104.211 15.3486 103.408 18.6291 102.372 21.7239C101.145 25.3879 99.8221 28.868 99.9911 32.7952C100.012 33.2895 99.2608 33.376 99.1403 32.9105C98.6765 31.1148 97.4374 29.6519 95.8067 28.8265C96.5756 31.2959 97.8435 33.5237 99.2741 35.6811C99.3358 35.7745 99.1997 35.8697 99.1241 35.797C97.0088 33.7706 95.7127 31.0987 94.9334 28.3027C94.867 28.0651 95.1053 27.7836 95.3585 27.877C96.9131 28.4527 98.1625 29.4731 99.0416 30.7941C99.2943 24.2123 104.422 18.1999 102.535 11.437C102.433 11.0707 102.829 10.8192 103.141 10.9709C105.37 12.0525 107.064 13.8252 108.077 15.9076C109.548 12.1771 112.496 8.85221 115.596 6.4364C115.821 6.26104 116.163 6.2997 116.25 6.60888C116.336 6.91403 116.415 7.22148 116.487 7.53067C116.711 7.04728 117.025 6.59388 117.323 6.21317C118.094 5.22389 119.057 4.54437 120.215 4.06963ZM74.016 53.3647C73.8221 53.3318 73.6422 53.2903 73.4887 53.2407C72.3523 52.8733 71.4548 51.9267 71.1744 50.7609C70.7187 48.8625 72.4406 46.9537 74.2052 47.5017C73.0699 46.0815 70.6305 46.2592 69.6648 47.9193C68.5994 49.7508 69.3955 51.8626 71.1987 52.8162C72.1862 53.3388 73.1374 53.4882 74.016 53.3647ZM66.2194 35.4492C65.7573 35.5899 65.2734 35.6297 64.7761 35.5467C64.325 35.4711 63.484 35.226 63.2463 34.7824C63.0975 34.5043 63.5549 33.6731 63.3663 33.4395C63.2325 33.2745 62.7578 33.4602 62.6182 33.5618C62.3574 33.7527 62.3568 33.7233 62.3297 34.1184C62.2628 35.0841 63.2711 35.9862 64.1272 36.2002C65.0432 36.4292 65.7585 36.0664 66.2194 35.4492ZM81.204 61.0886C81.5668 61.0396 81.9291 60.9831 82.2896 60.9202C84.6321 59.9863 86.8138 58.3682 88.3176 56.3793C88.3372 56.3533 88.3816 56.3781 88.362 56.4053C87.1708 58.0752 85.8054 59.4371 84.1874 60.5227C84.5231 60.4408 84.8571 60.3537 85.1894 60.2597C86.1031 59.7227 86.9637 59.0956 87.754 58.3838C89.4165 56.8863 92.1495 53.3232 89.7914 51.3798C88.8431 54.0021 87.277 56.3695 85.228 58.2696C84.1343 59.2837 82.9114 60.1691 81.5991 60.8787C81.4687 60.949 81.3366 61.0188 81.204 61.0886ZM77.3414 66.1769C76.8638 66.0708 76.3897 65.9479 75.9207 65.8072C75.9536 65.8297 75.9864 65.8527 76.0188 65.8752C77.0865 66.613 78.0983 67.4333 79.0385 68.3274C81.0575 70.2471 82.5457 72.3982 83.7819 74.8826C83.8217 74.9622 83.7063 75.032 83.6613 74.953C82.3588 72.6629 80.5798 70.5061 78.6503 68.7156C77.6264 67.7661 76.5229 66.9049 75.3508 66.1469C75.1927 66.0448 75.0306 65.9479 74.8668 65.8527C74.9314 65.9306 74.9972 66.0091 75.0606 66.087C76.9025 68.347 78.3359 70.8401 79.4383 73.5346C80.1057 75.1653 80.8325 76.9967 82.544 77.7784C84.1095 78.4937 85.5914 77.6774 86.1458 76.1165C87.2862 72.9064 83.9376 70.3735 81.6701 68.7871C80.2764 67.8123 78.8274 66.962 77.3414 66.1769ZM94.589 64.2728C97.5949 64.7677 100.483 65.9133 103.04 67.6312C103.169 67.7177 103.054 67.9196 102.918 67.8406C99.6836 65.9687 96.0663 64.9488 92.3803 64.7833C92.063 64.8663 91.7452 64.9517 91.4279 65.0383C91.4798 65.0434 91.5323 65.0486 91.5842 65.0538C93.3995 65.2402 95.1964 65.6001 96.9396 66.1423C98.7255 66.6978 100.469 67.4339 102.101 68.3476C103.424 69.0883 104.953 69.9702 106.079 71.0789C106.44 67.6958 103.09 64.9448 100.064 64.2468C98.1873 63.813 96.3772 63.933 94.589 64.2728ZM101.708 50.9743C102.368 49.2426 102.803 47.4723 103.082 45.6754C101.133 52.0005 95.6637 57.0882 89.7799 59.8409C87.1293 61.0811 84.2728 61.9118 81.3557 62.3098C81.0177 62.3906 80.6767 62.4638 80.3329 62.5232C80.2516 62.5371 80.1876 62.5025 80.1478 62.45C77.0726 62.7419 73.9525 62.5503 70.9524 61.8489C72.0928 62.6813 73.3134 63.3839 74.5743 63.9238C81.4768 66.8813 89.6449 65.055 95.2587 60.258C98.1573 57.7822 100.354 54.5305 101.708 50.9743ZM96.1355 35.9447C95.8465 35.8784 95.5512 35.8259 95.2477 35.7895C93.2467 35.5519 91.1902 36.0405 89.4886 37.1122C87.7771 38.1898 86.0864 40.151 86.3523 42.3142C86.5444 43.878 88.2991 45.2307 89.7874 44.6037C87.7678 42.2784 88.7214 38.6466 91.2191 37.0096C92.746 36.0076 94.4454 35.7474 96.1355 35.9447ZM101.854 39.832C101.776 39.7576 101.701 39.6809 101.627 39.6025C101.626 39.6186 101.624 39.6347 101.623 39.6509C101.609 39.8355 101.351 39.8349 101.336 39.6509C101.331 39.5828 101.322 39.5159 101.329 39.4502C99.1656 40.3771 96.7827 41.0422 95.4427 43.1477C94.7655 44.2114 94.4159 45.571 94.9582 46.7651C95.3994 47.7359 96.3559 48.517 97.4247 48.5591C96.1245 44.993 98.0616 40.624 101.854 39.832ZM107.123 44.8967C107.021 44.5892 106.91 44.2754 106.791 43.9593C107.004 45.0594 107.04 46.1934 106.958 47.1672C106.789 49.1676 106.092 51.0741 104.908 52.665C106.373 52.0501 107.4 50.2654 107.626 48.7967C107.826 47.4867 107.536 46.1386 107.123 44.8967ZM114.459 41.8112C114.095 41.667 113.729 41.5654 113.36 41.4905C115.382 42.4209 116.887 44.3631 116.568 46.7564C116.352 48.3745 115.198 49.587 113.613 49.9481C112.455 50.2117 111.203 49.9267 110.379 49.1169C110.219 49.7185 110.334 50.3652 110.687 50.9305C111.294 51.9042 112.53 52.1972 113.602 51.9809C115.827 51.5321 117.053 49.2703 117.447 47.2098C117.911 44.779 116.754 42.7174 114.459 41.8112ZM101.613 37.5131C102.075 38.4747 102.744 39.1739 103.531 39.6428C103.531 39.6353 103.531 39.6278 103.531 39.6203C103.534 39.2973 104.05 39.209 104.109 39.5425C104.128 39.6503 104.145 39.7588 104.162 39.8672C107.72 40.3933 110.932 37.6695 112.659 34.5799C114.604 31.0981 115.459 27.1161 117.449 23.6516C113.441 24.2919 109.691 25.9256 106.41 28.3252C103.765 30.2594 99.8486 33.8456 101.613 37.5131ZM112.094 10.8487C111.91 11.0679 111.728 11.2899 111.551 11.5155C110.301 13.1076 109.359 14.8427 108.381 16.5969C109.199 18.632 109.386 20.9088 108.81 23.1054C109.009 22.8308 109.199 22.5487 109.348 22.2413C109.736 21.4429 110.013 20.595 110.224 19.7343C110.668 17.9288 110.805 16.0673 111.124 14.2393C111.324 13.0891 111.628 11.9216 112.094 10.8487ZM117.03 12.1806C117.244 11.7347 117.374 11.2421 117.461 10.7581C117.635 9.80227 117.646 8.82222 117.859 7.87217C118.149 6.57601 118.788 5.45346 120.061 5.04102C120.055 4.99949 120.049 4.95854 120.043 4.91758C119.225 5.3456 118.5 5.95358 117.966 6.71155C117.43 7.47125 117.267 8.39246 116.799 9.16543C116.951 10.1634 117.03 11.1717 117.03 12.1806ZM119.095 14.5849C119.413 13.152 119.526 11.3488 120.477 10.2188C119.132 11.1642 118.034 12.3415 116.973 13.6325C116.954 13.8875 116.929 14.143 116.899 14.3974C116.745 15.6664 116.481 16.9113 116.072 18.1232C115.887 18.6695 115.691 19.2457 115.449 19.7972C116.053 19.2676 116.683 18.7595 117.22 18.1601C118.14 17.1322 118.796 15.9335 119.095 14.5849ZM120.074 5.13793C118.368 6.07818 118.286 8.32093 118.097 10.0457C118.051 10.461 117.992 11.0044 117.869 11.5397C118.448 10.8977 119.113 10.3249 119.823 9.82418C119.923 9.06737 120.089 8.31978 120.151 7.55662C120.217 6.74673 120.185 5.93916 120.074 5.13793Z" fill="#FAFAFA"/>
<path d="M65.4343 71.6602C65.3178 71.6412 65.2024 71.6296 65.0871 71.6244C63.9045 72.3507 63.5504 74.3477 64.6146 75.3468C66.3728 76.9977 69.1699 75.0059 69.5899 73.0948C70.1927 70.3554 68.1997 67.8559 66.0798 66.4092C63.7949 64.85 61.1363 63.8059 58.6437 62.6298C58.2313 62.4354 57.8194 62.2404 57.407 62.0454C58.3051 63.1841 58.6068 64.782 58.0415 66.3492C57.9025 66.7346 57.3874 66.7409 57.2507 66.3492C56.6473 64.6164 55.9343 63.0566 54.7506 61.6336C54.2621 61.0463 53.7181 60.5006 53.1384 60.0017C50.9475 58.9368 48.77 57.8426 46.6224 56.6964C43.3315 55.7573 40.0677 54.7374 36.932 53.3351C31.3044 50.8184 25.8526 46.9172 23.3688 41.0778C22.1528 38.2184 21.599 34.8589 22.1026 31.7463C22.1107 30.1565 22.477 28.5281 23.3088 26.88C24.8749 23.7766 28.1237 21.3712 31.7295 22.0444C35.3088 22.7124 38.1342 26.444 37.7286 30.0734C37.3139 33.7843 33.4485 36.8819 29.8496 34.8687C28.3959 34.0559 27.5428 32.5008 27.8076 30.8377C28.0614 29.2434 29.1856 27.9207 30.8475 27.8318C30.9075 27.8284 30.9571 27.8411 30.9986 27.863C31.2184 27.8532 31.4417 28.073 31.2865 28.3077C30.2782 29.8312 30.919 32.2331 32.7909 32.7292C33.6648 32.9605 34.6287 32.6773 35.3261 32.131C35.8949 31.6851 36.0212 30.9537 36.5577 30.5441C36.5738 30.532 36.5905 30.5251 36.6073 30.5205C37.3543 26.812 34.0709 22.7481 30.0699 23.0931C26.302 23.4178 23.7881 27.274 23.427 30.7656C22.9742 35.1387 25.6271 39.195 28.4917 42.2361C30.889 44.7806 33.5806 47.0326 36.4434 49.0705C36.1654 48.6125 35.9722 48.0997 35.8972 47.5315C35.6174 45.4232 37.7811 43.4498 39.796 44.5712C40.0435 44.709 40.0193 45.1682 39.7118 45.2161C37.8083 45.5143 38.8356 47.7865 39.4753 48.7325C40.1139 49.6768 40.8315 50.5738 41.5929 51.4229C41.7227 51.48 41.8513 51.5383 41.9777 51.6006C42.0826 51.6525 42.0717 51.795 41.9955 51.8613C42.6445 52.5552 43.3338 53.2226 44.0537 53.8572C45.621 54.7415 47.2061 55.5871 48.7925 56.4051C49.5545 56.6168 50.3182 56.8262 51.0814 57.0385C49.2822 55.4423 47.7438 53.5232 46.5439 51.5694C44.5129 48.263 42.7362 43.8496 43.7924 39.9288C44.2568 38.2052 45.4548 36.3881 47.2604 35.8793C49.1091 35.3585 50.8495 36.5715 50.9095 38.4976C50.9412 39.5163 50.6124 40.5125 50.4526 41.5093C50.2911 42.5182 50.2346 43.5438 50.2646 44.5648C50.3263 46.6536 50.7756 48.7314 51.5469 50.6724C52.9607 54.2315 55.403 57.1123 58.458 59.332C59.0245 59.5402 59.5886 59.7577 60.147 59.9873C63.5763 61.3971 67.121 63.153 69.5939 65.9979C71.7727 68.5049 73.13 72.075 72.1159 75.3681C71.2858 78.0637 68.9144 80.4317 65.9621 80.4201C63.3271 80.4097 60.5698 78.4808 60.4066 75.7015C60.2664 73.3152 62.1423 71.103 64.4289 70.7955C64.7883 70.6213 65.2042 70.5331 65.6754 70.5642C66.04 70.5879 66.2079 71.0897 65.9691 71.2928C65.916 71.5074 65.7164 71.7064 65.4343 71.6602ZM35.5274 32.8175C35.4542 32.8671 35.3832 32.9132 35.3192 32.9507C34.4118 33.4803 33.2766 33.6418 32.2862 33.2576C30.4922 32.5614 29.7573 30.3607 30.4206 28.6515C28.6065 29.6627 28.1392 32.3329 29.8963 33.6983C31.7353 35.1271 34.1522 34.4857 35.5274 32.8175ZM52.6163 56.926C48.5219 52.685 46.105 46.5769 46.7302 40.7681C46.7401 40.6758 46.8762 40.6712 46.8773 40.7681C46.9443 47.6509 49.7765 53.976 55.1567 58.2198C55.6719 58.379 56.1852 58.5434 56.6963 58.7136C54.3988 57.0592 52.5731 54.7369 51.3156 52.2143C49.7812 49.1363 49.0578 45.6037 49.4102 42.1727C49.5816 40.505 50.9971 36.8081 48.2006 36.6961C45.8713 36.6033 44.6392 39.4869 44.4679 41.4026C44.1212 45.2795 46.0432 49.3088 48.2427 52.3856C49.5031 54.1491 50.9914 55.6131 52.6163 56.926ZM37.0705 48.6725C37.78 49.8262 38.8967 50.3546 40.0654 50.8143C39.9356 50.6574 39.8076 50.4982 39.6813 50.3373C38.861 49.2921 37.7777 48.0409 37.7684 46.6334C37.7638 45.9342 38.0534 45.3176 38.5443 44.9323C37.9323 44.9496 37.3272 45.3003 36.9574 45.8114C36.335 46.6715 36.5432 47.8153 37.0705 48.6725ZM40.3319 51.6536C40.3838 51.6859 40.4363 51.7188 40.4888 51.7511C40.4692 51.7269 40.449 51.7027 40.4294 51.6784C40.3971 51.6709 40.3642 51.6617 40.3319 51.6536ZM43.0194 54.6976C39.6351 52.745 36.3558 50.6182 33.2633 48.2041C29.3991 45.1873 24.7763 40.9186 22.9263 36.0535C23.4305 39.8832 25.2868 43.5986 28.0666 46.4078C32.1679 50.5513 37.5256 52.9169 43.0194 54.6976ZM56.5815 61.6537C56.2054 61.4755 55.8293 61.2967 55.4538 61.1173C55.4855 61.1554 55.519 61.194 55.549 61.2309C56.4206 62.2842 57.1924 63.5371 57.6752 64.8569C57.8512 63.6612 57.4133 62.4867 56.5815 61.6537ZM63.1512 72.1823C62.2819 72.7516 61.6254 73.6895 61.3935 74.6973C60.9921 76.4445 62.0396 78.066 63.54 78.8921C66.9503 80.7697 70.6161 78.2523 71.5246 74.7913C72.4943 71.0961 70.3698 67.4147 67.6361 65.0744C64.7888 62.6373 61.1617 61.2021 57.666 59.9746C57.148 59.7929 56.6277 59.6192 56.1062 59.4496C56.4437 59.6729 56.7829 59.895 57.1255 60.1153C57.268 60.207 57.2391 60.4078 57.1226 60.4805C59.4144 61.5591 61.7091 62.6303 63.9807 63.7517C67.4775 65.4776 71.4837 68.4362 70.916 72.8768C70.6951 74.6038 69.6285 76.0482 68.0341 76.7601C66.648 77.379 64.8696 77.349 63.7332 76.2288C62.7284 75.2378 62.5738 73.4801 63.1512 72.1823Z" fill="#FAFAFA"/>
<path d="M22.2495 94.3536C21.2492 92.9922 19.7754 92.1074 18.1966 91.5669C17.5165 91.3338 16.792 91.2081 16.0698 91.0794C12.3526 91.4117 8.81367 89.9154 6.49593 86.9492C4.0432 83.8095 2.91201 79.6418 2.76261 75.6991C-0.145823 71.5095 -0.658058 65.4065 0.758664 60.6216C2.25787 55.5581 6.25481 51.6402 11.5514 50.8453C14.326 50.4289 17.1669 50.8055 19.8394 51.6033C22.22 52.3134 24.382 53.3875 26.5683 54.4852C15.7323 48.1803 6.78838 38.2102 4.08242 25.7055C2.73319 19.4704 2.85779 12.2357 6.18847 6.61088C9.23592 1.4643 15.9342 -1.86697 21.6103 1.13895C22.0372 1.36507 21.9408 2.06363 21.4748 2.17381C17.8257 3.03676 14.7228 5.24029 12.4541 8.19833C8.19587 13.7493 7.15641 20.856 8.25183 27.6304C9.36167 34.4948 12.7322 40.6647 17.1554 45.9457C21.6732 50.306 27.047 53.6713 32.7162 56.334C33.0271 56.4799 33.3392 56.6218 33.6524 56.7637C35.5116 57.3896 37.3315 58.1332 39.0759 58.9644C39.8275 59.2378 40.5826 59.5003 41.3412 59.7529C42.0749 59.8654 42.8069 60.1088 43.5095 60.4428C45.2614 60.9724 47.0277 61.4517 48.7882 61.9507C43.1801 58.939 36.7939 57.3948 31.2084 54.3358C20.6285 48.542 10.4167 38.9468 10.9866 25.9068C11.113 23.0203 11.789 20.1534 13.1169 17.5784C13.264 17.2934 13.4215 17.009 13.5865 16.7258C13.5518 16.6641 13.5415 16.5868 13.5703 16.4979C13.9354 15.3702 14.7274 14.4605 15.7179 13.837C16.6968 12.7946 17.8309 11.9138 19.1132 11.3502C21.4921 10.3044 24.7385 10.6193 26.2049 13.015C27.3856 14.9445 26.6017 17.6995 24.4778 18.5365C24.2326 18.6328 23.8756 18.4298 23.8317 18.1696C23.4683 16.0105 21.8001 14.1698 19.5833 13.8594C18.6552 13.7297 17.7859 13.8837 16.9979 14.2304C16.0052 15.2173 15.1757 16.3878 14.548 17.4711C11.8652 22.1019 11.5975 27.8513 12.9894 32.9379C14.4581 38.3031 17.888 42.8826 21.9905 46.549C26.3519 50.4473 31.4991 53.4907 36.8337 55.8523C39.5783 57.0671 42.3904 58.1262 45.1056 59.408C46.9129 60.2611 48.5874 61.2423 50.1951 62.3568C50.675 62.4975 51.1544 62.6406 51.632 62.7888C51.7629 62.8292 51.7537 63.0392 51.6245 63.0536C52.9403 63.8393 53.9313 65.1129 54.2266 66.7858C54.736 69.6688 52.4984 72.5819 49.4608 72.3315C49.2179 72.3113 48.9399 72.1192 48.9687 71.8395C49.2572 69.0118 48.5315 66.1847 46.6954 63.9743C45.8463 62.9521 44.8005 62.0978 43.6341 61.4615C43.588 61.4367 43.5412 61.4154 43.4951 61.3912C42.3287 61.0635 41.1716 60.7093 40.0248 60.3407C37.1314 59.412 34.2772 58.3316 31.5153 57.0568C30.0316 56.6253 28.5289 56.2567 26.9819 56.0213C22.6729 55.3655 18.0702 55.6377 14.1327 57.6428C13.294 58.0697 12.5026 58.56 11.7579 59.1034C12.1444 60.1008 12.9508 60.9112 13.9026 61.3802C15.4191 62.1272 17.4415 61.2827 18.7803 62.3776C19.7852 63.199 19.6502 64.659 18.838 65.5698C17.7905 66.7442 16.1038 66.6416 14.7597 66.0861C12.4668 65.1383 10.5038 63.1551 9.77296 60.7878C6.08175 64.4138 4.01839 69.5546 4.04897 74.8241C4.05012 75.0173 4.05416 75.2123 4.06108 75.4078C4.74637 76.1635 5.51818 76.8257 6.56111 76.933C7.4754 77.027 8.19934 76.6821 8.651 75.8837C8.97404 75.3132 9.14305 74.6671 9.67893 74.2443C11.4406 72.8547 13.6897 74.8425 13.3482 76.7859C12.9202 79.2248 10.2639 79.9458 8.13762 79.5328C6.63264 79.2403 5.31513 78.4587 4.22375 77.4221C4.90557 82.7677 7.61327 88.3129 12.8193 89.5629C14.0935 89.6529 15.276 89.8035 16.5612 89.5773C17.8112 89.3581 19.0111 88.9982 20.114 88.3579C22.4335 87.0116 23.9794 84.6932 24.2684 82.0184C24.5459 79.4486 23.7498 76.7294 21.9501 74.8437C19.8002 72.5905 16.1609 71.9468 14.33 74.9435C14.21 75.1396 13.8374 75.0767 13.8645 74.8171C13.8824 74.6429 13.9129 74.4774 13.9522 74.3182C13.9297 74.2957 13.9101 74.2674 13.8962 74.2322C12.536 70.7071 15.5731 67.0205 19.1351 66.851C23.3962 66.6479 26.6531 70.1966 27.5212 74.1059C28.8335 80.0156 26.0087 86.6378 20.8477 89.5791C22.2921 90.5839 23.0293 92.3906 23.0495 94.139C23.0559 94.5976 22.4865 94.6766 22.2495 94.3536ZM18.6292 12.9054C18.9701 12.8857 19.3104 12.8955 19.6456 12.9371C21.9939 13.2313 23.9829 15.012 24.678 17.2403C25.598 16.5297 25.8945 15.1279 25.4867 14.0498C24.9306 12.5794 23.2457 11.8924 21.773 11.9028C20.6395 11.9109 19.5844 12.2974 18.6292 12.9054ZM8.83905 77.016C8.53333 77.3195 8.14915 77.5196 7.73959 77.6361C8.8379 77.6148 9.95467 77.32 10.918 76.8228C11.0132 76.7738 11.0801 76.9007 10.9999 76.9624C9.77815 77.905 8.36835 78.2574 6.82761 78.1028C6.78723 78.0988 6.74396 78.093 6.70186 78.0884C7.3658 78.4431 8.08512 78.6883 8.85059 78.7743C10.235 78.93 11.8502 78.4743 12.3774 77.0437C12.7829 75.9425 12.1611 74.6925 10.8961 74.7069C9.65644 74.7202 9.5653 76.2961 8.83905 77.016ZM12.2343 61.2089C12.2897 61.311 12.348 61.4119 12.4132 61.5111C13.2825 62.8338 14.6998 63.466 16.2157 63.7002C16.4476 63.736 16.3812 64.096 16.162 64.0971C14.5377 64.1063 12.994 63.2867 11.9921 62.017C11.6015 61.5215 11.0905 60.6782 10.828 59.8273C10.7853 59.8625 10.7449 59.9 10.7028 59.9358C10.9861 61.3006 11.7579 62.5171 12.7766 63.4759C13.8755 64.5096 15.7906 65.8628 17.3809 65.2912C18.0166 65.0627 18.6557 64.2788 18.496 63.5537C18.3079 62.6989 17.258 62.6717 16.5647 62.6596C15.2922 62.6371 14.1183 62.5287 13.0136 61.8278C12.7385 61.6536 12.4778 61.4442 12.2343 61.2089ZM10.6094 58.3224C10.6042 58.3777 10.5984 58.4325 10.5944 58.4885C10.6094 58.477 10.6244 58.4666 10.6394 58.455C10.629 58.4106 10.6192 58.3668 10.6094 58.3224ZM25.5744 54.8919C22.6175 54.1535 19.7575 52.9641 16.6281 53.2461C14.818 53.4094 13.0085 54.2141 11.8473 55.5287C11.8473 55.561 11.8444 55.5939 11.8369 55.6285C11.6823 56.3461 11.5162 57.0493 11.5156 57.7565C11.5248 57.7703 11.5358 57.7819 11.5433 57.7992C11.5444 57.8026 11.5456 57.8055 11.5467 57.809C12.4172 57.2292 13.3436 56.717 14.326 56.2867C17.8666 54.7361 21.7713 54.4483 25.5744 54.8919ZM49.4279 62.7479C48.9503 62.6677 48.4738 62.5794 47.9985 62.4843C48.5194 62.8633 48.9895 63.2751 49.3448 63.5866C50.6531 64.7322 51.6303 66.0895 52.1183 67.7479C52.1656 67.9077 51.9545 67.97 51.8685 67.8535C50.9236 66.5781 49.8749 65.3004 48.6399 64.2927C48.2085 63.9402 47.747 63.6247 47.267 63.3397C47.3086 63.3882 47.3501 63.4366 47.3899 63.4851C49.1879 65.665 50.1241 68.5267 49.9874 71.3486C52.3773 71.1992 53.9048 68.8001 53.2841 66.4599C52.7776 64.5528 51.2236 63.3097 49.4279 62.7479ZM10.1531 37.2267C10.0706 37.056 9.98696 36.8864 9.90678 36.7145C6.88587 30.1904 5.68085 22.3932 7.72864 15.406C9.50127 9.35663 13.6574 3.80339 19.6375 1.57332C16.8894 0.781897 13.8547 1.41873 11.4291 2.93293C8.37123 4.8417 6.47689 8.12797 5.51299 11.5267C3.03603 20.2624 5.43684 29.5345 10.1531 37.2267ZM2.78107 73.6779C3.08679 68.225 5.47434 62.9827 9.49607 59.3959C9.4557 58.9592 9.458 58.515 9.50934 58.0662C9.88948 54.7194 12.9681 52.6087 16.1165 52.2332C17.3619 52.085 18.6154 52.1542 19.8619 52.3653C19.6779 52.3151 19.4939 52.2621 19.3099 52.2153C16.5641 51.5168 13.6464 51.2837 10.8649 51.9252C1.56105 54.0705 -1.07569 65.8605 2.78107 73.6779ZM25.3863 82.6939C26.5042 80.2579 26.9438 77.485 26.5181 74.8535C25.9528 71.3624 23.4516 68.0196 19.6773 67.8097C16.5543 67.6355 13.6418 70.4891 14.2141 73.6185C15.2351 71.6376 18.1545 71.2828 20.1619 72.1296C24.1842 73.8255 26.0624 78.5337 25.3863 82.6939ZM22.0972 92.8849C21.8584 91.718 21.2048 90.7172 20.3211 89.8606C19.675 90.1876 18.9955 90.4587 18.2854 90.6641C18.6263 90.7766 18.9643 90.8983 19.296 91.0391C20.3499 91.4878 21.2971 92.0993 22.0972 92.8849Z" fill="#FAFAFA"/>
</svg>
