<svg width="196" height="246" viewBox="0 0 196 246" fill="none" xmlns="http://www.w3.org/2000/svg">
<path d="M77.8914 245.146C72.3798 244.63 65.7257 242.767 59.9931 240.135C44.1727 232.872 29.2052 216 25.3353 201.068C24.4062 197.483 24.2773 195.893 25.1424 198.689C26.0011 201.464 28.4124 206.387 30.2828 209.184C32.9754 213.211 36.2796 216.321 40.55 218.848C45.3536 221.691 49.7327 222.967 55.5122 223.206C57.528 223.29 59.673 223.537 60.331 223.762C63.8238 224.956 64.3919 228.808 61.2991 230.327C59.4868 231.218 57.7132 231.305 54.9804 230.64C51.5871 229.814 46.7705 227.511 44.2326 225.501C43.6427 225.033 43.948 225.39 44.911 226.293C49.8912 230.964 58.7654 234.876 65.2755 235.27C69.683 235.536 72.5198 234.453 73.8146 232.009C74.4492 230.811 74.5985 228.605 74.1261 227.409C73.6761 226.269 71.7843 224.445 70.3023 223.722C68.6282 222.905 67.8956 222.742 60.2408 221.493C52.7292 220.266 48.6494 219.196 44.866 217.459C41.4001 215.868 39.0195 214.362 36.8711 212.402L35.3127 210.98L37.3472 212.365C44.0685 216.943 53.0753 219.83 65.3837 221.353C70.3351 221.965 73.5723 222.805 75.5007 223.978C78.4671 225.781 80.0007 228.801 79.3257 231.51C78.6299 234.303 74.8316 236.971 71.4138 237.066C70.4042 237.094 70.5973 237.17 72.5146 237.5C75.4833 238.011 84.3621 237.823 87.3355 237.187C92.1061 236.167 97.1368 234.162 100.482 231.949C102.69 230.488 105.413 227.619 106.373 225.742C109.38 219.86 107.254 213.712 101.955 212.968L100.416 212.752L101.995 212.717C102.863 212.699 104.607 212.951 105.87 213.279C111.288 214.687 114.3 218.348 113.856 222.984C113.279 228.995 108.03 234.78 99.3996 238.915C98.0404 239.567 97.0197 240.102 97.1313 240.105C97.243 240.107 98.4201 239.783 99.7471 239.383C105.682 237.595 111.956 233.736 116.449 229.111C119.019 226.465 120.714 224.061 122.335 220.76C125.017 215.298 125.74 210.073 124.22 207.134C122.922 204.627 120.035 203.238 116.677 203.506C114.823 203.654 114.891 203.527 117.285 202.363C119.218 201.425 121.981 200.648 123.385 200.648C127.159 200.648 130.761 203.659 131.271 207.24C131.391 208.08 131.551 208.421 131.74 208.24C132.167 207.828 131.538 204.239 130.772 202.716C130.011 201.201 128.239 199.87 126.661 199.627L125.541 199.454L128.369 198.076C131.984 196.314 134.112 194.841 138.583 191.008C143.579 186.723 146.599 184.663 150.89 182.613C154.735 180.775 159.167 179.425 163.432 178.792C168.353 178.062 176.079 179.015 180.846 180.942C188.214 183.92 193.552 189.583 195.479 196.466C196.231 199.15 196.159 203.616 195.327 205.965C193.744 210.439 190.757 213.033 186.736 213.426L185.283 213.568L186.747 212.886C188.594 212.025 190.452 210.009 191.282 207.966C192.128 205.882 192.206 201.13 191.439 198.409C189.479 191.453 183.358 185.751 175.493 183.553C172.458 182.705 166.426 182.508 162.927 183.142C156.385 184.327 150.043 187.803 145.653 192.609C140.074 198.716 137.257 205.578 137.13 213.367C137.077 216.629 136.651 216.171 136.623 212.822C136.557 204.911 139.736 197.446 145.632 191.672C146.979 190.353 148.8 188.674 149.679 187.942L151.278 186.61L149.243 187.644C145.68 189.455 141.482 193.107 138.573 196.925C135.958 200.357 132.065 208.609 131.403 212.123C130.971 214.418 129.312 219.006 128.09 221.284C126.683 223.908 123.672 227.871 121.364 230.137C114.373 236.999 105.961 241.521 95.7658 243.897C89.5542 245.345 84.0983 245.726 77.8914 245.146ZM120.615 236.842C120.376 236.748 119.853 236.555 119.453 236.412C118.75 236.161 118.745 236.143 119.308 235.844C121.218 234.827 125.221 231.271 126.947 229.055L127.601 228.216L127.175 229.335C126.94 229.951 126.599 231.021 126.416 231.714C125.82 233.972 124.997 235.471 123.989 236.134C122.976 236.801 121.37 237.138 120.615 236.842ZM159.852 236.838C157.742 236.496 154.621 235.5 152.496 234.491C146.401 231.595 141.445 225.823 139.771 219.671C138.974 216.742 138.903 212.308 139.611 209.663C140.929 204.74 144.265 200.692 148.226 199.209C150.623 198.312 154.18 198.328 156.623 199.248C158.763 200.054 160.922 201.788 162.007 203.571C163.035 205.261 162.955 205.319 161.578 203.881C158.632 200.803 153.112 201.055 150.047 204.408C147.553 207.137 147.067 211.313 148.717 215.834C149.984 219.304 151.191 221.116 154.184 224.042C156.338 226.147 157.237 226.805 159.271 227.762C165.94 230.903 172.441 229.556 175.028 224.497C175.893 222.805 175.982 222.394 175.982 220.105C175.982 217.968 175.866 217.341 175.224 216.022C173.309 212.091 169.186 210.269 165.789 211.853C162.993 213.156 162.003 216.591 163.708 219.072C164.656 220.45 166.357 221.359 167.993 221.359C169.453 221.359 170.579 220.822 171.619 219.632C172.311 218.841 172.394 218.547 172.273 217.33C172.157 216.172 171.956 215.779 171.083 215.009C169.858 213.927 170.148 213.747 171.436 214.791C172.497 215.65 173.05 217.133 172.849 218.579C172.394 221.842 168.206 223.577 164.713 221.949C160.464 219.968 158.787 215.341 160.887 211.387C162.058 209.182 164.473 207.306 166.982 206.652C169.637 205.96 172.824 206.184 175.088 207.222C180.301 209.611 183.673 216.008 182.845 221.934C181.813 229.314 175.946 234.934 167.523 236.609C165.563 236.999 161.58 237.118 159.852 236.838ZM83.4216 235.431C85.1628 234.265 85.9211 232.377 85.6529 229.874C85.4582 228.058 84.4782 226.303 82.9245 224.99L81.8319 224.066L83.9214 224.234C86.1296 224.413 88.3521 225.194 89.4334 226.172C89.7911 226.496 90.3005 227.307 90.5654 227.975C91.745 230.95 89.8389 233.578 85.3131 235.219C83.0739 236.03 82.4161 236.104 83.4216 235.431ZM130.031 234.842C129.217 234.186 128.753 233.31 128.753 232.425C128.753 231.703 128.757 231.702 129.661 232.151C131.536 233.085 133.687 231.968 134.967 229.394L135.693 227.936L135.536 229.615C135.29 232.267 134.908 233.326 133.818 234.375C133.016 235.147 132.576 235.35 131.723 235.343C131.129 235.338 130.367 235.112 130.031 234.842ZM93.4986 233.088C95.6768 230.853 95.9319 227.792 94.0973 225.907C93.3444 225.133 93.6078 225.122 95.7658 225.837C98.5677 226.765 100.969 226.495 102.668 225.06C104.019 223.92 102.311 226.955 100.627 228.689C99.0177 230.345 97.3178 231.555 94.6032 232.977L92.5688 234.042L93.4986 233.088ZM130.271 229.879C129.328 229.243 129.462 228.769 131.042 227.149C133.237 224.898 134.222 222.498 134.311 219.176C134.343 217.976 134.383 218.057 134.76 220.099C135.267 222.84 135.123 226.768 134.471 227.981C133.863 229.115 132.364 230.315 131.557 230.315C131.205 230.315 130.627 230.119 130.271 229.879ZM115.613 227.796C117.065 225.206 117.533 223.445 117.543 220.519C117.556 216.995 116.984 215.408 114.929 213.271C112.448 210.69 108.292 209.276 104.953 209.876C104.216 210.009 103.567 210.073 103.511 210.019C103.3 209.815 106.913 208.233 109 207.615C111.92 206.75 115.815 206.721 117.724 207.55C119.761 208.434 121.09 209.717 121.764 211.451C123.366 215.573 121.728 221.19 117.455 226.225C114.849 229.296 114.701 229.423 115.613 227.796ZM87.1919 221.615C85.993 221.328 81.0885 220.707 76.2929 220.236C64.9844 219.124 62.3821 218.744 57.0657 217.428C49.4598 215.545 44.7445 213.454 39.3661 209.578C36.6995 207.657 32.9643 204.116 31.7161 202.327C31.2713 201.69 31.6276 201.95 32.7367 203.072C42.3531 212.805 58.5745 218.62 76.1476 218.636C80.1046 218.641 82.1768 218.513 83.9949 218.158C87.831 217.409 90.9714 217.282 92.0733 217.831C93.7107 218.646 94.1238 220.495 92.9133 221.59C92.0713 222.352 90.3014 222.359 87.1919 221.615ZM64.3767 214.346C57.6221 213.675 50.6508 211.577 45.2127 208.581C35.2501 203.092 27.8395 193.31 25.1026 182.036C24.6509 180.176 24.5608 178.686 24.5696 173.22C24.5788 167.493 24.6635 166.275 25.2254 163.792C26.9697 156.083 30.2631 149.927 35.8853 143.866C37.421 142.21 37.529 142.005 37.357 141.067C36.6929 137.446 31.0686 130.317 21.9698 121.562C13.6005 113.509 7.556 109.342 1.67118 107.57C0.752028 107.294 0 106.942 0 106.788C0 106.28 11.7053 95.3004 15.4039 92.3389C23.7995 85.6163 31.3923 81.9127 40.7406 79.9801C45.1023 79.0784 53.082 79.0676 56.7623 79.9585C64.342 81.7933 69.9106 85.9656 73.0954 92.1962C75.1368 96.1899 75.579 97.8565 75.7685 102.272C76.0283 108.323 74.9865 111.906 70.7631 119.484C69.605 121.562 68.1585 124.486 67.5487 125.982C66.9389 127.477 66.4125 128.674 66.3791 128.641C66.3456 128.607 66.7091 126.25 67.1867 123.402C68.2725 116.929 68.4489 110.644 67.6265 107.729C66.0436 102.12 62.1255 97.8332 56.6555 95.7264C53.5425 94.5273 51.0895 94.1916 46.8101 94.379C41.5125 94.611 37.5655 95.8081 27.8312 100.135C22.0779 102.692 16.7234 103.905 11.7976 103.765L8.47046 103.671L9.53941 104.504C12.9486 107.161 16.3841 110.758 27.5936 123.402C31.4827 127.789 37.0733 134.038 40.0172 137.289C46.3012 144.227 49.592 148.232 50.9819 150.634C54.0325 155.906 54.3608 161.841 51.7672 164.833C51.1131 165.587 50.7381 165.775 49.8887 165.775C49.1471 165.775 48.9196 165.864 49.1333 166.069C49.305 166.234 50.6117 166.357 52.1124 166.348C54.1782 166.337 55.1643 166.19 56.4526 165.7C61.6788 163.714 66.9452 158.292 69.764 151.995C71.2911 148.583 72.4035 144.571 74.2459 135.827C76.0664 127.188 76.392 126.089 76.4198 128.49C76.4935 134.846 78.9736 141.84 82.6839 146.154C86.7857 150.924 94.2979 155.004 101.01 156.107C101.962 156.263 103.691 156.476 104.852 156.578L106.964 156.765L106.645 155.967C105.582 153.307 105.767 150.03 107.132 147.344C108.195 145.256 108.82 144.784 108.097 146.618C107.739 147.524 107.537 148.739 107.537 149.98C107.537 155.138 110.11 160.118 114.217 162.907C115.935 164.074 115.953 164.101 115.434 164.668C115.144 164.985 113.952 166.547 112.786 168.141C107.083 175.932 99.6321 180.709 91.6706 181.677C88.0106 182.122 85.2476 181.741 82.4387 180.404C77.519 178.063 74.884 173.62 75.8218 169.248C76.2808 167.108 76.7347 166.236 78.0496 164.97C79.6412 163.437 81.0616 162.865 83.2711 162.865C86.8623 162.865 89.2264 164.804 89.2264 167.749C89.2264 169.158 88.5056 170.142 87.4734 170.142C86.7745 170.142 86.3944 169.398 86.8627 168.947C87.4251 168.406 87.226 167.409 86.4358 166.811C84.7113 165.504 82.4419 165.898 81.1488 167.729C79.153 170.553 80.7685 174.391 84.5261 175.752C89.0418 177.388 94.3324 174.87 95.6677 170.449C95.8815 169.741 96.0428 168.206 96.0261 167.037C95.9871 164.3 95.0888 162.341 92.8266 160.057C88.6689 155.859 81.8452 154.989 75.8691 157.894C72.0591 159.746 68.6707 163.677 67.0283 168.149C66.2258 170.335 66.1416 170.89 66.1316 174.06C66.1224 176.958 66.2369 177.919 66.7982 179.657C71.7243 194.916 90.6695 198.693 110.007 188.27C116.359 184.846 121.356 181.194 126.575 176.161C137.005 166.104 143.107 154.566 145.154 141.034C147.36 126.446 144.043 108.057 136.509 93.1075C134.947 90.0088 135.248 90.3304 139.06 95.8346C147.664 108.258 151.714 120.887 151.714 135.297C151.714 140.914 151.237 145.293 150.114 149.99C146.885 163.496 142.101 171.872 132.116 181.503C127.166 186.279 125.06 187.951 119.433 191.571C112.116 196.281 104.027 199.672 96.3471 201.25C93.5881 201.817 92.3734 201.905 87.4826 201.89C82.3138 201.874 81.5669 201.808 78.9942 201.139C69.0063 198.545 62.9644 192.967 58.9809 182.665C58.5194 181.471 57.9314 180.103 57.6743 179.624C56.9483 178.272 54.9949 176.359 52.6058 174.659C48.3812 171.652 46.3862 169.136 45.4564 165.641C44.6725 162.695 45.3964 158.915 47.2478 156.288L47.9679 155.266L47.1862 153.883C46.0287 151.835 45.8644 151.768 44.3933 152.742C40.1861 155.53 36.1857 161.16 34.5559 166.589C33.7055 169.421 33.5004 174.771 34.1124 178.156C35.471 185.671 38.6694 191.474 44.5903 197.166C49.3326 201.725 54.0608 204.566 60.6257 206.8C73.8992 211.317 89.8916 209.646 106.374 202.02C110.41 200.153 116.934 196.765 118.726 195.605C119.366 195.192 120.477 194.514 121.197 194.1L122.505 193.347L121.342 194.37C115.979 199.091 103.945 206.119 95.5539 209.431C90.2479 211.525 84.0786 213.197 78.9613 213.927C75.1743 214.468 67.7459 214.681 64.3767 214.346ZM97.9323 214.237C98.4396 213.649 99.9766 212.866 100.201 213.082C100.293 213.17 100.233 213.242 100.069 213.242C99.9049 213.242 99.2654 213.572 98.6479 213.976C98.0305 214.379 97.7084 214.497 97.9323 214.237ZM72.8053 205.528C63.7828 204.35 56.1223 201.474 51.2979 197.454L50.426 196.727L51.8809 197.432C53.8998 198.411 56.494 198.842 57.9826 198.445C60.1794 197.861 61.072 197.093 61.7675 195.19C61.9461 194.702 62.0207 194.755 62.3531 195.61C62.9056 197.031 62.8575 198.079 62.1923 199.116C61.5795 200.071 60.1189 200.904 58.9559 200.962C58.5805 200.981 59.0332 201.103 59.962 201.234C61.1596 201.403 62.3008 201.352 63.8857 201.06C67.7464 200.348 68.0492 200.408 73.0354 202.849C75.5078 204.059 78.2985 205.243 79.2369 205.48L80.9432 205.91L78.3274 205.909C76.8887 205.908 74.4038 205.737 72.8053 205.528ZM183.69 205.386C182.551 204.928 181.966 204.284 181.768 203.267C181.518 201.983 182.21 201.03 183.668 200.652C185.33 200.221 186.009 199.25 186.009 197.307C186.009 193.768 182.717 190.102 177.01 187.287C175.965 186.771 175.437 186.435 175.837 186.538C177.058 186.856 179.939 188.339 181.489 189.448C183.831 191.125 186.056 193.798 187.521 196.696C188.354 198.343 188.46 198.821 188.469 200.992C188.48 203.423 188.475 203.441 187.449 204.429C186.322 205.515 184.907 205.876 183.69 205.386ZM178.274 198.847C177.688 198.602 177.252 198.146 177.039 197.557C176.611 196.376 176.541 196.566 177.872 195.298C178.877 194.339 179.034 194.023 179.034 192.959C179.034 191.417 178.634 190.381 177.635 189.335L176.854 188.518L177.872 189.189C180.657 191.026 182.793 193.868 182.805 195.75C182.812 196.941 181.809 198.374 180.636 198.846C179.437 199.328 179.421 199.328 178.274 198.847ZM169.61 198.036C168.823 197.278 168.651 196.232 169.163 195.312C169.385 194.912 169.774 194.771 170.656 194.771C171.967 194.771 172.615 194.238 172.631 193.147C172.657 191.341 169.826 188.699 166.829 187.734C166.345 187.578 166.585 187.554 167.542 187.662C170.74 188.025 174.001 189.903 174.858 191.876C175.677 193.765 175.059 196.673 173.565 197.952C173.229 198.24 172.37 198.539 171.657 198.616C170.543 198.737 170.253 198.655 169.61 198.036ZM121.633 197.647C122.328 196.967 130.593 190.536 131.801 189.736C133.456 188.639 134.929 188.007 137.909 187.113C140.182 186.432 140.215 186.43 139.378 187.025C138.908 187.36 137.176 188.845 135.53 190.326C132.317 193.217 130.619 194.219 125.3 196.364C121.224 198.008 121.287 197.986 121.633 197.647ZM160.292 197.397C159.429 196.79 156.304 195.928 154.215 195.722C152.546 195.558 149.31 195.894 148.036 196.365C147.722 196.481 147.62 196.436 147.748 196.236C147.857 196.066 148.986 195.541 150.257 195.069C154.4 193.53 157.476 193.964 159.987 196.44C161.151 197.587 161.321 198.122 160.292 197.397ZM164.593 196.1C164.444 195.907 164.078 195.209 163.78 194.547C163.134 193.112 161.759 191.879 160.278 191.409C159.608 191.196 158.199 191.113 156.548 191.189L153.894 191.31L155.492 190.611C157.346 189.8 160.773 189.495 162.619 189.975C165.229 190.655 167.371 193.022 166.97 194.783C166.679 196.059 165.197 196.88 164.593 196.1ZM14.096 195.063C12.9908 194.623 12.1445 193.448 11.9915 192.141L11.8435 190.877L12.9586 191.424C16.2991 193.064 20.3336 190.853 21.3217 186.841L21.7467 185.115L21.7707 187.354C21.8103 191.047 20.9973 192.797 18.4877 194.421C17.0455 195.354 15.4221 195.591 14.096 195.063ZM46.8801 192.01C40.4778 189.88 36.5203 181.945 37.5221 173.246C37.9438 169.584 38.9615 165.957 40.3763 163.075C41.0373 161.728 41.6281 160.626 41.689 160.626C41.7499 160.626 41.3533 161.829 40.8076 163.299C38.4833 169.561 38.3398 175.984 40.4044 181.339C41.2711 183.587 43.529 186.339 45.3968 187.422C49.7833 189.968 55.2215 188.748 55.2215 185.218C55.2215 183.067 53.8358 181.742 51.6439 181.797C50.7027 181.821 50.2893 182.009 49.6426 182.706C48.6626 183.762 48.6213 184.367 49.4591 185.393C50.0732 186.145 50.0742 186.157 49.4932 185.858C47.8456 185.009 48.4155 182.414 50.4543 181.482C53.5597 180.063 56.9605 182.515 56.9639 186.175C56.9667 189.139 55.116 191.288 51.8571 192.105C49.6872 192.65 48.7477 192.632 46.8801 192.01ZM168.117 191.392C167.026 190.294 165.653 189.478 164.117 189.016C163.45 188.815 163.109 188.642 163.359 188.632C164.733 188.576 166.812 189.514 167.953 190.706C169.031 191.833 169.332 192.252 169.061 192.252C169.011 192.252 168.586 191.865 168.117 191.392ZM14.0044 188.609C11.9704 188.16 10.7095 186.1 11.3409 184.258C11.677 183.277 12.7996 182.537 13.4045 182.897C14.0061 183.255 16.071 182.646 17.0431 181.824C18.274 180.784 19.0707 179.336 19.5845 177.205L19.9719 175.599L20.1926 178.602C20.589 183.994 19.8514 186.664 17.6284 187.884C16.1329 188.705 15.2444 188.883 14.0044 188.609ZM131.945 184.818C132.785 183.758 137.635 178.694 138.742 177.722C144.535 172.632 150.622 170.989 156.486 172.932C158.345 173.548 160.418 174.627 160.967 175.264C161.26 175.604 160.914 175.641 158.58 175.524C151.11 175.147 141.171 178.454 133.694 183.801C132.495 184.659 131.708 185.116 131.945 184.818ZM189.061 180.038C188.741 179.795 187.826 179.296 187.027 178.93L185.573 178.263L186.935 178.261C188.827 178.257 189.663 178.629 190.028 179.637C190.385 180.625 190.029 180.773 189.061 180.038ZM13.0536 179.298C11.8222 178.388 11.62 176.966 12.5222 175.561L13.1282 174.616L13.8693 175.178C15.0198 176.049 16.7736 175.931 18.0801 174.894L19.145 174.049L18.9092 174.84C17.8821 178.289 14.8305 180.612 13.0536 179.298ZM42.3251 176.85C41.3763 175.764 40.975 174.351 41.0162 172.241L41.0489 170.561L41.3195 171.961C41.8723 174.82 42.257 175.816 43.1671 176.745C43.9148 177.508 43.9976 177.698 43.5834 177.698C43.299 177.698 42.7328 177.316 42.3251 176.85ZM177.597 176.904C182.401 173.95 184.639 167.638 182.376 163.424C181.825 162.397 181.821 161.444 182.367 160.749C182.999 159.945 182.903 159.506 182.096 159.506C181.226 159.506 180.694 160.346 180.948 161.32C181.196 162.272 180.893 162.211 180.349 161.199C179.697 159.985 179.805 159.064 180.715 158.084C182.317 156.356 185.542 156.82 187.291 159.029C191.212 163.978 188.611 173.188 182.442 176.198C181.165 176.821 177.881 177.68 176.725 177.693C176.494 177.696 176.886 177.341 177.597 176.904ZM189.076 176.229C191.146 174.397 191.41 174.25 192.26 174.455C193.04 174.644 193.41 175.466 193.154 176.446C192.941 177.263 191.548 177.694 189.11 177.697L187.416 177.698L189.076 176.229ZM44.3378 174.916C44.0568 174.617 43.8731 174.242 43.9294 174.082C43.9858 173.923 44.2547 174.168 44.527 174.626C45.1028 175.595 45.0509 175.674 44.3378 174.916ZM15.5943 173.828C15.3297 173.546 15.1133 173.174 15.1133 173C15.1133 172.827 15.9961 172.188 17.0751 171.579C19.0208 170.483 19.9678 169.68 20.5869 168.602C21.3199 167.326 20.906 169.077 20.0399 170.916C18.5693 174.04 16.8509 175.165 15.5943 173.828ZM190.832 171.667C191.415 170.443 192.023 169.284 192.183 169.092C192.92 168.207 194.729 169.103 194.729 170.353C194.729 171.16 194.113 171.683 192.481 172.262C191.719 172.532 190.798 173.01 190.434 173.323C189.852 173.823 189.9 173.622 190.832 171.667ZM176.649 171.051C176.237 170.628 175.544 169.589 175.11 168.742C173.756 166.1 172.147 164.824 170.17 164.824C168.463 164.824 166.731 165.943 166.489 167.203C166.402 167.655 166.265 167.547 165.779 166.643C165.401 165.942 164.651 165.21 163.772 164.684C162.514 163.931 162.124 163.844 160.014 163.844C157.939 163.844 157.437 163.952 155.777 164.753C153.665 165.772 151.805 167.278 150.85 168.742L150.211 169.722L150.402 168.602C151.114 164.442 155.332 159.929 159.927 158.409C166.014 156.396 172.677 157.775 176.243 161.787C178.122 163.901 179.124 166.12 179.266 168.481C179.411 170.895 179.077 171.821 178.061 171.821C177.697 171.821 177.062 171.474 176.649 171.051ZM168.479 170.034C168.12 169.134 168.271 167.997 168.812 167.526C169.591 166.847 171.057 166.93 171.606 167.685C172.259 168.583 172.164 169.022 171.318 169.022C170.441 169.022 168.964 169.707 168.796 170.191C168.722 170.406 168.604 170.347 168.479 170.034ZM164.734 168.727C163.849 167.517 162.962 166.887 161.375 166.342C160.496 166.039 160.423 165.966 160.995 165.956C162.338 165.932 164.174 167.042 164.977 168.362C165.929 169.925 165.777 170.152 164.734 168.727ZM11.3349 164.513C6.46045 163.764 2.67286 159.847 4.19361 157.128C4.68633 156.247 4.68134 156.221 3.66562 154.442C2.22558 151.919 1.65089 149.383 1.64228 145.512C1.63663 143.012 1.78047 141.797 2.28621 140.067C4.01007 134.173 8.13807 129.788 13.6601 127.986C16.0703 127.199 21.3639 127.265 23.5724 128.108C27.0392 129.431 30.1192 132.056 31.68 135.018C33.276 138.046 33.1802 141.643 31.4357 144.189L30.9043 144.965L31.0327 143.474C31.5814 137.102 25.3774 131.384 18.4556 131.883C8.24351 132.617 3.31695 143.345 10.1441 149.98C10.879 150.695 11.8073 151.485 12.2069 151.737C12.9189 152.186 12.9102 152.189 11.7709 151.908C9.05272 151.237 6.63107 149.179 5.27081 146.386C4.59942 145.007 4.50642 144.467 4.51705 142.014L4.52907 139.215L3.98519 140.894C3.25347 143.154 3.42052 147.463 4.32825 149.744C7.23569 157.05 15.8459 160.291 22.0648 156.42C23.0237 155.824 24.206 154.806 24.6922 154.16C25.8028 152.684 25.7997 152.973 24.6722 156.055C23.504 159.249 23.1578 159.872 21.7173 161.377C20.1252 163.04 18.5001 163.916 16.0908 164.407C13.8774 164.859 13.6231 164.864 11.3349 164.513ZM118.872 162.603C114.825 161.413 110.929 156.818 110.109 152.269C109.373 148.185 111.534 146.283 114.984 147.978C116.459 148.702 118.963 151.309 119.906 153.102C120.605 154.43 121.38 157.184 121.124 157.431C121.053 157.499 120.516 156.861 119.931 156.013C119.006 154.672 116.538 152.537 115.889 152.516C115.471 152.503 118.014 157.001 119.049 158.104C119.62 158.712 120.794 159.543 121.658 159.95C122.989 160.577 123.518 160.673 125.106 160.576C127.365 160.437 127.261 160.741 124.609 162.017C122.8 162.888 120.604 163.112 118.872 162.603ZM191.532 160.964C191.532 158.931 189.631 154.529 187.792 152.302C185.325 149.313 180.527 146.225 176.854 145.261C175.344 144.865 172.986 144.869 171.739 145.271C170.131 145.788 170.234 145.938 172.126 145.835C173.248 145.774 174.619 145.926 175.818 146.244L177.726 146.751L176.039 146.963C173.572 147.273 171.212 148.589 169.618 150.543C167.956 152.58 166.732 153.17 164.492 153.014C162.473 152.874 161.032 151.949 160.105 150.199C159.289 148.66 159.476 146.319 160.556 144.545C161.451 143.074 163.899 141.299 166.211 140.443C168.489 139.6 173.248 139.396 175.841 140.029C179.916 141.024 183.88 143.417 186.664 146.562C188.312 148.425 190.763 153.098 191.217 155.248C191.617 157.138 191.967 161.465 191.72 161.465C191.616 161.465 191.532 161.24 191.532 160.964ZM173.803 152.948C173.803 151.871 176.059 150.531 177.787 150.583L178.889 150.616L177.544 150.835C175.881 151.105 175.182 151.455 174.406 152.405C174.074 152.812 173.803 153.056 173.803 152.948ZM16.9216 149.87C16.2377 149.658 15.2534 149.173 14.7343 148.792C13.6694 148.01 12.3686 145.862 12.0702 144.393L11.8711 143.413L12.5047 144.533C14.9384 148.833 20.2238 149.66 23.182 146.204C26.2596 142.609 24.6307 137.192 19.8932 135.268C18.5156 134.709 15.2443 134.626 14.2891 135.127C12.9789 135.813 13.3255 135.184 14.7204 134.344C19.299 131.586 24.4667 133.489 26.2668 138.595C27.1071 140.979 26.6862 143.977 25.1591 146.486C23.4633 149.273 19.824 150.768 16.9216 149.87ZM5.42847 127.977C5.0638 127.625 5.22762 126.525 5.7143 126.056C6.26531 125.525 7.59125 125.603 9.41012 126.271L10.537 126.685L9.42016 126.887C8.8059 126.998 7.97183 127.251 7.56668 127.449C6.46479 127.988 5.64928 128.189 5.42847 127.977ZM121.712 126.824C121.147 125.292 119.489 123.299 118.276 122.695C117.698 122.408 116.497 122.281 114.309 122.278C111.595 122.274 111.013 122.188 110.016 121.644C108.861 121.014 108.578 120.676 106.65 117.621C105.835 116.33 104.918 115.476 102.29 113.564C100.46 112.232 98.6388 110.808 98.2427 110.399L97.5225 109.657L98.824 110.357C100.577 111.3 105.122 113.009 109.716 114.454C113.725 115.715 115.819 116.607 117.326 117.696C117.835 118.064 118.344 118.365 118.456 118.365C118.832 118.365 118.372 114.836 117.86 113.797C116.66 111.362 114.072 109.642 110.588 108.963L108.845 108.624L110.588 108.601C116.417 108.524 120.286 111.374 121.644 116.746C122.044 118.328 122.632 128.16 122.326 128.16C122.26 128.16 121.983 127.559 121.712 126.824ZM9.97169 125.463C9.87135 125.211 9.92134 124.802 10.0828 124.554C10.5729 123.799 11.7739 123.863 13.1106 124.715L14.345 125.501L13.4939 125.678C11.7481 126.041 10.1633 125.944 9.97169 125.463ZM127.698 116.195C127.389 114.97 125.452 111.062 124.279 109.296C122.059 105.954 118.764 103.26 115.698 102.279C110.314 100.557 102.526 101.638 93.804 105.318C92.1602 106.011 92.4876 105.684 94.707 104.414C101.941 100.275 107.198 98.4902 112.132 98.4967C121.126 98.5085 126.464 104.265 128.025 115.636C128.223 117.078 128.012 117.439 127.698 116.195ZM78.1648 113.927C79.5328 111.832 80.8647 108.625 81.9018 104.931C82.5812 102.51 82.6489 101.782 82.6566 96.8141C82.6647 91.6575 82.6217 91.2214 81.8778 88.9066C80.3184 84.0545 77.8589 80.0845 74.1291 76.399C72.4635 74.7532 72.079 74.207 72.0803 73.4889C72.0855 70.6235 74.2435 67.987 76.5836 67.987C77.7036 67.987 79.0051 68.7359 79.6471 69.7498C80.428 70.9831 80.3755 71.2169 79.1267 72.0684C77.8875 72.9132 77.8162 72.9332 82.1057 71.2334C87.5731 69.0668 94.0775 67.7239 99.1606 67.7122C101.223 67.7075 101.4 67.7527 101.486 68.3082C101.698 69.6792 103.494 69.6792 103.706 68.3082C103.796 67.7281 103.933 67.7071 107.63 67.7087C109.736 67.7096 112.768 67.8983 114.367 68.1281C117.447 68.5707 122.641 69.8902 124.735 70.7622C125.427 71.0501 126.295 71.373 126.665 71.4799C127.282 71.6584 127.307 71.6278 126.967 71.1037C126.127 69.809 127.856 67.8638 129.784 67.9336C131.357 67.9905 132.673 68.9175 133.528 70.5714C134.43 72.3127 134.486 73.8645 133.803 78.0625L133.324 81.0012L131.983 79.8038C128.021 76.2658 121.932 73.4701 115.393 72.1869C111.813 71.4843 104.39 71.4155 100.344 72.0474C95.1502 72.8585 90.5516 74.4104 86.9675 76.5615C84.7349 77.9015 81.3035 80.7911 80.7393 81.8062C80.433 82.3574 80.4476 82.3626 81.1179 81.941C85.7304 79.0392 95.2038 75.845 102.138 74.8535C105.976 74.3047 112.426 74.3048 115.941 74.8538C122.511 75.8799 127.742 78.4465 131.95 82.7099C133.476 84.2552 133.379 84.302 131.564 82.8963C129.169 81.0409 124.947 79.1295 120.761 78.0053C117.779 77.2045 110.367 77.0038 106.665 77.6237C99.4694 78.8284 92.9694 82.0833 89.155 86.3918C85.8874 90.0827 84.5633 93.5009 83.5658 100.821C82.7896 106.516 80.664 111.878 78.134 114.524L77.0036 115.706L78.1648 113.927ZM149.02 98.1987C147.427 97.9457 145.325 97.0329 144.629 96.2923C143.944 95.5636 143.937 92.5184 144.617 91.1467C144.903 90.5694 145.211 90.102 145.301 90.1079C145.391 90.1138 145.727 90.517 146.046 91.0038C146.733 92.0499 147.954 92.7799 149.46 93.0456L150.548 93.2375L150.09 92.1818C149.47 90.7514 149.756 89.4805 150.91 88.5456C151.742 87.8713 152.009 87.811 153.698 87.9146C155.406 88.0193 155.649 88.1162 156.529 89.0406C159.126 91.7693 158.104 95.6412 154.317 97.4186C152.474 98.2839 150.96 98.5068 149.02 98.1987ZM141.696 93.6822C139.47 91.3676 137.81 88.3461 136.872 84.9043C134.847 77.4732 139.499 70.7988 147.05 70.3004C149.714 70.1245 152.262 70.5312 154.52 71.4925C155.374 71.8565 156.074 72.2115 156.074 72.2814C156.074 72.3513 155.518 72.6849 154.838 73.0227C151.006 74.9283 148.088 78.0662 145.596 82.9603C142.754 88.5407 141.937 92.6146 143.251 94.6609C143.616 95.2295 143.85 95.6946 143.772 95.6946C143.694 95.6946 142.76 94.789 141.696 93.6822ZM140.383 82.3768C141.137 79.7794 142.329 77.1921 143.393 75.8435C143.81 75.3158 144.1 74.835 144.037 74.7752C143.771 74.5185 140.967 76.1545 140.226 76.9992C138.128 79.3887 137.534 82.899 138.663 86.2353L139.354 88.2779L139.547 86.435C139.653 85.4214 140.03 83.5952 140.383 82.3768ZM66.8471 70.2231C66.1278 69.761 64.2968 68.9231 62.7782 68.3611C57.442 66.3863 55.9366 65.4163 54.7713 63.2019C53.9286 61.6005 53.8105 59.1123 54.5016 57.5196C55.1667 55.9866 56.8408 54.3652 58.3202 53.8211C59.7668 53.2891 62.008 53.1664 63.762 53.5232C64.8483 53.7441 64.8838 53.7282 64.6968 53.1034C64.0748 51.0248 63.9858 49.4654 64.4002 47.9074C64.9669 45.777 65.5558 45.061 67.5558 44.0702C69.0228 43.3435 69.5306 43.2426 71.7419 43.238C73.8901 43.2334 74.5195 43.3479 76.0421 44.0191C77.0231 44.4516 78.2493 45.2261 78.7668 45.7403L79.7078 46.6752L79.0962 47.892C78.7597 48.5613 78.4008 49.5115 78.2986 50.0037C78.1287 50.8217 78.0596 50.8697 77.4935 50.5623C77.1283 50.3641 75.6816 50.2238 73.9678 50.2205C71.3736 50.2155 70.8853 50.2982 69.4218 50.9903C66.6719 52.2907 64.8201 54.7104 64.8143 57.0108C64.812 57.9167 65.4962 59.358 66.2257 59.9839C67.0741 60.7118 67.0124 61.1587 66.1395 60.608C65.1943 60.0116 63.1499 59.5891 62.1454 59.7826C61.6987 59.8686 61.0044 60.2556 60.6025 60.6426C59.98 61.2421 59.8724 61.5996 59.8762 63.0574C59.8786 63.9984 60.0075 64.9573 60.1624 65.1882C60.3852 65.5202 60.4451 65.4601 60.4486 64.9006C60.4588 63.2924 62.2354 62.1096 64.6411 62.1096H65.9414L65.7746 64.0252C65.5789 66.2735 66.1105 68.1498 67.4466 69.9259C67.9182 70.5527 68.2705 71.0651 68.2295 71.0644C68.1885 71.0637 67.5665 70.6852 66.8471 70.2231ZM137.545 70.5001C139.048 68.4484 139.617 67.0017 139.635 65.1882C139.644 64.1877 139.54 63.0701 139.403 62.7048C139.156 62.0433 139.162 62.041 141.014 62.1546C143.258 62.2922 144.584 63.0635 144.914 64.4224L145.133 65.3281L145.37 64.0687C145.973 60.8568 143.55 58.8839 140.379 60.005C137.917 60.8753 137.837 60.8627 138.971 59.7853C140.97 57.8855 140.743 55.1552 138.397 52.8987C136.185 50.7715 134.686 50.2149 131.166 50.2149C129.181 50.2149 128.081 50.3306 127.838 50.5647C127.321 51.0621 127.01 50.998 127.01 50.3943C127.01 50.1081 126.615 49.132 126.132 48.2252L125.254 46.5765L126.641 45.3763C129.455 42.9392 134.225 42.3856 137.693 44.0935C139.057 44.7652 139.471 45.1544 140.147 46.4007C141.096 48.1497 141.247 50.6207 140.526 52.5885C140.095 53.7645 140.097 53.7719 140.744 53.6166C142.547 53.1842 143.927 53.126 145.399 53.4202C151.008 54.5415 152.944 60.9521 148.861 64.8839C147.898 65.811 146.809 66.4732 145.172 67.1277C142.298 68.2764 139.064 69.8248 137.909 70.6051L137.037 71.194L137.545 70.5001ZM68.88 68.683C67.9926 66.6894 67.8593 65.209 68.4206 63.5815C69.4948 60.4673 72.2675 58.6684 76.0023 58.6627C77.1213 58.661 78.4945 58.7948 79.054 58.9601C79.6135 59.1253 80.4526 59.3425 80.9187 59.4426C81.7558 59.6224 81.7472 59.6331 80.2203 60.3143C76.3208 62.0541 71.5123 66.0992 70.1181 68.8129L69.4857 70.0437L68.88 68.683ZM135.627 68.8531C134.151 65.898 130.702 62.8751 126.355 60.7263L124.102 59.6125L125.322 59.2962C130.207 58.0295 133.946 58.8377 136.033 61.6117C137.613 63.7127 137.842 66.1862 136.694 68.7485L136.165 69.9298L135.627 68.8531ZM82.395 68.7108C79.8129 66.2243 83.0049 62.2178 85.8506 64.3733C86.7755 65.0739 87.4826 66.3105 87.4826 67.2276C87.4826 67.7525 87.1551 68.055 85.9525 68.6409C84.0609 69.5625 83.2951 69.5776 82.395 68.7108ZM120.393 68.4148C119.551 68.0373 118.781 67.5253 118.682 67.277C118.405 66.5826 119.104 64.6995 119.817 64.2188C120.574 63.7081 122.605 63.666 123.256 64.1476C124.503 65.0691 124.769 67.1719 123.791 68.369C123.045 69.2824 122.349 69.2918 120.393 68.4148ZM42.724 68.3964C45.529 67.4865 49.1272 67.0808 53.0418 67.2331C55.1198 67.3139 57.2124 67.4952 57.692 67.6358C58.2647 67.8037 56.9682 67.8483 53.9137 67.7657C49.6508 67.6504 46.4066 67.9044 42.1428 68.6872C41.7431 68.7606 42.0047 68.6297 42.724 68.3964ZM78.7776 67.4054C78.0661 66.9556 77.241 66.5876 76.944 66.5876C76.1738 66.5876 76.5133 66.2037 78.6823 64.6226C80.6122 63.2157 81.5911 62.7901 80.6888 63.7502C79.9433 64.5434 79.6181 65.9667 79.9031 67.1883C80.0415 67.7815 80.136 68.257 80.113 68.245C80.0901 68.233 79.4891 67.8552 78.7776 67.4054ZM126.089 66.4382C126.171 64.9241 126.082 64.497 125.52 63.7253C125.153 63.2215 125.044 62.9496 125.277 63.1211C125.511 63.2927 126.524 64.0102 127.529 64.7157C128.535 65.4212 129.359 66.0882 129.362 66.1979C129.365 66.3075 128.889 66.5553 128.306 66.7485C127.722 66.9416 126.963 67.3551 126.619 67.6675L125.992 68.2353L126.089 66.4382ZM101.981 66.3817C100.338 64.6457 99.4708 62.3399 99.8085 60.6063C100.039 59.4218 101.863 57.0718 102.552 57.0718C103.101 57.0718 104.643 58.5004 105.177 59.5023C106.033 61.1108 105.229 64.1609 103.363 66.3817L102.713 67.1554L101.981 66.3817ZM88.9347 66.0254C87.9112 63.6459 86.0416 62.1326 84.0769 62.0935C83.3875 62.0796 83.504 61.9729 84.8668 61.3691C87.1929 60.3384 91.998 58.7511 92.7918 58.7511C93.1675 58.7511 93.7288 58.9469 94.0391 59.1863C94.584 59.6068 94.5816 59.6115 93.9684 59.3263C92.3356 58.5667 90.3586 59.4322 89.3236 61.3596C88.7946 62.3447 88.7371 64.6622 89.2119 65.8568C89.6479 66.9535 89.399 67.1049 88.9347 66.0254ZM116.395 66.4476C116.523 66.1398 116.683 65.1952 116.751 64.3486C116.849 63.1287 116.735 62.5484 116.202 61.5521C115.04 59.3809 112.657 58.4089 111.089 59.4666C110.734 59.7063 110.443 59.7894 110.443 59.6515C110.443 59.285 111.797 58.7511 112.727 58.7511C113.587 58.7511 119.624 60.5925 121.78 61.5126L123.086 62.07L121.748 62.0898C119.932 62.1166 118.648 62.9981 117.558 64.9673C116.658 66.5919 115.975 67.4618 116.395 66.4476ZM91.4643 65.8675C89.931 64.391 90.2077 62.2419 92.0389 61.4051C94.209 60.4135 95.8654 61.8834 96.2655 65.1558C96.3312 65.6932 96.1492 65.8932 95.3298 66.184C93.6247 66.7892 92.3095 66.6815 91.4643 65.8675ZM111.315 66.3915C109.654 65.813 108.99 65.3593 108.996 64.8065C109.006 63.8728 110.019 61.9516 110.767 61.447C112.458 60.3064 114.712 61.3404 114.997 63.3878C115.138 64.4023 115.046 64.6365 114.146 65.5564C113.172 66.5507 112.414 66.7743 111.315 66.3915ZM99.0134 64.2436C98.2873 63.1765 97.2108 60.4431 96.6522 58.2483C95.9636 55.5423 96.135 51.4289 97.0278 49.2353C97.6678 47.6627 99.1049 45.6747 101.433 43.1409L102.741 41.7176L104.434 43.5997C108.225 47.8147 109.083 49.7391 109.071 53.9932C109.061 57.3691 108.394 60.2052 106.971 62.9194C106.478 63.8594 106.022 64.6285 105.956 64.6285C105.89 64.6285 106.089 63.9389 106.396 63.0961C107.187 60.9304 107.134 58.4242 106.26 56.652C105.653 55.4207 103.158 52.3037 102.616 52.0985C102.343 51.9954 99.5972 55.304 98.9632 56.4994C98.0829 58.1592 98.059 60.555 98.8995 62.8823C99.3019 63.9966 99.5939 64.9083 99.5484 64.9083C99.5029 64.9083 99.2621 64.6092 99.0134 64.2436ZM67.3063 58.8805C66.9848 57.6468 67.633 56.1 68.9682 54.9149C69.9572 54.037 70.5884 53.7381 72.0305 53.4649C74.6319 52.9721 76.385 53.5102 79.0124 55.6081C80.117 56.4901 80.9908 57.2448 80.9542 57.2851C80.9176 57.3255 80.2462 57.0736 79.4622 56.7254C78.3116 56.2143 77.5325 56.0934 75.421 56.098C73.0057 56.1032 72.6649 56.1765 70.9738 57.0542C69.9665 57.577 68.8306 58.3616 68.4495 58.7977C67.6025 59.7671 67.5386 59.7717 67.3063 58.8805ZM136.455 58.5707C134.491 56.9406 132.623 56.1595 130.352 56.0188C128.411 55.8985 127.216 56.1453 124.539 57.2192C124.219 57.3475 124.416 57.0837 124.975 56.6331C125.535 56.1824 126.319 55.5168 126.719 55.1539C129.906 52.2594 135.714 53.0113 137.644 56.5682C138.079 57.3698 138.202 59.1902 137.836 59.4068C137.716 59.4777 137.095 59.1015 136.455 58.5707ZM83.5116 56.6646C82.1134 55.8384 80.7979 53.6167 80.7979 52.0816C80.7979 47.9055 85.284 44.4774 90.749 44.4774C92.5164 44.4774 95.1359 44.978 94.9657 45.2832C92.8996 48.9858 92.5458 52.3676 93.8729 55.7307C94.6335 57.6583 94.4099 57.7583 93.4939 55.9002C92.718 54.3262 91.7213 53.2862 90.171 52.4332C88.7693 51.6618 89.0495 50.3548 90.6166 50.3548C91.464 50.3548 91.3498 49.8839 90.3233 49.1459C88.8103 48.0582 86.6106 49.4327 86.6106 51.4657C86.6106 53.2275 87.9594 54.4812 90.3163 54.9102C91.3154 55.092 92.1314 55.3064 92.1296 55.3867C92.1226 55.7173 87.5204 57.1755 86.1747 57.2736C85.0027 57.359 84.4873 57.2411 83.5116 56.6646ZM111.51 55.6621C112.166 54.0987 112.237 53.5995 112.122 51.3546C112.025 49.4437 111.801 48.3695 111.216 47.0125C110.669 45.7451 110.53 45.1216 110.746 44.9135C110.915 44.7506 112.156 44.573 113.505 44.5189C119.549 44.276 124.232 47.4995 124.244 51.9101C124.248 53.3083 124.104 53.8228 123.438 54.7931C122.992 55.4427 122.207 56.2208 121.694 56.5222C120.041 57.493 119.078 57.4971 116.168 56.5456C114.698 56.065 113.233 55.668 112.914 55.6636C111.973 55.6504 112.953 55.2539 114.94 54.8436C117.191 54.3785 118.581 53.1495 118.581 51.6239C118.581 50.3057 118.191 49.6247 117.134 49.0983C116.009 48.5384 115.287 48.5649 114.702 49.1874C114.05 49.8817 114.084 49.9923 115.111 50.5037C116.417 51.1538 116.17 51.9852 114.407 52.8815C113.242 53.4731 112.842 53.8933 112.135 55.2658C110.945 57.5762 110.621 57.7813 111.51 55.6621ZM79.4621 44.1664C77.8873 42.6226 75.2372 41.2252 73.2737 40.9034L71.9982 40.6943L73.2018 39.6472C75.3236 37.8013 77.2988 38.343 78.9021 41.2105C79.2182 41.7759 79.5951 42.2384 79.7396 42.2384C80.2566 42.2384 79.6731 39.9601 78.9092 38.9957C78.4811 38.4552 78.2033 37.8309 78.292 37.6084C78.5169 37.0442 80.2295 36.0835 81.0127 36.0822C82.1375 36.0804 84.637 37.1476 85.589 38.0362L86.5031 38.8894L86.3796 37.2446C86.2361 35.335 86.5575 34.5956 87.8644 33.8282C89.0472 33.1338 90.4044 33.1359 91.8263 33.8344C92.962 34.3923 94.1673 35.6086 94.1673 36.1968C94.1673 36.5823 96.1227 40.5592 96.3123 40.5592C96.3856 40.5592 96.3125 40.095 96.1498 39.5278C95.3047 36.5805 97.6269 32.6968 101.247 31.0032C102.82 30.267 103.491 30.402 105.507 31.8607C108.272 33.8612 109.6 36.5783 109.072 39.1518C108.915 39.9154 108.872 40.4897 108.975 40.4281C109.206 40.2907 110.217 38.0904 110.878 36.2863C111.484 34.632 112.868 33.5458 114.611 33.3566C117.202 33.0754 118.749 34.6847 118.514 37.4169L118.383 38.9409L119.281 37.944C120.352 36.7553 122.7 35.9229 124.211 36.1959C124.752 36.2936 125.553 36.6933 125.991 37.0841L126.787 37.7945L126.186 38.411C125.249 39.3713 124.648 40.9788 124.945 41.7324C125.184 42.3396 125.23 42.3069 125.701 41.1879C126.799 38.577 129.074 37.8708 131.326 39.4414C131.989 39.9042 132.532 40.3909 132.532 40.5229C132.532 40.6549 131.93 40.8424 131.195 40.9394C129.24 41.1975 126.517 42.7003 125.299 44.1938L124.263 45.4631L122.458 44.2975C120.092 42.7696 117.729 41.9263 115.315 41.7483C112.981 41.5763 111.036 42.032 110.127 42.9641L109.479 43.6282L108.265 42.0237C107.597 41.1413 106.819 40.2348 106.535 40.0093C106.251 39.7838 105.236 38.6766 104.279 37.5488L102.539 35.4983L101.739 36.6993C101.299 37.3599 100.052 38.8449 98.9673 39.9994C97.8825 41.1539 96.7362 42.4322 96.42 42.84L95.845 43.5815L94.6164 42.7475C91.7089 40.774 85.9004 41.6479 82.0778 44.6339L80.8874 45.5638L79.4621 44.1664ZM81.2613 39.8598C82.2932 39.0052 83.7231 38.944 85.2413 39.6894C86.508 40.3113 86.6038 40.0873 85.5747 38.9096C84.5973 37.7911 83.0749 37.3754 81.8137 37.8829C80.6764 38.3405 79.9374 39.2815 80.1373 40.0175C80.3192 40.6876 80.25 40.6973 81.2613 39.8598ZM124.418 39.36C124.064 38.4635 123.137 37.862 121.729 37.6143C120.76 37.4438 120.542 37.5339 119.331 38.6088C117.778 39.9879 117.596 40.5082 118.944 39.7165C120.249 38.9504 122.023 38.9928 123.261 39.8195C124.399 40.5799 124.831 40.4081 124.418 39.36ZM83.1761 35.4337C81.0751 33.3722 80.2695 30.1476 81.1492 27.3204C81.6588 25.6825 84.2398 23.1211 86.4192 22.0905C87.9046 21.3881 92.6092 20.2138 92.8827 20.4772C92.9261 20.5191 92.7031 21.2909 92.3871 22.1924C91.7329 24.0585 91.8412 24.583 92.5738 23.0963C93.759 20.6911 98.1908 18.1977 101.711 17.9551C105.521 17.6927 110.256 19.7904 112.15 22.579C113.118 24.0031 113.374 23.6363 112.623 21.9043C112.013 20.4991 112.05 20.4249 113.277 20.5906C116.683 21.0507 119.75 22.3588 121.601 24.1409C125.118 27.5283 125.076 32.2872 121.499 35.6509L120.319 36.76L120.49 35.511C120.826 33.0598 118.777 30.7849 115.826 30.3317C115.183 30.233 114.153 29.8226 113.537 29.4198C112.086 28.4716 109.264 28.2291 107.853 28.9315C106.932 29.3903 106.892 29.3834 105.509 28.5285C104.734 28.0501 103.759 27.3294 103.341 26.9267L102.581 26.1947L101.789 26.8986C101.354 27.2858 100.359 28.0163 99.5787 28.522C98.1681 29.4363 98.1551 29.4387 97.2899 28.9465C95.6291 28.0018 93.2209 28.3413 90.3935 29.9187C89.8365 30.2294 89.0518 30.4857 88.6497 30.4883C87.5363 30.4953 85.6954 31.6287 85.0387 32.7114C84.6503 33.3518 84.4516 34.1806 84.4516 35.1602C84.4516 35.9746 84.4415 36.6409 84.429 36.6409C84.4165 36.6409 83.8529 36.0977 83.1761 35.4337ZM92.8052 33.3687L91.2979 31.9157L92.5337 31.3396C94.6703 30.3436 97.0356 30.6883 95.8564 31.8238C95.6665 32.0067 95.2414 32.756 94.9118 33.489L94.3126 34.8217L92.8052 33.3687ZM110.443 34.5054C110.443 33.9734 109.424 32.0614 108.842 31.5007C108.425 31.0996 108.452 31.0436 109.139 30.8776C110.173 30.6277 111.777 30.9132 112.744 31.519L113.548 32.023L111.996 33.467C111.136 34.2668 110.443 34.73 110.443 34.5054ZM92.6511 19.0788C90.9759 17.2294 91.2053 14.3692 93.182 12.4601C94.1413 11.5335 96.4175 10.4603 98.0145 10.1815L99.1006 9.99185L98.5231 9.28488C97.3441 7.84155 97.9031 6.07995 100.411 3.33576C101.325 2.33521 102.171 1.26935 102.291 0.967193C102.497 0.447136 102.529 0.454605 102.883 1.10714C103.089 1.48626 103.94 2.55212 104.773 3.47571C106.483 5.36985 107.246 6.64209 107.246 7.59767C107.246 8.2197 106.558 9.4384 105.999 9.80653C105.854 9.902 106.239 10.0703 106.854 10.1806C110.912 10.9077 114.062 14.0965 113.512 16.9197C113.41 17.4439 112.986 18.2627 112.569 18.7392L111.812 19.6056L110.619 18.5111C108.097 16.1973 105.332 15.0438 102.305 15.0428C99.3731 15.0419 95.9409 16.5511 94.259 18.5809C93.3174 19.7173 93.2488 19.7385 92.6511 19.0788Z" fill="white"/>
</svg>
