<svg width="141" height="142" viewBox="0 0 141 142" fill="none" xmlns="http://www.w3.org/2000/svg">
<path d="M49.8362 8.46278C50.2676 7.49524 50.5834 6.63967 51.0164 5.84861C51.9633 4.1189 53.2962 2.82162 55.2988 2.38404C57.0363 2.00476 58.4832 2.45886 59.5385 3.93881C59.8925 4.43522 60.2067 4.96002 60.6025 5.56944C60.8414 5.25828 61.0633 5.02813 61.2166 4.75929C61.9679 3.44137 63.0289 2.42119 64.224 1.51299C65.0929 0.852483 66.0729 0.636785 67.1328 0.661554C67.8418 0.678067 68.4079 1.00729 68.8512 1.52434C69.4647 2.24058 70.039 2.99036 70.6892 3.79897C70.8585 3.60701 71.0804 3.39492 71.2553 3.14981C72.984 0.718832 75.3804 0.504683 77.8738 1.21525C79.0374 1.54705 79.7511 2.36856 79.8987 3.61939C79.9508 4.05956 80.0416 4.4956 80.1422 5.10141C80.5618 4.80676 80.8373 4.59519 81.1294 4.41046C83.2956 3.03887 85.5517 2.49447 88.0632 3.47439C89.0534 3.86089 89.6406 4.48838 89.8981 5.46675C90.1257 6.33212 90.312 7.20833 90.5545 8.24295C91.0453 7.95501 91.4658 7.729 91.8652 7.46995C93.2487 6.57259 94.7364 6.0478 96.4088 6.07205C97.4316 6.08701 98.3836 6.34038 99.2206 6.89665C100.342 7.64179 101.062 8.65784 101.034 10.0831C101.021 10.7709 101.032 11.4588 101.032 12.2607C101.492 12.0945 101.877 11.9717 102.249 11.8169C103.648 11.2354 105.113 11.0393 106.613 11.0971C108.579 11.1729 109.854 12.3412 110.047 14.2784C110.123 15.0488 110.059 15.8331 110.059 16.7692C110.521 16.6552 110.901 16.5803 111.269 16.4678C114.314 15.5349 116.519 17.4194 117.637 19.1078C118.226 19.9954 118.275 20.9588 117.745 21.9248C117.514 22.3474 117.323 22.7927 117.038 23.383C117.607 23.383 118.002 23.3614 118.394 23.3867C120.872 23.5461 122.91 24.4667 124.351 26.6097C125.003 27.5804 125.088 28.4999 124.673 29.5227C124.351 30.3153 123.997 31.0955 123.59 32.0388C124.139 32.0791 124.572 32.1193 125.007 32.1415C126.647 32.2261 128.175 32.6348 129.532 33.6122C130.434 34.2618 131.093 35.0921 131.458 36.1257C131.894 37.359 131.832 38.566 131.02 39.6579C130.609 40.2105 130.179 40.7503 129.678 41.4C130.199 41.5496 130.615 41.6869 131.04 41.7885C132.516 42.141 133.806 42.8717 134.977 43.8021C136.517 45.0271 136.807 46.7227 135.799 48.405C135.4 49.0717 134.932 49.6971 134.447 50.4138C134.824 50.5599 135.198 50.7033 135.571 50.8483C137.997 51.7942 139.484 54.3047 139.13 56.8713C138.998 57.8296 138.555 58.5789 137.652 59.0154C137.186 59.2404 136.733 59.4907 136.135 59.8018C136.562 60.1104 136.827 60.2859 137.074 60.484C139.084 62.0945 140.261 64.0828 140.157 66.7666C140.111 67.9457 139.6 68.7141 138.674 69.2956C137.949 69.7502 137.204 70.1718 136.384 70.6579C137.085 71.2864 137.757 71.8293 138.36 72.4403C139.812 73.913 140.689 75.6401 140.465 77.7744C140.28 79.5407 139.383 80.7725 137.641 81.3019C137.064 81.4774 136.474 81.6136 135.789 81.7947C136.026 82.1291 136.186 82.4098 136.398 82.6441C137.355 83.705 137.984 84.9409 138.468 86.2759C138.79 87.1634 138.838 88.0319 138.634 88.9463C138.43 89.8601 137.956 90.5372 137.085 90.8937C136.213 91.2508 135.327 91.5754 134.352 91.9511C134.554 92.2633 134.768 92.592 134.981 92.9222C136.389 95.104 136.168 97.875 134.43 99.7993C133.748 100.554 132.924 100.929 131.887 100.754C131.373 100.667 130.855 100.61 130.206 100.522C130.354 101.007 130.452 101.313 130.54 101.622C131.264 104.159 130.985 106.493 129.262 108.604C128.652 109.352 127.948 109.713 127.026 109.673C126.085 109.634 125.146 109.542 124.012 109.459C124.129 110.008 124.211 110.511 124.345 111C124.771 112.553 124.781 114.092 124.286 115.634C123.96 116.65 123.39 117.509 122.56 118.148C121.495 118.969 120.293 119.317 118.957 118.837C118.342 118.615 117.728 118.389 116.955 118.107C116.955 118.479 116.919 118.784 116.96 119.078C117.192 120.719 116.871 122.292 116.327 123.819C115.648 125.729 114.1 126.553 112.136 126.096C111.419 125.929 110.717 125.694 109.88 125.454C109.85 125.779 109.794 126.124 109.79 126.469C109.743 129.615 107.703 131.026 105.558 131.783C104.427 132.182 103.36 131.958 102.517 131.006C102.224 130.674 101.883 130.385 101.451 129.967C101.3 130.402 101.204 130.694 101.098 130.982C100.198 133.451 98.6463 135.208 96.0089 135.938C94.9154 136.241 94.0614 135.998 93.2538 135.343C92.5861 134.802 91.9576 134.211 91.1861 133.532C90.9648 134.045 90.7615 134.472 90.5937 134.913C90.023 136.413 89.1535 137.68 87.8593 138.66C86.9682 139.335 85.963 139.707 84.8819 139.74C83.5955 139.779 82.4334 139.378 81.6464 138.256C81.2481 137.688 80.8667 137.108 80.4111 136.434C80.1845 136.733 79.9688 136.961 79.8187 137.225C79.0704 138.545 78.0085 139.564 76.8165 140.476C75.9495 141.14 74.9712 141.36 73.9118 141.34C73.2038 141.326 72.6336 141.003 72.1898 140.486C71.5752 139.769 71.0004 139.02 70.3156 138.169C70.1071 138.431 69.8698 138.732 69.6303 139.031C68.0023 141.066 65.3401 141.739 62.9355 140.711C61.9132 140.273 61.2563 139.548 61.1413 138.392C61.0969 137.947 60.9823 137.509 60.8807 136.962C60.6299 137.095 60.4415 137.154 60.3063 137.273C58.9688 138.447 57.3454 138.865 55.6348 139.028C54.3958 139.145 53.2693 138.706 52.2022 138.156C51.4911 137.789 51.2512 137.034 51.0608 136.312C50.8523 135.522 50.7099 134.715 50.5009 133.736C50.0101 134.024 49.5937 134.248 49.1989 134.504C47.8176 135.402 46.335 135.939 44.6621 135.927C43.6378 135.919 42.6867 135.67 41.8451 135.122C40.7599 134.415 40.0163 133.456 40.0091 132.078C40.0055 131.34 40.0086 130.602 40.0086 129.757C39.6448 129.877 39.297 129.963 38.9724 130.103C37.6215 130.682 36.205 130.956 34.7472 130.891C34.1063 130.862 33.4489 130.688 32.8457 130.457C31.5974 129.98 30.9736 129.021 30.9632 127.679C30.957 126.901 30.9622 126.124 30.9622 125.192C30.4008 125.348 29.9828 125.474 29.5597 125.58C27.1354 126.189 24.3958 124.937 23.2833 122.714C22.8493 121.847 22.8029 120.981 23.2709 120.104C23.4995 119.676 23.6966 119.23 23.9949 118.611C23.4396 118.611 23.05 118.632 22.663 118.608C20.1366 118.45 18.0591 117.513 16.6245 115.305C16.0455 114.414 15.9387 113.558 16.3103 112.615C16.64 111.778 17.009 110.957 17.4306 109.965C16.9037 109.924 16.4744 109.881 16.044 109.858C14.4051 109.77 12.8751 109.37 11.5159 108.395C10.6123 107.747 9.94358 106.922 9.58082 105.888C9.16697 104.708 9.17419 103.528 9.9312 102.457C10.3549 101.858 10.8208 101.289 11.3405 100.613C10.8956 100.472 10.5288 100.322 10.1469 100.241C8.65869 99.9236 7.36915 99.1986 6.17714 98.2945C4.51554 97.0344 4.19613 95.3155 5.27564 93.5105C5.65337 92.8784 6.10025 92.2875 6.5688 91.5997C6.29737 91.4872 6.0182 91.3478 5.72458 91.2529C2.66715 90.2652 1.87299 87.747 1.89312 85.4089C1.90241 84.2907 2.4045 83.4341 3.4546 82.9393C3.88754 82.7354 4.30036 82.4898 4.86128 82.1884C4.49335 81.9108 4.27611 81.7478 4.0599 81.5831C1.79507 79.8596 0.62422 77.6443 0.91216 74.735C1.00401 73.8041 1.55203 73.2339 2.2533 72.7716C3.0005 72.2793 3.78744 71.8479 4.65384 71.3329C4.10169 70.8483 3.6187 70.4092 3.1197 69.9892C2.05102 69.0887 1.31259 67.9741 0.838885 66.6603C0.492118 65.6984 0.394589 64.735 0.625251 63.7422C0.954989 62.3242 1.70116 61.2493 3.14808 60.7885C3.77454 60.5888 4.41234 60.4252 5.20753 60.1987C4.99493 59.8854 4.83496 59.5784 4.60998 59.3307C3.58928 58.2068 2.93084 56.8843 2.4819 55.4549C2.33587 54.9905 2.22698 54.4822 2.2533 54.0017C2.3338 52.5414 2.86118 51.3613 4.4175 50.8901C5.15954 50.6651 5.87733 50.3591 6.68593 50.0604C6.43669 49.6775 6.19571 49.3039 5.95112 48.9323C4.2694 46.376 5.39072 43.6952 6.64207 42.1642C7.25356 41.416 8.08126 41.0847 9.07047 41.2364C9.59424 41.3169 10.1216 41.3711 10.7651 41.4521C10.7099 41.1647 10.7068 40.9722 10.6366 40.8081C9.95545 39.2156 10.0349 37.5871 10.3868 35.9436C10.648 34.7237 11.3817 33.7809 12.2079 32.9037C12.7353 32.3438 13.4592 32.2953 14.1657 32.3237C15.063 32.3603 15.9583 32.4573 17.0229 32.5414C16.9083 32.0177 16.8304 31.5512 16.7035 31.0981C16.2587 29.5077 16.2231 27.9339 16.7479 26.3466C17.0838 25.3305 17.6509 24.4765 18.4791 23.8377C19.505 23.0466 20.6676 22.6869 21.9654 23.1307C22.6202 23.3547 23.2704 23.5915 24.0393 23.864C24.0393 23.4475 24.0687 23.0941 24.0341 22.7473C23.8891 21.2803 24.143 19.8664 24.5847 18.4793C25.2762 16.3079 26.834 15.4213 29.0581 15.9415C29.7336 16.0994 30.3935 16.3244 31.1237 16.5365C31.2094 15.8073 31.2527 15.0766 31.3864 14.3625C31.7765 12.2782 33.9046 10.3344 36.0037 10.0841C36.9713 9.96905 37.7954 10.2059 38.4631 10.9474C38.7619 11.2792 39.1056 11.5718 39.5158 11.9655C39.6623 11.6559 39.795 11.4619 39.8486 11.2488C40.2692 9.57016 41.3121 8.31417 42.5768 7.21143C43.4819 6.42243 44.6027 6.11539 45.7431 5.90486C46.5383 5.75831 47.189 6.18299 47.7721 6.65361C48.4414 7.19543 49.0679 7.78576 49.8362 8.46278ZM32.3508 18.648C31.6697 18.9127 31.2739 18.5655 30.811 18.2744C30.1944 17.8859 29.5359 17.504 28.8419 17.3105C27.2696 16.8729 26.4419 17.3755 25.9392 18.9189C25.5244 20.192 25.3417 21.4877 25.5667 22.8226C25.69 23.5544 25.8417 24.283 25.9222 25.0194C26.0295 26.0019 25.4671 26.4059 24.547 26.0189C24.2085 25.8765 23.9056 25.6484 23.5898 25.4538C23.1687 25.1938 22.7667 24.8981 22.3297 24.67C20.312 23.6153 18.4595 24.3599 17.7092 26.5163C17.2618 27.8023 17.1653 29.0877 17.686 30.3865C18.008 31.1905 18.2954 32.0084 18.5756 32.8278C18.96 33.9522 18.5663 34.4048 17.4048 34.1849C16.5951 34.0317 15.7937 33.8289 14.9794 33.705C13.2657 33.445 12.8044 33.6741 11.9886 35.186C11.7765 35.5792 11.6305 36.021 11.5252 36.457C11.0246 38.5309 11.4096 40.385 12.9458 41.9387C13.2874 42.2844 13.5155 42.6942 13.163 43.1452C12.857 43.5368 12.4473 43.4176 12.0309 43.286C11.0897 42.9883 10.1273 42.7545 9.19071 42.4434C8.36404 42.1688 7.73397 42.4537 7.18957 43.0332C5.86959 44.4383 5.57649 46.6582 6.59099 48.2945C7.06057 49.0521 7.73656 49.6816 8.31708 50.371C8.51678 50.6084 8.71132 50.8499 9.04312 51.2534C8.5013 51.434 8.14679 51.6022 7.77526 51.6611C7.41404 51.7178 7.02548 51.6059 6.66478 51.6652C4.19148 52.0749 2.97367 52.9635 4.0439 55.6437C4.6461 57.151 5.65544 58.3136 6.77882 59.4169C7.01412 59.6481 7.2871 59.8467 7.49506 60.0991C8.03533 60.7555 7.85266 61.3654 7.01515 61.579C6.50171 61.7101 5.95318 61.6972 5.42168 61.7622C4.76891 61.8417 4.11305 61.9077 3.4675 62.0274C2.45919 62.2137 1.92614 62.9191 1.63304 63.8392C1.38793 64.6101 1.4158 65.3806 1.67123 66.151C2.10107 67.4462 2.81628 68.5154 3.99075 69.2579C4.75756 69.743 5.52075 70.2389 6.24938 70.7787C6.95117 71.2983 6.8975 71.8835 6.13431 72.3205C5.81437 72.5037 5.44851 72.6038 5.11568 72.7669C4.41234 73.1106 3.71313 73.4635 3.01908 73.8253C2.42153 74.1364 2.21099 74.6241 2.10314 75.3099C1.77082 77.4281 3.68784 80.7296 6.25867 81.1796C6.62246 81.2431 6.99967 81.3231 7.32683 81.4841C7.90323 81.7679 7.91304 82.4238 7.35986 82.7628C7.15448 82.8887 6.8975 82.9289 6.66581 83.0136C5.7767 83.3387 4.88966 83.6689 3.99952 83.9914C3.35088 84.2262 2.98863 84.7056 2.89369 85.3625C2.67076 86.9018 3.18575 89.2894 5.24468 90.1073C6.11367 90.4525 7.05386 90.6187 7.9636 90.8587C8.30418 90.9484 8.65095 91.0171 8.98946 91.0939C8.97088 91.835 8.57303 92.1771 8.09313 92.4521C7.39134 92.8541 6.89337 93.4289 6.4981 94.1333C5.77619 95.4187 5.92325 96.3388 7.10185 97.2212C8.1019 97.97 9.19071 98.551 10.439 98.7729C11.2914 98.9246 12.1506 99.0386 12.9979 99.2136C13.9588 99.4117 14.1775 100.075 13.5206 100.821C13.2245 101.158 12.8287 101.405 12.4953 101.711C11.9808 102.185 11.4566 102.652 10.9818 103.164C10.2893 103.909 10.1763 104.833 10.602 105.699C10.9359 106.379 11.4271 107.042 12.0046 107.528C13.0067 108.371 14.2147 108.779 15.5651 108.69C16.4707 108.63 17.38 108.61 18.2877 108.613C19.3182 108.617 19.6066 109.114 19.1381 110.051C18.9724 110.381 18.733 110.674 18.5612 111.003C18.1984 111.696 17.8093 112.382 17.5296 113.11C17.3955 113.458 17.3531 113.952 17.4981 114.278C17.9244 115.235 18.6009 116.002 19.5483 116.519C21.3239 117.488 23.1233 117.729 24.9944 116.808C25.4124 116.602 25.867 116.413 26.2354 116.857C26.6555 117.365 26.2778 117.76 25.9893 118.172C25.4227 118.981 24.8891 119.814 24.3262 120.625C23.8922 121.251 23.9587 121.896 24.3014 122.496C25.1544 123.99 27.1565 125.384 28.9502 124.82C29.8466 124.538 30.715 124.167 31.5943 123.832C31.9158 123.71 32.2327 123.574 32.5572 123.443C32.8668 124.33 32.8978 124.342 32.6424 124.965C32.3193 125.752 32.2409 126.544 32.3348 127.387C32.4917 128.795 33.1197 129.429 34.5527 129.481C35.7194 129.523 36.8655 129.38 37.9419 128.904C38.6953 128.572 39.4301 128.196 40.1644 127.822C40.6443 127.578 41.1315 127.222 41.6454 127.651C42.1356 128.059 41.9808 128.622 41.8415 129.149C41.7259 129.588 41.5788 130.02 41.4922 130.464C41.3895 130.988 41.3203 131.519 41.2661 132.051C41.1562 133.13 41.6939 133.912 42.582 134.377C43.1816 134.691 43.8937 134.876 44.5723 134.936C45.9382 135.058 47.1756 134.635 48.2531 133.762C48.9905 133.165 49.7237 132.558 50.4998 132.014C51.1681 131.545 51.6851 131.767 51.8714 132.564C51.955 132.922 51.922 133.305 51.9762 133.671C52.1031 134.527 52.2017 135.392 52.4133 136.227C52.5041 136.587 52.7745 137.013 53.0867 137.184C53.9985 137.684 54.9799 137.926 56.0615 137.781C58.1261 137.504 59.7284 136.598 60.6871 134.691C60.8853 134.296 61.1856 134.006 61.6733 134.136C62.1759 134.271 62.211 134.698 62.2239 135.125C62.2548 136.153 62.308 137.18 62.3168 138.208C62.3235 139.02 62.7481 139.546 63.4355 139.837C64.9412 140.475 67.1994 140.594 68.5544 138.943C69.1473 138.22 69.5849 137.37 70.0922 136.578C70.2769 136.289 70.4596 135.999 70.649 135.7C71.3977 136.284 71.4374 136.275 71.5897 136.924C71.8054 137.843 72.3276 138.55 72.9189 139.258C73.4458 139.89 74.064 140.068 74.7859 139.864C75.2478 139.734 75.6972 139.491 76.0966 139.218C77.7288 138.1 78.6158 136.428 79.4409 134.699C79.6169 134.33 79.9859 133.895 80.3435 133.807C80.8946 133.671 81.1913 134.205 81.4008 134.666C81.5711 135.04 81.6831 135.442 81.8518 135.818C82.1041 136.381 82.3616 136.944 82.6568 137.485C83.1697 138.427 84.0403 138.832 85.0434 138.687C85.7906 138.578 86.5657 138.301 87.2076 137.905C88.3697 137.187 89.0926 136.09 89.4296 134.744C89.6499 133.864 89.8847 132.984 90.1814 132.128C90.4477 131.36 91.0055 131.236 91.6155 131.771C91.8921 132.015 92.1036 132.33 92.3616 132.597C92.9349 133.19 93.5093 133.781 94.1006 134.354C94.5444 134.785 95.0372 134.897 95.6822 134.744C98.2479 134.138 100.096 131.821 100.049 129.167C100.042 128.755 99.9652 128.333 100.03 127.934C100.068 127.694 100.276 127.373 100.484 127.299C100.697 127.222 101.026 127.356 101.259 127.481C101.424 127.569 101.511 127.798 101.638 127.96C102.22 128.706 102.811 129.446 103.385 130.199C103.868 130.833 104.512 131.004 105.255 130.868C107.256 130.503 108.823 128.779 108.914 126.747C108.951 125.935 108.783 125.115 108.725 124.297C108.7 123.959 108.721 123.617 108.721 123.317C109.468 123.108 109.844 123.521 110.305 123.794C110.932 124.166 111.598 124.523 112.296 124.712C113.711 125.095 114.582 124.597 115.044 123.206C115.45 121.985 115.7 120.734 115.478 119.43C115.339 118.619 115.201 117.804 115.118 116.985C115.018 115.994 115.563 115.6 116.484 115.984C116.823 116.126 117.127 116.352 117.443 116.546C117.864 116.806 118.265 117.101 118.703 117.331C120.711 118.384 122.589 117.625 123.322 115.478C123.763 114.189 123.841 112.901 123.336 111.604C123.038 110.835 122.778 110.051 122.487 109.28C122.323 108.847 122.13 108.401 122.488 108C122.844 107.6 123.306 107.747 123.761 107.841C124.729 108.042 125.703 108.214 126.677 108.386C127.388 108.512 127.924 108.285 128.401 107.7C129.883 105.881 130.043 103.876 129.253 101.773C129.015 101.14 128.489 100.608 128.062 100.056C127.761 99.6682 127.524 99.2739 127.876 98.8364C128.185 98.4514 128.602 98.5912 129.015 98.7208C129.956 99.0164 130.919 99.2497 131.856 99.5578C132.629 99.8116 133.262 99.5887 133.763 99.0361C134.844 97.842 135.665 95.6664 134.542 93.8944C134.041 93.1039 133.377 92.4165 132.783 91.6858C132.566 91.4196 132.336 91.1636 132.133 90.9257C132.58 90.2482 133.138 90.3839 133.661 90.3256C134.386 90.2446 135.137 90.1672 135.812 89.9133C137.325 89.3436 137.689 88.4499 137.176 86.8977C136.783 85.7077 136.211 84.6184 135.329 83.7138C134.782 83.1529 134.21 82.6162 133.671 82.0481C132.933 81.2694 133.127 80.6104 134.181 80.3793C134.66 80.2745 135.165 80.2941 135.655 80.2353C136.308 80.1563 136.964 80.0846 137.608 79.9577C138.617 79.7585 139.216 79.0433 139.383 78.1088C139.516 77.3647 139.489 76.5385 139.308 75.8042C138.994 74.5265 138.22 73.5084 137.093 72.7808C136.295 72.2664 135.491 71.757 134.734 71.1874C134.075 70.692 134.124 70.146 134.819 69.7182C135.097 69.5469 135.422 69.4525 135.718 69.308C136.495 68.9292 137.277 68.5567 138.04 68.1521C138.488 67.9153 138.848 67.586 138.897 67.022C138.986 65.9797 138.918 64.9843 138.44 64.01C137.564 62.2251 136.259 61.0346 134.257 60.6873C133.801 60.6084 133.307 60.4928 133.278 59.92C133.245 59.2734 133.792 59.1692 134.266 59.0061C135.161 58.6986 136.045 58.359 136.938 58.0468C137.739 57.7666 138.102 57.1722 138.185 56.3682C138.399 54.2907 137.274 52.401 135.312 51.6776C134.587 51.4103 133.799 51.3179 133.04 51.1425C132.7 51.064 132.362 50.9768 132.046 50.8994C132.047 50.1961 132.391 49.8509 132.845 49.6114C133.77 49.1233 134.297 48.2997 134.79 47.4276C135.082 46.9095 135.138 46.3842 134.815 45.9069C134.498 45.4404 134.13 44.9786 133.691 44.6323C132.247 43.4919 130.516 43.1199 128.737 42.8856C128.153 42.8087 127.375 42.9356 127.17 42.1663C126.961 41.384 127.664 41.0238 128.143 40.5898C128.752 40.0366 129.395 39.517 129.969 38.9293C130.797 38.0825 130.827 37.0494 130.326 36.0643C130.019 35.4606 129.547 34.8878 129.019 34.4615C127.999 33.638 126.801 33.222 125.452 33.3129C124.546 33.3738 123.637 33.3949 122.729 33.3882C121.686 33.3805 121.408 32.8918 121.885 31.9516C122.034 31.658 122.24 31.3938 122.395 31.1027C122.763 30.4118 123.133 29.7208 123.468 29.0144C123.685 28.5588 123.782 28.0856 123.498 27.5948C122.971 26.6856 122.319 25.9312 121.364 25.4224C119.609 24.4873 117.848 24.3088 116.027 25.1907C115.604 25.3955 115.142 25.5865 114.788 25.1365C114.398 24.639 114.748 24.2319 115.046 23.8139C115.619 23.0094 116.151 22.1756 116.707 21.3587C117.101 20.7802 117.065 20.1693 116.768 19.5944C115.964 18.0334 113.832 16.633 112.177 17.1583C111.242 17.455 110.333 17.8327 109.414 18.1779C109.091 18.2992 108.772 18.4323 108.475 18.55C108.063 17.955 108.172 17.4813 108.385 17.0195C108.745 16.2423 108.778 15.4332 108.7 14.5967C108.575 13.2494 107.946 12.6002 106.583 12.5275C105.331 12.4609 104.106 12.6193 102.956 13.1457C102.207 13.4883 101.475 13.8681 100.741 14.2438C100.292 14.4739 99.7707 14.7866 99.3919 14.3274C99.1499 14.0343 99.1231 13.4997 99.137 13.0781C99.1499 12.6782 99.3641 12.2886 99.4497 11.8861C99.5782 11.2828 99.7026 10.6755 99.7728 10.0635C99.9079 8.88798 99.3228 8.06131 98.3336 7.55664C97.799 7.28418 97.172 7.11286 96.5724 7.06281C95.1652 6.94464 93.8808 7.33114 92.7677 8.23934C92.0329 8.83948 91.2976 9.44374 90.5215 9.98814C89.8667 10.4474 89.3352 10.208 89.1587 9.42516C89.0957 9.14599 89.1159 8.84928 89.0746 8.56392C88.944 7.66656 88.8553 6.75784 88.6401 5.8806C88.5426 5.48327 88.2665 5.0044 87.929 4.8145C86.9847 4.283 85.9614 4.06782 84.8344 4.23862C82.8653 4.53637 81.3373 5.40586 80.3992 7.20885C80.183 7.62476 79.8914 8.01797 79.3414 7.8549C78.797 7.69339 78.7892 7.21452 78.7851 6.74133C78.7758 5.7547 78.7371 4.76858 78.7221 3.78194C78.7098 2.97953 78.2773 2.44338 77.5869 2.15802C75.9965 1.50061 73.7802 1.41185 72.3828 3.14672C71.8219 3.84335 71.4153 4.66382 70.9354 5.42599C70.7527 5.71599 70.5623 6.00084 70.3677 6.30013C69.6107 5.69174 69.5612 5.70258 69.4244 5.06219C69.2263 4.13129 68.6886 3.43414 68.0983 2.72822C67.5719 2.09919 66.9481 1.92684 66.2261 2.13893C65.7648 2.27464 65.3179 2.5182 64.918 2.79169C63.324 3.88463 62.4194 5.50236 61.6485 7.21091C61.4416 7.66914 61.2543 8.18671 60.6717 8.20941C60.0241 8.23521 59.7841 7.69391 59.5664 7.19594C59.4177 6.8564 59.3223 6.49364 59.1695 6.15616C58.9151 5.59421 58.6571 5.03123 58.3583 4.4925C57.8387 3.55334 56.9599 3.1622 55.9609 3.31185C55.2142 3.42382 54.4438 3.7097 53.8008 4.10703C52.6367 4.82689 51.9246 5.93272 51.5881 7.27593C51.3781 8.11601 51.1562 8.95558 50.8807 9.77554C50.5788 10.6739 50.0014 10.789 49.3022 10.1259C49.0937 9.92828 48.9306 9.68317 48.7304 9.47521C48.1592 8.88076 47.5879 8.2863 47.0017 7.70732C46.5327 7.24445 46.0233 7.09016 45.321 7.262C42.7946 7.88071 40.9545 10.1522 40.9896 12.7339C40.9952 13.1462 41.0891 13.5704 41.0174 13.9667C40.9674 14.2438 40.7506 14.6262 40.5241 14.6984C40.2888 14.7737 39.9446 14.5487 39.6639 14.4208C39.5664 14.3764 39.5179 14.2267 39.4425 14.1292C38.8383 13.348 38.2273 12.5714 37.6292 11.7849C37.1803 11.1946 36.5791 11.0114 35.8768 11.1095C33.9159 11.3835 32.2208 13.1596 32.1367 15.1453C32.099 16.038 32.2781 16.939 32.3472 17.8368C32.3684 18.1124 32.3508 18.39 32.3508 18.648Z" fill="#861E1D"/>
<path d="M69.2536 10.8789C71.4807 10.8789 73.712 10.7917 75.9335 10.9001C79.0198 11.0508 82.148 11.0823 85.1362 11.943C88.0992 12.796 90.9988 13.8739 93.9102 14.8988C95.0341 15.2945 96.111 15.8219 97.2143 16.2781C98.8366 16.9484 100.195 18.0289 101.585 19.0631C103.669 20.6127 105.771 22.1391 107.838 23.7109C111.156 26.2332 114.527 28.7302 117.18 31.9703C119.079 34.2898 120.683 36.8524 122.395 39.3231C122.981 40.1689 123.505 41.0585 124.04 41.9383C125.675 44.6247 126.222 47.71 127.199 50.6364C127.981 52.9802 128.727 55.3399 129.376 57.7229C129.982 59.948 130.591 62.1917 130.92 64.4679C131.244 66.7017 131.307 68.9851 131.32 71.2479C131.332 73.4286 131.155 75.6124 131.02 77.7921C130.878 80.1147 130.291 82.3382 129.507 84.5267C128.633 86.97 127.87 89.4531 127.014 91.9032C125.639 95.8358 124.31 99.8128 122.043 103.333C120.419 105.854 118.49 108.18 116.66 110.564C115.933 111.51 115.102 112.374 114.327 113.284C113.188 114.62 111.743 115.58 110.329 116.582C108.177 118.108 106.05 119.67 103.878 121.167C100.482 123.509 97.1059 125.93 93.2393 127.426C90.4048 128.522 87.4382 129.28 84.5201 130.155C83.4963 130.462 82.4457 130.682 81.4018 130.917C78.3356 131.606 75.2322 131.126 72.1459 131.19C70.7031 131.219 69.2582 131.237 67.8165 131.195C63.7342 131.074 59.6205 131.053 55.6543 129.987C52.7589 129.209 49.9533 128.095 47.1173 127.104C46.1466 126.764 45.1982 126.357 44.2518 125.952C41.247 124.665 38.9125 122.39 36.2952 120.532C35.4892 119.96 34.6533 119.425 33.8896 118.801C31.0803 116.506 28.2422 114.241 25.5274 111.838C24.3359 110.784 23.3575 109.468 22.3817 108.195C20.1721 105.313 18.124 102.315 16.4975 99.0599C15.9113 97.887 15.4397 96.6408 15.0573 95.3853C13.5923 90.576 12.1212 85.7672 10.7795 80.9228C9.89606 77.7322 9.57974 74.4467 9.65663 71.124C9.7299 67.9469 9.79595 64.7687 10.3708 61.6364C10.6149 60.3056 11.0458 59.0052 11.4457 57.708C11.7981 56.566 12.2218 55.4462 12.6222 54.3192C13.8225 50.9419 14.9665 47.5423 16.2498 44.197C17.2396 41.6174 18.4822 39.1564 20.1143 36.8927C22.2631 33.9126 24.4479 30.9646 27.061 28.3736C28.0502 27.3927 29.1566 26.5077 30.2996 25.7074C34.3179 22.8935 38.3475 20.0936 42.4277 17.37C45.3262 15.4354 48.5033 14.052 51.8574 13.0973C53.9964 12.4884 56.1358 11.8774 58.2928 11.3398C60.3414 10.8294 62.4344 10.6472 64.5506 10.6989C66.1172 10.737 67.6854 10.7061 69.2531 10.7061C69.2541 10.7628 69.2536 10.8206 69.2536 10.8789ZM13.469 62.943C14.5754 64.1582 15.5646 65.3322 15.4944 67.0072C15.4263 68.6332 14.6693 69.8985 13.1393 70.8387C15.1063 71.5467 15.5491 73.0674 15.7096 74.6578C15.8762 76.3075 14.9324 77.6135 13.9267 78.9351C16.0517 79.7819 16.7328 81.5683 17.2189 83.4988C17.7602 85.6501 16.7638 87.323 15.305 88.9696C15.7034 89.0119 15.8535 89.0341 16.0042 89.0434C19.5483 89.2571 21.8322 93.0029 20.4085 96.2703C20.167 96.824 19.9177 97.3746 19.6489 97.9778C21.2021 98.3834 22.7099 98.6982 23.6444 100.101C24.5459 101.454 24.6352 102.904 24.08 104.53C25.9934 104.113 27.2272 104.967 28.2923 106.133C29.4363 107.386 29.3713 109.005 29.4512 110.661C30.8646 110.326 32.1273 110.606 33.2688 111.344C34.3452 112.041 35.5197 112.747 35.9397 114.008C36.3407 115.214 36.4325 116.523 36.6632 117.802C38.4538 116.69 40.3006 116.428 42.293 117.573C44.2951 118.724 44.9876 120.554 45.1569 122.787C46.7137 122.11 48.1199 121.495 49.6927 122.088C51.2166 122.663 52.181 123.751 52.6093 125.347C54.8576 123.309 58.1282 123.515 60.4719 127.02C61.3569 126.578 62.1825 125.994 63.098 125.755C64.0309 125.511 65.0542 125.539 66.0341 125.57C67.0455 125.602 67.9997 125.966 68.7216 126.69C69.395 127.365 69.9626 128.146 70.6221 128.934C72.0014 125.054 76.3226 123.992 79.2995 126.674C79.685 127.022 80.0777 127.361 80.3713 127.62C81.1004 126.765 81.7088 125.931 82.4416 125.227C83.1939 124.504 84.2064 124.44 85.2193 124.397C86.3097 124.35 87.1193 125.012 88.0404 125.433C88.6509 122.209 91.2289 121.133 95.5408 122.303C95.6605 120.925 96.2715 119.779 97.334 118.918C98.3619 118.084 99.4321 117.164 100.805 117.154C102.07 117.145 103.338 117.475 104.582 117.653C104.04 115.525 104.426 113.708 106.148 112.18C107.841 110.677 109.765 110.617 111.905 111.105C111.818 109.447 111.634 107.91 112.671 106.589C113.682 105.3 115.026 104.757 116.85 104.859C115.641 103.123 116.221 101.652 117.003 100.261C117.824 98.8004 119.399 98.3726 120.984 97.7771C120.054 96.5423 120.1 95.2187 120.411 93.9203C120.708 92.6788 121.048 91.349 122.127 90.5652C123.15 89.8211 124.357 89.3298 125.482 88.7271C125.433 88.6667 125.391 88.5935 125.33 88.5429C122.447 86.1609 122.774 81.8413 125.982 79.9594C126.493 79.6596 127.005 79.3618 127.544 79.0476C126.446 77.8158 125.477 76.647 125.543 74.9627C125.608 73.3176 126.439 72.1153 127.809 71.1478C125.947 70.4295 125.485 68.9376 125.326 67.3318C125.162 65.6748 126.115 64.3817 127.13 63.0044C125.633 62.5457 124.854 61.492 124.362 60.2344C123.897 59.0465 123.54 57.8349 123.725 56.5C123.916 55.131 124.918 54.2099 125.615 53.0225C123.252 52.8806 121.641 51.9652 120.705 49.8634C119.776 47.7761 120.305 45.9323 121.451 44.0256C119.861 43.6324 118.356 43.3073 117.409 41.9321C116.483 40.5858 116.418 39.1281 116.924 37.5C115.044 37.8617 113.799 37.0356 112.736 35.8647C111.592 34.6056 111.657 32.99 111.593 31.282C110.174 31.7232 108.92 31.38 107.773 30.6555C106.689 29.9707 105.526 29.255 105.093 27.9995C104.683 26.8055 104.573 25.5077 104.328 24.2351C102.45 25.3353 100.607 25.536 98.6271 24.3569C96.6657 23.1887 96.0868 21.3418 95.8334 19.2462C94.2992 19.8727 92.8983 20.4997 91.3141 19.9011C89.7825 19.3226 88.848 18.2059 88.3913 16.5237C87.0956 18.0836 85.5563 18.0867 83.97 17.7364C82.3291 17.3736 81.4214 16.0516 80.4306 14.7352C79.4904 15.9045 78.284 16.3854 76.9279 16.4685C75.6481 16.5469 74.3823 16.4964 73.1748 15.92C71.9168 15.3188 71.3667 14.0556 70.475 13.1025C70.3827 13.2181 70.3166 13.2702 70.2908 13.3378C68.9177 16.9479 64.6775 17.9681 61.7986 15.3807C61.3879 15.0118 60.9683 14.6521 60.538 14.2749C58.543 17.8107 56.6002 18.3907 52.986 16.5707C52.8363 18.384 51.6227 19.3365 50.1314 19.9842C48.6024 20.6483 47.0775 20.1591 45.497 19.6699C45.352 21.1385 44.708 22.2614 43.6455 23.1185C42.6465 23.9245 41.5953 24.6315 40.2856 24.8848C38.9404 25.1454 37.7649 24.409 36.4356 24.2176C36.9361 26.4437 36.6307 28.2818 34.8922 29.8082C33.1857 31.3067 31.2738 31.3862 29.2232 30.9022C29.0493 35.6805 28.4305 36.4881 24.4257 37.2611C25.6709 40.3366 24.0263 43.1226 20.1123 44.1892C21.2295 46.0567 20.8022 47.8943 20.0632 49.7581C19.2371 51.8413 17.4599 52.588 15.3938 53.0565C18.639 55.6841 18.6241 60.7143 13.469 62.943ZM17.4728 98.6131C18.51 97.8922 18.8769 96.9437 19.3279 96.0231C20.1092 94.4276 19.5828 93.0008 18.7231 91.7242C17.8521 90.431 16.4578 90.1023 14.8138 90.2855C15.7565 93.0462 16.2504 95.8508 17.4728 98.6131ZM60.6701 12.0405C61.5798 14.4163 63.4019 15.6284 65.7519 15.5402C67.6483 15.469 69.0787 14.085 69.2732 12.0255C66.4371 12.185 63.615 11.638 60.6701 12.0405ZM129.648 79.8402C127.951 79.9589 125.987 80.8825 125.402 81.9141C124.261 83.9255 123.937 86.3864 126.904 88.1001C127.789 85.3657 129.027 82.783 129.648 79.8402ZM113.139 112.939C111.137 111.539 108.886 111.592 107.082 112.977C105.487 114.203 105.11 116.08 106.16 117.974C108.404 116.23 110.949 114.932 113.139 112.939ZM80.3522 129.96C80.0699 128.781 79.2969 128.113 78.5157 127.446C75.9361 125.244 72.3879 126.476 71.6933 129.968C74.5779 129.831 77.4263 130.333 80.3522 129.96ZM27.8758 29.0698C28.9925 29.8066 29.1865 29.8665 30.8017 30.0316C32.6294 30.2184 34.4819 29.1539 35.1739 27.4851C35.6409 26.3586 35.5119 25.2393 34.9871 23.9684C32.6428 25.7151 30.1045 27.0697 27.8758 29.0698ZM14.2172 53.8832C13.0051 56.3596 11.5386 60.9357 11.5654 62.1545C12.7022 62.2077 13.6047 61.6385 14.5098 61.0745C15.8396 60.2463 16.6627 58.3649 16.3959 56.8204C16.1693 55.5071 15.3907 54.6185 14.2172 53.8832ZM43.8617 124.537C44.242 123.251 43.9231 122.226 43.8013 121.174C43.6248 119.652 41.0906 117.871 39.6664 118.023C38.6091 118.135 37.6942 118.498 36.7736 119.317C39.1396 121.018 41.2248 122.995 43.8617 124.537ZM97.1647 17.4685C96.8902 18.9046 96.9077 19.3102 97.2514 20.7396C97.6684 22.476 99.4079 23.9281 101.158 23.9617C102.309 23.9838 103.292 23.5478 104.26 22.6742C101.87 20.9796 99.7975 18.9846 97.1647 17.4685ZM126.213 51.7391C125.267 48.9149 124.783 46.0877 123.547 43.4064C122.492 44.1056 122.099 45.0845 121.671 46.0577C120.902 47.805 121.52 49.2813 122.598 50.6008C123.44 51.6308 124.671 51.8253 126.213 51.7391ZM69.765 130.081C68.3124 126.711 65.7901 126.2 62.9256 127.054C61.8523 127.374 61.2754 128.283 60.828 129.493C63.8668 129.693 66.7215 129.88 69.765 130.081ZM97.1018 123.871C99.6907 122.416 102.197 121.02 104.43 119.16C102.48 117.841 100.664 117.944 98.6194 119.463C96.9748 120.685 96.5052 121.954 97.1018 123.871ZM126.469 89.9413C123.412 90.365 122.073 91.6266 121.56 94.3094C121.235 96.0077 121.764 97.306 123.219 98.1234C124.281 95.4498 125.335 92.7959 126.469 89.9413ZM71.361 12.1004C72.4142 14.5391 73.8575 15.3972 76.5698 15.2729C78.4197 15.1877 79.5101 14.3755 80.0529 12.604C77.1869 12.2578 74.3447 11.8971 71.361 12.1004ZM129.048 62.1138C128.393 59.1343 127.917 56.2812 126.734 53.5581C124.686 55.711 124.413 57.1135 125.453 59.6895C126.071 61.22 127.17 62.0395 129.048 62.1138ZM28.3733 112.571C30.6463 114.616 32.7202 116.628 35.2715 118.154C35.7715 115.642 34.9964 113.822 32.8766 112.526C31.3992 111.622 29.99 111.524 28.3733 112.571ZM14.756 52.0353C17.6287 51.6076 18.847 50.4666 19.4611 47.7456C19.8316 46.1037 19.3284 44.8115 17.9027 43.8884C16.7158 46.517 15.4856 49.109 14.756 52.0353ZM43.9025 18.1311C41.376 19.5703 38.8382 20.9512 36.594 22.8538C38.7355 24.1794 40.443 24.0262 42.5412 22.4456C43.7533 21.5327 44.692 19.9547 43.9025 18.1311ZM14.0836 88.4908C16.6492 86.4035 16.7948 82.6442 14.5366 80.7427C13.8715 80.1823 13.0603 79.7328 11.9359 80.0409C12.6475 82.8408 13.3436 85.5788 14.0836 88.4908ZM105.784 23.8223C105.327 26.7487 106.014 28.2183 108.409 29.626C109.869 30.4837 111.181 30.413 112.553 29.3531C110.443 27.387 108.334 25.4493 105.784 23.8223ZM129.934 78.6544C130.171 77.4912 130.296 76.4215 130.027 75.3038C129.837 74.5153 129.815 73.6856 129.733 72.8728C129.693 72.4796 129.689 72.0833 129.667 71.6834C127.893 71.8717 126.773 73.0199 126.596 74.73C126.421 76.4184 127.677 77.9407 129.934 78.6544ZM27.011 29.916C25.9578 30.7205 23.5655 34.4663 23.2043 35.8209C24.8555 36.5253 26.3463 36.2074 27.3954 34.9266C28.4863 33.5953 28.3712 31.9074 27.011 29.916ZM118.787 36.7317C117.365 38.1038 117.199 39.7979 118.234 41.2629C119.275 42.7351 121.264 43.1236 123.039 42.1803C122.232 39.8696 119.923 38.7854 118.787 36.7317ZM88.1761 127.377C87.1271 125.62 85.6652 125.027 83.9706 125.594C82.3647 126.131 81.4699 127.755 81.6619 129.927C82.1825 129.814 82.7218 129.777 83.1934 129.579C84.8437 128.886 86.4696 128.136 88.1761 127.377ZM89.4404 14.9973C89.1039 16.8117 89.8558 18.1796 91.4694 18.8241C93.1423 19.4929 94.9598 18.7261 96.1409 16.8013C95.7276 16.6094 95.3396 16.3483 94.9138 16.2451C93.1243 15.8095 91.3239 15.422 89.4404 14.9973ZM11.4271 70.3056C13.1429 70.1348 14.2812 68.9547 14.4076 67.2435C14.5449 65.389 13.372 63.9895 11.0803 63.3672C11.0081 63.8579 10.845 64.3445 10.8827 64.8151C11.0298 66.6486 11.2403 68.4768 11.4271 70.3056ZM22.311 105.2C23.6429 103.917 23.8302 102.304 22.8575 100.825C21.8796 99.3386 20.0013 98.9175 17.9986 99.7788C18.363 100.747 18.9053 101.581 19.6453 102.317C20.3734 103.041 21.0401 103.826 21.7346 104.583C21.924 104.79 22.1181 104.994 22.311 105.2ZM114.045 112.093C115.12 111.198 117.382 107.638 117.827 106.203C116.213 105.451 114.691 105.768 113.628 107.079C112.536 108.425 112.669 110.165 114.045 112.093ZM129.71 70.4176C129.763 68.0635 129.878 65.7166 129.181 63.4245C127.661 63.6665 126.391 65.5412 126.503 67.1636C126.642 69.1838 127.775 70.3753 129.71 70.4176ZM52.874 14.6521C53.9499 16.4442 55.4892 17.0186 57.2153 16.339C58.8454 15.6965 59.6969 13.9916 59.2887 12.0746C58.6514 12.2252 57.9775 12.2887 57.3861 12.5431C55.884 13.1907 54.4185 13.9235 52.874 14.6521ZM27.3505 111.529C28.106 111.148 28.1452 111.156 28.2499 110.629C28.4837 109.453 28.2804 108.304 27.6751 107.299C26.6105 105.53 24.5867 105.096 22.9752 106.282C24.275 108.17 25.5682 110.056 27.3505 111.529ZM51.5747 127.044C51.9715 125.265 51.1655 123.791 49.523 123.157C47.8588 122.514 46.0331 123.301 44.9046 125.179C45.916 125.736 46.9413 126.187 48.124 126.273C48.8516 126.327 49.5704 126.528 50.2882 126.687C50.7207 126.783 51.1428 126.923 51.5747 127.044ZM51.7243 14.8755C49.6633 15.4328 47.7226 16.065 45.9191 17.0583C45.0434 17.5408 45.0552 18.0228 45.8912 18.5754C47.5058 19.6426 50.3827 19.1523 51.4462 17.5238C51.9266 16.7884 52.0654 15.8787 51.7243 14.8755ZM122.426 99.4015C121.116 98.6151 118.879 99.4206 118.026 100.872C116.98 102.654 117.25 104.353 118.787 105.283C120.155 103.455 121.589 101.665 122.426 99.4015ZM88.301 14.5215C86.0284 13.748 83.8746 12.9611 81.6206 12.8321C81.1056 13.2826 81.2263 13.7351 81.4276 14.1474C81.9333 15.1841 82.7496 15.9659 83.7765 16.4298C85.6332 17.2683 87.4449 16.5124 88.301 14.5215ZM95.869 124.479C95.1223 123.042 92.8709 122.43 91.3538 123.105C89.5328 123.915 88.7876 125.35 89.3826 127.087C91.6201 126.474 93.8214 125.789 95.869 124.479ZM18.6628 42.6432C19.9317 43.3822 22.1666 42.5643 23.0108 41.1127C24.0495 39.3278 23.7678 37.6104 22.2976 36.7616C20.9297 38.1745 19.1329 41.0611 18.6628 42.6432ZM11.8482 78.5475C13.3431 78.386 14.7049 76.3668 14.5284 74.7522C14.3034 72.6948 13.0562 71.4579 11.2857 71.6628C11.361 73.9642 11.0896 76.2977 11.8482 78.5475ZM118.021 35.7662C116.721 33.458 114.649 31.089 113.428 30.4899C112.434 31.4471 112.493 33.7233 113.544 34.9741C114.85 36.5289 116.443 36.8297 118.021 35.7662ZM52.7151 127.461C55.0083 128.255 57.1895 129.055 59.5364 129.164C59.8687 127.796 58.6793 126.057 57.1596 125.51C55.2441 124.821 53.6403 125.481 52.7151 127.461Z" fill="#861E1D"/>
<path d="M95.6616 131.716C94.9387 131.715 94.3695 131.186 94.3633 130.509C94.3571 129.86 95.2385 129.062 95.963 129.061C96.59 129.059 97.1509 129.604 97.17 130.234C97.1937 131.007 96.4708 131.717 95.6616 131.716Z" fill="#861E1D"/>
<path d="M85.1229 9.30827C84.1802 9.3253 83.5821 8.86655 83.562 8.1111C83.5429 7.40931 84.1368 6.85097 84.9294 6.82517C85.7669 6.79782 86.4037 7.36338 86.4011 8.13329C86.3991 8.84953 85.9155 9.29382 85.1229 9.30827Z" fill="#861E1D"/>
<path d="M15.2162 36.3785C15.8519 36.3589 16.4381 36.8811 16.4748 37.4993C16.5202 38.2656 15.8328 39.1598 15.1579 39.2135C14.4468 39.2697 13.8523 38.6577 13.8565 37.8739C13.8606 37.0854 14.4834 36.4007 15.2162 36.3785Z" fill="#861E1D"/>
<path d="M125.806 105.622C125.164 105.638 124.596 105.121 124.565 104.492C124.526 103.684 125.176 102.836 125.875 102.784C126.576 102.733 127.19 103.366 127.18 104.13C127.171 104.904 126.526 105.604 125.806 105.622Z" fill="#861E1D"/>
<path d="M133.548 65.1633C133.534 64.4781 134.13 63.8666 134.79 63.8914C135.481 63.9172 136.139 64.6716 136.127 65.425C136.115 66.1221 135.572 66.7192 134.914 66.7579C134.151 66.8028 133.568 66.1226 133.548 65.1633Z" fill="#861E1D"/>
<path d="M7.44992 76.8726C7.4396 77.5491 6.95402 78.078 6.32138 78.1018C5.57108 78.1301 4.88271 77.3607 4.91832 76.5341C4.94928 75.8178 5.48388 75.2585 6.15161 75.243C6.92409 75.226 7.46437 75.9045 7.44992 76.8726Z" fill="#861E1D"/>
<path d="M46.6733 11.4743C46.6873 12.1291 45.8239 12.9145 45.0747 12.9284C44.4498 12.9398 43.8796 12.4016 43.8517 11.7746C43.8182 11.013 44.5427 10.2926 45.3523 10.2833C46.0701 10.2745 46.6594 10.806 46.6733 11.4743Z" fill="#861E1D"/>
<path d="M20.4732 113.224C20.4912 112.552 20.9881 112.033 21.627 112.019C22.3757 112.002 23.255 112.895 23.1988 113.615C23.1487 114.258 22.6085 114.741 21.9505 114.73C21.1326 114.717 20.4515 114.022 20.4732 113.224Z" fill="#861E1D"/>
<path d="M55.8889 132.692C56.8348 132.669 57.4179 133.112 57.4463 133.874C57.4731 134.594 56.9096 135.141 56.1098 135.174C55.2702 135.208 54.6417 134.658 54.6329 133.881C54.6252 133.161 55.1004 132.711 55.8889 132.692Z" fill="#861E1D"/>
<path d="M119 27.2608C119.793 27.2231 120.54 27.9063 120.563 28.6907C120.583 29.3692 120.129 29.9054 119.486 29.9637C118.772 30.0282 117.906 29.3011 117.844 28.5849C117.783 27.8784 118.293 27.2943 119 27.2608Z" fill="#861E1D"/>
<path d="M57.1649 8.47264C57.1526 9.18527 56.7594 9.69407 56.2139 9.70387C55.5751 9.71523 54.7262 8.82664 54.7236 8.14342C54.7211 7.42925 55.1705 6.90239 55.8026 6.87968C56.5602 6.85182 57.1804 7.57735 57.1649 8.47264Z" fill="#861E1D"/>
<path d="M6.36678 64.2852C7.20325 64.2872 7.87666 64.8254 7.83486 65.4586C7.80132 65.9633 6.89931 66.68 6.2966 66.6805C5.5979 66.6811 4.9503 66.117 4.94152 65.4999C4.93172 64.8012 5.53959 64.2831 6.36678 64.2852Z" fill="#861E1D"/>
<path d="M134.683 77.7159C133.837 77.7185 133.181 77.2014 133.209 76.5564C133.232 76.0466 134.108 75.3288 134.719 75.3195C135.409 75.3092 136.08 75.8742 136.098 76.4805C136.117 77.1658 135.49 77.7138 134.683 77.7159Z" fill="#861E1D"/>
<path d="M96.8127 11.6129C96.7874 12.3988 96.1398 13.1522 95.4876 13.1558C94.8947 13.1589 94.3699 12.4055 94.4039 11.6C94.4333 10.8967 95.1274 10.2486 95.7889 10.3069C96.4247 10.3621 96.8359 10.8874 96.8127 11.6129Z" fill="#861E1D"/>
<path d="M15.2187 105.494C14.4963 105.524 14.0277 105.092 14.0303 104.397C14.0329 103.638 14.73 102.982 15.5727 102.945C16.2115 102.917 16.6718 103.278 16.6878 103.82C16.7136 104.685 16.0335 105.46 15.2187 105.494Z" fill="#861E1D"/>
<path d="M83.8721 133.767C83.8675 132.896 84.1606 132.428 84.6529 132.318C85.1529 132.205 86.0616 132.848 86.2541 133.451C86.4512 134.068 86.1633 134.797 85.6271 135.034C85.1049 135.266 84.4728 135.062 84.1415 134.498C83.981 134.225 83.9175 133.894 83.8721 133.767Z" fill="#861E1D"/>
<path d="M22.0742 29.9623C21.1371 29.9582 20.5055 29.4117 20.5147 28.6134C20.5215 28.0205 21.0019 27.5432 21.6196 27.5148C22.3987 27.4792 23.2481 28.2827 23.2481 29.0546C23.2481 29.6831 22.8828 29.9654 22.0742 29.9623Z" fill="#861E1D"/>
<path d="M46.6003 130.349C46.5936 131.075 45.9573 131.722 45.2823 131.691C44.6507 131.661 44.2147 131.144 44.2178 130.427C44.2214 129.641 44.8303 128.882 45.4877 128.844C46.0977 128.809 46.608 129.5 46.6003 130.349Z" fill="#861E1D"/>
<path d="M125.364 39.0586C124.721 39.0467 124.319 38.6597 124.353 38.0854C124.407 37.1622 125.073 36.4774 125.903 36.4939C126.549 36.5068 126.99 36.9377 127.004 37.5704C127.022 38.3687 126.243 39.0751 125.364 39.0586Z" fill="#861E1D"/>
<path d="M118.997 112.029C119.906 112.048 120.568 112.65 120.531 113.423C120.503 113.998 119.989 114.467 119.375 114.476C118.575 114.488 117.761 113.682 117.787 112.904C117.807 112.283 118.181 112.013 118.997 112.029Z" fill="#861E1D"/>
<path d="M29.7002 22.5905C29.112 22.5549 28.4174 21.656 28.4546 20.9784C28.485 20.4237 28.9706 19.9964 29.5263 20.0352C30.2224 20.0837 30.9051 20.8644 30.8566 21.5564C30.8143 22.1519 30.2844 22.6261 29.7002 22.5905Z" fill="#861E1D"/>
<path d="M130.56 46.4068C131.263 46.3831 131.706 46.7572 131.707 47.3744C131.708 48.0163 131.028 48.6376 130.309 48.6515C129.646 48.6644 129.089 48.1598 129.088 47.5436C129.086 46.8785 129.658 46.4368 130.56 46.4068Z" fill="#861E1D"/>
<path d="M112.585 120.988C112.567 121.522 112.066 121.984 111.526 121.965C110.823 121.938 110.152 121.189 110.186 120.468C110.215 119.859 110.716 119.379 111.301 119.399C111.864 119.418 112.606 120.337 112.585 120.988Z" fill="#861E1D"/>
<path d="M65.5977 6.89463C65.5992 5.98282 66.0476 5.39095 66.705 5.43274C67.3083 5.47093 67.8078 6.12524 67.7851 6.84613C67.7634 7.53192 67.2861 8.06291 66.6777 8.0789C66.0218 8.09645 65.5961 7.62997 65.5977 6.89463Z" fill="#861E1D"/>
<path d="M8.1633 53.6848C8.92805 53.6977 9.57514 54.287 9.54831 54.9455C9.52612 55.4821 9.05551 55.9502 8.52142 55.9667C7.77835 55.9899 6.93259 55.3413 6.91917 54.7385C6.90627 54.126 7.44087 53.6724 8.1633 53.6848Z" fill="#861E1D"/>
<path d="M75.4442 135.103C75.438 136 74.9746 136.601 74.3214 136.56C73.7078 136.521 73.232 135.888 73.2578 135.147C73.2821 134.445 73.7408 133.933 74.357 133.92C75.0133 133.906 75.4494 134.381 75.4442 135.103Z" fill="#861E1D"/>
<path d="M106.346 16.5507C106.362 17.3284 105.705 18.0291 104.972 18.0147C104.397 18.0033 103.954 17.5724 103.933 17.0048C103.909 16.3531 104.697 15.5187 105.338 15.5166C105.9 15.5145 106.333 15.9599 106.346 16.5507Z" fill="#861E1D"/>
<path d="M35.733 126.48C35.1814 126.504 34.7309 126.088 34.6829 125.513C34.6215 124.77 35.2371 124.029 35.9544 123.983C36.5747 123.943 37.0773 124.381 37.1031 124.984C37.1299 125.605 36.3538 126.453 35.733 126.48Z" fill="#861E1D"/>
<path d="M29.1324 119.835C30.0282 119.87 30.4132 120.315 30.3678 121.263C30.3358 121.93 30.0582 122.231 29.5195 122.182C28.8156 122.118 27.9817 121.383 27.9863 120.83C27.991 120.242 28.489 119.81 29.1324 119.835Z" fill="#861E1D"/>
<path d="M132.95 88.3132C132.185 88.339 131.521 87.8013 131.495 87.1341C131.471 86.536 131.956 86.0288 132.552 86.0293C133.326 86.0298 134.133 86.6836 134.117 87.2972C134.102 87.8565 133.603 88.291 132.95 88.3132Z" fill="#861E1D"/>
<path d="M106.612 125.498C106.57 126.093 105.527 126.97 104.955 126.889C104.422 126.813 104.013 126.279 104.081 125.745C104.162 125.109 104.737 124.518 105.254 124.542C106.038 124.577 106.647 125.005 106.612 125.498Z" fill="#861E1D"/>
<path d="M10.4369 95.5882C9.78207 95.5959 9.36667 95.2574 9.33003 94.6862C9.28823 94.0303 9.93946 93.3879 10.6836 93.3518C11.3719 93.3182 11.9091 93.7976 11.9107 94.4473C11.9127 95.1521 11.3637 95.5774 10.4369 95.5882Z" fill="#861E1D"/>
<path d="M11.3281 47.2076C11.3271 47.9213 10.7657 48.4151 9.93176 48.4368C9.43844 48.4497 9.16134 48.1349 9.14638 47.5446C9.12212 46.6049 9.60822 45.9269 10.3002 45.9351C10.9437 45.9434 11.3292 46.4202 11.3281 47.2076Z" fill="#861E1D"/>
<path d="M36.9312 16.1749C36.9028 16.7982 36.3274 17.4634 35.8171 17.4623C35.0725 17.4608 34.4032 17.0082 34.4223 16.5185C34.4439 15.9628 35.3872 15.0969 35.9652 15.1026C36.5055 15.1072 36.957 15.6088 36.9312 16.1749Z" fill="#861E1D"/>
<path d="M110.678 20.785C110.692 20.0842 110.932 19.7808 111.455 19.8045C112.201 19.8381 113.089 20.641 113.04 21.238C112.996 21.7814 112.534 22.1772 111.95 22.172C111.049 22.1648 110.66 21.7406 110.678 20.785Z" fill="#861E1D"/>
<path d="M7.59896 85.9052C8.1862 85.8856 8.90863 86.5858 8.90553 87.171C8.90295 87.6679 8.22542 88.5204 7.81982 88.5379C7.30535 88.5601 6.68561 87.736 6.64794 86.9795C6.61852 86.399 7.0396 85.9232 7.59896 85.9052Z" fill="#861E1D"/>
<path d="M133.352 56.0969C132.82 56.0716 132.057 55.2821 132.084 54.7842C132.106 54.359 132.863 53.474 133.214 53.4626C133.743 53.4456 134.421 54.3925 134.397 55.1149C134.379 55.6562 133.883 56.1227 133.352 56.0969Z" fill="#861E1D"/>
<path d="M66.416 136.689C65.6724 136.684 65.2322 136.341 65.2095 135.748C65.1873 135.175 65.8577 134.561 66.546 134.524C67.0223 134.498 67.8051 135.304 67.8247 135.839C67.8438 136.377 67.3164 136.694 66.416 136.689Z" fill="#861E1D"/>
<path d="M131.89 94.5257C131.866 95.4948 131.368 96.1145 130.659 96.0583C130.033 96.0088 129.679 95.5077 129.709 94.7146C129.734 94.0566 130.408 93.5262 131.174 93.5623C131.632 93.584 131.904 93.9509 131.89 94.5257Z" fill="#861E1D"/>
<path d="M74.6231 5.30538C75.3744 5.31312 75.781 5.64595 75.7908 6.2595C75.8001 6.86325 75.1649 7.44119 74.4657 7.46545C73.9945 7.48196 73.2179 6.6651 73.2081 6.14288C73.1988 5.60983 73.7283 5.29609 74.6231 5.30538Z" fill="#861E1D"/>
<path d="M66.5286 25.5835C66.9203 24.5762 67.2118 23.8135 67.5127 23.0549C67.9575 21.9336 68.5261 20.8892 69.3843 20.0213C71.0226 18.3638 73.2947 18.5614 74.511 20.5605C75.3227 21.8949 76.0482 23.297 76.2634 24.8894C76.2835 25.037 76.3418 25.1794 76.4564 25.5902C76.9146 24.9467 77.2552 24.5081 77.5529 24.0421C78.3533 22.7887 79.4973 21.9151 80.7424 21.1663C81.7079 20.5858 82.0836 20.7989 82.1378 21.9166C82.2549 24.3223 82.2559 26.7079 80.9623 28.8829C80.7646 29.2152 80.6955 29.6234 80.5071 30.1704C83.0666 29.6647 85.2014 30.496 87.2428 31.5714C87.3496 31.4063 87.4327 31.3381 87.428 31.2767C87.2325 28.7544 88.2738 26.7099 89.8719 24.8714C90.5464 24.0958 90.9958 23.9647 91.7296 24.6928C92.386 25.3435 92.9629 26.1397 93.3582 26.9741C94.0543 28.4433 94.2571 30.0414 93.9893 31.8903C94.8557 31.3387 95.5311 30.899 96.2154 30.4748C97.2376 29.8406 98.3146 29.3695 99.5045 29.0971C101.548 28.629 103.665 29.9702 103.395 32.7211C103.244 34.2717 102.989 35.8363 102.199 37.2394C102.149 37.3297 102.162 37.4556 102.121 37.7172C102.866 37.4706 103.522 37.2636 104.17 37.0371C105.447 36.5912 106.764 36.5484 108.084 36.6841C109.195 36.7982 109.356 37.1836 108.762 38.1182C107.467 40.1575 106.027 42.0461 103.723 43.0673C103.367 43.2252 103.071 43.5173 102.602 43.8512C104.979 44.9529 106.238 46.8622 107.272 49.0919C107.545 48.7797 107.755 48.5924 107.901 48.3633C109.229 46.2692 111.356 45.5293 113.601 44.9962C114.231 44.8466 114.627 45.1583 114.838 45.7408C115.187 46.7043 115.178 47.6847 114.936 48.6631C114.537 50.2793 113.881 51.7721 112.511 53.1303C113.565 53.2108 114.412 53.2067 115.233 53.3548C116.36 53.5581 117.53 53.7284 118.569 54.1747C120.783 55.1252 121.274 57.4308 119.691 59.2539C118.693 60.4031 117.607 61.4893 116.214 62.1952C116.049 62.2794 115.904 62.4048 115.557 62.6432C116.258 62.8547 116.751 63.0219 117.254 63.152C118.69 63.5225 119.888 64.3156 120.995 65.2604C121.915 66.0463 121.839 66.4478 120.741 66.8957C118.454 67.8287 116.122 68.4138 113.628 67.9061C113.318 67.8431 112.984 67.8973 112.466 67.8973C113.671 70.1637 113.63 72.477 113.098 74.9431C113.808 74.7341 114.31 74.5798 114.816 74.4379C116.951 73.8377 118.892 74.556 120.806 75.36C121.356 75.5912 121.457 76.1779 121.199 76.6341C120.719 77.4819 120.235 78.3839 119.542 79.0418C118.334 80.1884 116.861 80.9537 115.014 81.2215C115.28 81.479 115.454 81.6617 115.644 81.8268C116.452 82.5301 117.305 83.1886 118.062 83.9435C118.551 84.4312 118.968 85.021 119.302 85.6283C120.473 87.7538 119.576 89.8272 117.199 90.4005C115.677 90.7674 114.117 90.9836 112.537 90.7261C112.392 90.7024 112.24 90.723 111.901 90.723C112.375 91.3675 112.742 91.9021 113.144 92.4073C114.045 93.5384 114.451 94.8822 114.781 96.2465C115.005 97.1723 114.665 97.4783 113.723 97.2424C111.383 96.6573 109.126 95.9044 107.431 94.0364C107.139 93.7139 106.75 93.4796 106.257 93.0859C105.931 95.6959 104.555 97.5128 102.664 99.2013C103.2 99.4015 103.559 99.5563 103.93 99.6698C106.201 100.364 107.465 102.144 108.61 104.035C108.912 104.534 108.694 104.998 108.252 105.336C107.37 106.011 106.345 106.319 105.259 106.373C103.763 106.449 102.291 106.304 100.918 105.622C100.824 105.575 100.703 105.582 100.479 105.545C100.703 106.402 100.984 107.175 101.097 107.973C101.264 109.148 101.477 110.354 101.375 111.521C101.154 114.06 98.9658 115.035 96.7495 114.082C95.3521 113.482 93.9831 112.78 92.9108 111.638C92.8107 111.532 92.6646 111.468 92.3994 111.289C92.3994 112.122 92.3813 112.806 92.403 113.488C92.4479 114.888 92.0258 116.181 91.4876 117.435C91.1037 118.33 90.6671 118.378 90.0505 117.634C88.5122 115.78 87.1029 113.858 86.8511 111.341C86.8114 110.945 86.6339 110.563 86.5095 110.139C85.446 110.767 84.4872 111.477 83.4191 111.924C82.3793 112.359 81.227 112.524 80.0489 112.827C80.148 113.024 80.1908 113.184 80.2889 113.293C82.017 115.218 82.1151 117.547 81.9329 119.938C81.8756 120.689 81.4969 121.084 80.6857 120.949C79.7321 120.791 78.747 120.509 77.9079 120.043C76.4925 119.256 75.3443 118.121 74.5192 116.41C74.1446 117.355 73.901 118.12 73.545 118.829C73.0666 119.781 72.5908 120.757 71.9572 121.605C70.2269 123.921 67.4538 123.414 66.251 121.018C65.6044 119.73 64.9078 118.456 64.7303 116.986C64.7169 116.876 64.6198 116.775 64.4893 116.538C64.093 117.089 63.7245 117.564 63.3969 118.065C62.6068 119.274 61.484 120.11 60.278 120.839C59.3363 121.408 58.9627 121.18 58.9049 120.065C58.7795 117.657 58.7919 115.275 60.0747 113.098C60.2543 112.794 60.3069 112.415 60.423 112.055C59.1815 111.937 57.9879 111.949 56.8604 111.681C55.7623 111.42 54.7323 110.873 53.5615 110.407C53.5615 111.038 53.5826 111.567 53.5579 112.094C53.4547 114.255 52.2064 115.854 50.9024 117.417C50.5226 117.872 50.0494 117.846 49.5706 117.535C48.6696 116.951 48.0818 116.111 47.6881 115.142C47.0601 113.595 46.7237 111.993 47.0766 110.084C46.2195 110.628 45.5508 111.054 44.881 111.478C43.7921 112.167 42.6569 112.732 41.3565 112.912C39.1273 113.222 37.4709 111.859 37.6535 109.604C37.7748 108.106 38.2846 106.639 38.6283 105.16C38.6794 104.941 38.7754 104.734 38.9312 104.293C38.1577 104.544 37.5823 104.717 37.0163 104.917C35.7448 105.365 34.4341 105.429 33.1069 105.336C32.9025 105.321 32.6951 105.286 32.4995 105.226C31.8947 105.04 31.7167 104.734 32.0521 104.224C33.2751 102.368 34.4176 100.433 36.5204 99.3736C37.1334 99.065 37.699 98.6605 38.4812 98.1801C36.0833 97.0634 34.7994 95.1845 33.7478 92.8707C33.4289 93.2732 33.1992 93.5312 33.0052 93.814C31.6367 95.8074 29.5412 96.5169 27.3357 97.0169C26.7593 97.148 26.4017 96.8178 26.2046 96.2914C25.8289 95.2872 25.8614 94.2604 26.1106 93.2479C26.4992 91.6684 27.169 90.2204 28.4518 88.9242C28.0679 88.8623 27.8182 88.806 27.5658 88.7843C26.7025 88.71 25.8253 88.7183 24.9785 88.5609C24.0951 88.3968 23.192 88.1811 22.3834 87.8039C20.2657 86.8167 19.779 84.5612 21.3091 82.7794C22.3008 81.6245 23.3897 80.5404 24.7736 79.8231C24.9388 79.7374 25.0801 79.6069 25.3996 79.3772C24.6565 79.1306 24.0945 78.9149 23.5171 78.7585C22.1218 78.3808 20.9855 77.5634 19.9225 76.6403C19.1165 75.9405 19.1975 75.5566 20.164 75.1557C22.4422 74.2103 24.7685 73.5839 27.2681 74.0772C27.5483 74.1324 27.8429 74.12 28.1309 74.1241C28.2057 74.1252 28.2815 74.0694 28.5029 73.9827C27.3357 71.8263 27.4348 69.5093 27.8455 67.2038C26.6783 67.405 25.6395 67.6527 24.5868 67.7487C23.0542 67.8885 21.6878 67.2017 20.3033 66.6831C19.6707 66.4462 19.5742 65.8162 19.8415 65.3301C20.3105 64.4776 20.8178 63.5885 21.5144 62.9326C22.7266 61.7902 24.1988 61.027 26.0926 60.7736C25.3567 60.1678 24.6978 59.708 24.1405 59.1471C23.3319 58.3333 22.4603 57.532 21.8576 56.5737C20.4339 54.3109 21.4592 52.0214 24.0734 51.527C25.5678 51.2447 27.0859 50.9934 28.6216 51.2979C28.7222 51.318 28.8373 51.2638 29.084 51.2194C28.6722 50.6585 28.3326 50.1549 27.9513 49.6858C27.0395 48.564 26.6019 47.2327 26.2727 45.8657C26.0147 44.7934 26.347 44.5086 27.4353 44.7857C29.7775 45.3817 32.0139 46.18 33.6951 48.0542C33.9351 48.3215 34.269 48.5036 34.5713 48.7343C35.0554 47.6083 35.4078 46.471 36.0074 45.4833C36.5926 44.5194 37.4296 43.7087 38.1463 42.8423C38.0529 42.7273 38.0132 42.6251 37.9534 42.6117C35.4202 42.0441 33.8118 40.3427 32.5516 38.2157C32.1218 37.4902 32.1724 37.1413 32.8365 36.6227C33.6776 35.9663 34.6751 35.6898 35.7174 35.6335C37.3419 35.5453 38.9348 35.7073 40.5918 36.6439C40.3498 35.7068 40.1016 34.9807 39.9839 34.2335C39.8054 33.0998 39.5928 31.9491 39.617 30.8103C39.6743 28.114 41.9319 26.8472 44.4284 27.9778C45.8893 28.6393 47.3171 29.3969 48.5607 30.8237C48.5901 30.3154 48.6448 30.0182 48.618 29.7282C48.4652 28.0893 48.746 26.5211 49.3538 25.0035C49.4607 24.7367 49.5721 24.4652 49.7264 24.2248C50.0014 23.796 50.407 23.6768 50.7419 24.0942C52.0537 25.7305 53.4918 27.2967 53.9253 29.4593C54.0868 30.2648 54.2855 31.0626 54.4764 31.9037C55.542 31.2654 56.4946 30.5491 57.5596 30.0971C58.5999 29.6554 59.7543 29.4836 61.0015 29.1554C60.7373 28.7684 60.5262 28.4391 60.2956 28.1238C58.8956 26.2109 58.9266 24.0313 59.1366 21.8273C59.1949 21.2174 59.7109 20.9491 60.2146 21.0507C61.1687 21.2432 62.1687 21.4393 63.0129 21.8903C64.4841 22.6767 65.6488 23.8563 66.5286 25.5835ZM98.0018 70.3644C97.7769 68.2358 97.557 66.1062 97.3238 63.9786C97.2392 63.2087 97.2108 62.4202 96.3614 61.9837C96.1529 61.8763 96.0704 61.5058 95.9507 61.2468C95.5703 60.4237 95.19 59.6007 94.8273 58.7704C93.193 55.0313 90.5474 52.042 87.7134 49.1977C87.4141 48.8973 86.9951 48.6925 86.5993 48.517C86.1282 48.3081 85.5791 48.2549 85.1384 48.0031C82.6636 46.5897 80.1722 45.2068 77.3971 44.4735C75.7262 44.0318 74.0249 43.6979 72.3292 43.3584C71.4979 43.1922 70.6485 42.9528 69.8735 43.6484C69.6727 43.8285 69.2424 43.7583 68.9162 43.7918C66.0807 44.0844 63.2477 44.4307 60.5722 45.4689C58.8074 46.1537 57.0942 46.9726 55.3696 47.7564C54.7416 48.0418 54.109 48.3163 53.9578 49.161C53.9041 49.4598 53.4908 49.7075 53.2178 49.9516C51.1243 51.8242 49.0561 53.7309 47.522 56.1072C46.4729 57.7322 45.5471 59.4376 44.5899 61.1204C44.2488 61.72 43.8959 62.3119 44.2798 63.0838C44.4145 63.3542 44.2075 63.798 44.1482 64.1613C43.836 66.0711 43.4717 67.9731 43.2199 69.8907C42.8721 72.5384 43.3633 75.1557 43.6704 77.7729C43.772 78.6399 43.7194 79.6043 44.7483 80.1162C45.0053 80.2442 45.0739 80.7566 45.2236 81.0951C46.3057 83.5513 47.4213 85.9988 49.1273 88.0954C50.374 89.628 51.7286 91.0734 53.0537 92.541C53.5445 93.0849 54.0249 93.6829 54.9217 93.4951C55.0858 93.4605 55.3031 93.6236 55.4816 93.7201C56.7133 94.3863 57.9518 95.0421 59.1691 95.7341C62.4324 97.5887 66.0662 98.1543 69.6836 98.7709C70.019 98.8282 70.3957 98.6976 70.743 98.6125C71.2069 98.4984 71.6543 98.2518 72.1197 98.2203C77.0617 97.8859 81.6579 96.4127 85.9945 94.0689C86.3124 93.8971 86.7995 93.6731 86.8398 93.4161C86.991 92.4553 87.7722 92.0827 88.378 91.5667C92.0268 88.4603 94.6513 84.5999 96.7102 80.3216C96.8429 80.0465 96.9729 79.6358 96.8625 79.4041C96.5756 78.8045 96.7825 78.275 96.9037 77.7187C97.4301 75.2996 97.9007 72.8723 98.0018 70.3644ZM70.2486 39.2348C70.3518 39.2575 70.4545 39.2797 70.5577 39.3024C70.9127 38.8096 71.2936 38.3339 71.6166 37.8209C72.0986 37.0557 72.5496 36.2698 72.9939 35.4818C73.2157 35.0891 73.4454 34.6887 73.5821 34.263C73.9986 32.9693 74.4743 31.6818 74.7421 30.3551C75.3954 27.1186 75.0879 23.9508 73.7173 20.9243C73.0264 19.3989 72.015 19.2225 70.8374 20.4093C69.9261 21.3283 69.3017 22.4378 68.7965 23.6277C67.796 25.9844 67.4802 28.4618 67.3646 30.9914C67.3228 31.9027 67.4745 32.7041 68.0364 33.4213C69.1082 34.7893 69.617 36.3879 69.9498 38.0619C70.0298 38.4567 70.1485 38.8442 70.2486 39.2348ZM100.459 61.0456C100.88 61.2659 101.079 61.4248 101.303 61.478C102.903 61.8578 104.491 62.3882 106.115 62.5441C109.274 62.8475 112.367 62.4331 115.31 61.1276C116.806 60.4645 118.089 59.5021 119.272 58.4128C120.338 57.4308 120.189 56.4137 118.867 55.7666C118.027 55.3559 117.099 55.0633 116.178 54.892C113.271 54.3522 110.439 54.8197 107.633 55.6407C106.722 55.9075 105.958 56.295 105.43 57.0969C104.494 58.517 103.149 59.4541 101.693 60.2638C101.339 60.4614 101.006 60.6972 100.459 61.0456ZM51.8994 45.6371C51.8994 44.6639 51.9288 44.0137 51.8916 43.3677C51.8488 42.6292 51.7595 41.8929 51.6666 41.1586C51.5898 40.5476 51.5495 39.9191 51.3684 39.337C50.9891 38.1182 50.6098 36.8869 50.0835 35.7279C48.699 32.6803 46.5931 30.2452 43.6456 28.5975C42.1842 27.7807 41.1857 28.2374 41.0681 29.8953C40.9814 31.1126 41.065 32.3738 41.29 33.5746C41.7766 36.1733 43.0542 38.435 44.543 40.594C45.0094 41.2705 45.5358 41.7933 46.3289 42.0183C48.0849 42.5162 49.5061 43.5488 50.8049 44.7877C51.0629 45.0339 51.3699 45.2295 51.8994 45.6371ZM52.0361 96.9153C51.967 96.8209 51.8973 96.7264 51.8282 96.632C51.2234 96.8348 50.6104 97.0164 50.0164 97.2471C49.6351 97.3952 49.2997 97.6795 48.9116 97.7905C46.8284 98.387 45.1777 99.6832 43.5873 101.061C40.92 103.372 39.1727 106.245 38.4761 109.723C38.1675 111.263 38.891 111.993 40.4659 111.743C41.7446 111.539 42.9061 111.028 44.0099 110.36C46.1571 109.06 47.8801 107.321 49.4214 105.357C50.0912 104.504 50.5226 103.63 50.4566 102.548C50.3632 101.013 50.8936 99.6358 51.4876 98.2693C51.6821 97.823 51.854 97.3673 52.0361 96.9153ZM40.5453 80.9315C40.0273 80.69 39.7182 80.482 39.3781 80.399C37.9802 80.0574 36.5874 79.6033 35.1658 79.466C31.7038 79.1321 28.3037 79.5279 25.1772 81.1493C23.9485 81.7866 22.8225 82.6726 21.7704 83.5844C20.6547 84.5519 20.8095 85.5494 22.1445 86.2156C22.9799 86.633 23.9062 86.9339 24.8257 87.1052C27.731 87.6465 30.5634 87.1836 33.368 86.3637C34.2757 86.0984 35.0492 85.7269 35.5781 84.9229C36.5358 83.4657 37.927 82.5224 39.4132 81.6875C39.7512 81.4986 40.0613 81.2576 40.5453 80.9315ZM89.1856 96.3781C88.9302 98.4696 89.2016 100.285 89.5272 102.014C90.1469 105.299 91.549 108.318 93.9469 110.717C95.0394 111.81 96.3578 112.711 97.6783 113.531C98.7542 114.199 99.5638 113.752 99.9085 112.52C99.9854 112.245 100.059 111.948 100.037 111.668C99.9405 110.482 99.908 109.278 99.6681 108.119C99.1593 105.656 97.9224 103.515 96.5193 101.453C96.0322 100.737 95.4775 100.194 94.6389 99.9583C92.9226 99.4763 91.551 98.4381 90.2692 97.2517C90.002 97.0041 89.7016 96.7914 89.1856 96.3781ZM100.677 80.6534C100.877 81.0543 100.967 81.3763 101.165 81.607C102.153 82.7613 103.065 84.0111 104.198 85.0065C106.608 87.1238 109.342 88.757 112.552 89.3014C114.075 89.5599 115.666 89.5883 117.212 89.4933C118.853 89.3922 119.375 88.3364 118.488 86.9127C117.824 85.8466 116.963 84.8667 116.044 84.0054C114.212 82.2902 111.965 81.2649 109.624 80.4108C108.692 80.0708 107.813 79.9459 106.877 80.2916C105.37 80.8489 103.816 80.8154 102.249 80.6611C101.777 80.6142 101.297 80.6534 100.677 80.6534ZM88.9333 45.3027C89.4034 45.2475 89.7016 45.2749 89.9462 45.1732C91.388 44.5741 92.8979 44.0813 94.2349 43.297C97.0446 41.6478 99.4565 39.5006 100.971 36.5665C101.678 35.1949 102.16 33.6757 102.53 32.171C102.895 30.6921 102.108 29.9965 100.579 30.2473C99.3027 30.4563 98.1376 30.9625 97.0307 31.6292C94.8046 32.9698 93.0372 34.7841 91.4654 36.8291C90.9132 37.548 90.5427 38.2719 90.5897 39.1894C90.6764 40.8856 90.1531 42.4357 89.4431 43.9435C89.2594 44.3321 89.1376 44.7501 88.9333 45.3027ZM40.1779 61.4145C40.2414 61.3221 40.3044 61.2303 40.3678 61.1379C39.9844 60.6255 39.6217 60.0956 39.2119 59.6043C38.7124 59.0052 38.1845 58.4288 37.6489 57.8612C37.2273 57.4143 36.816 56.9421 36.3289 56.5763C35.3748 55.8606 34.4083 55.1469 33.3804 54.5473C30.4519 52.8392 27.2851 52.122 23.8979 52.4656C23.6141 52.4945 23.3262 52.5632 23.0599 52.6648C22.355 52.9342 22.0692 53.3553 22.2038 54.1004C22.289 54.5731 22.451 55.0876 22.74 55.4565C23.4464 56.3585 24.1807 57.259 25.0224 58.0304C26.8413 59.6972 29.0391 60.7215 31.34 61.5636C32.307 61.9176 33.2158 62.0554 34.2086 61.6952C35.5456 61.2096 36.9321 61.1183 38.3455 61.3087C38.9503 61.3903 39.567 61.382 40.1779 61.4145ZM70.7378 102.63C69.9792 103.134 69.6237 103.769 69.2775 104.419C68.9875 104.963 68.6557 105.485 68.3677 106.031C67.9853 106.755 67.555 107.467 67.2779 108.232C66.8857 109.315 66.5291 110.424 66.3088 111.552C65.6684 114.828 65.9094 118.037 67.3233 121.102C68.0184 122.609 69.0958 122.829 70.1857 121.55C71.001 120.593 71.6826 119.476 72.2121 118.332C73.1925 116.212 73.5011 113.931 73.6239 111.598C73.6946 110.248 73.4959 109.079 72.6435 108.026C71.7012 106.862 71.438 105.428 71.0949 104.028C70.9907 103.601 70.8776 103.177 70.7378 102.63ZM72.0552 99.7895C72.0372 100.117 71.9912 100.287 72.0253 100.439C72.3942 102.085 72.6667 103.763 73.1801 105.364C73.8515 107.456 75.2391 109.099 76.96 110.447C77.2061 110.639 77.5379 110.759 77.8486 110.826C79.1939 111.116 80.5355 111.065 81.8761 110.746C83.2261 110.425 84.4315 109.838 85.4744 108.921C86.0466 108.418 86.4187 107.821 86.5849 107.05C86.7216 106.418 86.9213 105.736 87.3011 105.233C88.0297 104.268 88.1407 103.214 88.0983 102.088C88.0751 101.471 88.0906 100.852 88.0431 100.236C87.9451 98.9691 87.8517 97.6986 87.6814 96.44C87.619 95.9782 87.3455 95.5447 87.1272 94.9947C86.3769 95.4121 85.7453 95.7635 85.0879 96.1294C85.1648 96.4364 85.2396 96.6666 85.2783 96.9029C85.4919 98.1997 85.8733 99.499 85.8665 100.795C85.8526 103.311 84.8433 105.457 82.7513 106.942C81.3379 107.945 79.6923 108.035 78.1587 107.348C76.4048 106.562 75.1374 105.245 74.7587 103.231C74.5399 102.068 74.221 100.924 73.9304 99.7008C73.2777 99.7317 72.7183 99.7581 72.0552 99.7895ZM97.0482 82.7887C97.2887 82.977 97.4156 83.0792 97.5457 83.1772C97.6778 83.2758 97.8181 83.364 97.9466 83.4672C100.109 85.2052 101.67 87.2729 101.921 90.1729C102.237 93.8362 99.4008 96.6991 95.6441 95.9436C94.6054 95.7346 93.7003 95.3357 92.9149 94.6014C92.0217 93.7665 91.0634 93.0007 90.1098 92.1849C89.5731 92.6447 89.1412 93.0147 88.6293 93.4533C88.9606 93.8078 89.216 94.1241 89.5143 94.393C90.2491 95.055 91.0232 95.6748 91.7456 96.3497C92.8535 97.3849 94.1353 98.1651 95.574 98.5439C97.203 98.9727 98.8337 99.5826 100.559 98.5258C102.705 97.212 104.207 95.488 104.865 93.0565C105.086 92.2412 105.08 91.4511 104.668 90.6565C104.429 90.1941 104.249 89.6327 104.262 89.1213C104.297 87.647 103.641 86.5185 102.713 85.4704C102.36 85.071 102.1 84.5891 101.755 84.1814C100.985 83.2711 100.22 82.3526 99.3863 81.5027C99.0432 81.1524 98.5292 80.9697 98.0307 80.6735C97.6638 81.462 97.3713 82.092 97.0482 82.7887ZM55.8562 45.9225C55.6106 44.4885 55.3536 43.2412 55.19 41.9816C54.9078 39.8056 55.6973 37.9345 56.9693 36.23C58.7475 33.8465 62.3808 33.5973 64.4955 35.7021C65.3975 36.6 66.0652 37.5753 66.2985 38.8576C66.5085 40.0145 66.8346 41.1503 67.12 42.3377C67.8331 42.2804 68.3935 42.2355 69.038 42.1839C68.9983 41.7561 69.0004 41.431 68.9328 41.1209C68.6706 39.9139 68.3961 38.7095 68.1087 37.5082C67.5054 34.988 65.9811 33.0869 64.0109 31.5002C63.7989 31.3294 63.5011 31.2174 63.2281 31.1761C61.9675 30.9852 60.713 30.8871 59.4385 31.1808C57.9172 31.5316 56.5508 32.1411 55.4088 33.2159C54.9186 33.6778 54.6008 34.2181 54.449 34.9008C54.3087 35.5329 54.1147 36.2109 53.7421 36.7203C53.0336 37.6883 52.8984 38.7369 52.9366 39.8675C52.9629 40.6492 52.9123 41.4352 52.9675 42.2143C53.046 43.3212 53.1456 44.4307 53.3272 45.5236C53.4093 46.0149 53.7116 46.4695 53.9371 46.9943C54.6874 46.5758 55.2927 46.2373 55.8562 45.9225ZM42.6559 63.3759C41.1904 63.2423 39.8812 63.1628 38.5829 62.9966C36.1514 62.685 33.9258 63.2402 31.8178 64.4368C31.0448 64.8755 30.5185 65.4307 30.083 66.2512C29.454 67.4365 29.3012 68.678 29.1799 69.9382C29.0638 71.1426 29.3182 72.3196 29.7971 73.4399C30.1134 74.1804 30.5717 74.7537 31.3049 75.1691C31.9004 75.5071 32.4985 75.9699 32.8788 76.5257C33.3897 77.2724 34.1059 77.6331 34.8644 77.9102C36.1014 78.3617 37.3708 78.7358 38.6448 79.0712C39.4379 79.2797 40.262 79.3989 41.0804 79.4753C41.5392 79.5181 42.0139 79.3927 42.5707 79.3334C42.3844 78.4654 42.2327 77.7569 42.1027 77.1522C40.7698 76.9793 39.5804 76.8663 38.4059 76.6635C35.9558 76.2403 34.2535 74.7573 33.0006 72.6937C31.7384 70.6147 32.4433 67.3627 34.6874 66.0634C35.8562 65.3863 37.0348 64.8734 38.4312 65.0721C39.2068 65.1825 39.9906 65.2408 40.7729 65.2919C41.2523 65.3234 41.7358 65.2976 42.2446 65.2976C42.3855 64.6402 42.5021 64.0937 42.6559 63.3759ZM98.3724 78.6306C99.9328 78.7704 101.286 78.8437 102.624 79.0243C104.136 79.2281 105.624 79.0707 107.007 78.5464C108.626 77.9329 110.321 77.4066 111.079 75.4715C112.05 72.9946 112.203 70.5894 111.026 68.1894C110.774 67.6749 110.216 67.3003 109.769 66.8941C109.253 66.4261 108.581 66.0793 108.201 65.5257C107.692 64.7846 106.998 64.3718 106.232 64.1174C104.592 63.573 102.925 63.0983 101.248 62.6834C100.388 62.4708 99.4772 62.317 98.491 62.7422C98.634 63.4739 98.7723 64.1804 98.8977 64.8218C100.319 65.0179 101.643 65.0917 102.912 65.3977C105.575 66.0406 107.452 67.6924 108.418 70.2627C109.1 72.0791 108.417 74.2996 106.899 75.5081C105.599 76.5427 104.163 77.1563 102.434 76.9246C101.261 76.7677 100.072 76.7228 98.8218 76.6227C98.6706 77.2982 98.5488 77.8431 98.3724 78.6306ZM51.2095 92.687C49.8637 93.3924 48.7037 94.1221 47.4538 94.6303C45.0925 95.5912 42.7782 95.296 40.5515 94.0859C38.9823 93.233 37.8641 90.6616 38.3976 88.8204C38.8703 87.1898 39.6346 85.7878 41.2342 84.9518C42.2828 84.4038 43.2643 83.7263 44.3237 83.0776C44.0295 82.4264 43.7844 81.8836 43.4836 81.2169C42.1842 81.9832 41.0299 82.6911 39.8487 83.3532C38.5272 84.0937 37.3826 85.0654 36.5751 86.3146C35.6364 87.7667 34.5455 89.1729 35.0672 91.1859C35.7453 93.8016 37.0648 95.8466 39.4591 97.1429C40.0149 97.4437 40.6042 97.5433 41.2528 97.4034C41.6419 97.3193 42.1006 97.3049 42.4701 97.4298C44.142 97.9948 45.7087 97.7275 47.2516 96.9865C47.5823 96.8276 47.9663 96.7822 48.3079 96.6408C49.4091 96.1851 50.5211 95.7491 51.5877 95.2217C52.031 95.0024 52.37 94.572 52.8102 94.1907C52.1837 93.6029 51.677 93.1267 51.2095 92.687ZM43.9299 59.3236C42.9841 58.4164 42.0795 57.5825 41.2141 56.7099C39.5272 55.0096 38.9973 52.881 39.1459 50.578C39.2904 48.3421 41.0258 46.3327 43.0532 46.0479C44.9527 45.7811 46.7407 46.0432 48.2134 47.485C49.0545 48.3086 49.9999 49.0258 50.9262 49.8148C51.4571 49.3535 51.8829 48.9835 52.3917 48.5413C52.0495 48.1749 51.7946 47.8596 51.4974 47.5918C50.7631 46.9292 49.9916 46.3074 49.2677 45.6345C48.1582 44.6025 46.8738 43.8264 45.4352 43.4507C43.8066 43.0255 42.1785 42.4202 40.454 43.4781C38.3476 44.7707 36.8682 46.4674 36.1901 48.8349C35.9486 49.6786 35.9574 50.5125 36.3625 51.3614C36.638 51.9393 36.8238 52.6313 36.8016 53.2634C36.7717 54.1159 37.0565 54.8337 37.5065 55.4534C38.5937 56.9519 39.7388 58.4118 40.9282 59.8308C41.4463 60.449 42.0392 61.0621 43.0166 61.221C43.3231 60.5832 43.6394 59.9263 43.9299 59.3236ZM89.8229 49.304C91.1795 48.5975 92.3741 47.8405 93.6667 47.3317C96.0833 46.3807 98.4828 46.6382 100.644 48.0614C102.342 49.1796 103.038 50.9129 102.669 52.9022C102.345 54.651 101.507 56.1392 99.8193 57.0283C98.7712 57.5805 97.7877 58.2539 96.7123 58.9118C96.9894 59.5527 97.2242 60.0956 97.5235 60.7881C98.8259 60.0218 99.9761 59.3143 101.155 58.66C102.48 57.9241 103.614 56.9463 104.438 55.7078C105.425 54.2263 106.518 52.7572 105.956 50.7241C105.253 48.1821 103.968 46.1366 101.601 44.8682C101.044 44.57 100.46 44.4632 99.8095 44.586C99.3781 44.6675 98.8713 44.6933 98.4725 44.5452C96.8263 43.9337 95.3149 44.3249 93.8097 45.0034C93.4743 45.1546 93.0929 45.2021 92.7518 45.343C91.6506 45.7976 90.5391 46.2352 89.471 46.76C89.022 46.9808 88.6727 47.4045 88.2124 47.791C88.8626 48.4025 89.3961 48.903 89.8229 49.304ZM54.7071 95.1314C53.4211 97.887 51.9505 100.431 52.0501 103.414C52.1058 105.081 52.0986 106.826 53.6637 108.128C55.7437 109.859 58.0075 110.765 60.6996 110.389C61.2306 110.315 61.7332 109.947 62.2188 109.664C62.7838 109.334 63.2704 108.801 63.8716 108.616C65.156 108.218 65.9254 107.328 66.5957 106.263C66.9239 105.741 67.3377 105.272 67.6623 104.749C68.2893 103.736 68.9152 102.719 69.4694 101.666C69.6831 101.259 69.6996 100.748 69.8348 100.161C68.9642 100.068 68.247 99.9913 67.6045 99.9227C67.0353 101.11 66.542 102.19 66.0054 103.248C64.9666 105.298 63.1827 106.425 61.0701 107.081C58.4142 107.906 56.1225 106.392 55.3567 104.968C54.4465 103.275 54.1012 101.499 54.9749 99.6363C55.4955 98.5263 55.93 97.3756 56.4254 96.1903C55.8583 95.8414 55.3748 95.5432 54.7071 95.1314ZM86.3552 46.8869C86.9161 45.5953 87.3697 44.4528 87.9023 43.3486C88.5958 41.9109 89.0189 40.3928 88.956 38.8189C88.8868 37.0944 88.9947 35.326 87.4399 33.9497C85.7195 32.427 83.7952 31.591 81.5459 31.4919C80.4215 31.4424 79.3373 31.6297 78.5132 32.575C78.2294 32.9012 77.7923 33.1731 77.3749 33.2892C75.864 33.7108 74.9687 34.7759 74.2282 36.0561C73.982 36.4813 73.6208 36.8384 73.3628 37.2579C72.7395 38.2724 72.1104 39.2869 71.5583 40.3402C71.3462 40.7452 71.3369 41.2566 71.2084 41.8418C72.0789 41.9331 72.7936 42.0079 73.4191 42.0735C73.9795 40.9073 74.4728 39.8711 74.9743 38.839C75.9605 36.8106 77.6933 35.6836 79.7408 34.9818C82.4051 34.0684 84.6776 35.3796 85.6075 36.9437C86.6148 38.6383 86.929 40.4697 86.0471 42.3753C85.5332 43.4858 85.0977 44.6329 84.608 45.809C85.1833 46.1645 85.6658 46.4617 86.3552 46.8869ZM99.3445 67.7141C99.8492 67.8168 100.283 67.9613 100.723 67.9835C101.953 68.0449 102.901 68.6693 103.789 69.4294C105.372 70.7844 105.068 72.8599 103.147 73.6432C102.627 73.8553 102.04 73.9477 101.475 73.9931C100.746 74.0514 100.008 74.0075 99.1582 74.0075C99.1082 74.4823 99.0643 74.9008 99.0132 75.3853C99.9927 75.4849 100.845 75.5793 101.699 75.6547C102.273 75.7052 102.85 75.7651 103.425 75.7568C105.24 75.7315 107.003 74.2789 107.516 72.5714C107.935 71.1766 107.42 70.0646 106.662 69.0016C104.808 66.4034 102.05 65.9777 98.9962 65.8415C99.1263 66.5391 99.2346 67.1227 99.3445 67.7141ZM91.9695 51.463C93.3669 50.5187 94.8299 50.0068 96.5162 50.1642C98.5762 50.3567 99.5706 52.1839 98.4725 53.9508C98.1747 54.4296 97.7665 54.861 97.3367 55.2305C96.7799 55.7094 96.1504 56.1036 95.4625 56.5995C95.6782 56.987 95.8893 57.3663 96.1452 57.8261C97.2046 57.1842 98.1546 56.5335 99.1701 56.0107C100.539 55.3064 101.206 54.1149 101.558 52.7299C101.701 52.17 101.626 51.5146 101.501 50.9351C101.181 49.4588 100.12 48.6749 98.7625 48.1868C95.6395 47.0644 93.1079 48.3855 90.5257 50.0821C91.0505 50.5842 91.4902 51.0048 91.9695 51.463ZM45.2979 56.6346C43.9882 55.5721 43.0021 54.3672 42.6492 52.704C42.2167 50.6678 43.6441 49.1868 45.6705 49.69C46.2169 49.8257 46.7557 50.0739 47.2387 50.3675C47.8651 50.7483 48.4322 51.2267 49.1165 51.7303C49.4333 51.3706 49.7321 51.0311 50.05 50.6699C49.1092 49.8618 48.2423 49.2193 47.5003 48.4556C46.5312 47.4582 45.3309 47.1604 44.0352 47.081C43.2426 47.0324 42.5227 47.2234 41.8318 47.7028C40.5448 48.5965 40.0923 49.8319 40.0804 51.3134C40.0551 54.5586 42.0733 56.5288 44.4346 58.4438C44.7545 57.7729 45.0162 57.2249 45.2979 56.6346ZM41.6821 74.2851C41.1661 74.1809 40.7311 74.0359 40.2899 74.0142C39.0571 73.9544 38.1149 73.3166 37.2273 72.559C35.6416 71.2055 35.9625 69.1213 37.8997 68.3483C38.4219 68.1398 39.0097 68.0516 39.5747 68.0072C40.3033 67.9504 41.0397 67.9933 41.8638 67.9933C41.9195 67.5077 41.968 67.0882 42.0258 66.583C40.454 66.4612 39.0246 66.2785 37.5932 66.2574C35.7747 66.2305 34.0161 67.7157 33.5109 69.4397C33.1043 70.8278 33.611 71.946 34.3753 73.0121C36.2376 75.6092 38.9973 76.0159 42.0516 76.1552C41.9118 75.4488 41.7962 74.862 41.6821 74.2851ZM75.1183 99.4665C75.4145 100.702 75.7396 101.731 75.8934 102.786C76.073 104.018 76.7655 104.879 77.605 105.703C79.1206 107.189 81.7373 106.983 82.9237 105.523C83.513 104.798 84.0274 103.985 84.4325 103.143C85.4806 100.963 84.6843 98.8096 84.3004 96.4705C83.5966 96.8472 83.0393 97.146 82.5129 97.4277C82.9773 99.9732 82.9495 100.548 82.3112 102.118C81.4958 104.125 79.4116 104.47 78.0354 102.795C77.6783 102.36 77.4193 101.826 77.2005 101.301C76.9218 100.632 76.7309 99.9268 76.4765 99.16C76.0121 99.2653 75.6307 99.3509 75.1183 99.4665ZM90.9648 91.3103C91.9329 92.1447 92.822 92.8196 93.6007 93.604C94.6173 94.6278 95.8743 94.8713 97.2113 94.9126C97.9177 94.9343 98.5571 94.7335 99.1748 94.3125C100.606 93.3372 100.995 91.9522 100.94 90.3443C100.836 87.2662 98.8512 85.408 96.5936 83.5483C96.2696 84.2361 95.9986 84.8115 95.7262 85.3899C97.0983 86.4504 98.0044 87.6599 98.362 89.2751C98.8125 91.3108 97.4012 92.8145 95.3908 92.3139C94.8066 92.1684 94.2385 91.8872 93.7183 91.5755C93.0976 91.2034 92.5361 90.7318 91.8988 90.2669C91.5846 90.6183 91.3188 90.915 90.9648 91.3103ZM49.1835 90.5022C46.91 91.7943 46.3841 91.9362 44.543 91.8216C42.4541 91.6916 41.4504 89.8411 42.5475 88.0691C42.8643 87.5567 43.3117 87.1042 43.771 86.7063C44.3185 86.2316 44.9418 85.8451 45.5993 85.3724C45.3273 84.9446 45.0997 84.5865 44.8464 84.1876C43.7844 84.8342 42.869 85.4709 41.8844 85.9715C40.5118 86.6697 39.8384 87.8601 39.4715 89.2395C39.3229 89.7978 39.4013 90.4557 39.5221 91.0383C39.841 92.5766 40.952 93.3589 42.3581 93.8429C45.4455 94.9064 47.9508 93.5895 50.5391 91.8965C50.0479 91.3902 49.6232 90.9537 49.1835 90.5022ZM83.5032 45.296C84.0084 44.0922 84.3887 43.0436 84.882 42.0508C85.3696 41.0703 85.3459 40.095 85.2303 39.0449C84.9769 36.7471 82.6084 35.2517 80.6816 35.7945C79.8575 36.0267 79.0334 36.324 78.2789 36.7239C76.0972 37.8798 75.3841 40.0889 74.3541 42.2866C75.1209 42.398 75.7494 42.4894 76.379 42.5807C77.0147 40.9857 77.83 39.7008 79.2718 38.8669C81.1553 37.7771 83.0243 38.708 83.1275 40.8722C83.1523 41.3964 83.0738 41.9419 82.9469 42.4538C82.7694 43.1695 82.5016 43.863 82.2379 44.6716C82.6171 44.8595 83.0052 45.0504 83.5032 45.296ZM64.7029 99.4149C64.3732 100.052 64.1188 100.522 63.883 101.002C63.2637 102.264 62.1481 102.959 60.9447 103.529C60.6749 103.657 60.293 103.647 59.987 103.582C58.554 103.281 57.9503 102.57 57.9146 101.09C57.9012 100.524 57.9977 99.9438 58.1303 99.3901C58.2919 98.7167 58.5442 98.065 58.7867 97.3111C58.3734 97.1165 57.9817 96.9323 57.522 96.7156C56.9223 98.1429 56.3088 99.4484 55.8222 100.8C55.2251 102.459 56.107 104.706 57.5596 105.691C58.7491 106.497 59.971 106.385 61.2296 105.996C64.2937 105.048 65.5404 102.546 66.6091 99.6997C65.9233 99.5976 65.3304 99.5088 64.7029 99.4149ZM65.8918 42.4785C65.6116 41.2865 65.2958 40.2168 65.1204 39.1244C64.8995 37.7502 64.0362 36.8709 63.064 36.0056C61.8968 34.9668 59.4622 35.1748 58.4709 36.1057C56.9822 37.5031 56.0802 39.1874 56.1179 41.2251C56.1431 42.6107 56.4517 43.9905 56.6494 45.4942C57.1081 45.2981 57.4126 45.1913 57.6943 45.0416C57.9797 44.8904 58.2428 44.6974 58.4941 44.5364C58.0875 41.8196 58.1102 41.3614 58.7119 39.8886C59.5386 37.8653 61.6047 37.5154 62.9866 39.1961C63.3447 39.6311 63.61 40.1626 63.8283 40.6874C64.1074 41.3583 64.2958 42.0673 64.5285 42.7763C64.8004 42.7603 65.0079 42.7717 65.2045 42.7304C65.399 42.6891 65.5822 42.5952 65.8918 42.4785ZM120.279 76.327C117.777 74.9436 115.351 74.9441 112.938 76.295C112.636 76.4638 112.324 76.7419 112.185 77.0464C111.895 77.6847 111.432 78.1037 110.855 78.4489C110.554 78.6295 110.278 78.8545 109.954 79.0857C113.333 80.8366 118.625 79.4381 120.279 76.327ZM20.7853 65.697C23.2983 67.1006 25.7902 67.0428 28.2619 65.6067C28.4936 65.472 28.7284 65.2377 28.8254 64.9947C29.1041 64.298 29.6258 63.8744 30.2393 63.5085C30.5288 63.3357 30.7806 63.0998 31.098 62.8552C27.103 61.0579 21.936 62.9806 20.7853 65.697ZM33.9408 87.4432C30.051 88.7219 27.7717 91.0744 27.0085 94.8099C26.9358 95.1665 27.0503 95.5618 27.0792 95.955C30.1134 95.4245 31.5862 94.3956 32.8953 92.0234C33.2039 91.464 33.3798 90.9408 33.2204 90.2694C33.1249 89.8664 33.2968 89.3845 33.4067 88.952C33.514 88.5299 33.6946 88.1264 33.9408 87.4432ZM33.4402 37.4855C34.5982 40.0269 36.6127 41.5151 39.311 41.7768C39.6588 41.8103 40.0242 41.6813 40.3792 41.6152C40.9741 41.5048 41.564 41.3577 42.1631 41.2772C42.5444 41.2262 42.9386 41.268 43.3866 41.268C41.4138 37.5283 35.8614 35.9013 33.4402 37.4855ZM50.6645 105.954C49.6511 106.998 49.537 107.271 48.9157 108.878C48.0127 111.214 48.312 113.472 49.2527 115.7C49.4307 116.121 49.6 116.647 50.2042 116.591C51.8829 114.872 52.7673 112.924 52.4851 110.532C52.3927 109.75 52.322 109.014 51.6212 108.449C51.3065 108.195 51.18 107.683 51.0216 107.267C50.8766 106.888 50.8039 106.481 50.6645 105.954ZM107.15 54.3073C107.391 54.3595 107.478 54.409 107.541 54.3878C111.086 53.2113 113.294 50.8268 114.019 47.1377C114.087 46.7879 113.951 46.3972 113.907 46.0081C110.72 46.7156 109.47 47.5887 108.173 49.9082C107.845 50.4944 107.592 51.0492 107.817 51.7742C107.926 52.124 107.76 52.5802 107.653 52.9698C107.535 53.4012 107.341 53.812 107.15 54.3073ZM74.9568 111.011C74.5543 115.188 77.9239 120.184 80.8653 119.86C81.3281 117.198 80.6516 114.901 78.6453 113.047C78.3873 112.808 78.0452 112.551 77.7201 112.517C76.8847 112.429 76.2629 112.015 75.6725 111.481C75.4759 111.301 75.2241 111.183 74.9568 111.011ZM97.6024 100.745C98.168 101.884 98.9957 102.536 99.8172 103.215C101.756 104.817 104.004 105.236 106.425 105.026C106.885 104.985 107.434 105.01 107.618 104.433C106.442 102.171 104.735 100.693 102.206 100.288C101.589 100.189 101.018 100.134 100.42 100.48C100.056 100.691 99.5582 100.696 99.1154 100.736C98.6701 100.776 98.2181 100.745 97.6024 100.745ZM60.2115 22.0523C59.7047 25.4168 60.5015 27.0201 62.3091 28.8783C62.5558 29.1321 62.8907 29.433 63.207 29.4609C64.1389 29.5429 64.817 30.0202 65.4687 30.6116C65.6209 30.7499 65.8506 30.802 66.0755 30.9088C66.5188 26.6186 63.2266 22.4486 60.2115 22.0523ZM90.3807 36.0886C93.3355 32.8919 93.1894 27.307 90.9076 25.344C89.4054 26.8487 88.3956 28.5568 88.5199 30.7752C88.5793 31.832 88.5168 32.9089 89.5205 33.6778C89.8043 33.8955 89.8905 34.3925 90.0252 34.7764C90.1593 35.1572 90.2398 35.5566 90.3807 36.0886ZM52.1285 36.4034C52.8612 35.1067 53.4887 33.9023 53.1698 32.4677C52.8664 31.1054 52.5521 29.7431 52.178 28.3994C51.9247 27.4886 50.8539 25.9746 50.1929 25.4694C49.2666 28.049 49.2217 30.5677 50.3467 33.0477C50.8524 34.1628 51.4933 35.2171 52.1285 36.4034ZM59.9251 119.893C62.047 118.633 63.3442 117.006 64.061 115.01C64.5388 113.68 64.6487 112.217 64.9197 110.812C64.978 110.51 65.0198 110.205 65.0827 109.816C63.5935 110.407 62.3958 111.133 61.7946 112.574C61.4313 113.445 61.0536 114.31 60.6661 115.171C60.0242 116.596 60.0727 118.119 59.9251 119.893ZM107.614 37.7771C105.372 37.2574 101.764 38.5186 100.172 40.2963C99.5989 40.9367 98.9616 41.5198 98.361 42.1359C98.1799 42.3217 98.022 42.5307 97.7428 42.8594C99.0839 43.0214 100.259 43.3919 101.381 42.7567C102.808 41.9491 104.259 41.1606 105.577 40.1962C106.405 39.5904 107.061 38.7183 107.614 37.7771ZM105.69 88.1811C105.953 89.5991 106.008 90.9052 107.065 91.8263C108.212 92.8253 109.32 93.8821 110.55 94.7681C111.421 95.3956 112.475 95.7553 113.543 96.0097C113.587 95.8301 113.637 95.7449 113.619 95.6789C112.928 93.186 111.47 91.2458 109.266 89.9211C108.184 89.2709 106.99 88.8055 105.69 88.1811ZM20.7765 76.0783C22.5124 77.581 24.3438 78.37 26.3336 78.4293C28.1407 78.483 29.9607 78.1114 31.9856 77.9061C30.9401 76.7146 30.0525 75.7795 28.6314 75.6242C27.814 75.5349 26.9889 75.4869 26.1803 75.3466C24.3706 75.0334 22.6806 75.4967 20.7765 76.0783ZM109.126 64.2067C110.107 65.3234 111.074 66.2883 112.591 66.4173C113.904 66.5288 115.216 66.7079 116.53 66.7275C117.743 66.7455 118.896 66.3575 120.029 65.9493C119.98 65.7955 119.978 65.7486 119.954 65.7212C119.873 65.6289 119.796 65.5288 119.698 65.4581C117.687 63.9982 115.441 63.3021 112.963 63.5472C111.713 63.6706 110.479 63.9683 109.126 64.2067ZM35.3438 53.8491C35.0719 52.4785 35.059 51.1642 34.0115 50.2364C32.8422 49.2013 31.7105 48.1053 30.439 47.211C29.5974 46.6186 28.5385 46.3348 27.4172 45.8425C27.4709 47.0361 27.9477 47.8323 28.3842 48.6574C29.8626 51.4522 32.628 52.4842 35.3438 53.8491ZM76.0286 31.9852C76.089 32.0595 76.1493 32.1339 76.2097 32.2082C76.9714 31.6813 77.9353 31.3031 78.4529 30.5977C79.6459 28.9722 80.4122 27.0835 80.8699 25.1154C81.0763 24.2279 81.002 23.2748 81.0526 22.3908C80.8936 22.3336 80.8503 22.301 80.8193 22.3103C80.7414 22.3336 80.6625 22.3661 80.5959 22.4115C78.5101 23.8403 77.1267 25.7863 76.5436 28.2338C76.252 29.4557 76.1932 30.7329 76.0286 31.9852ZM43.3148 99.1306C41.9236 98.9783 40.7285 98.6434 39.5473 99.2653C37.3223 100.436 35.1085 101.622 33.6533 103.791C33.5548 103.938 33.5295 104.133 33.4634 104.326C35.8449 104.565 38.8827 103.6 40.5041 102.056C41.42 101.184 42.2616 100.232 43.3148 99.1306ZM88.9255 105.663C87.7216 107.646 87.571 108.244 88.0664 110.435C88.1845 110.956 88.281 111.483 88.3827 112.007C88.7176 113.732 89.5525 115.196 90.7719 116.714C91.7095 113.941 91.8085 111.392 90.6408 108.88C90.1428 107.808 89.5308 106.789 88.9255 105.663Z" fill="#861E1D"/>
<path d="M73.7802 56.2014C73.2626 60.9158 74.579 65.3877 74.1429 70.0716C75.112 70.1382 75.9217 70.2662 76.7251 70.2357C79.9368 70.1134 83.1465 69.9364 86.3577 69.793C87.1405 69.7579 87.9269 69.7352 88.7087 69.7723C90.1185 69.8389 90.6412 70.3761 90.6288 71.7745C90.6035 74.5786 90.6108 77.3862 90.4714 80.1857C90.3899 81.8266 90.0762 83.4583 89.8197 85.0868C89.6793 85.9785 89.5576 86.0461 88.6096 86.1674C88.0379 86.2407 87.4641 86.3402 86.8908 86.3464C86.0584 86.3557 85.8876 86.1813 85.8406 85.3304C85.8092 84.755 85.8788 84.175 85.8556 83.5986C85.7447 80.8405 85.6637 78.0803 85.4732 75.3273C85.3927 74.1678 85.2808 74.1358 84.0666 74.1704C82.1722 74.2246 80.2795 74.3396 78.3862 74.4284C76.6162 74.5115 74.8468 74.6002 73.0768 74.6756C72.5876 74.6962 72.0969 74.6787 71.4426 74.6787C71.3822 75.5776 71.2671 76.3836 71.2878 77.1855C71.3239 78.5839 71.4658 79.9787 71.5231 81.3771C71.6211 83.7679 71.6996 86.1596 71.7579 88.5514C71.7697 89.038 71.7135 89.5437 71.586 90.0123C71.3936 90.7192 70.9023 91.1021 70.1329 91.116C65.6348 91.1976 61.1459 91.131 56.6983 90.3466C55.4717 90.1304 55.466 90.1237 55.3097 88.8734C55.2431 88.3424 55.1992 87.8078 55.1693 87.2732C55.1353 86.6731 55.4206 86.3346 56.0388 86.3289C56.6162 86.3237 57.1937 86.3304 57.7711 86.3372C60.7 86.3697 63.631 86.4481 66.5332 85.9192C66.7339 85.8825 66.9305 85.8242 67.2499 85.7468C67.801 81.1826 66.4459 76.6715 66.9093 71.9448C65.9629 71.872 65.1585 71.7332 64.3612 71.7637C61.8502 71.8591 59.3424 72.0315 56.8319 72.1481C55.5135 72.2095 54.1925 72.2312 52.8725 72.2394C52.4241 72.242 51.9591 72.2069 51.5298 72.0872C50.8301 71.8921 50.4013 71.4153 50.4033 70.647C50.4075 68.8342 50.4131 67.0209 50.4327 65.2081C50.4394 64.5899 50.4632 63.9696 50.5225 63.3545C50.7155 61.3477 50.8972 59.3389 51.1433 57.3377C51.342 55.7241 51.6671 55.8325 52.729 55.7855C53.2631 55.7618 53.7941 55.673 54.3277 55.6509C54.8783 55.6281 55.1745 55.9305 55.1874 56.4765C55.2008 57.0534 55.1734 57.6319 55.1884 58.2088C55.2524 60.7228 55.3066 63.2374 55.4077 65.7499C55.4335 66.3955 55.6157 67.0348 55.7519 67.8243C57.2091 67.8243 58.6009 67.8574 59.9905 67.813C60.9369 67.7825 61.8781 67.6133 62.8245 67.5612C64.6347 67.4611 66.447 67.3997 68.2582 67.3217C68.6633 67.3042 69.0684 67.2841 69.5896 67.2598C69.6541 66.4233 69.7882 65.6503 69.7593 64.883C69.6221 61.1759 69.4239 57.4714 69.2815 53.7648C69.1773 51.051 69.9482 50.7806 72.068 50.8653C74.58 50.9659 77.1008 50.8885 79.6086 51.0335C81.3306 51.1326 83.0392 51.4747 84.7518 51.7172C85.37 51.8044 85.6817 52.1465 85.6941 52.8034C85.7039 53.336 85.8474 53.8649 85.8706 54.3985C85.917 55.4599 85.7421 55.6457 84.7075 55.6839C84.2136 55.7019 83.7172 55.6529 83.2229 55.6648C80.7914 55.7231 78.3588 55.7726 75.9284 55.8702C75.2379 55.8985 74.5547 56.0776 73.7802 56.2014Z" fill="#861E1D"/>
<path d="M59.5314 81.6188C58.4679 81.4717 57.4694 80.8535 56.7862 79.8008C56.3073 79.0634 56.4838 78.2868 56.943 77.5881C57.5029 76.7362 58.2992 76.2702 59.3353 76.3094C60.4556 76.3512 61.8927 77.4374 62.2725 78.4948C62.7963 79.951 61.3571 81.7256 59.5314 81.6188Z" fill="#861E1D"/>
<path d="M78.4557 79.1401C80.1024 79.1587 81.3486 80.6118 81.1267 81.9968C80.9559 83.0629 80.3929 83.9247 79.5513 84.5744C78.5677 85.3334 77.1404 84.9893 76.3184 83.8292C75.6863 82.937 75.6073 81.9561 76.146 81.0298C76.7106 80.0581 77.449 79.2186 78.4557 79.1401Z" fill="#861E1D"/>
<path d="M81.4567 60.378C82.5223 60.4977 83.5239 61.1138 84.2138 62.1572C84.6901 62.8765 84.5585 63.6691 84.1086 64.3751C83.5337 65.2766 82.6962 65.7699 81.6146 65.6801C80.242 65.5661 79.3323 64.6914 78.8002 63.5365C78.149 62.1242 79.6233 60.299 81.4567 60.378Z" fill="#861E1D"/>
<path d="M59.8642 60.3818C60.002 58.989 60.6228 57.9833 61.6693 57.2996C62.8515 56.5271 64.6385 57.4053 65.0843 58.9116C65.5343 60.4298 64.366 62.4149 62.8319 62.8148C61.3561 63.1998 59.6423 61.484 59.8642 60.3818Z" fill="#861E1D"/>
</svg>
