<svg width="188" height="189" viewBox="0 0 188 189" fill="none" xmlns="http://www.w3.org/2000/svg">
<path d="M15.3647 185.474C15.418 185.599 15.414 185.74 15.3344 185.895C15.2546 186.047 15.091 186.205 14.833 186.316C14.5771 186.425 14.219 186.467 13.8401 186.379C13.4604 186.294 13.0794 186.069 12.7924 185.756C12.643 185.602 12.4902 185.373 12.3598 185.094C12.2301 184.815 12.1355 184.484 12.0986 184.135C12.0599 183.785 12.0765 183.419 12.1445 183.069C12.2117 182.718 12.3292 182.384 12.4739 182.087C12.6233 181.791 12.7974 181.531 12.9737 181.313C13.0641 181.205 13.1532 181.107 13.2396 181.018C13.33 180.933 13.4122 180.853 13.4928 180.786C13.5753 180.721 13.6507 180.663 13.7181 180.615C13.7864 180.567 13.8509 180.531 13.9034 180.503C14.0095 180.447 14.0781 180.427 14.1007 180.448C14.1205 180.466 14.1062 180.538 14.0667 180.648C14.0198 180.768 13.9618 180.917 13.8957 181.087C13.8615 181.177 13.8298 181.277 13.7924 181.379C13.7595 181.484 13.7268 181.595 13.6954 181.708C13.6372 181.938 13.5922 182.185 13.5703 182.432C13.5532 182.681 13.5608 182.927 13.5961 183.155C13.6309 183.382 13.6926 183.589 13.7676 183.761C13.842 183.934 13.9302 184.072 14.0111 184.173C14.0288 184.201 14.0514 184.222 14.0694 184.244C14.0875 184.267 14.1041 184.288 14.1223 184.305C14.1397 184.322 14.155 184.34 14.1684 184.357C14.184 184.37 14.1977 184.384 14.2095 184.397C14.3062 184.502 14.3835 184.587 14.4633 184.668C14.5426 184.75 14.6311 184.838 14.7423 184.919C14.961 185.087 15.2559 185.22 15.3647 185.474Z" fill="#861E1D"/>
<path d="M10.7367 184.236C11.3494 182.439 12.8374 180.509 13.0355 180.256C13.0482 180.24 13.0498 180.221 13.0395 180.211L13.0672 179.081C13.0708 178.931 12.9446 178.812 12.7979 178.827L11.6901 178.939C11.6798 178.929 11.6614 178.932 11.6464 178.946C11.4129 179.165 9.77708 180.7 7.90833 181.568C7.89383 181.575 7.15656 184.657 7.02086 185.318C7.00715 185.385 7.05643 185.431 7.12099 185.412C7.76024 185.226 10.7315 184.252 10.7367 184.236Z" fill="#861E1D"/>
<path d="M6.28101 176.904C6.15401 176.86 6.01593 176.874 5.86916 176.966C5.72582 177.058 5.58326 177.236 5.49367 177.505C5.40487 177.772 5.38985 178.138 5.505 178.515C5.61647 178.894 5.86547 179.263 6.19406 179.531C6.35585 179.671 6.59247 179.809 6.87521 179.92C7.15847 180.031 7.49075 180.102 7.83646 180.114C8.18244 180.127 8.5408 180.083 8.87966 179.989C9.21905 179.895 9.53815 179.751 9.81957 179.582C10.0991 179.409 10.3413 179.214 10.5424 179.019C10.6412 178.919 10.7313 178.822 10.8117 178.728C10.8889 178.63 10.9611 178.541 11.0209 178.454C11.0791 178.366 11.13 178.285 11.1726 178.213C11.2148 178.141 11.2446 178.073 11.2688 178.017C11.3163 177.906 11.331 177.835 11.3083 177.813C11.2886 177.795 11.2196 177.814 11.1147 177.863C10.9998 177.919 10.8578 177.989 10.6957 178.068C10.6098 178.11 10.5139 178.149 10.4164 178.195C10.316 178.236 10.2098 178.277 10.1005 178.317C9.87886 178.393 9.6396 178.457 9.39876 178.498C9.15634 178.533 8.91339 178.544 8.68783 178.525C8.46201 178.506 8.25464 178.459 8.07993 178.396C7.90444 178.333 7.76294 178.254 7.65728 178.18C7.62856 178.164 7.60669 178.143 7.58324 178.126C7.55978 178.109 7.53738 178.094 7.51999 178.077C7.50129 178.06 7.4831 178.046 7.46545 178.034C7.45069 178.019 7.43647 178.006 7.4225 177.995C7.31262 177.905 7.22382 177.833 7.13766 177.758C7.05176 177.684 6.95874 177.601 6.87099 177.494C6.69076 177.285 6.53793 176.996 6.28101 176.904Z" fill="#861E1D"/>
<path d="M8.10746 174.928C8.20944 174.915 8.30087 174.823 8.3815 174.662C8.46161 174.502 8.53038 174.273 8.60258 173.987C8.63657 173.837 8.67214 173.681 8.70877 173.518C8.72642 173.432 8.74435 173.344 8.76253 173.255C8.78255 173.163 8.80311 173.07 8.82392 172.975C8.86002 172.782 8.91457 172.582 8.95883 172.37C9.0147 172.161 9.06608 171.942 9.13459 171.722C9.26634 171.28 9.43524 170.821 9.66106 170.388C9.77911 170.176 9.90111 169.962 10.0503 169.768C10.1188 169.666 10.2028 169.577 10.2792 169.48C10.3646 169.391 10.445 169.297 10.5385 169.213C10.8969 168.866 11.343 168.577 11.8718 168.333C12.4046 168.095 13.0189 167.904 13.6947 167.767C14.3675 167.625 15.2958 167.492 16.4291 167.422C17.5611 167.348 18.8918 167.336 20.3458 167.342C21.8003 167.343 23.3776 167.369 25.0216 167.269C25.4329 167.242 25.8479 167.208 26.2672 167.158C26.4772 167.131 26.6869 167.104 26.8985 167.069L27.0577 167.044L27.2247 167.011C27.3359 166.988 27.4477 166.968 27.5575 166.942C28.435 166.729 29.2613 166.393 30.002 165.959C30.377 165.749 30.724 165.504 31.0603 165.257C31.3896 165 31.7061 164.737 31.9949 164.454C32.5764 163.892 33.081 163.289 33.4921 162.664C34.3211 161.418 34.7938 160.113 34.9754 158.984C35.0246 158.703 35.0473 158.43 35.0684 158.174C35.076 157.916 35.0868 157.674 35.0723 157.447C35.0694 157.22 35.0402 157.01 35.0199 156.817C34.9954 156.625 34.9569 156.451 34.9292 156.295C34.8531 155.985 34.7848 155.749 34.7158 155.595C34.6523 155.44 34.608 155.362 34.5851 155.368C34.5651 155.373 34.5603 155.464 34.569 155.628C34.583 155.791 34.5901 156.031 34.5999 156.334C34.5946 156.486 34.5988 156.654 34.5883 156.836C34.5735 157.018 34.5672 157.215 34.5345 157.424C34.5137 157.633 34.4673 157.853 34.4249 158.085C34.369 158.315 34.3127 158.557 34.2315 158.804C33.9219 159.793 33.3498 160.891 32.494 161.893C32.0695 162.395 31.5691 162.866 31.0176 163.29C30.7435 163.504 30.4489 163.696 30.1493 163.882C29.8437 164.058 29.5335 164.231 29.2076 164.369C28.5625 164.661 27.8758 164.854 27.1926 164.949C27.1069 164.96 27.0213 164.965 26.9359 164.974L26.8081 164.987L26.6709 164.995C26.4872 165.007 26.3004 165.012 26.1138 165.018C25.7396 165.026 25.3602 165.021 24.9802 165.01C23.4575 164.962 21.9191 164.806 20.4528 164.689C18.9858 164.57 17.5859 164.484 16.3287 164.498C15.0731 164.507 13.9588 164.621 13.0992 164.802C12.2418 164.976 11.3873 165.255 10.591 165.669C9.79729 166.086 9.06529 166.653 8.51484 167.33C8.37334 167.495 8.25133 167.672 8.13012 167.845C8.01919 168.024 7.90509 168.199 7.81524 168.381C7.62104 168.739 7.48349 169.104 7.36808 169.455C7.15069 170.163 7.06795 170.824 7.05082 171.411C7.03976 171.706 7.05399 171.981 7.06848 172.24C7.09509 172.497 7.11591 172.739 7.15886 172.959C7.17915 173.068 7.19891 173.174 7.21841 173.278C7.24081 173.38 7.2661 173.476 7.29008 173.569C7.33725 173.754 7.3889 173.921 7.44608 174.068C7.55332 174.364 7.6719 174.584 7.7852 174.729C7.89745 174.873 8.00549 174.941 8.10746 174.928Z" fill="#861E1D"/>
<path d="M19.0933 172.43C19.0198 172.539 19.1228 172.76 19.395 173.07C19.6765 173.365 20.1307 173.751 20.814 174.072C20.9017 174.111 20.9903 174.15 21.0796 174.189C21.1708 174.229 21.2696 174.257 21.3684 174.292C21.565 174.365 21.7816 174.41 22.0061 174.46C22.4596 174.54 22.9668 174.569 23.4978 174.498C24.0279 174.429 24.5757 174.259 25.089 173.995C25.6034 173.732 26.0824 173.378 26.5069 172.968C26.9325 172.558 27.4194 171.964 27.859 171.216C28.2961 170.466 28.694 169.569 28.982 168.573C29.2795 167.564 29.4321 166.515 29.5981 165.479C29.7625 164.444 29.9227 163.419 30.2168 162.486C30.3633 162.019 30.5306 161.568 30.7432 161.155C30.9525 160.743 31.1841 160.347 31.451 160.009C31.9696 159.319 32.5925 158.768 33.1013 158.273C33.3593 158.029 33.5864 157.792 33.7838 157.584C33.9769 157.369 34.1337 157.173 34.2607 157.014C34.4921 156.672 34.6067 156.476 34.583 156.458C34.5622 156.442 34.3901 156.593 34.1068 156.868C33.953 156.995 33.7711 157.154 33.5538 157.328C33.3306 157.497 33.081 157.689 32.7933 157.892C32.2281 158.306 31.5219 158.778 30.8486 159.481C30.1749 160.173 29.5946 161.085 29.1738 162.09C28.7435 163.093 28.4734 164.169 28.2168 165.191C27.9612 166.213 27.7277 167.205 27.4105 168.038C27.0959 168.888 26.703 169.631 26.3122 170.228C25.9183 170.825 25.5225 171.27 25.2063 171.576C24.5726 172.191 23.8796 172.59 23.1929 172.756C22.8495 172.842 22.5073 172.875 22.1763 172.877C22.0108 172.868 21.8482 172.87 21.6904 172.847C21.6116 172.837 21.5328 172.834 21.4567 172.82C21.3808 172.807 21.3054 172.794 21.2309 172.782C20.6375 172.676 20.1418 172.51 19.7734 172.429C19.4103 172.332 19.1676 172.32 19.0933 172.43Z" fill="#861E1D"/>
<path d="M34.6517 164.401C34.72 164.456 34.8341 164.442 34.9845 164.367C35.0599 164.33 35.1442 164.277 35.2362 164.21C35.3252 164.14 35.4201 164.055 35.5215 163.956C35.9213 163.562 36.3821 162.915 36.7002 162.1C36.8543 161.694 37.0528 161.006 37.1342 160.197C37.2222 159.39 37.174 158.474 37.0306 157.647C36.9969 157.44 36.9487 157.239 36.9089 157.043C36.8838 156.942 36.8541 156.841 36.8272 156.743C36.7982 156.647 36.7624 156.557 36.731 156.467C36.5964 156.116 36.4543 155.818 36.34 155.566C36.2256 155.315 36.1402 155.108 36.0823 154.962C36.0301 154.815 35.9911 154.73 35.9713 154.733C35.954 154.735 35.945 154.825 35.9447 154.99C35.9497 155.153 35.9785 155.388 36.0322 155.666C36.0857 155.945 36.1616 156.268 36.2201 156.611C36.2319 156.697 36.2488 156.784 36.2575 156.871C36.2646 156.959 36.2715 157.047 36.2788 157.136C36.282 157.326 36.2939 157.519 36.2918 157.716C36.2918 158.503 36.209 159.324 36.0438 160.018C35.8836 160.713 35.6601 161.281 35.5279 161.633C35.2538 162.333 34.9708 162.962 34.7832 163.451C34.7353 163.572 34.6968 163.686 34.666 163.79C34.632 163.892 34.608 163.985 34.5946 164.066C34.5674 164.229 34.5835 164.346 34.6517 164.401Z" fill="#861E1D"/>
<path d="M17.2971 183.597C17.2921 183.702 17.3667 183.806 17.5166 183.91C17.6668 184.014 17.8921 184.118 18.1906 184.204C18.3395 184.251 18.5068 184.291 18.6921 184.326C18.7846 184.343 18.8813 184.361 18.9827 184.377C19.0865 184.389 19.1925 184.401 19.3002 184.413C19.52 184.441 19.7587 184.444 20.013 184.452C20.2683 184.447 20.5398 184.441 20.828 184.409C21.403 184.348 22.0465 184.215 22.7247 183.943C23.0612 183.8 23.4093 183.633 23.7466 183.41C23.9189 183.306 24.0817 183.178 24.2496 183.052C24.4103 182.916 24.5753 182.78 24.727 182.624C25.351 182.016 25.8527 181.233 26.204 180.398C26.5515 179.561 26.7621 178.675 26.8704 177.794C26.9845 176.91 27.0148 175.773 26.932 174.5C26.8538 173.225 26.6685 171.813 26.4446 170.335C26.2237 168.858 25.9592 167.311 25.8008 165.773C25.7626 165.389 25.7299 165.005 25.7115 164.626C25.7033 164.436 25.6949 164.247 25.6936 164.06L25.6917 163.92L25.6949 163.79C25.6975 163.703 25.6967 163.616 25.7012 163.529C25.7447 162.831 25.8833 162.124 26.1226 161.45C26.2343 161.11 26.3813 160.784 26.531 160.463C26.6909 160.146 26.858 159.835 27.0482 159.542C27.4229 158.953 27.8477 158.413 28.3086 157.947C29.2266 157.008 30.2598 156.349 31.2052 155.962C31.4411 155.862 31.6732 155.787 31.8943 155.713C32.118 155.653 32.3304 155.589 32.5338 155.552C32.7359 155.503 32.928 155.482 33.1056 155.452C33.2835 155.428 33.4476 155.419 33.5968 155.401C33.894 155.387 34.1304 155.375 34.2913 155.375C34.4531 155.369 34.5422 155.355 34.5464 155.331C34.5501 155.311 34.4703 155.274 34.3127 155.223C34.1559 155.167 33.9193 155.117 33.6102 155.065C33.4553 155.049 33.2821 155.024 33.0919 155.014C32.9019 155.008 32.6937 154.995 32.4716 155.009C32.2479 155.011 32.0118 155.04 31.7594 155.068C31.5101 155.108 31.245 155.152 30.9731 155.222C29.8817 155.49 28.6377 156.064 27.4772 156.993C26.8951 157.455 26.3413 158.009 25.833 158.638C25.5763 158.951 25.3413 159.29 25.1136 159.642C24.896 160 24.6812 160.369 24.5025 160.763C24.1305 161.544 23.8612 162.404 23.7165 163.307C23.6994 163.42 23.6878 163.534 23.6736 163.648L23.6535 163.82L23.6398 163.983C23.6211 164.199 23.6098 164.414 23.599 164.628C23.5798 165.057 23.5769 165.479 23.5803 165.898C23.6011 167.57 23.7408 169.166 23.8477 170.64C23.9587 172.113 24.0435 173.462 24.0535 174.614C24.0678 175.767 24.0043 176.718 23.9149 177.41C23.8304 178.104 23.6886 178.741 23.4936 179.298C23.2933 179.852 23.0422 180.325 22.7279 180.714C22.6528 180.815 22.5663 180.903 22.4852 180.996C22.3959 181.08 22.3142 181.173 22.219 181.249C22.0396 181.415 21.8388 181.554 21.6388 181.689C21.2304 181.95 20.793 182.155 20.3687 182.321C20.1574 182.407 19.9458 182.475 19.7456 182.547C19.5408 182.607 19.3485 182.677 19.1614 182.728C19.0697 182.756 18.9796 182.784 18.8913 182.811C18.8046 182.836 18.7198 182.861 18.6368 182.885C18.4797 182.934 18.329 182.982 18.1841 183.027C17.909 183.122 17.6895 183.208 17.5377 183.301C17.3862 183.394 17.3021 183.493 17.2971 183.597Z" fill="#861E1D"/>
<path d="M18.9379 172.284C19.0402 172.201 19.0109 171.956 18.8889 171.596C18.7812 171.229 18.5827 170.739 18.4347 170.146C18.4165 170.071 18.3983 169.996 18.3799 169.92C18.3609 169.844 18.3524 169.764 18.3369 169.685C18.3019 169.527 18.2921 169.362 18.2713 169.195C18.2494 168.859 18.2557 168.51 18.3148 168.156C18.4275 167.448 18.7677 166.717 19.3253 166.029C19.6017 165.686 20.0101 165.253 20.5672 164.811C21.125 164.371 21.8262 163.919 22.6372 163.539C23.4325 163.157 24.3893 162.849 25.3737 162.516C26.3592 162.182 27.3955 161.83 28.3505 161.32C29.3067 160.82 30.1618 160.164 30.7926 159.43C31.434 158.695 31.8455 157.944 32.21 157.341C32.3876 157.034 32.5575 156.767 32.7064 156.528C32.8603 156.295 33.0018 156.099 33.114 155.933C33.3617 155.624 33.4953 155.437 33.4756 155.414C33.4582 155.394 33.2766 155.527 32.9599 155.787C32.8142 155.928 32.6337 156.102 32.4379 156.314C32.2482 156.529 32.0329 156.777 31.8134 157.056C31.3657 157.609 30.8706 158.281 30.2298 158.859C29.917 159.155 29.5447 159.419 29.1541 159.661C28.7639 159.907 28.3325 160.11 27.8846 160.292C26.9879 160.659 25.9929 160.896 24.989 161.137C23.9835 161.381 22.9645 161.611 21.9959 161.986C21.0396 162.35 20.1875 162.818 19.4837 163.316C18.7812 163.816 18.2333 164.353 17.8623 164.814C17.4908 165.274 17.1791 165.786 16.9588 166.326C16.7372 166.866 16.611 167.433 16.5825 167.975C16.5525 168.518 16.6176 169.03 16.7301 169.484C16.7959 169.707 16.856 169.923 16.9422 170.117C16.9836 170.215 17.0189 170.313 17.0642 170.402C17.1095 170.49 17.1546 170.577 17.1991 170.663C17.5646 171.331 17.9772 171.763 18.2874 172.026C18.6117 172.279 18.837 172.367 18.9379 172.284Z" fill="#861E1D"/>
<path d="M17.2286 177.159C17.9477 176.372 17.9029 175.142 17.1288 174.412C16.3543 173.682 15.1435 173.727 14.4244 174.513C13.7053 175.3 13.7501 176.53 14.5243 177.26C15.2987 177.991 16.5093 177.946 17.2286 177.159Z" fill="#861E1D"/>
<path d="M38.3273 153.934C38.9726 153.228 38.9323 152.125 38.2377 151.469C37.5429 150.814 36.4567 150.855 35.8114 151.56C35.1661 152.266 35.2064 153.369 35.901 154.025C36.5958 154.68 37.6822 154.639 38.3273 153.934Z" fill="#861E1D"/>
<path d="M25.7679 156.021C25.8269 156.086 25.9437 156.094 26.1015 156.055C26.1803 156.035 26.2696 156.004 26.3671 155.962C26.4667 155.923 26.5763 155.876 26.6918 155.818C27.1579 155.592 27.7539 155.259 28.4214 154.93C28.7571 154.77 29.2988 154.502 29.97 154.29C30.6387 154.073 31.4382 153.931 32.2103 153.874C32.4031 153.858 32.5942 153.856 32.7807 153.845C32.8682 153.846 32.9552 153.847 33.0411 153.847C33.1272 153.85 33.2142 153.861 33.2988 153.866C33.6397 153.9 33.9628 153.953 34.24 153.986C34.5183 154.02 34.7509 154.031 34.9122 154.023C35.0748 154.009 35.1623 153.991 35.163 153.971C35.1638 153.953 35.0774 153.922 34.9291 153.881C34.7807 153.835 34.571 153.764 34.3156 153.667C34.0595 153.57 33.7567 153.449 33.4021 153.338C33.3117 153.313 33.2213 153.283 33.1246 153.261C33.0274 153.241 32.9254 153.218 32.825 153.2C32.6303 153.174 32.4295 153.14 32.2234 153.121C31.401 153.035 30.4991 153.052 29.7125 153.199C28.9247 153.34 28.2635 153.59 27.8754 153.776C27.0989 154.159 26.4976 154.673 26.1402 155.107C26.0514 155.217 25.9745 155.32 25.9128 155.415C25.8536 155.513 25.808 155.602 25.7766 155.681C25.7142 155.839 25.7089 155.956 25.7679 156.021Z" fill="#861E1D"/>
<path d="M49.2473 177.402C49.5748 177.059 49.1975 176.118 48.4497 174.835C47.7061 173.547 46.6001 171.914 45.5232 170.081C45.2489 169.624 44.9045 169.022 44.5248 168.308C44.1564 167.589 43.7686 166.751 43.43 165.821C43.0903 164.891 42.802 163.869 42.6078 162.801C42.4118 161.733 42.3111 160.621 42.3003 159.53C42.2758 157.344 42.6434 155.261 42.9817 153.743C43.3306 152.224 43.6223 151.252 43.514 151.203C43.4402 151.169 42.8661 152.004 42.167 153.45C41.4814 154.895 40.6877 156.983 40.322 159.375C40.1388 160.568 40.0595 161.828 40.1093 163.075C40.157 164.322 40.3336 165.552 40.6005 166.682C40.8661 167.813 41.2184 168.842 41.5802 169.717C41.9522 170.586 42.3182 171.31 42.6337 171.836C43.884 173.961 45.441 175.531 46.6939 176.469C47.9577 177.406 48.9284 177.737 49.2473 177.402Z" fill="#861E1D"/>
<path d="M138.387 174.002C137.634 174.15 136.859 174.335 136.068 174.58C135.278 174.828 134.471 175.11 133.651 175.437C132.009 176.083 130.315 176.869 128.555 177.651C127.673 178.04 126.787 178.429 125.887 178.834C124.987 179.238 124.078 179.65 123.158 180.055C122.238 180.463 121.306 180.857 120.366 181.244C119.422 181.618 118.473 181.99 117.509 182.31C117.03 182.48 116.544 182.623 116.06 182.773C115.818 182.852 115.573 182.909 115.33 182.978C115.085 183.042 114.843 183.117 114.597 183.171C114.107 183.281 113.618 183.406 113.124 183.488C112.878 183.531 112.633 183.583 112.386 183.619C112.139 183.653 111.893 183.686 111.646 183.719C111.523 183.734 111.4 183.755 111.276 183.766L110.906 183.796C110.659 183.816 110.413 183.835 110.167 183.855C109.924 183.866 109.681 183.877 109.439 183.887C109.196 183.899 108.954 183.908 108.712 183.912C108.47 183.917 108.228 183.922 107.987 183.927C107.745 183.926 107.504 183.924 107.263 183.923L106.902 183.919L106.541 183.904C106.301 183.892 106.061 183.889 105.822 183.869C104.865 183.807 103.916 183.67 102.989 183.447C102.873 183.418 102.757 183.388 102.642 183.358C102.527 183.327 102.411 183.302 102.298 183.261C102.071 183.185 101.844 183.11 101.619 183.035C101.397 182.944 101.175 182.853 100.955 182.762C100.844 182.72 100.737 182.666 100.63 182.612C100.523 182.558 100.416 182.505 100.309 182.451C100.202 182.396 100.094 182.349 99.9905 182.286C99.887 182.225 99.7837 182.164 99.6807 182.103C99.4746 181.981 99.2675 181.864 99.0728 181.722C98.8762 181.584 98.6759 181.455 98.4851 181.311C98.2965 181.163 98.1086 181.016 97.9218 180.869C97.8269 180.798 97.7379 180.718 97.6485 180.639C97.5592 180.561 97.4699 180.482 97.3808 180.404C97.2917 180.325 97.2032 180.247 97.1147 180.169C97.0264 180.09 96.9439 180.004 96.8586 179.923C96.6894 179.758 96.521 179.594 96.354 179.431C96.2704 179.345 96.1874 179.253 96.1047 179.165C96.0217 179.075 95.9387 178.987 95.8615 178.891C95.7829 178.797 95.7047 178.703 95.6267 178.609C95.5497 178.514 95.4775 178.413 95.4032 178.316C95.2525 178.124 95.1184 177.913 94.9798 177.711C94.7142 177.294 94.4644 176.867 94.2491 176.418C94.0259 175.975 93.8409 175.51 93.6681 175.046C93.5073 174.574 93.3577 174.103 93.2481 173.619C92.7796 171.698 92.774 169.7 93.1226 167.974C93.2963 167.11 93.5577 166.316 93.8691 165.618C94.1803 164.919 94.5397 164.317 94.9028 163.802C95.2631 163.28 95.6707 162.833 96.0857 162.417C96.1919 162.317 96.2978 162.218 96.4035 162.119C96.4551 162.068 96.511 162.021 96.5684 161.975L96.7387 161.836C96.8509 161.739 96.9684 161.66 97.0846 161.578L97.2591 161.455L97.4369 161.346C97.9099 161.055 98.395 160.829 98.8812 160.667C99.3671 160.505 99.8535 160.386 100.335 160.322C101.299 160.192 102.243 160.232 103.143 160.411C103.594 160.5 104.034 160.619 104.461 160.778C104.676 160.85 104.884 160.944 105.092 161.033C105.195 161.077 105.296 161.132 105.398 161.181C105.5 161.231 105.602 161.28 105.7 161.338C105.799 161.394 105.898 161.45 105.996 161.506C106.093 161.565 106.189 161.629 106.285 161.69L106.428 161.782L106.567 161.883C106.659 161.951 106.752 162.018 106.843 162.085C106.932 162.159 107.022 162.232 107.11 162.305L107.242 162.414L107.37 162.533C107.454 162.612 107.539 162.691 107.623 162.77C107.703 162.855 107.784 162.94 107.864 163.024C107.945 163.106 108.021 163.196 108.096 163.287C108.171 163.377 108.248 163.465 108.321 163.558C108.461 163.752 108.607 163.933 108.732 164.141C108.999 164.535 109.217 164.974 109.416 165.414C109.461 165.528 109.506 165.642 109.551 165.755L109.616 165.925L109.673 166.102C109.711 166.22 109.748 166.337 109.785 166.453C109.815 166.574 109.845 166.695 109.875 166.814L109.918 166.994C109.931 167.054 109.941 167.116 109.952 167.177C109.974 167.299 109.995 167.42 110.016 167.541C110.032 167.664 110.044 167.788 110.058 167.91L110.078 168.093C110.083 168.154 110.084 168.216 110.087 168.278C110.093 168.4 110.098 168.522 110.103 168.644C110.101 168.766 110.099 168.888 110.098 169.008L110.094 169.189L110.08 169.369C110.07 169.488 110.06 169.607 110.05 169.725C110.034 169.842 110.017 169.958 110 170.074C109.992 170.132 109.984 170.19 109.975 170.247L109.94 170.417C109.916 170.53 109.894 170.642 109.869 170.753C109.84 170.862 109.81 170.97 109.781 171.078C109.766 171.132 109.752 171.186 109.737 171.239L109.684 171.395C109.649 171.498 109.614 171.601 109.58 171.703C109.539 171.802 109.499 171.899 109.459 171.997L109.4 172.143C109.378 172.19 109.355 172.236 109.333 172.282C109.288 172.374 109.244 172.466 109.2 172.557C109.154 172.646 109.103 172.73 109.055 172.816C108.962 172.99 108.853 173.146 108.751 173.302C108.33 173.921 107.841 174.39 107.353 174.729C106.863 175.067 106.367 175.266 105.908 175.355C105.449 175.443 105.027 175.44 104.662 175.36C104.616 175.351 104.571 175.345 104.527 175.335C104.483 175.322 104.44 175.309 104.398 175.297C104.314 175.271 104.233 175.247 104.153 175.223C104 175.157 103.857 175.099 103.728 175.032C103.604 174.959 103.489 174.89 103.381 174.826C103.343 174.797 103.307 174.77 103.271 174.743C102.468 174.586 101.876 173.693 101.902 172.594C101.932 171.365 102.723 170.347 103.668 170.319C104.614 170.292 105.357 171.266 105.328 172.494C105.305 173.458 104.813 174.289 104.146 174.618C104.187 174.628 104.228 174.637 104.271 174.648C104.344 174.658 104.419 174.668 104.497 174.678C104.536 174.683 104.575 174.688 104.615 174.694C104.655 174.697 104.696 174.696 104.737 174.698C105.066 174.721 105.434 174.675 105.822 174.556C106.209 174.435 106.618 174.225 107.014 173.905C107.409 173.585 107.799 173.163 108.126 172.623C108.205 172.486 108.291 172.353 108.361 172.203C108.398 172.129 108.437 172.057 108.472 171.981C108.506 171.903 108.539 171.826 108.573 171.747C108.59 171.708 108.608 171.669 108.624 171.629L108.668 171.507C108.698 171.425 108.727 171.342 108.758 171.26C108.783 171.174 108.808 171.088 108.834 171.002L108.872 170.873C108.883 170.829 108.893 170.784 108.903 170.739C108.924 170.65 108.945 170.561 108.966 170.471C108.981 170.38 108.997 170.288 109.013 170.195L109.037 170.057C109.043 170.01 109.047 169.963 109.052 169.916C109.063 169.821 109.073 169.727 109.084 169.632C109.088 169.536 109.093 169.44 109.098 169.344L109.105 169.199L109.103 169.053C109.101 168.956 109.1 168.859 109.099 168.76C109.091 168.663 109.084 168.565 109.076 168.467C109.072 168.418 109.07 168.369 109.064 168.32L109.044 168.173C109.029 168.075 109.017 167.977 109.002 167.879C108.982 167.782 108.961 167.685 108.941 167.588C108.931 167.539 108.922 167.49 108.91 167.441L108.87 167.298C108.843 167.202 108.817 167.106 108.79 167.009C108.757 166.916 108.724 166.822 108.69 166.727L108.641 166.586L108.582 166.448C108.543 166.356 108.503 166.263 108.464 166.17C107.785 164.715 106.615 163.523 105.189 162.799C105.102 162.749 105.011 162.709 104.92 162.666C104.829 162.625 104.739 162.579 104.646 162.542C104.459 162.468 104.273 162.388 104.081 162.329C103.699 162.195 103.303 162.098 102.901 162.026C102.095 161.882 101.253 161.861 100.411 161.986C99.9892 162.047 99.5692 162.155 99.155 162.298C98.7402 162.439 98.335 162.633 97.9481 162.874L97.8024 162.964L97.6617 163.064C97.5679 163.131 97.472 163.195 97.384 163.273L97.2485 163.385C97.2032 163.421 97.1579 163.459 97.1131 163.503C97.023 163.588 96.9326 163.674 96.842 163.759C96.4907 164.114 96.1466 164.49 95.8496 164.923C95.549 165.35 95.2538 165.842 94.9988 166.41C94.7434 166.977 94.5289 167.621 94.3837 168.326C94.2383 169.032 94.1621 169.798 94.1714 170.599C94.1679 170.799 94.1853 171 94.194 171.204C94.2051 171.408 94.2309 171.612 94.2494 171.819C94.3052 172.23 94.3687 172.648 94.4686 173.061C94.5587 173.478 94.6862 173.888 94.8214 174.299C94.969 174.704 95.1255 175.112 95.3176 175.501C95.5018 175.896 95.7176 176.273 95.9468 176.643C96.0673 176.822 96.1822 177.01 96.3134 177.18C96.3779 177.267 96.4401 177.357 96.507 177.441C96.5748 177.525 96.6427 177.608 96.711 177.692C96.7777 177.778 96.8501 177.857 96.9223 177.936C96.995 178.015 97.0649 178.096 97.1405 178.175C97.297 178.332 97.4543 178.49 97.6127 178.648C97.6923 178.727 97.77 178.81 97.852 178.885C97.9342 178.959 98.0164 179.034 98.0991 179.109C98.1819 179.184 98.2646 179.259 98.3476 179.334C98.4306 179.41 98.5131 179.487 98.6006 179.554C98.7729 179.693 98.946 179.833 99.1202 179.974C99.2959 180.111 99.4791 180.233 99.6596 180.364C99.8385 180.499 100.028 180.61 100.216 180.725C100.31 180.783 100.405 180.841 100.499 180.9C100.593 180.959 100.693 181.003 100.79 181.056C100.888 181.107 100.986 181.158 101.084 181.209C101.182 181.262 101.28 181.313 101.382 181.354C101.584 181.442 101.787 181.529 101.991 181.617C102.199 181.691 102.408 181.764 102.618 181.838C102.722 181.879 102.831 181.904 102.938 181.935C103.045 181.965 103.152 181.995 103.26 182.024C104.125 182.249 105.023 182.398 105.944 182.476C106.173 182.501 106.406 182.508 106.638 182.524L106.987 182.546L107.338 182.557C107.573 182.563 107.808 182.569 108.044 182.575C108.147 182.575 108.25 182.575 108.353 182.575C108.421 182.526 108.495 182.48 108.581 182.439C108.84 182.31 109.174 182.238 109.549 182.169C109.922 182.111 110.341 181.969 110.808 181.849C111.74 181.605 112.829 181.183 114.02 180.658C115.197 180.082 116.486 179.374 117.843 178.625C119.687 177.614 121.434 176.708 122.951 176.024C123.713 175.697 124.408 175.39 125.033 175.174C125.344 175.061 125.634 174.955 125.902 174.857C126.172 174.776 126.419 174.702 126.641 174.635C126.858 174.54 127.099 174.433 127.362 174.317C127.627 174.203 127.915 174.092 128.223 173.968C128.841 173.726 129.541 173.453 130.313 173.183C131.857 172.649 133.694 172.085 135.697 171.915C136.432 171.861 137.153 171.839 137.844 171.903C138.19 171.918 138.526 171.981 138.857 172.021C139.021 172.048 139.183 172.085 139.343 172.117C139.503 172.153 139.662 172.175 139.816 172.227C140.931 172.516 141.881 173.006 142.672 173.475C142.847 173.511 143.019 173.552 143.189 173.596C142.848 173.35 142.443 173.08 141.976 172.807C141.874 172.748 141.77 172.687 141.663 172.625C141.555 172.568 141.444 172.508 141.331 172.448C141.108 172.323 140.867 172.214 140.623 172.091C140.128 171.864 139.596 171.631 139.025 171.433C138.455 171.235 137.85 171.057 137.218 170.933C136.901 170.871 136.581 170.825 136.25 170.797C136.084 170.787 135.916 170.776 135.747 170.765C135.578 170.756 135.407 170.758 135.236 170.754C133.365 170.742 131.595 171.058 130.091 171.388C128.585 171.733 127.338 172.099 126.483 172.361C126.068 172.558 125.554 172.782 124.973 173.083C124.39 173.381 123.731 173.714 123.009 174.07C122.297 174.466 121.525 174.894 120.705 175.334C119.893 175.806 119.037 176.303 118.153 176.817C117.506 177.207 116.872 177.582 116.258 177.939C115.657 178.294 115.092 178.693 114.549 179.081C114.007 179.469 113.489 179.844 112.998 180.182C112.507 180.521 112.04 180.817 111.607 181.069C110.738 181.567 109.998 181.844 109.484 181.964C109.355 181.992 109.24 182.02 109.141 182.038C109.042 182.049 108.957 182.059 108.889 182.067C108.754 182.081 108.682 182.089 108.682 182.089C108.682 182.089 108.753 182.069 108.887 182.03C108.953 182.011 109.036 181.988 109.133 181.96C109.23 181.927 109.34 181.88 109.464 181.834C109.961 181.637 110.658 181.267 111.474 180.685C111.881 180.39 112.321 180.055 112.789 179.676C113.259 179.295 113.76 178.887 114.287 178.458C114.819 178.033 115.39 177.592 116.011 177.199C116.621 176.818 117.255 176.429 117.907 176.037C118.796 175.513 119.671 175.05 120.496 174.603C121.335 174.196 122.129 173.818 122.863 173.481C123.607 173.183 124.287 172.917 124.888 172.686C125.488 172.453 126.017 172.298 126.445 172.162C127.28 171.777 128.506 171.251 130.016 170.771C131.526 170.309 133.33 169.882 135.275 169.894C135.453 169.898 135.631 169.897 135.807 169.908C135.983 169.921 136.158 169.935 136.331 169.949C136.679 169.984 137.023 170.043 137.352 170.12C138.013 170.275 138.633 170.493 139.211 170.737C139.789 170.98 140.321 171.265 140.812 171.545C141.054 171.694 141.291 171.83 141.51 171.982C141.62 172.056 141.728 172.129 141.834 172.2C141.938 172.275 142.039 172.349 142.138 172.422C142.78 172.895 143.288 173.357 143.664 173.738C143.947 173.833 144.22 173.941 144.48 174.07C144.939 174.297 145.356 174.593 145.705 174.958C145.661 175.03 145.621 175.107 145.587 175.195C145.581 175.209 145.575 175.222 145.569 175.236C145.232 174.899 144.824 174.626 144.369 174.421C144.327 174.402 144.282 174.386 144.24 174.368C144.276 174.413 144.31 174.454 144.339 174.489C144.374 174.533 144.401 174.566 144.424 174.594C144.608 174.714 144.776 174.824 144.921 174.919C145.212 175.099 145.421 175.23 145.539 175.303C145.536 175.309 145.534 175.315 145.531 175.321C145.406 175.268 145.184 175.173 144.877 175.043C144.632 174.926 144.332 174.783 143.984 174.617C143.638 174.447 143.244 174.254 142.809 174.041C142.705 173.991 142.599 173.942 142.491 173.892C141.24 173.697 139.852 173.744 138.387 174.002ZM143.851 174.221C143.927 174.271 144.003 174.32 144.075 174.368C144.17 174.43 144.261 174.489 144.349 174.547C144.338 174.537 144.33 174.529 144.318 174.519C144.258 174.463 144.179 174.39 144.085 174.307C144.008 174.277 143.93 174.248 143.851 174.221ZM140.964 173.279C140.562 173.145 140.137 173.028 139.69 172.943C139.543 172.903 139.386 172.891 139.231 172.865C139.075 172.844 138.919 172.816 138.759 172.798C138.438 172.775 138.114 172.728 137.779 172.725C137.112 172.686 136.416 172.722 135.704 172.773C133.765 172.937 131.95 173.392 130.399 173.796C129.624 174 128.914 174.201 128.286 174.372C127.972 174.461 127.678 174.536 127.41 174.616C127.142 174.696 126.896 174.77 126.676 174.835C126.461 174.931 126.221 175.037 125.959 175.153C125.7 175.281 125.419 175.42 125.118 175.569C124.513 175.852 123.84 176.226 123.1 176.611C121.627 177.412 119.918 178.402 118.069 179.416C116.712 180.165 115.399 180.83 114.169 181.346C112.931 181.807 111.802 182.132 110.846 182.273C110.369 182.342 109.938 182.431 109.556 182.441C109.179 182.459 108.859 182.483 108.605 182.568C108.598 182.57 108.593 182.573 108.586 182.575C108.642 182.575 108.698 182.575 108.754 182.575C108.991 182.577 109.229 182.572 109.469 182.566C109.708 182.56 109.947 182.555 110.187 182.549C110.424 182.535 110.661 182.521 110.899 182.507L111.255 182.486C111.374 182.478 111.493 182.46 111.613 182.448C111.851 182.421 112.09 182.394 112.328 182.367C112.567 182.337 112.806 182.292 113.045 182.255C113.523 182.187 114.001 182.075 114.479 181.979C114.718 181.931 114.956 181.863 115.195 181.807C115.434 181.745 115.673 181.695 115.911 181.623C116.387 181.486 116.864 181.357 117.337 181.2C118.286 180.908 119.228 180.562 120.165 180.214C121.101 179.854 122.03 179.485 122.951 179.1C123.872 178.719 124.786 178.33 125.691 177.949C126.595 177.566 127.497 177.195 128.377 176.832C130.139 176.099 131.854 175.354 133.522 174.747C134.355 174.441 135.178 174.178 135.984 173.949C136.79 173.723 137.583 173.558 138.353 173.431C139.257 173.299 140.132 173.247 140.964 173.279Z" fill="#861E1D"/>
<path d="M153.414 182.627C153.414 182.627 154.525 179.002 153.209 177.357C153.209 177.357 173.678 181.405 188 181.24L153.414 182.627Z" fill="#861E1D"/>
<path d="M89.8318 158.74C89.8318 158.74 89.8666 158.839 89.9346 159.033C89.9685 159.13 90.0107 159.252 90.061 159.396C90.1137 159.54 90.1722 159.708 90.2123 159.906C90.2592 160.103 90.3116 160.324 90.3693 160.567C90.4112 160.814 90.4418 161.087 90.4829 161.382C90.5085 161.53 90.5116 161.685 90.5164 161.845C90.5219 162.006 90.5274 162.173 90.5332 162.345C90.5435 162.69 90.4974 163.056 90.4787 163.448C90.4478 163.641 90.4162 163.839 90.3838 164.043C90.367 164.146 90.3501 164.249 90.333 164.354C90.314 164.459 90.2813 164.561 90.2555 164.667C90.1999 164.878 90.1427 165.095 90.0845 165.316C90.0054 165.532 89.9248 165.752 89.8421 165.977C89.4848 166.866 88.9765 167.796 88.2592 168.674C87.537 169.544 86.6044 170.353 85.4751 170.984C85.2021 171.161 84.8946 171.276 84.5942 171.42C84.294 171.572 83.9755 171.663 83.6558 171.775C83.4954 171.829 83.3338 171.883 83.1713 171.938C83.0092 171.996 82.8377 172.021 82.6693 172.064C82.4996 172.102 82.3288 172.141 82.1568 172.18C81.985 172.22 81.8116 172.26 81.6335 172.275C78.8195 172.741 75.4857 172.138 72.6447 170.158C72.2908 169.913 71.9596 169.628 71.612 169.358C71.2847 169.064 70.9709 168.748 70.6471 168.436C70.3575 168.092 70.0539 167.753 69.7722 167.392C69.6415 167.203 69.5103 167.014 69.3788 166.824C69.2526 166.63 69.1037 166.449 68.9991 166.24C68.8861 166.035 68.7728 165.83 68.6587 165.624C68.5438 165.418 68.4284 165.211 68.3422 164.99C68.2489 164.771 68.1554 164.552 68.0616 164.331C68.0157 164.221 67.9665 164.111 67.9235 164L67.8168 163.661C67.6806 163.208 67.5188 162.756 67.4052 162.288C67.3085 161.815 67.2113 161.34 67.1135 160.861C66.8229 158.924 66.8753 156.876 67.3238 154.865C67.7696 152.855 68.6094 150.884 69.8247 149.121C71.037 147.357 72.6288 145.804 74.4994 144.632C74.9687 144.344 75.4631 144.093 75.9484 143.825C76.4496 143.59 76.9679 143.388 77.4815 143.17C78.5126 142.795 79.5761 142.506 80.6662 142.302C83.6313 141.768 86.6692 141.93 89.4502 142.749C92.2339 143.559 94.7761 144.962 96.8541 146.788C98.94 148.607 100.572 150.821 101.683 153.171C102.804 155.535 103.381 157.958 103.672 160.309C103.936 162.664 103.862 164.947 103.502 167.054C103.162 169.166 102.535 171.098 101.783 172.818C101.032 174.541 100.119 176.04 99.1711 177.326C98.2214 178.612 97.229 179.682 96.2797 180.568C95.4075 181.533 94.3429 182.529 93.071 183.486C91.7988 184.441 90.3135 185.354 88.6118 186.104C86.9085 186.847 85.0345 187.474 82.9842 187.901C80.9381 188.327 78.7278 188.548 76.4159 188.491C74.1034 188.445 71.6966 188.072 69.2798 187.394C68.9751 187.317 68.6766 187.215 68.3754 187.118C68.075 187.017 67.7699 186.926 67.4695 186.816C66.8737 186.585 66.2629 186.374 65.6724 186.1C64.4722 185.596 63.3036 184.968 62.1476 184.284C60.9958 183.59 59.8838 182.793 58.8008 181.931C57.7381 181.044 56.6973 180.098 55.7369 179.048C53.8136 176.956 52.1295 174.539 50.8402 171.866C50.5896 171.381 50.3799 170.879 50.1659 170.38C49.9411 169.886 49.7651 169.374 49.5754 168.87C49.377 168.365 49.2334 167.861 49.0692 167.358L48.8305 166.605C48.7615 166.35 48.6924 166.096 48.6236 165.843C48.0698 163.816 47.6727 161.761 47.4988 159.709C47.3248 157.658 47.3633 155.618 47.6092 153.65C47.8532 151.682 48.3016 149.791 48.8879 148.012C50.0584 144.442 51.7683 141.352 53.5024 138.616C55.2541 135.883 57.0675 133.496 58.7587 131.359C60.4551 129.226 62.043 127.351 63.445 125.714C64.8479 124.077 66.0708 122.682 67.0703 121.542C69.0769 119.268 70.1867 118.011 70.1867 118.011C70.1867 118.011 69.217 119.383 67.4337 121.841C66.542 123.069 65.4508 124.571 64.1844 126.315C62.9225 128.06 61.4864 130.047 59.9555 132.273C58.4304 134.5 56.7967 136.963 55.2491 139.699C53.7174 142.438 52.2439 145.454 51.2984 148.78C50.8228 150.44 50.4771 152.171 50.3106 153.955C50.1425 155.738 50.1548 157.571 50.3506 159.426C50.5467 161.282 50.9395 163.155 51.4726 165.025L51.6705 165.728L51.8997 166.427C52.0557 166.892 52.1949 167.372 52.3759 167.819C52.5503 168.273 52.709 168.736 52.9142 169.18C53.1087 169.628 53.2971 170.082 53.524 170.518C55.857 175.333 59.4765 179.262 63.5937 181.891C64.6268 182.541 65.6719 183.149 66.7509 183.646C67.2811 183.916 67.8318 184.126 68.3683 184.36C68.6389 184.47 68.9148 184.564 69.1862 184.666C69.4587 184.766 69.7282 184.872 70.0044 184.953C72.1928 185.663 74.3906 186.114 76.5268 186.267C80.8008 186.603 84.7815 185.906 88.0734 184.732C91.3667 183.549 93.9242 181.746 95.7679 180.045C97.448 178.178 99.2446 175.596 100.437 172.26C101.638 168.949 102.213 164.88 101.502 160.622C101.133 158.51 100.494 156.317 99.4425 154.32C98.3924 152.312 96.9176 150.455 95.0813 148.942C93.2515 147.423 91.0489 146.275 88.6663 145.62C86.2845 144.956 83.712 144.843 81.1955 145.295C80.2717 145.468 79.3618 145.712 78.4875 146.025C78.0686 146.204 77.6422 146.364 77.2301 146.551C76.8346 146.771 76.4272 146.968 76.0409 147.198C74.5045 148.138 73.1835 149.383 72.1553 150.813C71.125 152.242 70.3872 153.852 69.9659 155.509C69.5425 157.168 69.4368 158.872 69.6157 160.51C69.6821 160.917 69.7483 161.321 69.8139 161.723C69.8932 162.122 70.0181 162.509 70.1145 162.901C70.3311 163.674 70.6349 164.384 70.9888 165.068C71.0642 165.247 71.1828 165.398 71.2784 165.563C71.3788 165.725 71.4787 165.887 71.578 166.048C71.7962 166.357 72.0341 166.648 72.2571 166.949C72.5142 167.218 72.7603 167.497 73.0194 167.758C73.2989 167.996 73.5614 168.253 73.847 168.476C76.1382 170.271 78.9589 171 81.4564 170.765C81.6145 170.764 81.7687 170.739 81.922 170.714C82.0759 170.69 82.229 170.667 82.381 170.644C82.5323 170.616 82.6872 170.608 82.834 170.566C82.9815 170.528 83.1283 170.49 83.274 170.452C83.5647 170.374 83.8614 170.315 84.1273 170.201C84.3968 170.095 84.6772 170.018 84.9257 169.88C85.9565 169.405 86.8429 168.756 87.558 168.026C88.2679 167.29 88.8057 166.482 89.2086 165.687C89.3037 165.485 89.397 165.287 89.4882 165.094C89.5609 164.892 89.6318 164.695 89.7011 164.502C89.7343 164.406 89.7743 164.312 89.8007 164.215C89.8255 164.118 89.8502 164.022 89.8745 163.928C89.923 163.738 89.9704 163.553 90.0162 163.373C90.0666 163.005 90.1451 162.659 90.1659 162.328C90.1762 162.163 90.1859 162.002 90.1954 161.847C90.206 161.692 90.2175 161.542 90.2065 161.398C90.1944 161.109 90.1909 160.84 90.1743 160.595C90.1419 160.352 90.1124 160.131 90.0861 159.934C90.0666 159.734 90.026 159.563 89.9891 159.416C89.9543 159.268 89.9253 159.143 89.9019 159.044C89.856 158.842 89.8318 158.74 89.8318 158.74Z" fill="#861E1D"/>
<path d="M90.4143 162.117C87.2354 164.809 84.1393 159.629 87.0367 157.88C89.0451 156.668 91.5474 159.862 90.257 161.826L90.4143 162.117Z" fill="#861E1D"/>
<path d="M148.542 182.69C148.874 182.601 149.126 182.322 149.263 181.909C149.398 181.497 149.412 180.937 149.226 180.341C149.136 180.046 148.912 179.575 148.571 179.067C148.231 178.561 147.735 178.02 147.166 177.653C146.598 177.282 145.99 177.108 145.555 177.097C145.341 177.078 145.161 177.12 145.042 177.141C144.922 177.169 144.855 177.203 144.848 177.242C144.834 177.317 145.057 177.471 145.337 177.706C145.62 177.943 145.923 178.304 146.143 178.715C146.594 179.535 146.709 180.633 146.86 181.109C147.009 181.582 147.252 182.012 147.553 182.314C147.852 182.618 148.211 182.779 148.542 182.69Z" fill="#861E1D"/>
<path d="M142.422 181.898C142.6 182.044 142.848 182.071 143.121 181.982C143.393 181.893 143.695 181.679 143.937 181.341C144.058 181.175 144.219 180.866 144.353 180.479C144.487 180.092 144.577 179.607 144.546 179.15C144.517 178.692 144.369 178.291 144.202 178.05C144.034 177.808 143.888 177.699 143.845 177.721C143.8 177.742 143.807 177.925 143.793 178.171C143.78 178.42 143.709 178.729 143.577 179.011C143.322 179.583 142.786 180.081 142.594 180.352C142.402 180.62 142.27 180.923 142.229 181.208C142.187 181.492 142.244 181.752 142.422 181.898Z" fill="#861E1D"/>
<path d="M12.6627 46.5197C12.6105 46.411 12.5586 46.3042 12.5075 46.2004C12.2862 45.7643 12.0856 45.3695 11.9096 45.0227C11.737 44.6736 11.5887 44.3725 11.4669 44.1265C11.3304 43.8185 11.2316 43.5955 11.1758 43.47C11.1816 43.467 11.1876 43.4641 11.1937 43.4611C11.2688 43.5789 11.4029 43.7882 11.5884 44.0784C11.6856 44.2234 11.7976 44.391 11.9209 44.5749C11.9491 44.5974 11.9823 44.6239 12.0263 44.6586C12.0617 44.6865 12.1033 44.7197 12.1478 44.7555C12.1291 44.7127 12.1128 44.668 12.093 44.626C11.8783 44.1691 11.5995 43.7625 11.259 43.429C11.273 43.4226 11.2849 43.4154 11.2991 43.4092C11.3842 43.3728 11.459 43.3294 11.5289 43.2837C11.8975 43.6282 12.1989 44.0436 12.435 44.5037C12.5681 44.7641 12.6822 45.0387 12.7829 45.3232C13.1686 45.6953 13.6361 46.199 14.1185 46.8385C14.1926 46.937 14.2679 47.0379 14.3454 47.1412C14.4181 47.2466 14.4922 47.3545 14.5678 47.4642C14.7235 47.6827 14.8629 47.9195 15.0166 48.1615C15.3054 48.6526 15.5989 49.1853 15.8537 49.7661C16.1085 50.3467 16.3401 50.9698 16.5098 51.6371C16.5941 51.97 16.6611 52.3174 16.7053 52.6697C16.7235 52.8455 16.7414 53.0225 16.7599 53.2007C16.7754 53.3792 16.7783 53.5596 16.7875 53.7406C16.8503 55.7154 16.4782 57.5587 16.0624 59.1034C15.6305 60.6497 15.1449 61.9087 14.7884 62.7663C14.6656 63.2047 14.5262 63.7451 14.313 64.361C14.1019 64.9772 13.8582 65.6755 13.5842 66.4389C13.2716 67.1926 12.9209 68.0087 12.5428 68.8711C12.1238 69.7212 11.6912 70.6221 11.1997 71.5386C10.8308 72.2104 10.4646 72.8643 10.1062 73.4944C9.73573 74.1354 9.31597 74.7264 8.91176 75.278C8.50386 75.8246 8.11599 76.3444 7.75262 76.8313C7.39268 77.3163 7.07384 77.7721 6.794 78.1934C6.24302 79.0376 5.89705 79.7552 5.71708 80.2643C5.67412 80.3917 5.6317 80.5049 5.60166 80.6039C5.57689 80.7035 5.55581 80.7878 5.53895 80.8561C5.50416 80.9931 5.48598 81.0651 5.48598 81.0651C5.48598 81.0651 5.49178 80.9926 5.50285 80.8545C5.50864 80.7849 5.51602 80.6989 5.52472 80.5975C5.53921 80.4963 5.56398 80.3799 5.58822 80.2479C5.69257 79.7223 5.94553 78.9632 6.41298 78.0681C6.64987 77.6227 6.92839 77.1399 7.24907 76.6324C7.56922 76.1249 7.92495 75.5896 8.2928 75.0291C8.65985 74.4678 9.03798 73.8833 9.37157 73.2639C9.70701 72.6309 10.059 71.9773 10.4256 71.3095C10.908 70.3981 11.375 69.5161 11.8182 68.6792C12.2295 67.8352 12.6298 67.0398 13.0008 66.3058C13.3325 65.5639 13.6427 64.8856 13.9209 64.2866C14.2013 63.6881 14.4087 63.1606 14.5913 62.7339C14.8263 61.8584 15.1541 60.5828 15.4542 59.0451C15.7391 57.5084 16.0034 55.7033 15.9425 53.8038C15.9335 53.6295 15.9314 53.4555 15.9183 53.2842C15.903 53.1132 15.888 52.9432 15.8729 52.7746C15.8368 52.4398 15.7833 52.1156 15.714 51.7955C15.5749 51.1566 15.3833 50.5474 15.1739 49.9738C14.9644 49.3997 14.7209 48.8657 14.4843 48.3684C14.3567 48.1235 14.2434 47.8821 14.1143 47.6583C14.0521 47.5453 13.9913 47.4345 13.9315 47.3264C13.8674 47.2199 13.805 47.1155 13.7438 47.0138C13.463 46.5462 13.1873 46.1425 12.9354 45.8026C12.9842 45.9737 13.0287 46.1474 13.0685 46.3246C13.5512 47.1147 14.0585 48.0668 14.3723 49.1912C14.4271 49.3464 14.4527 49.5073 14.4927 49.6687C14.528 49.8306 14.5694 49.9936 14.6 50.1601C14.6487 50.4947 14.7196 50.8346 14.7433 51.1858C14.8247 51.8854 14.8216 52.6172 14.7884 53.3653C14.6732 55.4035 14.1668 57.2847 13.6819 58.8655C13.4366 59.6572 13.1865 60.3753 12.9641 61.0089C12.8503 61.3252 12.7494 61.6205 12.644 61.8919C12.5365 62.1628 12.4382 62.4103 12.3497 62.633C12.2898 62.86 12.2234 63.1129 12.1507 63.3894C12.0619 63.6638 11.9655 63.9611 11.8622 64.2799C11.6659 64.9207 11.3821 65.634 11.0798 66.4169C10.4469 67.9747 9.60108 69.7726 8.65484 71.6721C7.9534 73.0696 7.2907 74.3974 6.755 75.6073C6.2699 76.8302 5.88282 77.9474 5.66754 78.9005C5.56134 79.3772 5.43328 79.8074 5.38533 80.1872C5.32788 80.5702 5.26517 80.9104 5.14528 81.1775C5.10812 81.2658 5.06386 81.3416 5.01801 81.412C5.02064 81.5166 5.02328 81.6216 5.02591 81.7262C5.0383 81.9655 5.05042 82.204 5.0628 82.4422L5.0823 82.7987L5.11287 83.1523C5.13553 83.3873 5.1487 83.6237 5.17848 83.856C5.2794 84.7888 5.44962 85.6967 5.69362 86.5692C5.72603 86.6779 5.75818 86.7863 5.79033 86.8944C5.82327 87.0023 5.85119 87.1115 5.89388 87.2162C5.97214 87.4274 6.04988 87.6377 6.12761 87.8473C6.21957 88.0518 6.31127 88.2558 6.4027 88.4586C6.44539 88.5612 6.49888 88.6597 6.5529 88.7576C6.60586 88.8558 6.65856 88.9541 6.71152 89.052C6.76633 89.1492 6.81219 89.2493 6.87332 89.3435C6.93313 89.438 6.99268 89.5325 7.0525 89.6264C7.17134 89.8149 7.28543 90.0041 7.42324 90.1821C7.55684 90.3617 7.68121 90.5448 7.82034 90.7196C7.96368 90.8925 8.10597 91.0648 8.24774 91.2361C8.31625 91.3231 8.39372 91.405 8.4704 91.4872C8.54681 91.5696 8.62296 91.6515 8.69859 91.7334C8.77447 91.8153 8.8501 91.897 8.92546 91.9784C9.00135 92.0597 9.08514 92.1363 9.16446 92.2152C9.32493 92.3718 9.48435 92.5276 9.64271 92.6823C9.72282 92.757 9.80398 92.8258 9.88408 92.8975C9.96392 92.9687 10.0432 93.0402 10.1297 93.1057C10.214 93.1729 10.298 93.2396 10.3818 93.3062C10.4667 93.3718 10.5571 93.4326 10.644 93.496C10.815 93.6247 11.0026 93.7366 11.1818 93.8541C11.5523 94.0771 11.9286 94.2864 12.3228 94.463C12.7107 94.648 13.117 94.796 13.5185 94.9352C13.9272 95.0615 14.3333 95.1804 14.7465 95.2607C15.1557 95.3511 15.5689 95.4047 15.9741 95.4507C16.1786 95.4638 16.3799 95.4847 16.5807 95.4906C16.7817 95.4941 16.9802 95.5064 17.1775 95.4975C17.9654 95.4858 18.7182 95.3883 19.4083 95.2221C20.099 95.0562 20.7264 94.8214 21.2779 94.5471C21.8302 94.273 22.3068 93.9604 22.719 93.6437C23.1369 93.3308 23.4979 92.9716 23.8386 92.6055C23.92 92.5113 24.0014 92.4173 24.0828 92.3234C24.1255 92.2765 24.1619 92.2297 24.1961 92.1826L24.3023 92.0421C24.3766 91.9505 24.4367 91.8515 24.5005 91.7543L24.5959 91.609L24.6799 91.4588C24.9068 91.0597 25.0876 90.6433 25.2156 90.2182C25.3447 89.7937 25.4407 89.3644 25.4894 88.9348C25.5895 88.0756 25.5471 87.2221 25.3843 86.4076C25.3023 86.0005 25.1967 85.6014 25.0554 85.2173C24.9914 85.0232 24.9081 84.8364 24.8309 84.6491C24.7917 84.5554 24.7437 84.4654 24.701 84.3739C24.6573 84.2826 24.6148 84.1911 24.5637 84.1036C23.8135 82.6748 22.6093 81.5188 21.1593 80.8676C21.0668 80.8298 20.9748 80.7921 20.8831 80.7546L20.7459 80.6984L20.6049 80.6518C20.5111 80.6205 20.4178 80.5892 20.3248 80.5582C20.2291 80.5335 20.1335 80.5089 20.0386 80.4845L19.8966 80.4476C19.8486 80.4369 19.7999 80.4294 19.7519 80.42C19.6555 80.4018 19.5593 80.3839 19.4637 80.366C19.3667 80.3529 19.2695 80.3432 19.173 80.3312L19.0286 80.3138C18.9804 80.3098 18.9317 80.3087 18.8832 80.306C18.7862 80.3009 18.6898 80.2958 18.5938 80.2908C18.4974 80.2921 18.4012 80.2934 18.3056 80.2945L18.1622 80.2961L18.0199 80.3074C17.9251 80.3146 17.8307 80.3218 17.7369 80.329C17.6434 80.3422 17.5509 80.3553 17.4584 80.3681C17.412 80.3748 17.3659 80.3802 17.3201 80.3877L17.1841 80.4155C17.0937 80.434 17.0036 80.4524 16.914 80.4706C16.826 80.4942 16.7385 80.5177 16.6516 80.541C16.6081 80.5528 16.5644 80.5635 16.5211 80.5761L16.3949 80.6186C16.3106 80.6467 16.2268 80.6746 16.1435 80.7024C16.0627 80.7351 15.9825 80.7677 15.9027 80.8001L15.7831 80.8483C15.7443 80.8657 15.7067 80.8847 15.6687 80.9026C15.5926 80.939 15.5167 80.9752 15.4413 81.011C15.3673 81.0485 15.2977 81.0905 15.226 81.1296C15.0801 81.2051 14.9509 81.2955 14.8184 81.3799C14.2964 81.7259 13.8911 82.1328 13.586 82.5423C13.2817 82.9537 13.0861 83.3739 12.9773 83.7706C12.8706 84.1675 12.8342 84.5425 12.8664 84.8758C12.8688 84.9175 12.869 84.9593 12.8732 85C12.8796 85.0401 12.8861 85.08 12.8925 85.1191C12.9046 85.1975 12.9162 85.2738 12.9275 85.3482C12.9394 85.3913 12.9494 85.4322 12.9602 85.474C13.2661 84.7882 14.0714 84.2668 15.0189 84.2179C16.2273 84.1555 17.2055 84.8843 17.2033 85.8455C17.2012 86.8066 16.22 87.6364 15.0115 87.6988C13.9301 87.7544 13.0356 87.1763 12.8603 86.3653C12.8327 86.33 12.8047 86.2944 12.7752 86.2558C12.7096 86.1482 12.6387 86.0329 12.5634 85.9092C12.4948 85.7802 12.434 85.6362 12.3647 85.4823C12.3389 85.4022 12.3125 85.3203 12.2854 85.2358C12.2719 85.1929 12.2582 85.1498 12.2445 85.1059C12.2332 85.0615 12.2258 85.0155 12.2163 84.9694C12.1281 84.6014 12.1136 84.1721 12.1876 83.7037C12.264 83.2355 12.4464 82.727 12.7663 82.2203C13.0867 81.7155 13.5354 81.2067 14.1333 80.7634C14.2848 80.655 14.435 80.5405 14.6039 80.4412C14.6872 80.3903 14.7689 80.3365 14.8556 80.2875C14.9438 80.2404 15.0326 80.1928 15.1222 80.1449C15.167 80.1213 15.2115 80.0967 15.2577 80.0737L15.3992 80.0092C15.494 79.9664 15.5897 79.923 15.6856 79.8796C15.7852 79.8416 15.8853 79.8036 15.986 79.7651L16.138 79.7078C16.1897 79.6904 16.2424 79.6749 16.2948 79.6583C16.4002 79.6259 16.5061 79.5932 16.6126 79.5603C16.7209 79.5322 16.8308 79.5068 16.9409 79.4797L17.1072 79.4401C17.1633 79.4286 17.2199 79.4195 17.2766 79.4093C17.3902 79.3895 17.5045 79.3697 17.6192 79.3497C17.7351 79.3366 17.8516 79.3234 17.9686 79.3101L18.1451 79.2911L18.323 79.2825C18.4418 79.2774 18.5614 79.272 18.6816 79.267C18.8012 79.2691 18.9216 79.2715 19.0426 79.2737C19.1029 79.2753 19.1638 79.2753 19.2244 79.2785L19.4052 79.2937C19.5258 79.3044 19.6478 79.3135 19.7691 79.3267C19.8887 79.3451 20.0088 79.3636 20.1298 79.3821C20.1899 79.392 20.251 79.4 20.3108 79.4115L20.4884 79.4511C20.607 79.4781 20.7264 79.5052 20.846 79.5327C20.9617 79.5673 21.0779 79.6021 21.1949 79.6369L21.3704 79.6899L21.5395 79.7522C21.6523 79.7948 21.7653 79.8373 21.8789 79.8802C22.3179 80.0707 22.7556 80.2809 23.1503 80.5405C23.3574 80.6623 23.5398 80.8063 23.7342 80.943C23.8278 81.0142 23.9158 81.0897 24.0072 81.1639C24.0989 81.2377 24.1893 81.3127 24.2723 81.393C24.3574 81.4719 24.4425 81.5514 24.5282 81.6312C24.608 81.7144 24.6878 81.7979 24.7682 81.8815L24.8884 82.0078L24.9998 82.1392C25.0741 82.2273 25.1484 82.3156 25.2227 82.4042C25.2913 82.4957 25.36 82.5875 25.4291 82.6796L25.5318 82.8185L25.6264 82.9612C25.6891 83.0567 25.7545 83.152 25.8151 83.2492C25.8725 83.3477 25.9302 83.4465 25.9882 83.5455C26.0483 83.6437 26.0991 83.7457 26.1511 83.8477C26.2019 83.9499 26.258 84.0508 26.3047 84.1552C26.3972 84.364 26.4949 84.573 26.5721 84.789C26.7397 85.2176 26.8678 85.6624 26.9679 86.1172C27.1668 87.0269 27.2314 87.9844 27.1289 88.9664C27.0788 89.4573 26.975 89.9543 26.8277 90.4519C26.6815 90.9497 26.4717 91.4481 26.1974 91.9363L26.0952 92.1197L25.9793 92.3001C25.9013 92.4203 25.8264 92.5418 25.7345 92.6582L25.6019 92.8346C25.5579 92.894 25.5131 92.9524 25.4649 93.0059C25.37 93.1159 25.2752 93.2262 25.1801 93.3365C24.7811 93.7687 24.3516 94.1946 23.8478 94.5739C23.3506 94.9561 22.768 95.3367 22.0881 95.6713C21.4096 96.0058 20.6344 96.2925 19.7888 96.4914C18.1 96.8907 16.133 96.9378 14.2305 96.5125C13.7515 96.4143 13.2835 96.2746 12.8147 96.1239C12.3539 95.9603 11.8909 95.785 11.4498 95.5701C11.0024 95.3634 10.5755 95.1212 10.1579 94.8624C9.95496 94.727 9.74469 94.5966 9.55128 94.4483C9.45352 94.3755 9.35234 94.3049 9.25668 94.2291C9.16235 94.1523 9.06802 94.0752 8.97316 93.9981C8.87645 93.9224 8.78739 93.8405 8.69753 93.7586C8.60847 93.6769 8.51519 93.595 8.42903 93.5123C8.26407 93.3469 8.09807 93.1804 7.93101 93.0129C7.84853 92.9283 7.76184 92.8469 7.68226 92.7594C7.60321 92.6716 7.52364 92.5835 7.44432 92.4955C7.36501 92.4072 7.28517 92.3188 7.20533 92.23C7.12522 92.1414 7.04433 92.053 6.97187 91.9585C6.82272 91.7725 6.67253 91.5857 6.52181 91.3981C6.37504 91.208 6.24302 91.0081 6.10231 90.8122C5.95765 90.6179 5.83644 90.4109 5.71101 90.2048C5.6483 90.1018 5.58532 89.9985 5.52261 89.8952C5.45858 89.7921 5.4093 89.6827 5.35212 89.5764C5.29679 89.4693 5.24119 89.362 5.18559 89.2544C5.1292 89.1471 5.07334 89.0395 5.02881 88.9278C4.93395 88.7065 4.83856 88.4843 4.74291 88.2611C4.66307 88.0339 4.58323 87.8061 4.50312 87.5772C4.45965 87.4635 4.43145 87.3465 4.39825 87.2304C4.36584 87.1139 4.33343 86.9975 4.30102 86.8808C4.05754 85.945 3.89786 84.9847 3.8117 84.0147C3.78561 83.7722 3.77639 83.5292 3.75794 83.2853L3.7337 82.9194L3.72079 82.553C3.71315 82.3086 3.70551 82.0635 3.6976 81.818C3.69628 81.5728 3.69497 81.3271 3.69365 81.0812C3.69049 80.8352 3.69365 80.5889 3.69866 80.3424C3.70287 80.0959 3.70682 79.8491 3.71104 79.6021C3.72395 79.3518 3.73686 79.101 3.74978 78.85L3.7698 78.4731C3.77718 78.3475 3.79431 78.222 3.80617 78.0965C3.83225 77.8454 3.8586 77.5938 3.88495 77.3422C3.91446 77.0909 3.95873 76.8401 3.99509 76.5888C4.06202 76.0856 4.17217 75.5858 4.26782 75.0848C4.31499 74.834 4.38191 74.5856 4.43804 74.3361C4.49944 74.0872 4.54924 73.8367 4.62038 73.5891C4.7553 73.0931 4.88335 72.5964 5.03856 72.1049C5.32814 71.1181 5.66938 70.1441 6.01246 69.1765C6.36766 68.2118 6.73103 67.2542 7.10889 66.3101C7.48306 65.3648 7.86435 64.4306 8.23799 63.5067C8.61322 62.5822 8.97289 61.6724 9.33231 60.7664C10.0556 58.9586 10.7839 57.2172 11.3768 55.5331C11.6767 54.6916 11.9331 53.8645 12.156 53.0556C12.3768 52.2465 12.5386 51.4551 12.6638 50.6863C12.878 49.1931 12.8883 47.7828 12.6627 46.5197ZM12.2126 44.9097C12.1288 44.8166 12.0551 44.7387 11.9979 44.6784C11.9873 44.6669 11.9794 44.6586 11.97 44.6485C12.0287 44.736 12.0891 44.8262 12.1531 44.9217C12.2021 44.9935 12.2527 45.0687 12.3041 45.145C12.2751 45.0652 12.2443 44.9873 12.2126 44.9097ZM13.2269 50.7069C13.1222 51.4925 12.9802 52.3017 12.7792 53.1266C12.576 53.9507 12.3386 54.7935 12.0588 55.6476C11.5051 57.3572 10.8177 59.1184 10.1428 60.927C9.80845 61.8303 9.46696 62.7561 9.11466 63.6841C8.76315 64.6132 8.40426 65.551 8.0538 66.4964C7.69913 67.4415 7.3608 68.3955 7.03063 69.3548C6.71311 70.3154 6.39743 71.2808 6.13472 72.2524C5.9927 72.7374 5.87834 73.2248 5.7566 73.7117C5.69178 73.955 5.64883 74.1994 5.59402 74.4432C5.54448 74.6873 5.48414 74.9306 5.44382 75.175C5.36135 75.6632 5.26385 76.1509 5.20957 76.6385C5.17953 76.8824 5.14159 77.1257 5.11787 77.369C5.09758 77.6123 5.07729 77.8551 5.057 78.0978C5.04804 78.2191 5.03382 78.3406 5.02934 78.4616L5.01774 78.8243C5.0101 79.066 5.00272 79.3071 4.99508 79.5483C4.99613 79.7918 4.99693 80.0351 4.99798 80.2782C4.99772 80.5212 4.99956 80.7637 5.00773 81.0046C5.00905 81.0611 5.01063 81.1176 5.01194 81.1743C5.01379 81.1676 5.01669 81.1623 5.01853 81.1556C5.09521 80.8949 5.11049 80.5699 5.11866 80.1866C5.11787 79.7983 5.19481 79.3588 5.24988 78.8722C5.36345 77.8974 5.65331 76.7421 6.07464 75.4737C6.55 74.2111 7.16975 72.8603 7.87119 71.462C8.8198 69.5579 9.74943 67.797 10.4983 66.2799C10.8575 65.5187 11.2079 64.8251 11.4706 64.2034C11.6095 63.8937 11.7391 63.6046 11.8588 63.338C11.9657 63.0693 12.064 62.8233 12.152 62.6022C12.2111 62.3766 12.2769 62.1255 12.3486 61.8512C12.42 61.5766 12.4864 61.2757 12.5652 60.9551C12.717 60.3132 12.8964 59.5868 13.0772 58.794C13.4334 57.2086 13.8332 55.3538 13.9436 53.3808C13.9755 52.6566 13.9921 51.9491 13.9359 51.2728C13.9249 50.9326 13.8695 50.6042 13.8387 50.2789C13.8174 50.1173 13.7855 49.9591 13.7602 49.8014C13.7304 49.6449 13.7151 49.4861 13.6719 49.3373C13.576 48.886 13.45 48.4578 13.3075 48.0528C13.3597 48.8962 13.3323 49.7854 13.2269 50.7069Z" fill="#861E1D"/>
<path d="M3.7793 35.6568C3.7793 35.6568 7.31706 34.433 8.97132 35.7258C8.97132 35.7258 4.4478 15.0481 4.23305 0.500023L3.7793 35.6568Z" fill="#861E1D"/>
<path d="M28.9629 99.5901C28.9629 99.5901 28.8612 99.5684 28.6622 99.5261C28.5634 99.5049 28.4401 99.4787 28.2936 99.4474C28.1479 99.4137 27.9784 99.3773 27.7813 99.3625C27.5863 99.3409 27.3684 99.3168 27.1279 99.2903C26.8865 99.2798 26.6217 99.2836 26.3374 99.2788C26.1951 99.2713 26.0475 99.2871 25.8949 99.3018C25.7429 99.3154 25.5853 99.3296 25.4225 99.3443C25.0978 99.3743 24.7585 99.4629 24.3985 99.5239C24.2225 99.5753 24.0417 99.6283 23.856 99.6827C23.7635 99.7097 23.6699 99.7373 23.5751 99.7651C23.4807 99.7945 23.3896 99.8376 23.295 99.874C23.1074 99.9495 22.9153 100.027 22.7187 100.106C22.5308 100.204 22.3385 100.303 22.1419 100.405C21.3709 100.835 20.5899 101.403 19.8837 102.143C19.1846 102.888 18.5693 103.806 18.1288 104.865C17.9994 105.121 17.9309 105.407 17.8331 105.684C17.7282 105.957 17.6782 106.26 17.6091 106.557C17.5757 106.706 17.5422 106.856 17.5085 107.007C17.4716 107.157 17.4671 107.314 17.4442 107.469C17.4255 107.624 17.4065 107.78 17.3875 107.936C17.3667 108.093 17.3459 108.25 17.3493 108.411C17.1838 110.953 17.9751 113.798 19.8028 116.077C20.0297 116.362 20.2895 116.621 20.5308 116.899C20.7949 117.155 21.0755 117.397 21.3474 117.652C21.6494 117.87 21.9422 118.104 22.2515 118.317C22.4128 118.414 22.5746 118.511 22.7369 118.609C22.9016 118.702 23.0536 118.818 23.2312 118.89C23.9142 119.231 24.6209 119.521 25.3874 119.72C25.7753 119.808 26.1592 119.925 26.5545 119.995C26.9516 120.05 27.351 120.107 27.7531 120.164C29.3697 120.302 31.0443 120.15 32.6653 119.676C34.2859 119.205 35.8505 118.413 37.2297 117.329C38.6094 116.248 39.8004 114.873 40.6845 113.289C40.9008 112.89 41.0839 112.472 41.29 112.064C41.4634 111.641 41.6088 111.203 41.7746 110.773C42.0594 109.878 42.2755 108.947 42.4217 108.004C42.7998 105.437 42.6215 102.828 41.9053 100.427C41.198 98.0251 40.0099 95.8185 38.4666 94.0008C36.9296 92.1759 35.0632 90.7271 33.0595 89.714C31.0656 88.6985 28.8915 88.1075 26.8024 87.789C22.5938 87.1784 18.6041 87.8693 15.3778 89.1771C12.1267 90.4752 9.6327 92.3678 7.83957 94.1228C6.21377 96.0398 4.5076 98.6843 3.42962 102.059C2.36139 105.433 1.78037 109.494 2.22331 113.825C2.4299 115.99 2.93213 118.209 3.68864 120.413C3.77507 120.691 3.88626 120.962 3.99193 121.236C4.10023 121.509 4.19931 121.787 4.31551 122.059C4.55978 122.597 4.78111 123.151 5.06069 123.682C5.57794 124.765 6.2035 125.81 6.87094 126.842C9.56682 130.954 13.5286 134.525 18.329 136.767C18.7643 136.986 19.2154 137.166 19.6621 137.351C20.1045 137.548 20.5635 137.697 21.0149 137.862C21.4605 138.034 21.9361 138.163 22.3972 138.309L23.0913 138.523L23.7888 138.706C25.6436 139.198 27.497 139.547 29.3281 139.697C31.1586 139.847 32.9636 139.812 34.7138 139.594C36.4645 139.378 38.1593 138.981 39.7799 138.455C43.028 137.407 45.9582 135.831 48.6127 134.204C51.2648 132.56 53.645 130.836 55.7973 129.229C57.9472 127.616 59.8644 126.105 61.5487 124.778C63.2317 123.446 64.6812 122.299 65.8662 121.361C68.238 119.485 69.5631 118.464 69.5631 118.464C69.5631 118.464 68.3547 119.624 66.1705 121.722C65.0746 122.767 63.7345 124.045 62.1603 125.513C60.5854 126.98 58.7822 128.641 56.728 130.42C54.6698 132.194 52.3684 134.098 49.7252 135.949C47.0778 137.782 44.0815 139.599 40.5996 140.882C38.8645 141.524 37.0149 142.029 35.0843 142.329C33.1546 142.63 31.1478 142.723 29.1247 142.601C27.1007 142.478 25.0675 142.129 23.0589 141.62C22.8075 141.557 22.5556 141.494 22.3032 141.43L21.5561 141.208C21.0573 141.054 20.5569 140.922 20.0544 140.734C19.5533 140.554 19.0447 140.389 18.5527 140.174C18.0566 139.97 17.557 139.77 17.0732 139.528C14.4089 138.29 11.9855 136.643 9.87591 134.745C8.81769 133.798 7.85881 132.766 6.9579 131.71C6.08044 130.633 5.2678 129.525 4.55424 128.374C3.85017 127.218 3.20143 126.048 2.67364 124.842C2.38879 124.25 2.16508 123.635 1.9216 123.036C1.80593 122.735 1.7079 122.427 1.60145 122.125C1.49763 121.821 1.38906 121.521 1.3058 121.213C0.57511 118.777 0.14376 116.343 0.0378321 113.996C-0.0791624 111.65 0.0802547 109.4 0.445994 107.311C0.811734 105.218 1.37905 103.298 2.06574 101.549C2.75874 99.8018 3.61829 98.2694 4.52447 96.9523C5.43302 95.6354 6.38584 94.5284 7.31231 93.6172C8.15868 92.6298 9.18554 91.594 10.4266 90.5959C11.6667 89.5994 13.118 88.6329 14.7942 87.8248C16.4669 87.016 18.3514 86.3281 20.4212 85.9274C22.4858 85.5061 24.7297 85.3709 27.0546 85.5768C29.376 85.8102 31.7755 86.3329 34.1322 87.4084C36.4737 88.4744 38.6958 90.0734 40.5406 92.1438C42.3922 94.2058 43.8407 96.7502 44.7105 99.5555C45.5903 102.358 45.8301 105.438 45.3822 108.463C45.2104 109.575 44.9542 110.663 44.6117 111.72C44.4114 112.247 44.2262 112.779 44.0083 113.294C43.7566 113.794 43.5232 114.302 43.2523 114.786C42.1479 116.717 40.6613 118.374 38.9577 119.652C37.2542 120.932 35.3367 121.837 33.3702 122.343C31.4029 122.851 29.389 122.958 27.4754 122.714C27.0014 122.627 26.5305 122.541 26.0625 122.456C25.5993 122.353 25.1508 122.2 24.7007 122.074L24.365 121.974C24.2541 121.934 24.1445 121.887 24.0346 121.843C23.8156 121.753 23.5972 121.664 23.3796 121.575C23.1593 121.494 22.9527 121.382 22.7469 121.271C22.5411 121.16 22.3361 121.051 22.1319 120.941C21.9232 120.841 21.7406 120.694 21.5469 120.571C21.3564 120.443 21.1667 120.314 20.9777 120.187C20.6149 119.91 20.2731 119.611 19.9277 119.326C19.6125 119.006 19.2929 118.695 18.9949 118.37C18.7198 118.025 18.4307 117.696 18.1799 117.343C16.157 114.51 15.475 111.141 15.8598 108.271C15.87 108.09 15.9048 107.913 15.9399 107.737C15.9736 107.562 16.0073 107.387 16.0405 107.214C16.0782 107.042 16.0982 106.867 16.1504 106.701C16.1999 106.534 16.2492 106.369 16.2982 106.204C16.3994 105.877 16.4808 105.551 16.6226 105.242C16.7562 104.933 16.8616 104.618 17.0286 104.336C17.6194 103.173 18.3917 102.205 19.2289 101.448C20.0737 100.697 20.9751 100.156 21.841 99.7699C22.0602 99.6803 22.275 99.5922 22.4847 99.5065C22.7013 99.4415 22.9126 99.3778 23.1192 99.3157C23.2228 99.2868 23.3226 99.2507 23.4251 99.2287C23.5279 99.2086 23.6294 99.1886 23.7297 99.169C23.9295 99.1308 24.1242 99.0933 24.3134 99.0571C24.6984 99.028 25.057 98.9715 25.3972 98.9728C25.5669 98.9742 25.731 98.9755 25.8897 98.9768C26.0478 98.9774 26.2001 98.9766 26.3463 98.9988C26.6383 99.0328 26.9076 99.0566 27.1513 99.0927C27.3924 99.1449 27.6108 99.1923 27.8061 99.2349C28.0021 99.2705 28.1692 99.3256 28.3123 99.3751C28.4556 99.4225 28.5761 99.4621 28.6728 99.494C28.8641 99.5571 28.9629 99.5901 28.9629 99.5901Z" fill="#861E1D"/>
<path d="M25.6241 99.0874C23.0582 102.386 28.2375 105.394 29.8823 102.405C31.0225 100.334 27.8136 97.8773 25.914 99.2394L25.6241 99.0874Z" fill="#861E1D"/>
<path d="M3.84536 40.6044C3.76684 40.943 3.93522 41.3033 4.24167 41.599C4.54733 41.8964 4.9771 42.1319 5.4464 42.2703C5.91912 42.4111 6.99895 42.5096 7.81027 42.947C8.2179 43.1589 8.57784 43.4555 8.82027 43.7342C9.05952 44.0098 9.22131 44.2299 9.30405 44.2117C9.33778 44.2047 9.36624 44.137 9.38785 44.0149C9.40287 43.895 9.43844 43.7114 9.41288 43.4959C9.38996 43.0578 9.20551 42.4472 8.82844 41.8793C8.45558 41.3113 7.91356 40.8188 7.40764 40.4842C6.9004 40.1488 6.43189 39.9318 6.13888 39.8477C5.54785 39.6743 4.99765 39.704 4.59555 39.8518C4.19266 40.0022 3.92415 40.265 3.84536 40.6044Z" fill="#861E1D"/>
<path d="M4.78662 46.7986C4.93497 46.9756 5.19241 47.0264 5.47066 46.9758C5.74945 46.9266 6.04431 46.7847 6.30359 46.5829C6.56551 46.3803 7.04535 45.8286 7.59817 45.5586C7.87222 45.4197 8.17155 45.3404 8.41529 45.3182C8.65613 45.2965 8.8369 45.2952 8.85982 45.2427C8.87747 45.205 8.76548 45.0626 8.52385 44.8999C8.28275 44.7387 7.88592 44.598 7.43586 44.5792C6.98712 44.5581 6.5115 44.6592 6.1339 44.8035C5.75551 44.9481 5.45459 45.1183 5.29412 45.2451C4.96791 45.4997 4.7658 45.812 4.68491 46.0907C4.60507 46.3701 4.63774 46.6209 4.78662 46.7986Z" fill="#861E1D"/>
<path d="M10.5254 142.765C10.2387 143.128 10.6841 144.064 11.7589 145.22C12.8329 146.364 14.5625 147.735 16.7949 148.727C17.3488 148.979 18.1013 149.257 18.9967 149.524C19.8963 149.779 20.9458 150.007 22.0839 150.134C23.2212 150.263 24.4454 150.288 25.6699 150.181C26.8949 150.076 28.117 149.839 29.2598 149.506C31.5531 148.838 33.4946 147.776 34.8202 146.9C36.1443 146.011 36.884 145.321 36.8342 145.239C36.7799 145.147 35.8711 145.57 34.4316 146.116C32.991 146.651 31.0005 147.284 28.8596 147.532C27.7908 147.657 26.691 147.693 25.6227 147.628C24.5542 147.565 23.5187 147.401 22.568 147.174C21.6167 146.948 20.7501 146.661 20.002 146.379C19.2568 146.085 18.6255 145.813 18.1451 145.594C16.2192 144.74 14.4848 143.831 13.1325 143.244C11.7855 142.653 10.8192 142.391 10.5254 142.765Z" fill="#861E1D"/>
</svg>
