<svg width="188" height="189" viewBox="0 0 188 189" fill="none" xmlns="http://www.w3.org/2000/svg">
<path d="M15.3647 3.52644C15.418 3.40118 15.414 3.26012 15.3344 3.10461C15.2546 2.95258 15.091 2.79519 14.833 2.68438C14.5771 2.57464 14.219 2.53262 13.8401 2.62122C13.4604 2.70633 13.0794 2.93117 12.7924 3.24433C12.643 3.39797 12.4902 3.62735 12.3598 3.90571C12.2301 4.18461 12.1355 4.51571 12.0986 4.86527C12.0599 5.21457 12.0765 5.58099 12.1445 5.93136C12.2117 6.28226 12.3292 6.61576 12.4739 6.9134C12.6233 7.20943 12.7974 7.46933 12.9737 7.6872C13.0641 7.79453 13.1532 7.8933 13.2396 7.98163C13.33 8.06701 13.4122 8.14677 13.4928 8.21369C13.5753 8.27926 13.6507 8.33681 13.7181 8.38526C13.7864 8.43317 13.8509 8.4685 13.9034 8.49714C14.0095 8.55335 14.0781 8.57342 14.1007 8.55228C14.1205 8.53354 14.1062 8.46208 14.0667 8.35234C14.0198 8.23162 13.9618 8.08254 13.8957 7.91284C13.8615 7.82264 13.8298 7.7228 13.7924 7.62055C13.7595 7.5159 13.7268 7.40535 13.6954 7.2916C13.6372 7.06168 13.5922 6.81463 13.5703 6.56758C13.5532 6.31947 13.5608 6.07268 13.5961 5.84544C13.6309 5.61793 13.6926 5.4113 13.7676 5.23892C13.842 5.06575 13.9302 4.92817 14.0111 4.82673C14.0288 4.79862 14.0514 4.77828 14.0694 4.7558C14.0875 4.73331 14.1041 4.7119 14.1223 4.69531C14.1397 4.67764 14.155 4.66024 14.1684 4.64338C14.184 4.62973 14.1977 4.61608 14.2095 4.6027C14.3062 4.49804 14.3835 4.41346 14.4633 4.33156C14.5426 4.24992 14.6311 4.16186 14.7423 4.08103C14.961 3.91321 15.2559 3.77965 15.3647 3.52644Z" fill="#861E1D"/>
<path d="M10.7367 4.76356C11.3494 6.56116 12.8374 8.49124 13.0355 8.74365C13.0482 8.75971 13.0498 8.77898 13.0395 8.78861L13.0672 9.91894C13.0708 10.0686 12.9446 10.1877 12.7979 10.173L11.6901 10.0613C11.6798 10.071 11.6614 10.068 11.6464 10.0541C11.4129 9.83463 9.77708 8.30041 7.90833 7.43158C7.89383 7.42489 7.15656 4.34333 7.02086 3.68222C7.00715 3.6153 7.05643 3.56873 7.12099 3.58773C7.76024 3.77402 10.7315 4.74803 10.7367 4.76356Z" fill="#861E1D"/>
<path d="M6.28101 12.0956C6.15401 12.1403 6.01593 12.1258 5.86916 12.0337C5.72582 11.9417 5.58326 11.7642 5.49367 11.4949C5.40487 11.2278 5.38985 10.8619 5.505 10.4845C5.61647 10.1063 5.86547 9.73667 6.19406 9.46928C6.35585 9.3293 6.59247 9.19145 6.87521 9.07984C7.15847 8.96903 7.49075 8.89783 7.83646 8.88605C8.18244 8.87267 8.5408 8.91657 8.87966 9.01132C9.21905 9.10527 9.53815 9.249 9.81957 9.41763C10.0991 9.5908 10.3413 9.78646 10.5424 9.98105C10.6412 10.0806 10.7313 10.178 10.8117 10.272C10.8889 10.37 10.9611 10.4591 11.0209 10.5458C11.0791 10.6341 11.13 10.715 11.1726 10.7867C11.2148 10.8592 11.2446 10.9272 11.2688 10.9826C11.3163 11.0942 11.331 11.1652 11.3083 11.1866C11.2886 11.2053 11.2196 11.1855 11.1147 11.1373C10.9998 11.0809 10.8578 11.0113 10.6957 10.9315C10.6098 10.8903 10.5139 10.8507 10.4164 10.8052C10.316 10.764 10.2098 10.723 10.1005 10.6826C9.87886 10.6066 9.6396 10.5426 9.39876 10.5022C9.15634 10.4666 8.91339 10.4561 8.68783 10.4751C8.46201 10.4936 8.25464 10.5407 8.07993 10.6042C7.90444 10.6665 7.76294 10.7458 7.65728 10.8202C7.62856 10.836 7.60669 10.8574 7.58324 10.874C7.55978 10.8908 7.53738 10.9058 7.51999 10.9232C7.50129 10.9395 7.4831 10.9537 7.46545 10.9663C7.45069 10.981 7.43647 10.9939 7.4225 11.0048C7.31262 11.095 7.22382 11.167 7.13766 11.242C7.05176 11.3161 6.95874 11.3994 6.87099 11.5062C6.69076 11.7152 6.53793 12.004 6.28101 12.0956Z" fill="#861E1D"/>
<path d="M8.10746 14.0717C8.20944 14.0845 8.30087 14.1769 8.3815 14.3375C8.46161 14.4981 8.53038 14.7269 8.60258 15.0125C8.63657 15.1627 8.67214 15.319 8.70877 15.4817C8.72642 15.5679 8.74435 15.6557 8.76253 15.7451C8.78255 15.8366 8.80311 15.9298 8.82392 16.0251C8.86002 16.2183 8.91457 16.4182 8.95883 16.6302C9.0147 16.8387 9.06608 17.0579 9.13459 17.2782C9.26634 17.7204 9.43524 18.1786 9.66106 18.6117C9.77911 18.8242 9.90111 19.0378 10.0503 19.2319C10.1188 19.3339 10.2028 19.4233 10.2792 19.5199C10.3646 19.6087 10.445 19.703 10.5385 19.7865C10.8969 20.1336 11.343 20.423 11.8718 20.6668C12.4046 20.9053 13.0189 21.0961 13.6947 21.2332C14.3675 21.3748 15.2958 21.5083 16.4291 21.5779C17.5611 21.6518 18.8918 21.6638 20.3458 21.6582C21.8003 21.6566 23.3776 21.6309 25.0216 21.7313C25.4329 21.758 25.8479 21.7918 26.2672 21.8424C26.4772 21.8689 26.6869 21.8959 26.8985 21.9307L27.0577 21.9564L27.2247 21.9893C27.3359 22.012 27.4477 22.0321 27.5575 22.0578C28.435 22.2706 29.2613 22.6065 30.002 23.0409C30.377 23.251 30.724 23.496 31.0603 23.743C31.3896 23.9997 31.7061 24.2631 31.9949 24.5462C32.5764 25.1081 33.081 25.7108 33.4921 26.3355C34.3211 27.5818 34.7938 28.8874 34.9754 30.0156C35.0246 30.2972 35.0473 30.5696 35.0684 30.8258C35.076 31.0841 35.0868 31.3261 35.0723 31.5533C35.0694 31.78 35.0402 31.9904 35.0199 32.1828C34.9954 32.375 34.9569 32.549 34.9292 32.705C34.8531 33.0147 34.7848 33.2508 34.7158 33.405C34.6523 33.5602 34.608 33.6381 34.5851 33.6319C34.5651 33.6266 34.5603 33.5361 34.569 33.372C34.583 33.209 34.5901 32.9687 34.5999 32.6662C34.5946 32.5139 34.5988 32.3464 34.5883 32.1641C34.5735 31.9815 34.5672 31.7851 34.5345 31.576C34.5137 31.3667 34.4673 31.1464 34.4249 30.9147C34.369 30.6845 34.3127 30.443 34.2315 30.196C33.9219 29.2067 33.3498 28.1085 32.494 27.1072C32.0695 26.6048 31.5691 26.134 31.0176 25.7103C30.7435 25.4959 30.4489 25.3035 30.1493 25.1177C29.8437 24.9421 29.5335 24.7692 29.2076 24.6308C28.5625 24.3388 27.8758 24.1461 27.1926 24.0513C27.1069 24.0404 27.0213 24.0348 26.9359 24.0259L26.8081 24.0133L26.6709 24.005C26.4872 23.993 26.3004 23.9876 26.1138 23.9823C25.7396 23.9735 25.3602 23.9788 24.9802 23.9895C23.4575 24.0382 21.9191 24.194 20.4528 24.3107C18.9858 24.4304 17.5859 24.5155 16.3287 24.5018C15.0731 24.493 13.9588 24.379 13.0992 24.1983C12.2418 24.0235 11.3873 23.7446 10.591 23.3308C9.79729 22.9135 9.06529 22.3474 8.51484 21.6702C8.37334 21.5051 8.25133 21.3279 8.13012 21.155C8.01919 20.9757 7.90509 20.8014 7.81524 20.6189C7.62104 20.2605 7.48349 19.8957 7.36808 19.5445C7.15069 18.8373 7.06795 18.1757 7.05082 17.5887C7.03976 17.2943 7.05399 17.0189 7.06848 16.76C7.09509 16.5031 7.11591 16.2614 7.15886 16.0408C7.17915 15.9324 7.19891 15.8262 7.21841 15.7218C7.24081 15.6203 7.2661 15.5237 7.29008 15.4311C7.33725 15.2459 7.3889 15.0794 7.44608 14.9322C7.55332 14.6362 7.6719 14.4156 7.7852 14.2713C7.89745 14.1265 8.00549 14.0588 8.10746 14.0717Z" fill="#861E1D"/>
<path d="M19.0933 16.5697C19.0198 16.4613 19.1228 16.2397 19.395 15.93C19.6765 15.6351 20.1307 15.2491 20.814 14.9282C20.9017 14.8894 20.9903 14.85 21.0796 14.8107C21.1708 14.7713 21.2696 14.7427 21.3684 14.7082C21.565 14.6354 21.7816 14.5904 22.0061 14.5401C22.4596 14.4598 22.9668 14.4314 23.4978 14.5021C24.0279 14.5709 24.5757 14.7408 25.089 15.005C25.6034 15.2684 26.0824 15.6217 26.5069 16.032C26.9325 16.4418 27.4194 17.036 27.859 17.7844C28.2961 18.5336 28.694 19.431 28.982 20.4267C29.2795 21.4355 29.4321 22.4847 29.5981 23.5211C29.7625 24.5556 29.9227 25.5805 30.2168 26.5144C30.3633 26.9809 30.5306 27.4319 30.7432 27.8446C30.9525 28.2573 31.1841 28.6532 31.451 28.991C31.9696 29.6813 32.5925 30.2321 33.1013 30.7273C33.3593 30.9706 33.5864 31.2075 33.7838 31.4163C33.9769 31.6307 34.1337 31.8271 34.2607 31.9861C34.4921 32.3282 34.6067 32.5236 34.583 32.542C34.5622 32.5584 34.3901 32.4071 34.1068 32.1317C33.953 32.0048 33.7711 31.8461 33.5538 31.6724C33.3306 31.5033 33.081 31.3108 32.7933 31.1079C32.2281 30.6936 31.5219 30.2217 30.8486 29.5191C30.1749 28.8272 29.5946 27.9145 29.1738 26.9102C28.7435 25.9065 28.4734 24.8313 28.2168 23.8089C27.9612 22.7872 27.7277 21.7953 27.4105 20.9615C27.0959 20.1119 26.703 19.3687 26.3122 18.7715C25.9183 18.1749 25.5225 17.7295 25.2063 17.4244C24.5726 16.8088 23.8796 16.4102 23.1929 16.2435C22.8495 16.1576 22.5073 16.1254 22.1763 16.1228C22.0108 16.1316 21.8482 16.1294 21.6904 16.1533C21.6116 16.1632 21.5328 16.1659 21.4567 16.1795C21.3808 16.1926 21.3054 16.2055 21.2309 16.2183C20.6375 16.3243 20.1418 16.4895 19.7734 16.5714C19.4103 16.6677 19.1676 16.6795 19.0933 16.5697Z" fill="#861E1D"/>
<path d="M34.6517 24.5987C34.72 24.5438 34.8341 24.5575 34.9845 24.6327C35.0599 24.6704 35.1442 24.7232 35.2362 24.7904C35.3252 24.8597 35.4201 24.9453 35.5215 25.0436C35.9213 25.4376 36.3821 26.0848 36.7002 26.8995C36.8543 27.3064 37.0528 27.9942 37.1342 28.8026C37.2222 29.6101 37.174 30.5255 37.0306 31.3528C36.9969 31.5603 36.9487 31.7613 36.9089 31.9569C36.8838 32.0576 36.8541 32.1593 36.8272 32.2567C36.7982 32.3533 36.7624 32.443 36.731 32.5327C36.5964 32.8844 36.4543 33.182 36.34 33.4339C36.2256 33.6849 36.1402 33.8916 36.0823 34.038C36.0301 34.1847 35.9911 34.2695 35.9713 34.2671C35.954 34.2652 35.945 34.1753 35.9447 34.0101C35.9497 33.8469 35.9785 33.6124 36.0322 33.3335C36.0857 33.0554 36.1616 32.7321 36.2201 32.3887C36.2319 32.3033 36.2488 32.2158 36.2575 32.1285C36.2646 32.0412 36.2715 31.9532 36.2788 31.8643C36.282 31.6743 36.2939 31.4805 36.2918 31.2838C36.2918 30.4968 36.209 29.6759 36.0438 28.9824C35.8836 28.2871 35.6601 27.7188 35.5279 27.3671C35.2538 26.6666 34.9708 26.0382 34.7832 25.5494C34.7353 25.4282 34.6968 25.3136 34.666 25.2098C34.632 25.1081 34.608 25.0152 34.5946 24.9338C34.5674 24.7714 34.5835 24.6536 34.6517 24.5987Z" fill="#861E1D"/>
<path d="M17.2971 5.40274C17.2921 5.29835 17.3667 5.19396 17.5166 5.09038C17.6668 4.98626 17.8921 4.88241 18.1906 4.79569C18.3395 4.74858 18.5068 4.7087 18.6921 4.67444C18.7846 4.65704 18.8813 4.63857 18.9827 4.62331C19.0865 4.61127 19.1925 4.59923 19.3002 4.58665C19.52 4.55935 19.7587 4.55613 20.013 4.54837C20.2683 4.55292 20.5398 4.55854 20.828 4.59146C21.403 4.65222 22.0465 4.78498 22.7247 5.05746C23.0612 5.20012 23.4093 5.3666 23.7466 5.58956C23.9189 5.69395 24.0817 5.82243 24.2496 5.94823C24.4103 6.08366 24.5753 6.22044 24.727 6.37595C25.351 6.98353 25.8527 7.76697 26.204 8.60153C26.5515 9.43877 26.7621 10.325 26.8704 11.2064C26.9845 12.0905 27.0148 13.2275 26.932 14.5002C26.8538 15.7748 26.6685 17.1872 26.4446 18.6647C26.2237 20.1417 25.9592 21.6887 25.8008 23.2272C25.7626 23.6113 25.7299 23.9951 25.7115 24.3744C25.7033 24.5637 25.6949 24.7532 25.6936 24.94L25.6917 25.0797L25.6949 25.2098C25.6975 25.2968 25.6967 25.3838 25.7012 25.471C25.7447 26.1685 25.8833 26.8765 26.1226 27.5499C26.2343 27.8896 26.3813 28.2156 26.531 28.5373C26.6909 28.8537 26.858 29.1655 27.0482 29.4583C27.4229 30.0469 27.8477 30.587 28.3086 31.053C29.2266 31.992 30.2598 32.651 31.2052 33.0377C31.4411 33.1384 31.6732 33.2133 31.8943 33.2872C32.118 33.3474 32.3304 33.4111 32.5338 33.4481C32.7359 33.4968 32.928 33.5185 33.1056 33.5476C33.2835 33.5723 33.4476 33.5814 33.5968 33.5988C33.894 33.6129 34.1304 33.6255 34.2913 33.6255C34.4531 33.6311 34.5422 33.6453 34.5464 33.6689C34.5501 33.6895 34.4703 33.7259 34.3127 33.7767C34.1559 33.833 33.9193 33.8827 33.6102 33.9352C33.4553 33.9513 33.2821 33.9764 33.0919 33.9863C32.9019 33.9919 32.6937 34.0053 32.4716 33.9911C32.2479 33.9887 32.0118 33.9596 31.7594 33.9323C31.5101 33.8916 31.245 33.8485 30.9731 33.7775C29.8817 33.5102 28.6377 32.9363 27.4772 32.0067C26.8951 31.5453 26.3413 30.9912 25.833 30.3619C25.5763 30.0491 25.3413 29.7097 25.1136 29.3582C24.896 29.0004 24.6812 28.6313 24.5025 28.237C24.1305 27.4562 23.8612 26.5963 23.7165 25.6934C23.6994 25.5805 23.6878 25.4659 23.6736 25.3519L23.6535 25.1803L23.6398 25.0173C23.6211 24.8008 23.6098 24.5864 23.599 24.3717C23.5798 23.9435 23.5769 23.5209 23.5803 23.1022C23.6011 21.4299 23.7408 19.8338 23.8477 18.3601C23.9587 16.8875 24.0435 15.5382 24.0535 14.3859C24.0678 13.2326 24.0043 12.2821 23.9149 11.5905C23.8304 10.8956 23.6886 10.2591 23.4936 9.70188C23.2933 9.14809 23.0422 8.67514 22.7279 8.28623C22.6528 8.18532 22.5663 8.097 22.4852 8.00385C22.3959 7.91954 22.3142 7.82746 22.219 7.75064C22.0396 7.58523 21.8388 7.44605 21.6388 7.31061C21.2304 7.04991 20.793 6.84515 20.3687 6.67894C20.1574 6.59302 19.9458 6.52476 19.7456 6.45303C19.5408 6.39281 19.3485 6.32268 19.1614 6.27183C19.0697 6.24372 18.9796 6.21615 18.8913 6.18885C18.8046 6.16369 18.7198 6.13907 18.6368 6.11498C18.4797 6.06573 18.329 6.01835 18.1841 5.97258C17.909 5.87837 17.6895 5.79165 17.5377 5.69877C17.3862 5.60643 17.3021 5.50713 17.2971 5.40274Z" fill="#861E1D"/>
<path d="M18.9379 16.7156C19.0402 16.7991 19.0109 17.044 18.8889 17.404C18.7812 17.7713 18.5827 18.2611 18.4347 18.8542C18.4165 18.9289 18.3983 19.0041 18.3799 19.0801C18.3609 19.1564 18.3524 19.2359 18.3369 19.3151C18.3019 19.4733 18.2921 19.6382 18.2713 19.8052C18.2494 20.1406 18.2557 20.4896 18.3148 20.844C18.4275 21.552 18.7677 22.2835 19.3253 22.9708C19.6017 23.3137 20.0101 23.747 20.5672 24.1895C21.125 24.629 21.8262 25.0805 22.6372 25.4608C23.4325 25.8425 24.3893 26.1511 25.3737 26.4841C26.3592 26.8184 27.3955 27.1704 28.3505 27.68C29.3067 28.18 30.1618 28.8355 30.7926 29.5699C31.434 30.3049 31.8455 31.056 32.21 31.6593C32.3876 31.966 32.5575 32.2332 32.7064 32.4719C32.8603 32.7053 33.0018 32.9012 33.114 33.0672C33.3617 33.3755 33.4953 33.5632 33.4756 33.5859C33.4582 33.6057 33.2766 33.4732 32.9599 33.2125C32.8142 33.0717 32.6337 32.898 32.4379 32.6863C32.2482 32.4706 32.0329 32.2233 31.8134 31.9436C31.3657 31.3914 30.8706 30.7187 30.2298 30.1414C29.917 29.8454 29.5447 29.5815 29.1541 29.339C28.7639 29.093 28.3325 28.8904 27.8846 28.7075C26.9879 28.3411 25.9929 28.1042 24.989 27.8626C23.9835 27.6193 22.9645 27.3885 21.9959 27.0138C21.0396 26.6498 20.1875 26.1817 19.4837 25.6841C18.7812 25.1844 18.2333 24.6474 17.8623 24.186C17.4908 23.7256 17.1791 23.2144 16.9588 22.6737C16.7372 22.1341 16.611 21.5667 16.5825 21.0247C16.5525 20.4819 16.6176 19.9701 16.7301 19.5164C16.7959 19.2926 16.856 19.0766 16.9422 18.8826C16.9836 18.7852 17.0189 18.6872 17.0642 18.5975C17.1095 18.51 17.1546 18.4233 17.1991 18.3371C17.5646 17.6688 17.9772 17.237 18.2874 16.9736C18.6117 16.7212 18.837 16.6332 18.9379 16.7156Z" fill="#861E1D"/>
<path d="M17.2286 11.841C17.9477 12.6277 17.9029 13.8576 17.1288 14.588C16.3543 15.3184 15.1435 15.2729 14.4244 14.4866C13.7053 13.6999 13.7501 12.47 14.5243 11.7396C15.2987 11.0089 16.5093 11.0544 17.2286 11.841Z" fill="#861E1D"/>
<path d="M38.3273 35.066C38.9726 35.7719 38.9323 36.8752 38.2377 37.5306C37.5429 38.1861 36.4567 38.1452 35.8114 37.4396C35.1661 36.7341 35.2064 35.6305 35.901 34.9753C36.5958 34.3195 37.6822 34.3605 38.3273 35.066Z" fill="#861E1D"/>
<path d="M25.7679 32.9788C25.8269 32.9138 25.9437 32.9063 26.1015 32.9454C26.1803 32.9649 26.2696 32.9962 26.3671 33.038C26.4667 33.0771 26.5763 33.1245 26.6918 33.182C27.1579 33.4079 27.7539 33.7411 28.4214 34.0704C28.7571 34.2304 29.2988 34.4975 29.97 34.7095C30.6387 34.9266 31.4382 35.069 32.2103 35.1257C32.4031 35.1421 32.5942 35.1439 32.7807 35.1546C32.8682 35.1538 32.9552 35.153 33.0411 35.1525C33.1272 35.1501 33.2142 35.1394 33.2988 35.1338C33.6397 35.0998 33.9628 35.0471 34.24 35.0136C34.5183 34.9801 34.7509 34.9694 34.9122 34.9775C35.0748 34.9914 35.1623 35.009 35.163 35.0291C35.1638 35.0468 35.0774 35.0781 34.9291 35.1188C34.7807 35.1654 34.571 35.236 34.3156 35.3326C34.0595 35.4295 33.7567 35.5513 33.4021 35.6619C33.3117 35.687 33.2213 35.7167 33.1246 35.739C33.0274 35.759 32.9254 35.782 32.825 35.8C32.6303 35.8259 32.4295 35.8605 32.2234 35.8795C31.401 35.9649 30.4991 35.948 29.7125 35.801C28.9247 35.6603 28.2635 35.4097 27.8754 35.2237C27.0989 34.8412 26.4976 34.3268 26.1402 33.8926C26.0514 33.7829 25.9745 33.6804 25.9128 33.5851C25.8536 33.4869 25.808 33.3977 25.7766 33.3185C25.7142 33.1606 25.7089 33.0439 25.7679 32.9788Z" fill="#861E1D"/>
<path d="M49.2473 11.5979C49.5748 11.9414 49.1975 12.8819 48.4497 14.1645C47.7061 15.453 46.6001 17.0863 45.5232 18.9192C45.2489 19.3756 44.9045 19.9778 44.5248 20.6922C44.1564 21.4109 43.7686 22.2486 43.43 23.179C43.0903 24.1086 42.802 25.1311 42.6078 26.1993C42.4118 27.2667 42.3111 28.3786 42.3003 29.4701C42.2758 31.6561 42.6434 33.7387 42.9817 35.2574C43.3306 36.7764 43.6223 37.7477 43.514 37.7967C43.4402 37.8309 42.8661 36.9961 42.167 35.5502C41.4814 34.1046 40.6877 32.0174 40.322 29.6248C40.1388 28.4324 40.0595 27.172 40.1093 25.9252C40.157 24.6784 40.3336 23.4483 40.6005 22.3182C40.8661 21.1874 41.2184 20.158 41.5802 19.283C41.9522 18.4139 42.3182 17.6901 42.6337 17.1637C43.884 15.0392 45.441 13.4692 46.6939 12.531C47.9577 11.5939 48.9284 11.2631 49.2473 11.5979Z" fill="#861E1D"/>
<path d="M138.387 14.9978C137.634 14.8503 136.859 14.6653 136.068 14.4196C135.278 14.172 134.471 13.8899 133.651 13.5631C132.009 12.9167 130.315 12.1311 128.555 11.349C127.673 10.9601 126.787 10.571 125.887 10.1657C124.987 9.76209 124.078 9.35016 123.158 8.94519C122.238 8.53647 121.306 8.14248 120.366 7.75625C119.422 7.38233 118.473 7.01001 117.509 6.69016C117.03 6.51966 116.544 6.37673 116.06 6.22658C115.818 6.14762 115.573 6.09061 115.33 6.02155C115.085 5.95811 114.843 5.88344 114.597 5.8291C114.107 5.71883 113.618 5.59383 113.124 5.51246C112.878 5.46883 112.633 5.41744 112.386 5.38077C112.139 5.34732 111.893 5.31413 111.646 5.28094C111.523 5.26568 111.4 5.2448 111.276 5.2341L110.906 5.20385C110.659 5.18405 110.413 5.1645 110.167 5.1447C109.924 5.13399 109.681 5.12328 109.439 5.11285C109.196 5.10134 108.954 5.0917 108.712 5.08822C108.47 5.08314 108.228 5.07805 107.987 5.07297C107.745 5.07431 107.504 5.07591 107.263 5.07725L106.902 5.08073L106.541 5.09572C106.301 5.10803 106.061 5.11097 105.822 5.13105C104.865 5.19315 103.916 5.32992 102.989 5.55261C102.873 5.58232 102.757 5.6123 102.642 5.64201C102.527 5.67279 102.411 5.69822 102.298 5.73944C102.071 5.81492 101.844 5.89013 101.619 5.96507C101.397 6.05608 101.175 6.14708 100.955 6.23755C100.844 6.27984 100.737 6.33391 100.63 6.38824C100.523 6.44177 100.416 6.49531 100.309 6.54884C100.202 6.60424 100.094 6.65135 99.9905 6.71372C99.887 6.77474 99.7837 6.83604 99.6807 6.8968C99.4746 7.01858 99.2675 7.13635 99.0728 7.27794C98.8762 7.41579 98.6759 7.5448 98.4851 7.68853C98.2965 7.83654 98.1086 7.98403 97.9218 8.1307C97.8269 8.20163 97.7379 8.28166 97.6485 8.36062C97.5592 8.43931 97.4699 8.518 97.3808 8.59643C97.2917 8.67485 97.2032 8.75328 97.1147 8.83117C97.0264 8.90959 96.9439 8.99551 96.8586 9.07688C96.6894 9.24203 96.521 9.4061 96.354 9.56937C96.2704 9.65476 96.1874 9.7471 96.1047 9.83543C96.0217 9.92456 95.9387 10.0129 95.8615 10.109C95.7829 10.2032 95.7047 10.2971 95.6267 10.3908C95.5497 10.4858 95.4775 10.5867 95.4032 10.6842C95.2525 10.8763 95.1184 11.0867 94.9798 11.2891C94.7142 11.7064 94.4644 12.1333 94.2491 12.5824C94.0259 13.0246 93.8409 13.49 93.6681 13.9539C93.5073 14.426 93.3577 14.8974 93.2481 15.3813C92.7796 17.302 92.774 19.3004 93.1226 21.026C93.2963 21.89 93.5577 22.6844 93.8691 23.3822C94.1803 24.0813 94.5397 24.683 94.9028 25.198C95.2631 25.7197 95.6707 26.1672 96.0857 26.5834C96.1919 26.683 96.2978 26.7823 96.4035 26.8813C96.4551 26.9316 96.511 26.979 96.5684 27.025L96.7387 27.1642C96.8509 27.2606 96.9684 27.3398 97.0846 27.4222L97.2591 27.5448L97.4369 27.6535C97.9099 27.9447 98.395 28.1709 98.8812 28.3325C99.3671 28.4953 99.8535 28.6138 100.335 28.6776C101.299 28.8076 102.243 28.7675 103.143 28.5892C103.594 28.4996 104.034 28.3813 104.461 28.2223C104.676 28.1497 104.884 28.0558 105.092 27.9675C105.195 27.9228 105.296 27.8684 105.398 27.8194C105.5 27.7694 105.602 27.7204 105.7 27.6621C105.799 27.6059 105.898 27.5499 105.996 27.494C106.093 27.4348 106.189 27.3711 106.285 27.3098L106.428 27.2175L106.567 27.1168C106.659 27.0491 106.752 26.9819 106.843 26.9147C106.932 26.8414 107.022 26.7683 107.11 26.6953L107.242 26.5855L107.37 26.467C107.454 26.3877 107.539 26.3088 107.623 26.2298C107.703 26.145 107.784 26.0604 107.864 25.9763C107.945 25.8942 108.021 25.8042 108.096 25.7132C108.171 25.6225 108.248 25.535 108.321 25.4418C108.461 25.248 108.607 25.0666 108.732 24.8594C108.999 24.4654 109.217 24.0264 109.416 23.5859C109.461 23.4719 109.506 23.3581 109.551 23.2446L109.616 23.0746L109.673 22.898C109.711 22.7802 109.748 22.6633 109.785 22.5466C109.815 22.4256 109.845 22.3054 109.875 22.1858L109.918 22.0064C109.931 21.9462 109.941 21.8841 109.952 21.8233C109.974 21.701 109.995 21.5795 110.016 21.4585C110.032 21.3357 110.044 21.2123 110.058 21.09L110.078 20.9069C110.083 20.8456 110.084 20.7838 110.087 20.7225C110.093 20.5999 110.098 20.4775 110.103 20.3563C110.101 20.2342 110.099 20.1125 110.098 19.9917L110.094 19.8111L110.08 19.6312C110.07 19.5118 110.06 19.3933 110.05 19.2752C110.034 19.158 110.017 19.0416 110 18.9257C109.992 18.8678 109.984 18.81 109.975 18.7528L109.94 18.5828C109.916 18.4701 109.894 18.358 109.869 18.2471C109.84 18.1382 109.81 18.0295 109.781 17.9219C109.766 17.8684 109.752 17.8143 109.737 17.7613L109.684 17.6053C109.649 17.502 109.614 17.3992 109.58 17.2972C109.539 17.1985 109.499 17.1005 109.459 17.0028L109.4 16.8575C109.378 16.8104 109.355 16.7643 109.333 16.718C109.288 16.6259 109.244 16.5344 109.2 16.4434C109.154 16.3543 109.103 16.2697 109.055 16.184C108.962 16.0098 108.853 15.8543 108.751 15.6977C108.33 15.0789 107.841 14.6097 107.353 14.2711C106.863 13.933 106.367 13.7344 105.908 13.6445C105.449 13.557 105.027 13.5602 104.662 13.6402C104.616 13.6485 104.571 13.6549 104.527 13.6651C104.483 13.6779 104.44 13.6905 104.398 13.7031C104.314 13.7285 104.233 13.7532 104.153 13.777C104 13.8431 103.857 13.9012 103.728 13.9675C103.604 14.0409 103.489 14.1097 103.381 14.1736C103.343 14.2025 103.307 14.2298 103.271 14.2572C102.468 14.4137 101.876 15.3069 101.902 16.4062C101.932 17.635 102.723 18.6532 103.668 18.6805C104.614 18.7081 105.357 17.734 105.328 16.5055C105.305 15.5422 104.813 14.7106 104.146 14.3819C104.187 14.372 104.228 14.3629 104.271 14.3519C104.344 14.3423 104.419 14.3324 104.497 14.3222C104.536 14.3168 104.575 14.3115 104.615 14.3059C104.655 14.3029 104.696 14.3037 104.737 14.3024C105.066 14.2786 105.434 14.3254 105.822 14.4442C106.209 14.5652 106.618 14.7748 107.014 15.0947C107.409 15.4153 107.799 15.8374 108.126 16.3767C108.205 16.5135 108.291 16.6471 108.361 16.7972C108.398 16.8711 108.437 16.9428 108.472 17.0191C108.506 17.0965 108.539 17.1744 108.573 17.2528C108.59 17.2919 108.608 17.3307 108.624 17.3706L108.668 17.4934C108.698 17.5753 108.727 17.6578 108.758 17.7405C108.783 17.8259 108.808 17.9115 108.834 17.998L108.872 18.1272C108.883 18.1711 108.893 18.2161 108.903 18.2605C108.924 18.3497 108.945 18.4391 108.966 18.529C108.981 18.6203 108.997 18.7123 109.013 18.8047L109.037 18.9433C109.043 18.9902 109.047 19.0373 109.052 19.0844C109.063 19.1786 109.073 19.2731 109.084 19.3684C109.088 19.4639 109.093 19.5597 109.098 19.6564L109.105 19.8012L109.103 19.9468C109.101 20.0437 109.1 20.1414 109.099 20.2396C109.091 20.3368 109.084 20.4347 109.076 20.533C109.072 20.5819 109.07 20.6315 109.064 20.6804L109.044 20.8268C109.029 20.9245 109.017 21.023 109.002 21.121C108.982 21.2176 108.961 21.3148 108.941 21.4122C108.931 21.4609 108.922 21.5102 108.91 21.5586L108.87 21.7021C108.843 21.7979 108.817 21.8943 108.79 21.9906C108.757 22.084 108.724 22.1783 108.69 22.2725L108.641 22.4143L108.582 22.5522C108.543 22.6443 108.503 22.7366 108.464 22.8295C107.785 24.2847 106.615 25.4769 105.189 26.2012C105.102 26.2507 105.011 26.2914 104.92 26.3337C104.829 26.3746 104.739 26.4209 104.646 26.4584C104.459 26.532 104.273 26.6115 104.081 26.6714C103.699 26.8047 103.303 26.9016 102.901 26.9739C102.095 27.1176 101.253 27.1385 100.411 27.014C99.9892 26.9533 99.5692 26.8446 99.155 26.7022C98.7402 26.5609 98.335 26.3666 97.9481 26.1257L97.8024 26.0363L97.6617 25.9357C97.5679 25.8685 97.472 25.8048 97.384 25.7269L97.2485 25.6153C97.2032 25.5794 97.1579 25.5414 97.1131 25.4967C97.023 25.4118 96.9326 25.3265 96.842 25.2413C96.4907 24.8856 96.1466 24.5096 95.8496 24.077C95.549 23.6501 95.2538 23.1579 94.9988 22.5899C94.7434 22.0225 94.5289 21.3793 94.3837 20.6737C94.2383 19.9685 94.1621 19.2016 94.1714 18.4013C94.1679 18.2008 94.1853 17.9996 94.194 17.7956C94.2051 17.5916 94.2309 17.3877 94.2494 17.1805C94.3052 16.7702 94.3687 16.3521 94.4686 15.9389C94.5587 15.5216 94.6862 15.1123 94.8214 14.7007C94.969 14.2962 95.1255 13.8878 95.3176 13.4989C95.5018 13.1035 95.7176 12.7267 95.9468 12.3565C96.0673 12.1777 96.1822 11.9903 96.3134 11.8199C96.3779 11.7334 96.4401 11.6432 96.507 11.5586C96.5748 11.4754 96.6427 11.3916 96.711 11.3078C96.7777 11.2219 96.8501 11.1432 96.9223 11.064C96.995 10.9848 97.0649 10.9039 97.1405 10.8247C97.297 10.6678 97.4543 10.5102 97.6127 10.3515C97.6923 10.2733 97.77 10.1898 97.852 10.1151C97.9342 10.0407 98.0164 9.96604 98.0991 9.8911C98.1819 9.81615 98.2646 9.74094 98.3476 9.66573C98.4306 9.58998 98.5131 9.51316 98.6006 9.44598C98.7729 9.30653 98.946 9.16655 99.1202 9.02549C99.2959 8.88872 99.4791 8.7672 99.6596 8.63631C99.8385 8.50114 100.028 8.39033 100.216 8.2747C100.31 8.21662 100.405 8.15854 100.499 8.10046C100.593 8.04077 100.693 7.99661 100.79 7.94361C100.888 7.89249 100.986 7.84163 101.084 7.79051C101.182 7.73832 101.28 7.68666 101.382 7.64597C101.584 7.55845 101.787 7.47092 101.991 7.3826C102.199 7.30926 102.408 7.23565 102.618 7.16178C102.722 7.12136 102.831 7.09567 102.938 7.06515C103.045 7.03517 103.152 7.00546 103.26 6.97548C104.125 6.75065 105.023 6.60184 105.944 6.52368C106.173 6.49932 106.406 6.49236 106.638 6.4755L106.987 6.45382L107.338 6.44338C107.573 6.43722 107.808 6.43107 108.044 6.42491C108.147 6.42491 108.25 6.42518 108.353 6.42518C108.421 6.47362 108.495 6.52047 108.581 6.56088C108.84 6.68963 109.174 6.76216 109.549 6.83068C109.922 6.8893 110.341 7.03089 110.808 7.15107C111.74 7.39464 112.829 7.81727 114.02 8.34215C115.197 8.91789 116.486 9.62585 117.843 10.3748C119.687 11.3857 121.434 12.2917 122.951 12.9756C123.713 13.3029 124.408 13.61 125.033 13.8262C125.344 13.9394 125.634 14.0452 125.902 14.1426C126.172 14.2237 126.419 14.2978 126.641 14.3645C126.858 14.4603 127.099 14.5666 127.362 14.683C127.627 14.7973 127.915 14.9076 128.223 15.0315C128.841 15.274 129.541 15.5467 130.313 15.8168C131.857 16.3508 133.694 16.9147 135.697 17.0852C136.432 17.1388 137.153 17.1613 137.844 17.097C138.19 17.0823 138.526 17.0191 138.857 16.9787C139.021 16.9522 139.183 16.9145 139.343 16.8829C139.503 16.8465 139.662 16.8248 139.816 16.7731C140.931 16.4841 141.881 15.9943 142.672 15.5248C142.847 15.4892 143.019 15.4482 143.189 15.4035C142.848 15.6503 142.443 15.9196 141.976 16.1926C141.874 16.252 141.77 16.3128 141.663 16.3749C141.555 16.4324 141.444 16.4916 141.331 16.5518C141.108 16.6771 140.867 16.7857 140.623 16.9088C140.128 17.1361 139.596 17.369 139.025 17.5668C138.455 17.7646 137.85 17.9428 137.218 18.0673C136.901 18.1291 136.581 18.1749 136.25 18.2027C136.084 18.2134 135.916 18.2244 135.747 18.2354C135.578 18.2442 135.407 18.2415 135.236 18.2461C133.365 18.2581 131.595 17.9417 130.091 17.6123C128.585 17.2672 127.338 16.9006 126.483 16.6388C126.068 16.4421 125.554 16.2175 124.973 15.9172C124.39 15.619 123.731 15.286 123.009 14.9298C122.297 14.5339 121.525 14.1065 120.705 13.6664C119.893 13.1943 119.037 12.697 118.153 12.1831C117.506 11.7931 116.872 11.4184 116.258 11.0613C115.657 10.7064 115.092 10.307 114.549 9.91947C114.007 9.5311 113.489 9.15584 112.998 8.81752C112.507 8.47866 112.04 8.18316 111.607 7.93076C110.738 7.43265 109.998 7.15589 109.484 7.03598C109.355 7.00788 109.24 6.97977 109.141 6.96237C109.042 6.95086 108.957 6.94123 108.889 6.93346C108.754 6.91874 108.682 6.91071 108.682 6.91071C108.682 6.91071 108.753 6.93105 108.887 6.96986C108.953 6.98887 109.036 7.01242 109.133 7.04026C109.23 7.07345 109.34 7.11949 109.464 7.16633C109.961 7.36252 110.658 7.73269 111.474 8.31458C111.881 8.60955 112.321 8.94546 112.789 9.32366C113.259 9.70534 113.76 10.113 114.287 10.5415C114.819 10.9666 115.39 11.4082 116.011 11.8014C116.621 12.1817 117.255 12.5709 117.907 12.9633C118.796 13.4866 119.671 13.9496 120.496 14.3974C121.335 14.804 122.129 15.1816 122.863 15.5189C123.607 15.8173 124.287 16.0834 124.888 16.3138C125.488 16.5467 126.017 16.7022 126.445 16.8385C127.28 17.2228 128.506 17.7493 130.016 18.2287C131.526 18.6915 133.33 19.1178 135.275 19.1063C135.453 19.1018 135.631 19.1034 135.807 19.0924C135.983 19.0785 136.158 19.0648 136.331 19.0512C136.679 19.0156 137.023 18.957 137.352 18.8799C138.013 18.7252 138.633 18.5065 139.211 18.2629C139.789 18.0196 140.321 17.7354 140.812 17.4551C141.054 17.3058 141.291 17.1701 141.51 17.0178C141.62 16.9436 141.728 16.8714 141.834 16.8004C141.938 16.7247 142.039 16.6506 142.138 16.578C142.78 16.1048 143.288 15.6434 143.664 15.2617C143.947 15.1672 144.22 15.0585 144.48 14.9303C144.939 14.7028 145.356 14.4073 145.705 14.0422C145.661 13.97 145.621 13.8926 145.587 13.8053C145.581 13.7906 145.575 13.7783 145.569 13.7641C145.232 14.1011 144.824 14.3736 144.369 14.5794C144.327 14.5984 144.282 14.6137 144.24 14.6316C144.276 14.5872 144.31 14.5457 144.339 14.5106C144.374 14.467 144.401 14.4338 144.424 14.406C144.608 14.2855 144.776 14.1763 144.921 14.0813C145.212 13.9006 145.421 13.77 145.539 13.6969C145.536 13.6908 145.534 13.6846 145.531 13.6787C145.406 13.732 145.184 13.8265 144.877 13.9571C144.632 14.0741 144.332 14.217 143.984 14.383C143.638 14.5526 143.244 14.7459 142.809 14.9592C142.705 15.0085 142.599 15.0583 142.491 15.1083C141.24 15.3029 139.852 15.2555 138.387 14.9978ZM143.851 14.7794C143.927 14.7293 144.003 14.6798 144.075 14.6319C144.17 14.5695 144.261 14.5106 144.349 14.4533C144.338 14.4627 144.33 14.4705 144.318 14.4809C144.258 14.5374 144.179 14.6102 144.085 14.6929C144.008 14.7229 143.93 14.7521 143.851 14.7794ZM140.964 15.7212C140.562 15.8553 140.137 15.972 139.69 16.0574C139.543 16.0973 139.386 16.1088 139.231 16.1348C139.075 16.1562 138.919 16.1843 138.759 16.202C138.438 16.2247 138.114 16.2724 137.779 16.2745C137.112 16.3136 136.416 16.2782 135.704 16.2269C133.765 16.0625 131.95 15.6078 130.399 15.2044C129.624 15.0002 128.914 14.7986 128.286 14.6276C127.972 14.539 127.678 14.4638 127.41 14.384C127.142 14.304 126.896 14.2304 126.676 14.1645C126.461 14.0693 126.221 13.9633 125.959 13.8474C125.7 13.7189 125.419 13.5797 125.118 13.4306C124.513 13.1477 123.84 12.7735 123.1 12.3886C121.627 11.5881 119.918 10.5977 118.069 9.58436C116.712 8.83518 115.399 8.17032 114.169 7.65427C112.931 7.19309 111.802 6.86816 110.846 6.7271C110.369 6.65831 109.938 6.56891 109.556 6.55928C109.179 6.54108 108.859 6.51699 108.605 6.43214C108.598 6.43 108.593 6.42705 108.586 6.42491C108.642 6.42491 108.698 6.42491 108.754 6.42518C108.991 6.4233 109.229 6.42786 109.469 6.43428C109.708 6.43963 109.947 6.44525 110.187 6.45061C110.424 6.46479 110.661 6.47871 110.899 6.4929L111.255 6.51431C111.374 6.5218 111.493 6.53974 111.613 6.55178C111.851 6.57882 112.09 6.60585 112.328 6.63288C112.567 6.66313 112.806 6.7081 113.045 6.74503C113.523 6.81302 114.001 6.92463 114.479 7.02126C114.718 7.06863 114.956 7.13662 115.195 7.19309C115.434 7.25492 115.673 7.30498 115.911 7.37724C116.387 7.51375 116.864 7.64276 117.337 7.79961C118.286 8.09216 119.228 8.43797 120.165 8.78566C121.101 9.1462 122.03 9.51504 122.951 9.89993C123.872 10.2808 124.786 10.67 125.691 11.0514C126.595 11.4336 127.497 11.8049 128.377 12.1681C130.139 12.9009 131.854 13.6456 133.522 14.2526C134.355 14.5593 135.178 14.8224 135.984 15.0508C136.79 15.2769 137.583 15.4423 138.353 15.5692C139.257 15.7009 140.132 15.7526 140.964 15.7212Z" fill="#861E1D"/>
<path d="M153.414 6.37299C153.414 6.37299 154.525 9.99763 153.209 11.6435C153.209 11.6435 173.678 7.59512 188 7.76027L153.414 6.37299Z" fill="#861E1D"/>
<path d="M89.8318 30.2605C89.8318 30.2605 89.8666 30.1612 89.9346 29.9671C89.9685 29.8697 90.0107 29.7485 90.061 29.6042C90.1137 29.4599 90.1722 29.2918 90.2123 29.0938C90.2592 28.8965 90.3116 28.676 90.3693 28.4326C90.4112 28.1861 90.4418 27.9134 90.4829 27.6179C90.5085 27.4701 90.5116 27.3154 90.5164 27.1548C90.5219 26.9937 90.5274 26.8272 90.5332 26.6549C90.5435 26.3096 90.4974 25.9437 90.4787 25.5521C90.4478 25.3589 90.4162 25.1605 90.3838 24.9566C90.367 24.8543 90.3501 24.7507 90.333 24.6458C90.314 24.5412 90.2813 24.4386 90.2555 24.3329C90.1999 24.1217 90.1427 23.9052 90.0845 23.6836C90.0054 23.4684 89.9248 23.2481 89.8421 23.023C89.4848 22.1336 88.9765 21.2042 88.2592 20.3263C87.537 19.4564 86.6044 18.6468 85.4751 18.0162C85.2021 17.8392 84.8946 17.7239 84.5942 17.5799C84.294 17.4276 83.9755 17.3366 83.6558 17.225C83.4954 17.1709 83.3338 17.1166 83.1713 17.0617C83.0092 17.0041 82.8377 16.9792 82.6693 16.9364C82.4996 16.8979 82.3288 16.8593 82.1568 16.8203C81.985 16.7801 81.8116 16.74 81.6335 16.7247C78.8195 16.2587 75.4857 16.8623 72.6447 18.8416C72.2908 19.0871 71.9596 19.3721 71.612 19.6422C71.2847 19.9361 70.9709 20.2525 70.6471 20.5643C70.3575 20.9077 70.0539 21.2468 69.7722 21.6079C69.6415 21.7966 69.5103 21.9858 69.3788 22.1758C69.2526 22.3696 69.1037 22.5511 68.9991 22.7601C68.8861 22.9646 68.7728 23.1699 68.6587 23.376C68.5438 23.5819 68.4284 23.7888 68.3422 24.0104C68.2489 24.2291 68.1554 24.4483 68.0616 24.6686C68.0157 24.7788 67.9665 24.8891 67.9235 25.0005L67.8168 25.3388C67.6806 25.7925 67.5188 26.244 67.4052 26.7116C67.3085 27.1845 67.2113 27.6605 67.1135 28.1393C66.8229 30.0758 66.8753 32.1239 67.3238 34.1349C67.7696 36.145 68.6094 38.116 69.8247 39.8794C71.037 41.643 72.6288 43.1962 74.4994 44.3683C74.9687 44.6563 75.4631 44.9068 75.9484 45.1753C76.4496 45.4103 76.9679 45.6123 77.4815 45.8297C78.5126 46.2055 79.5761 46.4943 80.6662 46.698C83.6313 47.2325 86.6692 47.0703 89.4502 46.2507C92.2339 45.4413 94.7761 44.0377 96.8541 42.2117C98.94 40.3933 100.572 38.1789 101.683 35.8294C102.804 33.4646 103.381 31.0418 103.672 28.6909C103.936 26.3358 103.862 24.0535 103.502 21.9462C103.162 19.8338 102.535 17.9021 101.783 16.1822C101.032 14.459 100.119 12.9598 99.1711 11.6742C98.2214 10.3879 97.229 9.31777 96.2797 8.43236C95.4075 7.46745 94.3429 6.47068 93.071 5.51354C91.7988 4.55879 90.3135 3.64554 88.6118 2.89583C86.9085 2.15254 85.0345 1.52595 82.9842 1.0993C80.9381 0.672919 78.7278 0.451834 76.4159 0.508846C74.1034 0.554615 71.6966 0.928265 69.2798 1.60625C68.9751 1.6828 68.6766 1.78504 68.3754 1.88247C68.075 1.98257 67.7699 2.07411 67.4695 2.18359C66.8737 2.41511 66.2629 2.62576 65.6724 2.89957C64.4722 3.40384 63.3036 4.03177 62.1476 4.71618C60.9958 5.41049 59.8838 6.20651 58.8008 7.0689C57.7381 7.95593 56.6973 8.90237 55.7369 9.95186C53.8136 12.0439 52.1295 14.4614 50.8402 17.1342C50.5896 17.619 50.3799 18.1214 50.1659 18.6197C49.9411 19.1136 49.7651 19.6256 49.5754 20.1299C49.377 20.6349 49.2334 21.1395 49.0692 21.6421L48.8305 22.3951C48.7615 22.6496 48.6924 22.9036 48.6236 23.1574C48.0698 25.1838 47.6727 27.2389 47.4988 29.291C47.3248 31.3421 47.3633 33.3825 47.6092 35.3498C47.8532 37.3181 48.3016 39.2094 48.8879 40.9883C50.0584 44.5575 51.7683 47.6479 53.5024 50.3844C55.2541 53.1172 57.0675 55.5045 58.7587 57.6409C60.4551 59.7739 62.043 61.6486 63.445 63.2864C64.8479 64.9234 66.0708 66.3179 67.0703 67.4584C69.0769 69.7316 70.1867 70.9894 70.1867 70.9894C70.1867 70.9894 69.217 69.6171 67.4337 67.1592C66.542 65.9314 65.4508 64.4291 64.1844 62.685C62.9225 60.9396 61.4864 58.953 59.9555 56.7274C58.4304 54.4997 56.7967 52.0372 55.2491 49.3007C53.7174 46.5623 52.2439 43.5458 51.2984 40.2198C50.8228 38.5601 50.4771 36.8288 50.3106 35.0454C50.1425 33.2623 50.1548 31.4286 50.3506 29.5737C50.5467 27.7183 50.9395 25.8455 51.4726 23.9751L51.6705 23.2716L51.8997 22.5725C52.0557 22.1081 52.1949 21.6285 52.3759 21.1807C52.5503 20.7267 52.709 20.2645 52.9142 19.8204C53.1087 19.3719 53.2971 18.9184 53.524 18.4824C55.857 13.6667 59.4765 9.738 63.5937 7.10905C64.6268 6.45864 65.6719 5.85079 66.7509 5.35428C67.2811 5.08421 67.8318 4.87409 68.3683 4.64043C68.6389 4.52989 68.9148 4.43647 69.1862 4.33369C69.4587 4.23359 69.7282 4.12786 70.0044 4.0473C72.1928 3.33693 74.3906 2.88566 76.5268 2.73282C80.8008 2.39718 84.7815 3.09389 88.0734 4.26785C91.3667 5.45144 93.9242 7.25385 95.7679 8.9551C97.448 10.8223 99.2446 13.4044 100.437 16.74C101.638 20.0506 102.213 24.1201 101.502 28.3775C101.133 30.4904 100.494 32.6825 99.4425 34.6803C98.3924 36.6881 96.9176 38.5451 95.0813 40.0579C93.2515 41.5771 91.0489 42.7254 88.6663 43.3803C86.2845 44.0444 83.712 44.1568 81.1955 43.7053C80.2717 43.5321 79.3618 43.2883 78.4875 42.9751C78.0686 42.7955 77.6422 42.636 77.2301 42.4489C76.8346 42.2286 76.4272 42.0316 76.0409 41.8017C74.5045 40.8622 73.1835 39.6165 72.1553 38.1872C71.125 36.7582 70.3872 35.1485 69.9659 33.4906C69.5425 31.8319 69.4368 30.1277 69.6157 28.4897C69.6821 28.0828 69.7483 27.6786 69.8139 27.2769C69.8932 26.8775 70.0181 26.4908 70.1145 26.0992C70.3311 25.3262 70.6349 24.6164 70.9888 23.9317C71.0642 23.7534 71.1828 23.6022 71.2784 23.4373C71.3788 23.2751 71.4787 23.1132 71.578 22.9521C71.7962 22.6434 72.0341 22.3522 72.2571 22.0514C72.5142 21.7821 72.7603 21.5035 73.0194 21.242C73.2989 21.004 73.5614 20.7471 73.847 20.5244C76.1382 18.7289 78.9589 18.0004 81.4564 18.2351C81.6145 18.2359 81.7687 18.2613 81.922 18.2865C82.0759 18.31 82.229 18.3331 82.381 18.3564C82.5323 18.3837 82.6872 18.3925 82.834 18.4337C82.9815 18.472 83.1283 18.51 83.274 18.548C83.5647 18.6262 83.8614 18.685 84.1273 18.7985C84.3968 18.9051 84.6772 18.9821 84.9257 19.1203C85.9565 19.5953 86.8429 20.2444 87.558 20.9738C88.2679 21.7104 88.8057 22.5185 89.2086 23.3126C89.3037 23.5149 89.397 23.7127 89.4882 23.9063C89.5609 24.1081 89.6318 24.3051 89.7011 24.4975C89.7343 24.5944 89.7743 24.6884 89.8007 24.785C89.8255 24.8822 89.8502 24.9777 89.8745 25.0725C89.923 25.2625 89.9704 25.4474 90.0162 25.6273C90.0666 25.9945 90.1451 26.3412 90.1659 26.6717C90.1762 26.8374 90.1859 26.9977 90.1954 27.1527C90.206 27.3079 90.2175 27.4584 90.2065 27.6024C90.1944 27.8909 90.1909 28.1599 90.1743 28.4045C90.1419 28.6481 90.1124 28.8689 90.0861 29.0662C90.0666 29.2659 90.026 29.4369 89.9891 29.5841C89.9543 29.7321 89.9253 29.8566 89.9019 29.9564C89.856 30.1577 89.8318 30.2605 89.8318 30.2605Z" fill="#861E1D"/>
<path d="M90.4143 26.8832C87.2354 24.1908 84.1393 29.3705 87.0367 31.1197C89.0451 32.3322 91.5474 29.1385 90.257 27.1736L90.4143 26.8832Z" fill="#861E1D"/>
<path d="M148.542 6.30982C148.874 6.39868 149.126 6.67838 149.263 7.09112C149.398 7.50331 149.412 8.06272 149.226 8.65853C149.136 8.95376 148.912 9.42483 148.571 9.93258C148.231 10.4393 147.735 10.9799 147.166 11.3469C146.598 11.7181 145.99 11.8924 145.555 11.9028C145.341 11.9224 145.161 11.8798 145.042 11.8589C144.922 11.8314 144.855 11.7968 144.848 11.7575C144.834 11.6828 145.057 11.5292 145.337 11.2944C145.62 11.0568 145.923 10.6965 146.143 10.2846C146.594 9.46498 146.709 8.36732 146.86 7.89142C147.009 7.41846 147.252 6.98833 147.553 6.68561C147.852 6.38235 148.211 6.22095 148.542 6.30982Z" fill="#861E1D"/>
<path d="M142.422 7.10236C142.6 6.95595 142.848 6.92945 143.121 7.01777C143.393 7.10717 143.695 7.32076 143.937 7.65855C144.058 7.82503 144.219 8.13365 144.353 8.52122C144.487 8.90772 144.577 9.39325 144.546 9.84961C144.517 10.3076 144.369 10.7091 144.202 10.9505C144.034 11.1925 143.888 11.3014 143.845 11.2794C143.8 11.2578 143.807 11.0752 143.793 10.8292C143.78 10.5803 143.709 10.2714 143.577 9.98852C143.322 9.41707 142.786 8.91949 142.594 8.64835C142.402 8.37989 142.27 8.07663 142.229 7.79211C142.187 7.50839 142.244 7.24823 142.422 7.10236Z" fill="#861E1D"/>
<path d="M12.6627 142.48C12.6105 142.589 12.5586 142.696 12.5075 142.8C12.2862 143.236 12.0856 143.63 11.9096 143.977C11.737 144.326 11.5887 144.627 11.4669 144.873C11.3304 145.182 11.2316 145.404 11.1758 145.53C11.1816 145.533 11.1876 145.536 11.1937 145.539C11.2688 145.421 11.4029 145.212 11.5884 144.922C11.6856 144.777 11.7976 144.609 11.9209 144.425C11.9491 144.403 11.9823 144.376 12.0263 144.341C12.0617 144.314 12.1033 144.28 12.1478 144.244C12.1291 144.287 12.1128 144.332 12.093 144.374C11.8783 144.831 11.5995 145.237 11.259 145.571C11.273 145.577 11.2849 145.585 11.2991 145.591C11.3842 145.627 11.459 145.671 11.5289 145.716C11.8975 145.372 12.1989 144.956 12.435 144.496C12.5681 144.236 12.6822 143.961 12.7829 143.677C13.1686 143.305 13.6361 142.801 14.1185 142.162C14.1926 142.063 14.2679 141.962 14.3454 141.859C14.4181 141.753 14.4922 141.645 14.5678 141.536C14.7235 141.317 14.8629 141.08 15.0166 140.839C15.3054 140.347 15.5989 139.815 15.8537 139.234C16.1085 138.653 16.3401 138.03 16.5098 137.363C16.5941 137.03 16.6611 136.683 16.7053 136.33C16.7235 136.154 16.7414 135.978 16.7599 135.799C16.7754 135.621 16.7783 135.44 16.7875 135.259C16.8503 133.285 16.4782 131.441 16.0624 129.897C15.6305 128.35 15.1449 127.091 14.7884 126.234C14.6656 125.795 14.5262 125.255 14.313 124.639C14.1019 124.023 13.8582 123.325 13.5842 122.561C13.2716 121.807 12.9209 120.991 12.5428 120.129C12.1238 119.279 11.6912 118.378 11.1997 117.461C10.8308 116.79 10.4646 116.136 10.1062 115.506C9.73573 114.865 9.31597 114.274 8.91176 113.722C8.50386 113.175 8.11599 112.656 7.75262 112.169C7.39268 111.684 7.07384 111.228 6.794 110.807C6.24302 109.962 5.89705 109.245 5.71708 108.736C5.67412 108.608 5.6317 108.495 5.60166 108.396C5.57689 108.297 5.55581 108.212 5.53895 108.144C5.50416 108.007 5.48598 107.935 5.48598 107.935C5.48598 107.935 5.49178 108.007 5.50285 108.146C5.50864 108.215 5.51602 108.301 5.52472 108.403C5.53921 108.504 5.56398 108.62 5.58822 108.752C5.69257 109.278 5.94553 110.037 6.41298 110.932C6.64987 111.377 6.92839 111.86 7.24907 112.368C7.56922 112.875 7.92495 113.41 8.2928 113.971C8.65985 114.532 9.03798 115.117 9.37157 115.736C9.70701 116.369 10.059 117.023 10.4256 117.691C10.908 118.602 11.375 119.484 11.8182 120.321C12.2295 121.165 12.6298 121.96 13.0008 122.694C13.3325 123.436 13.6427 124.114 13.9209 124.713C14.2013 125.312 14.4087 125.839 14.5913 126.266C14.8263 127.142 15.1541 128.417 15.4542 129.955C15.7391 131.492 16.0034 133.297 15.9425 135.196C15.9335 135.37 15.9314 135.544 15.9183 135.716C15.903 135.887 15.888 136.057 15.8729 136.225C15.8368 136.56 15.7833 136.884 15.714 137.204C15.5749 137.843 15.3833 138.453 15.1739 139.026C14.9644 139.6 14.7209 140.134 14.4843 140.632C14.3567 140.877 14.2434 141.118 14.1143 141.342C14.0521 141.455 13.9913 141.565 13.9315 141.674C13.8674 141.78 13.805 141.885 13.7438 141.986C13.463 142.454 13.1873 142.857 12.9354 143.197C12.9842 143.026 13.0287 142.853 13.0685 142.675C13.5512 141.885 14.0585 140.933 14.3723 139.809C14.4271 139.654 14.4527 139.493 14.4927 139.331C14.528 139.169 14.5694 139.006 14.6 138.84C14.6487 138.505 14.7196 138.165 14.7433 137.814C14.8247 137.115 14.8216 136.383 14.7884 135.635C14.6732 133.596 14.1668 131.715 13.6819 130.135C13.4366 129.343 13.1865 128.625 12.9641 127.991C12.8503 127.675 12.7494 127.38 12.644 127.108C12.5365 126.837 12.4382 126.59 12.3497 126.367C12.2898 126.14 12.2234 125.887 12.1507 125.611C12.0619 125.336 11.9655 125.039 11.8622 124.72C11.6659 124.079 11.3821 123.366 11.0798 122.583C10.4469 121.025 9.60108 119.227 8.65484 117.328C7.9534 115.93 7.2907 114.603 6.755 113.393C6.2699 112.17 5.88282 111.053 5.66754 110.099C5.56134 109.623 5.43328 109.193 5.38533 108.813C5.32788 108.43 5.26517 108.09 5.14528 107.822C5.10812 107.734 5.06386 107.658 5.01801 107.588C5.02064 107.483 5.02328 107.378 5.02591 107.274C5.0383 107.035 5.05042 106.796 5.0628 106.558L5.0823 106.201L5.11287 105.848C5.13553 105.613 5.1487 105.376 5.17848 105.144C5.2794 104.211 5.44962 103.303 5.69362 102.431C5.72603 102.322 5.75818 102.214 5.79033 102.106C5.82327 101.998 5.85119 101.888 5.89388 101.784C5.97214 101.573 6.04988 101.362 6.12761 101.153C6.21957 100.948 6.31127 100.744 6.4027 100.541C6.44539 100.439 6.49888 100.34 6.5529 100.242C6.60586 100.144 6.65856 100.046 6.71152 99.948C6.76633 99.8508 6.81219 99.7507 6.87332 99.6565C6.93313 99.562 6.99268 99.4675 7.0525 99.3736C7.17134 99.1851 7.28543 98.9959 7.42324 98.8179C7.55684 98.6383 7.68121 98.4552 7.82034 98.2804C7.96368 98.1075 8.10597 97.9352 8.24774 97.7639C8.31625 97.6769 8.39372 97.595 8.4704 97.5128C8.54681 97.4304 8.62296 97.3485 8.69859 97.2666C8.77447 97.1847 8.8501 97.103 8.92546 97.0216C9.00135 96.9403 9.08514 96.8637 9.16446 96.7848C9.32493 96.6282 9.48435 96.4724 9.64271 96.3177C9.72282 96.243 9.80398 96.1742 9.88408 96.1025C9.96392 96.0313 10.0432 95.9598 10.1297 95.8943C10.214 95.8271 10.298 95.7604 10.3818 95.6938C10.4667 95.6282 10.5571 95.5674 10.644 95.504C10.815 95.3753 11.0026 95.2634 11.1818 95.1459C11.5523 94.9229 11.9286 94.7136 12.3228 94.537C12.7107 94.352 13.117 94.204 13.5185 94.0648C13.9272 93.9385 14.3333 93.8196 14.7465 93.7393C15.1557 93.6489 15.5689 93.5953 15.9741 93.5493C16.1786 93.5362 16.3799 93.5153 16.5807 93.5094C16.7817 93.5059 16.9802 93.4936 17.1775 93.5025C17.9654 93.5142 18.7182 93.6117 19.4083 93.7779C20.099 93.9438 20.7264 94.1786 21.2779 94.4529C21.8302 94.727 22.3068 95.0396 22.719 95.3563C23.1369 95.6692 23.4979 96.0284 23.8386 96.3945C23.92 96.4887 24.0014 96.5827 24.0828 96.6766C24.1255 96.7235 24.1619 96.7703 24.1961 96.8174L24.3023 96.9579C24.3766 97.0495 24.4367 97.1485 24.5005 97.2457L24.5959 97.391L24.6799 97.5412C24.9068 97.9403 25.0876 98.3567 25.2156 98.7818C25.3447 99.2063 25.4407 99.6356 25.4894 100.065C25.5895 100.924 25.5471 101.778 25.3843 102.592C25.3023 103 25.1967 103.399 25.0554 103.783C24.9914 103.977 24.9081 104.164 24.8309 104.351C24.7917 104.445 24.7437 104.535 24.701 104.626C24.6573 104.717 24.6148 104.809 24.5637 104.896C23.8135 106.325 22.6093 107.481 21.1593 108.132C21.0668 108.17 20.9748 108.208 20.8831 108.245L20.7459 108.302L20.6049 108.348C20.5111 108.379 20.4178 108.411 20.3248 108.442C20.2291 108.466 20.1335 108.491 20.0386 108.515L19.8966 108.552C19.8486 108.563 19.7999 108.571 19.7519 108.58C19.6555 108.598 19.5593 108.616 19.4637 108.634C19.3667 108.647 19.2695 108.657 19.173 108.669L19.0286 108.686C18.9804 108.69 18.9317 108.691 18.8832 108.694C18.7862 108.699 18.6898 108.704 18.5938 108.709C18.4974 108.708 18.4012 108.707 18.3056 108.705L18.1622 108.704L18.0199 108.693C17.9251 108.685 17.8307 108.678 17.7369 108.671C17.6434 108.658 17.5509 108.645 17.4584 108.632C17.412 108.625 17.3659 108.62 17.3201 108.612L17.1841 108.585C17.0937 108.566 17.0036 108.548 16.914 108.529C16.826 108.506 16.7385 108.482 16.6516 108.459C16.6081 108.447 16.5644 108.437 16.5211 108.424L16.3949 108.381C16.3106 108.353 16.2268 108.325 16.1435 108.298C16.0627 108.265 15.9825 108.232 15.9027 108.2L15.7831 108.152C15.7443 108.134 15.7067 108.115 15.6687 108.097C15.5926 108.061 15.5167 108.025 15.4413 107.989C15.3673 107.952 15.2977 107.909 15.226 107.87C15.0801 107.795 14.9509 107.704 14.8184 107.62C14.2964 107.274 13.8911 106.867 13.586 106.458C13.2817 106.046 13.0861 105.626 12.9773 105.229C12.8706 104.832 12.8342 104.457 12.8664 104.124C12.8688 104.082 12.869 104.041 12.8732 104C12.8796 103.96 12.8861 103.92 12.8925 103.881C12.9046 103.803 12.9162 103.726 12.9275 103.652C12.9394 103.609 12.9494 103.568 12.9602 103.526C13.2661 104.212 14.0714 104.733 15.0189 104.782C16.2273 104.845 17.2055 104.116 17.2033 103.155C17.2012 102.193 16.22 101.364 15.0115 101.301C13.9301 101.246 13.0356 101.824 12.8603 102.635C12.8327 102.67 12.8047 102.706 12.7752 102.744C12.7096 102.852 12.6387 102.967 12.5634 103.091C12.4948 103.22 12.434 103.364 12.3647 103.518C12.3389 103.598 12.3125 103.68 12.2854 103.764C12.2719 103.807 12.2582 103.85 12.2445 103.894C12.2332 103.938 12.2258 103.985 12.2163 104.031C12.1281 104.399 12.1136 104.828 12.1876 105.296C12.264 105.764 12.4464 106.273 12.7663 106.78C13.0867 107.284 13.5354 107.793 14.1333 108.237C14.2848 108.345 14.435 108.46 14.6039 108.559C14.6872 108.61 14.7689 108.663 14.8556 108.712C14.9438 108.76 15.0326 108.807 15.1222 108.855C15.167 108.879 15.2115 108.903 15.2577 108.926L15.3992 108.991C15.494 109.034 15.5897 109.077 15.6856 109.12C15.7852 109.158 15.8853 109.196 15.986 109.235L16.138 109.292C16.1897 109.31 16.2424 109.325 16.2948 109.342C16.4002 109.374 16.5061 109.407 16.6126 109.44C16.7209 109.468 16.8308 109.493 16.9409 109.52L17.1072 109.56C17.1633 109.571 17.2199 109.58 17.2766 109.591C17.3902 109.61 17.5045 109.63 17.6192 109.65C17.7351 109.663 17.8516 109.677 17.9686 109.69L18.1451 109.709L18.323 109.718C18.4418 109.723 18.5614 109.728 18.6816 109.733C18.8012 109.731 18.9216 109.728 19.0426 109.726C19.1029 109.725 19.1638 109.725 19.2244 109.722L19.4052 109.706C19.5258 109.696 19.6478 109.686 19.7691 109.673C19.8887 109.655 20.0088 109.636 20.1298 109.618C20.1899 109.608 20.251 109.6 20.3108 109.588L20.4884 109.549C20.607 109.522 20.7264 109.495 20.846 109.467C20.9617 109.433 21.0779 109.398 21.1949 109.363L21.3704 109.31L21.5395 109.248C21.6523 109.205 21.7653 109.163 21.8789 109.12C22.3179 108.929 22.7556 108.719 23.1503 108.46C23.3574 108.338 23.5398 108.194 23.7342 108.057C23.8278 107.986 23.9158 107.91 24.0072 107.836C24.0989 107.762 24.1893 107.687 24.2723 107.607C24.3574 107.528 24.4425 107.449 24.5282 107.369C24.608 107.286 24.6878 107.202 24.7682 107.119L24.8884 106.992L24.9998 106.861C25.0741 106.773 25.1484 106.684 25.2227 106.596C25.2913 106.504 25.36 106.412 25.4291 106.32L25.5318 106.181L25.6264 106.039C25.6891 105.943 25.7545 105.848 25.8151 105.751C25.8725 105.652 25.9302 105.554 25.9882 105.455C26.0483 105.356 26.0991 105.254 26.1511 105.152C26.2019 105.05 26.258 104.949 26.3047 104.845C26.3972 104.636 26.4949 104.427 26.5721 104.211C26.7397 103.782 26.8678 103.338 26.9679 102.883C27.1668 101.973 27.2314 101.016 27.1289 100.034C27.0788 99.5427 26.975 99.0457 26.8277 98.5481C26.6815 98.0503 26.4717 97.5519 26.1974 97.0637L26.0952 96.8803L25.9793 96.6999C25.9013 96.5797 25.8264 96.4582 25.7345 96.3418L25.6019 96.1654C25.5579 96.106 25.5131 96.0476 25.4649 95.9941C25.37 95.8841 25.2752 95.7738 25.1801 95.6635C24.7811 95.2313 24.3516 94.8054 23.8478 94.4261C23.3506 94.0439 22.768 93.6633 22.0881 93.3287C21.4096 92.9942 20.6344 92.7075 19.7888 92.5086C18.1 92.1093 16.133 92.0622 14.2305 92.4875C13.7515 92.5857 13.2835 92.7254 12.8147 92.8761C12.3539 93.0397 11.8909 93.215 11.4498 93.4299C11.0024 93.6366 10.5755 93.8788 10.1579 94.1376C9.95496 94.273 9.74469 94.4034 9.55128 94.5517C9.45352 94.6245 9.35234 94.6951 9.25668 94.7709C9.16235 94.8477 9.06802 94.9248 8.97316 95.0019C8.87645 95.0776 8.78739 95.1595 8.69753 95.2414C8.60847 95.3231 8.51519 95.405 8.42903 95.4877C8.26407 95.6531 8.09807 95.8196 7.93101 95.9871C7.84853 96.0717 7.76184 96.1531 7.68226 96.2406C7.60321 96.3284 7.52364 96.4165 7.44432 96.5045C7.36501 96.5928 7.28517 96.6812 7.20533 96.77C7.12522 96.8586 7.04433 96.947 6.97187 97.0415C6.82272 97.2275 6.67253 97.4143 6.52181 97.6019C6.37504 97.792 6.24302 97.9919 6.10231 98.1878C5.95765 98.3821 5.83644 98.5891 5.71101 98.7952C5.6483 98.8982 5.58532 99.0015 5.52261 99.1048C5.45858 99.2079 5.4093 99.3173 5.35212 99.4236C5.29679 99.5307 5.24119 99.638 5.18559 99.7456C5.1292 99.8529 5.07334 99.9605 5.02881 100.072C4.93395 100.294 4.83856 100.516 4.74291 100.739C4.66307 100.966 4.58323 101.194 4.50312 101.423C4.45965 101.537 4.43145 101.653 4.39825 101.77C4.36584 101.886 4.33343 102.003 4.30102 102.119C4.05754 103.055 3.89786 104.015 3.8117 104.985C3.78561 105.228 3.77639 105.471 3.75794 105.715L3.7337 106.081L3.72079 106.447C3.71315 106.691 3.70551 106.937 3.6976 107.182C3.69628 107.427 3.69497 107.673 3.69365 107.919C3.69049 108.165 3.69365 108.411 3.69866 108.658C3.70287 108.904 3.70682 109.151 3.71104 109.398C3.72395 109.648 3.73686 109.899 3.74978 110.15L3.7698 110.527C3.77718 110.652 3.79431 110.778 3.80617 110.904C3.83225 111.155 3.8586 111.406 3.88495 111.658C3.91446 111.909 3.95873 112.16 3.99509 112.411C4.06202 112.914 4.17217 113.414 4.26782 113.915C4.31499 114.166 4.38191 114.414 4.43804 114.664C4.49944 114.913 4.54924 115.163 4.62038 115.411C4.7553 115.907 4.88335 116.404 5.03856 116.895C5.32814 117.882 5.66938 118.856 6.01246 119.824C6.36766 120.788 6.73103 121.746 7.10889 122.69C7.48306 123.635 7.86435 124.569 8.23799 125.493C8.61322 126.418 8.97289 127.328 9.33231 128.234C10.0556 130.041 10.7839 131.783 11.3768 133.467C11.6767 134.308 11.9331 135.135 12.156 135.944C12.3768 136.753 12.5386 137.545 12.6638 138.314C12.878 139.807 12.8883 141.217 12.6627 142.48ZM12.2126 144.09C12.1288 144.183 12.0551 144.261 11.9979 144.322C11.9873 144.333 11.9794 144.341 11.97 144.352C12.0287 144.264 12.0891 144.174 12.1531 144.078C12.2021 144.007 12.2527 143.931 12.3041 143.855C12.2751 143.935 12.2443 144.013 12.2126 144.09ZM13.2269 138.293C13.1222 137.507 12.9802 136.698 12.7792 135.873C12.576 135.049 12.3386 134.206 12.0588 133.352C11.5051 131.643 10.8177 129.882 10.1428 128.073C9.80845 127.17 9.46696 126.244 9.11466 125.316C8.76315 124.387 8.40426 123.449 8.0538 122.504C7.69913 121.558 7.3608 120.605 7.03063 119.645C6.71311 118.685 6.39743 117.719 6.13472 116.748C5.9927 116.263 5.87834 115.775 5.7566 115.288C5.69178 115.045 5.64883 114.801 5.59402 114.557C5.54448 114.313 5.48414 114.069 5.44382 113.825C5.36135 113.337 5.26385 112.849 5.20957 112.361C5.17953 112.118 5.14159 111.874 5.11787 111.631C5.09758 111.388 5.07729 111.145 5.057 110.902C5.04804 110.781 5.03382 110.659 5.02934 110.538L5.01774 110.176C5.0101 109.934 5.00272 109.693 4.99508 109.452C4.99613 109.208 4.99693 108.965 4.99798 108.722C4.99772 108.479 4.99956 108.236 5.00773 107.995C5.00905 107.939 5.01063 107.882 5.01194 107.826C5.01379 107.832 5.01669 107.838 5.01853 107.844C5.09521 108.105 5.11049 108.43 5.11866 108.813C5.11787 109.202 5.19481 109.641 5.24988 110.128C5.36345 111.103 5.65331 112.258 6.07464 113.526C6.55 114.789 7.16975 116.14 7.87119 117.538C8.8198 119.442 9.74943 121.203 10.4983 122.72C10.8575 123.481 11.2079 124.175 11.4706 124.797C11.6095 125.106 11.7391 125.395 11.8588 125.662C11.9657 125.931 12.064 126.177 12.152 126.398C12.2111 126.623 12.2769 126.874 12.3486 127.149C12.42 127.423 12.4864 127.724 12.5652 128.045C12.717 128.687 12.8964 129.413 13.0772 130.206C13.4334 131.791 13.8332 133.646 13.9436 135.619C13.9755 136.343 13.9921 137.051 13.9359 137.727C13.9249 138.067 13.8695 138.396 13.8387 138.721C13.8174 138.883 13.7855 139.041 13.7602 139.199C13.7304 139.355 13.7151 139.514 13.6719 139.663C13.576 140.114 13.45 140.542 13.3075 140.947C13.3597 140.104 13.3323 139.215 13.2269 138.293Z" fill="#861E1D"/>
<path d="M3.7793 153.343C3.7793 153.343 7.31706 154.567 8.97132 153.274C8.97132 153.274 4.4478 173.952 4.23305 188.5L3.7793 153.343Z" fill="#861E1D"/>
<path d="M28.9629 89.4099C28.9629 89.4099 28.8612 89.4316 28.6622 89.4739C28.5634 89.495 28.4401 89.5213 28.2936 89.5526C28.1479 89.5863 27.9784 89.6227 27.7813 89.6374C27.5863 89.6591 27.3684 89.6832 27.1279 89.7097C26.8865 89.7201 26.6217 89.7164 26.3374 89.7212C26.1951 89.7287 26.0475 89.7129 25.8949 89.6982C25.7429 89.6845 25.5853 89.6704 25.4225 89.6556C25.0978 89.6257 24.7585 89.5371 24.3985 89.476C24.2225 89.4247 24.0417 89.3717 23.856 89.3173C23.7635 89.2903 23.6699 89.2627 23.5751 89.2349C23.4807 89.2054 23.3896 89.1623 23.295 89.1259C23.1074 89.0505 22.9153 88.9731 22.7187 88.8941C22.5308 88.7965 22.3385 88.6966 22.1419 88.5946C21.3709 88.1645 20.5899 87.5971 19.8837 86.857C19.1846 86.1116 18.5693 85.1943 18.1288 84.1352C17.9994 83.8793 17.9309 83.5926 17.8331 83.3161C17.7282 83.0431 17.6782 82.7404 17.6091 82.443C17.5757 82.2942 17.5422 82.1443 17.5085 81.9934C17.4716 81.8432 17.4671 81.6858 17.4442 81.5314C17.4255 81.3764 17.4065 81.2204 17.3875 81.0635C17.3667 80.9072 17.3459 80.7498 17.3493 80.5892C17.1838 78.047 17.9751 75.2018 19.8028 72.9227C20.0297 72.6384 20.2895 72.3785 20.5308 72.1012C20.7949 71.8451 21.0755 71.6026 21.3474 71.3483C21.6494 71.1299 21.9422 70.896 22.2515 70.6826C22.4128 70.5857 22.5746 70.4886 22.7369 70.3909C22.9016 70.2983 23.0536 70.1818 23.2312 70.1101C23.9142 69.7688 24.6209 69.4792 25.3874 69.2796C25.7753 69.192 26.1592 69.0753 26.5545 69.0055C26.9516 68.9495 27.351 68.8931 27.7531 68.8363C29.3697 68.6979 31.0443 68.85 32.6653 69.3237C34.2859 69.7951 35.8505 70.5868 37.2297 71.6706C38.6094 72.7524 39.8004 74.1266 40.6845 75.7114C40.9008 76.1097 41.0839 76.5283 41.29 76.9359C41.4634 77.3594 41.6088 77.7967 41.7746 78.2266C42.0594 79.1225 42.2755 80.0528 42.4217 80.9955C42.7998 83.5629 42.6215 86.1721 41.9053 88.573C41.198 90.9749 40.0099 93.1815 38.4666 94.9992C36.9296 96.8241 35.0632 98.2729 33.0595 99.286C31.0656 100.302 28.8915 100.893 26.8024 101.211C22.5938 101.822 18.6041 101.131 15.3778 99.8229C12.1267 98.5248 9.6327 96.6322 7.83957 94.8771C6.21377 92.9602 4.5076 90.3157 3.42962 86.9405C2.36139 83.5667 1.78037 79.5063 2.22331 75.1753C2.4299 73.0102 2.93213 70.7905 3.68864 68.5869C3.77507 68.3085 3.88626 68.0376 3.99193 67.7638C4.10023 67.4911 4.19931 67.2132 4.31551 66.9413C4.55978 66.4025 4.78111 65.849 5.06069 65.3177C5.57794 64.235 6.2035 63.1898 6.87094 62.1579C9.56682 58.0464 13.5286 54.4748 18.329 52.2326C18.7643 52.0137 19.2154 51.8343 19.6621 51.6486C20.1045 51.4519 20.5635 51.3028 21.0149 51.1376C21.4605 50.9658 21.9361 50.837 22.3972 50.6909L23.0913 50.4765L23.7888 50.2942C25.6436 49.8023 27.497 49.4527 29.3281 49.3026C31.1586 49.1527 32.9636 49.1883 34.7138 49.4059C36.4645 49.6219 38.1593 50.0185 39.7799 50.5453C43.028 51.5932 45.9582 53.1689 48.6127 54.7963C51.2648 56.4397 53.645 58.1637 55.7973 59.771C57.9472 61.3839 59.8644 62.8945 61.5487 64.2221C63.2317 65.5543 64.6812 66.7015 65.8662 67.6393C68.238 69.5151 69.5631 70.536 69.5631 70.536C69.5631 70.536 68.3547 69.3759 66.1705 67.2783C65.0746 66.2333 63.7345 64.9547 62.1603 63.4871C60.5854 62.0204 58.7822 60.3587 56.728 58.5799C54.6698 56.8064 52.3684 54.902 49.7252 53.0514C47.0778 51.2185 44.0815 49.4008 40.5996 48.1182C38.8645 47.476 37.0149 46.9707 35.0843 46.6712C33.1546 46.3695 31.1478 46.2769 29.1247 46.3993C27.1007 46.5216 25.0675 46.8709 23.0589 47.3797C22.8075 47.4429 22.5556 47.5063 22.3032 47.5697L21.5561 47.7924C21.0573 47.9458 20.5569 48.078 20.0544 48.2664C19.5533 48.4458 19.0447 48.6109 18.5527 48.8261C18.0566 49.0303 17.557 49.23 17.0732 49.4717C14.4089 50.7104 11.9855 52.3565 9.87591 54.2545C8.81769 55.202 7.85881 56.2341 6.9579 57.2898C6.08044 58.3666 5.2678 59.4749 4.55424 60.6261C3.85017 61.7822 3.20143 62.9521 2.67364 64.1576C2.38879 64.7502 2.16508 65.3648 1.9216 65.9635C1.80593 66.2654 1.7079 66.573 1.60145 66.8754C1.49763 67.179 1.38906 67.479 1.3058 67.7866C0.57511 70.2228 0.14376 72.6569 0.0378321 75.004C-0.0791624 77.35 0.0802547 79.6002 0.445994 81.689C0.811734 83.7821 1.37905 85.7015 2.06574 87.4507C2.75874 89.1982 3.61829 90.7306 4.52447 92.0477C5.43302 93.3646 6.38584 94.4716 7.31231 95.3827C8.15868 96.3701 9.18554 97.406 10.4266 98.4041C11.6667 99.4006 13.118 100.367 14.7942 101.175C16.4669 101.984 18.3514 102.672 20.4212 103.073C22.4858 103.494 24.7297 103.629 27.0546 103.423C29.376 103.19 31.7755 102.667 34.1322 101.592C36.4737 100.526 38.6958 98.9265 40.5406 96.8562C42.3922 94.7942 43.8407 92.2498 44.7105 89.4445C45.5903 86.6421 45.8301 83.5618 45.3822 80.5368C45.2104 79.4246 44.9542 78.3369 44.6117 77.2802C44.4114 76.7531 44.2262 76.2213 44.0083 75.7063C43.7566 75.2063 43.5232 74.6978 43.2523 74.2136C42.1479 72.2832 40.6613 70.6259 38.9577 69.3483C37.2542 68.0676 35.3367 67.1629 33.3702 66.6573C31.4029 66.149 29.389 66.042 27.4754 66.2858C27.0014 66.3725 26.5305 66.4587 26.0625 66.5443C25.5993 66.6474 25.1508 66.7997 24.7007 66.926L24.365 67.0256C24.2541 67.0663 24.1445 67.1134 24.0346 67.157C23.8156 67.2467 23.5972 67.3358 23.3796 67.4247C23.1593 67.506 22.9527 67.6179 22.7469 67.7293C22.5411 67.8395 22.3361 67.9493 22.1319 68.0585C21.9232 68.1591 21.7406 68.3055 21.5469 68.4287C21.3564 68.5574 21.1667 68.6856 20.9777 68.8133C20.6149 69.0898 20.2731 69.389 19.9277 69.6741C19.6125 69.9945 19.2929 70.3052 18.9949 70.6296C18.7198 70.9754 18.4307 71.3044 18.1799 71.6572C16.157 74.4901 15.475 77.8594 15.8598 80.7289C15.87 80.9101 15.9048 81.0871 15.9399 81.2627C15.9736 81.4382 16.0073 81.6128 16.0405 81.7862C16.0782 81.9583 16.0982 82.1331 16.1504 82.2993C16.1999 82.4658 16.2492 82.6312 16.2982 82.7955C16.3994 83.1231 16.4808 83.4489 16.6226 83.7578C16.7562 84.0666 16.8616 84.3817 17.0286 84.6638C17.6194 85.827 18.3917 86.7952 19.2289 87.5516C20.0737 88.3032 20.9751 88.8436 21.841 89.2301C22.0602 89.3197 22.275 89.4078 22.4847 89.4934C22.7013 89.5585 22.9126 89.6222 23.1192 89.6843C23.2228 89.7132 23.3226 89.7493 23.4251 89.7713C23.5279 89.7913 23.6294 89.8114 23.7297 89.831C23.9295 89.8692 24.1242 89.9067 24.3134 89.9428C24.6984 89.972 25.057 90.0285 25.3972 90.0271C25.5669 90.0258 25.731 90.0245 25.8897 90.0231C26.0478 90.0226 26.2001 90.0234 26.3463 90.0012C26.6383 89.9672 26.9076 89.9434 27.1513 89.9072C27.3924 89.855 27.6108 89.8077 27.8061 89.7651C28.0021 89.7295 28.1692 89.6744 28.3123 89.6249C28.4556 89.5775 28.5761 89.5379 28.6728 89.506C28.8641 89.4429 28.9629 89.4099 28.9629 89.4099Z" fill="#861E1D"/>
<path d="M25.6241 89.9126C23.0582 86.6137 28.2375 83.6063 29.8823 86.5947C31.0225 88.6661 27.8136 91.1227 25.914 89.7606L25.6241 89.9126Z" fill="#861E1D"/>
<path d="M3.84536 148.396C3.76684 148.057 3.93522 147.697 4.24167 147.401C4.54733 147.104 4.9771 146.868 5.4464 146.73C5.91912 146.589 6.99895 146.49 7.81027 146.053C8.2179 145.841 8.57784 145.544 8.82027 145.266C9.05952 144.99 9.22131 144.77 9.30405 144.788C9.33778 144.795 9.36624 144.863 9.38785 144.985C9.40287 145.105 9.43844 145.289 9.41288 145.504C9.38996 145.942 9.20551 146.553 8.82844 147.121C8.45558 147.689 7.91356 148.181 7.40764 148.516C6.9004 148.851 6.43189 149.068 6.13888 149.152C5.54785 149.326 4.99765 149.296 4.59555 149.148C4.19266 148.998 3.92415 148.735 3.84536 148.396Z" fill="#861E1D"/>
<path d="M4.78662 142.201C4.93497 142.024 5.19241 141.974 5.47066 142.024C5.74945 142.073 6.04431 142.215 6.30359 142.417C6.56551 142.62 7.04535 143.171 7.59817 143.441C7.87222 143.58 8.17155 143.66 8.41529 143.682C8.65613 143.704 8.8369 143.705 8.85982 143.757C8.87747 143.795 8.76548 143.937 8.52385 144.1C8.28275 144.261 7.88592 144.402 7.43586 144.421C6.98712 144.442 6.5115 144.341 6.1339 144.197C5.75551 144.052 5.45459 143.882 5.29412 143.755C4.96791 143.5 4.7658 143.188 4.68491 142.909C4.60507 142.63 4.63774 142.379 4.78662 142.201Z" fill="#861E1D"/>
<path d="M10.5254 46.2355C10.2387 45.872 10.6841 44.9357 11.7589 43.78C12.8329 42.6357 14.5625 41.2648 16.7949 40.2726C17.3488 40.021 18.1013 39.7429 18.9967 39.476C19.8963 39.2207 20.9458 38.9934 22.0839 38.866C23.2212 38.7373 24.4454 38.7121 25.6699 38.8192C26.8949 38.9238 28.117 39.161 29.2598 39.4942C31.5531 40.1615 33.4946 41.2238 34.8202 42.0999C36.1443 42.9893 36.884 43.6793 36.8342 43.761C36.7799 43.8525 35.8711 43.4301 34.4316 42.8841C32.991 42.3488 31.0005 41.7163 28.8596 41.4685C27.7908 41.3429 26.691 41.3065 25.6227 41.3716C24.5542 41.435 23.5187 41.5988 22.568 41.8261C21.6167 42.0522 20.7501 42.3394 20.002 42.6213C19.2568 42.9152 18.6255 43.1871 18.1451 43.4061C16.2192 44.2602 14.4848 45.1686 13.1325 45.7556C11.7855 46.3474 10.8192 46.6089 10.5254 46.2355Z" fill="#861E1D"/>
</svg>
